
<svg width="830" height="1660" version="1.1" xmlns="http://www.w3.org/2000/svg" desc="Created with imagetracer.js version 1.2.6" >
<path fill="rgb(2,2,2)" stroke="rgb(2,2,2)" stroke-width="1" opacity="0.984313725490196" d="M 445.5 206 L 460.5 208 L 464.5 210 L 477.5 212 L 480.5 214 L 482.5 214 L 492.5 216 L 495.5 218 L 508.5 220 L 511.5 222 L 516.5 222 L 521.5 225 L 541.5 228 L 555.5 232 L 557.5 232 L 572.5 235 L 576.5 237 L 584.5 237 L 587.5 239 L 618.5 245 L 622.5 244 L 626.5 246 L 631.5 246 L 650.5 251 L 657.5 251 L 664.5 253 L 666.5 253 L 677.5 254 L 682.5 256 L 694.5 257 L 705.5 260 L 720.5 262 L 725.5 264 L 738.5 266 L 742.5 268 L 746.5 268 L 756.5 272 L 758.5 272 L 773.5 273 L 778.5 275 L 791.5 275 L 803.5 278 L 805.5 278 L 818.5 279 L 820.5 277 L 830 277 L 830 296.5 L 828.5 298 L 826.5 298 L 824.5 297 L 817.5 300 L 801.5 300 L 797.5 298 L 795.5 299 L 792.5 297 L 773.5 295 L 759.5 291 L 757.5 291 L 737.5 288 L 732.5 286 L 730.5 286 L 728.5 285 L 726 286 L 726 284 L 720.5 284 L 720 282.5 L 718.5 283 L 715 282.5 L 715.5 281 Q 713.3 280.3 714 282.5 L 713 282.5 Q 713.9 279.1 708.5 281 L 706.5 281 L 704.5 280 L 702.5 280 L 698.5 279 L 696.5 280 L 690 278.5 L 690.5 277 L 685.5 278 Q 684.8 275.3 680.5 276 L 678.5 276 L 671.5 276 L 671 274.5 L 670 274.5 Q 670.8 276.8 668.5 276 L 659.5 274 L 634.5 272 L 628.5 269 L 626.5 270 Q 624.3 266.5 619 267 L 618.5 269 L 614.5 266 L 611.5 267 Q 607.2 263.8 599.5 264 L 597.5 262 L 592.5 262 L 587.5 260 L 585.5 260 L 578.5 258 L 577 258.5 L 576.5 257 L 574.5 257 L 572.5 256 L 568.5 256 L 558.5 253 L 556.5 253 L 530.5 247 L 525.5 247 L 493.5 237 L 473.5 234 L 457.5 229 L 446.5 229 L 437.5 227 L 429.5 227 L 429.5 229 L 422.5 228 L 419.5 229 L 417.5 229 L 414.5 231 L 401.5 232 L 388.5 235 L 386.5 234 Q 385.8 236.7 381.5 236 L 378.5 235 L 378.5 236 L 380 236.5 L 376.5 237 L 374 236 Q 375.4 240 368.5 238 L 364.5 237 L 364.5 238 L 367 238.5 L 363.5 239 Q 362.3 236.8 357.5 238 L 357.5 239 L 360 239.5 L 356.5 240 L 353.5 239 L 351 239.5 L 353 240.5 L 350.5 241 L 347.5 240 L 347.5 242 L 344.5 240 L 344.5 242 L 339.5 241 L 334 242.5 L 338 243.5 L 334.5 244 L 330.5 243 L 330.5 244 L 333 244.5 L 326.5 246 L 326.5 245 L 329 244.5 L 325.5 244 L 307 248.5 L 310 249.5 L 307.5 250 L 303.5 249 L 303.5 251 Q 302.3 248.7 297.5 250 L 297.5 251 L 299 251.5 L 296.5 252 L 291.5 251 L 282 253.5 L 282.5 255 Q 281.2 252.7 276.5 254 L 276.5 255 L 278 255.5 L 276.5 256 L 272.5 255 L 271.5 256 L 265 256 L 264.5 258 L 259.5 257 L 254.5 258 L 252.5 260 L 252.5 258 L 247.5 260 L 244.5 259 L 217 264.5 Q 219.3 265.8 216.5 267 L 211.5 266 L 201 269 L 199.5 272 L 198 271.5 L 200 270.5 L 197.5 270 L 190 272.5 L 192 273.5 L 190.5 274 L 184 273 L 183.5 275 L 179.5 274 L 173.5 276 L 155.5 277 L 147.5 279 L 136.5 279 L 125.5 282 L 107.5 284 L 102.5 286 L 74.5 288 L 59.5 291 L 51.5 291 L 45.5 293 Q 44.3 290.7 39.5 292 Q 30.5 295.5 18.5 296 L 8.5 300 L 0 300 L 0 280.5 L 2.5 280 L 4.5 280 L 10.5 280 L 19.5 277 L 29.5 277 L 30.5 276 L 40.5 276 L 41.5 275 L 63.5 273 L 64.5 272 L 75.5 271 L 79.5 269 L 81.5 270 L 96.5 267 L 104.5 267 L 142.5 259 L 150.5 259 L 156.5 257 L 168.5 256 L 194.5 250 L 196.5 250 L 236.5 241 L 238.5 241 L 258.5 239 L 284.5 233 L 306.5 230 L 329.5 225 L 331 225.5 L 331.5 224 L 333.5 225 L 336.5 224 L 351.5 220 L 371.5 218 L 387.5 214 L 392.5 214 L 404.5 211 L 411.5 211 L 418.5 209 L 425.5 209 L 426.5 208 L 428.5 209 L 445.5 206 Z " />
<path fill="rgb(2,2,2)" stroke="rgb(2,2,2)" stroke-width="1" opacity="0.984313725490196" d="M 286.5 253 L 289 253.5 L 286.5 254 L 286.5 253 Z " />
<path fill="rgb(2,2,2)" stroke="rgb(2,2,2)" stroke-width="1" opacity="0.984313725490196" d="M 298.5 863 Q 303.8 861.8 305 864.5 Q 304.3 867.1 307 866 L 307 869 L 308.5 869 L 312 874.5 L 303 887.5 L 298 902.5 L 294 908.5 L 286 929.5 L 286 933.5 L 280 954.5 L 282.5 955 L 289.5 956 L 290.5 955 L 309.5 953 L 311.5 953 L 328.5 953 L 329.5 952 L 338.5 952 L 349.5 950 L 351.5 950 L 376.5 949 L 377.5 948 L 392.5 947 L 394.5 947 L 406.5 945 L 408.5 945 L 425.5 941 L 428.5 942 L 430.5 940 L 432.5 941 Q 433.6 938.3 437 939 L 437.5 941 L 439.5 938 L 442 938.5 L 440 939.5 L 443.5 940 L 443.5 938 L 447.5 937 L 447.5 939 L 451.5 936 L 451.5 938 Q 456.9 939.9 456 936.5 L 455.5 935 L 463.5 936 L 463.5 935 L 462 934.5 L 464.5 934 L 468.5 935 L 468.5 934 L 467 933.5 L 479.5 932 L 483.5 933 L 483.5 932 L 481 931.5 L 488.5 930 L 489.5 932 L 490 930 L 500.5 929 L 504 930 Q 502.8 927 506.5 928 L 510.5 929 L 510.5 928 L 508 927.5 L 513.5 927 L 515.5 928 Q 516.5 925 521.5 926 L 524.5 927 L 529.5 925 L 588 924 L 584 916.5 L 573 903.5 L 557 880.5 L 555 873.5 Q 558.1 871.8 556.5 870 L 558 869.5 L 557 867.5 L 559 867.5 L 560.5 865 L 562.5 867 L 565.5 867 L 572 870 L 573.5 873 Q 575.8 872.3 575 874.5 L 595 903 Q 597.7 901.9 597 904.5 Q 608.7 915.8 617 930.5 L 629 954.5 L 632 964.5 L 638 976.5 L 638 979.5 L 641 983.5 L 641 986.5 L 643 988.5 L 647 1001.5 L 653 1014.5 Q 650.5 1016 654 1017.5 L 654 1021.5 L 658 1028.5 L 664 1047.5 L 664 1053.5 L 667 1066.5 L 666 1068.5 L 669 1082.5 L 667 1083.5 L 669 1086.5 L 669 1088.5 L 670 1097.5 L 670 1099.5 L 670 1140.5 L 669 1141.5 L 670 1142.5 L 670 1160.5 L 670 1162.5 L 670 1178.5 L 671 1179.5 L 671 1189.5 L 672 1190.5 L 671 1192.5 L 672 1196.5 L 672 1198.5 L 671 1200.5 L 672 1204.5 L 672 1206.5 L 672 1223.5 L 674 1228.5 L 674 1255.5 L 675 1256.5 L 674 1257.5 L 674 1268.5 L 674 1270.5 L 675 1282.5 L 675 1286.5 Q 672.6 1291.6 674 1300.5 L 673 1301.5 L 674 1305.5 L 672 1309.5 L 673 1312.5 L 672 1317.5 L 673 1318.5 L 673 1346 L 671 1346.5 L 673 1347 L 672 1352.5 L 673 1354.5 L 672 1355.5 L 672 1372.5 L 671 1373.5 Q 673.3 1374.8 672 1379.5 L 671 1384.5 L 671 1386.5 L 671 1404.5 L 670 1405.5 L 671 1406.5 L 671 1414.5 L 670 1416.5 L 670 1418.5 L 671 1421.5 L 670 1423.5 L 672 1426.5 L 671 1427.5 L 671 1438.5 L 670 1439.5 L 671 1442.5 L 669 1449.5 L 669.5 1451 L 668 1451.5 L 670 1452 L 669 1455.5 L 669 1459.5 Q 670.7 1473.2 667 1481.5 L 668 1482.5 L 668 1491 L 666 1491.5 Q 668.7 1493.2 667 1499.5 L 665.5 1502 Q 668.1 1501.2 667 1504.5 L 665 1508.5 L 666 1510.5 L 666 1512.5 L 663 1534.5 L 663 1536.5 L 662 1539.5 Q 664.7 1541.3 663 1547.5 L 662 1548.5 L 662 1562.5 L 661 1563.5 L 662 1567.5 L 662 1569.5 L 661 1574.5 L 662 1576.5 L 660 1580.5 L 661 1583.5 L 661 1585.5 L 660 1588.5 L 661 1590.5 L 660 1593.5 L 659 1596.5 L 659 1598.5 L 658 1603.5 L 659 1605.5 L 658.5 1607 L 667.5 1607 L 668.5 1608 L 669 1606 L 678.5 1605 L 680.5 1605 L 682.5 1604 L 683.5 1605 L 691.5 1605 L 693.5 1607 L 696.5 1606 L 711.5 1609 L 716.5 1608 L 720.5 1609 L 722.5 1608 L 725.5 1609 L 726.5 1608 L 751.5 1608 L 752.5 1607 L 754.5 1607 L 762 1605 L 763 1596.5 L 762 1594.5 L 763 1593.5 L 763 1551.5 L 762 1548.5 L 762 1535.5 L 761 1534.5 Q 762.4 1525.6 760 1520.5 L 761 1518.5 L 760 1515.5 L 759 1510.5 L 759 1506.5 L 760 1503.5 L 757 1487.5 L 757 1485.5 L 757 1475.5 L 755 1466.5 L 755 1464.5 L 754 1457.5 L 754 1455.5 L 753 1441.5 L 752 1439 L 754 1438.5 L 751 1436.5 L 752 1432.5 L 752 1430.5 L 749 1418.5 L 750 1416.5 L 749 1414.5 L 749 1412.5 L 748 1401.5 L 748 1399.5 Q 749.3 1394.8 747 1393.5 L 748 1388.5 L 747 1387.5 L 747 1378.5 L 746 1377.5 L 745 1360.5 L 744 1358.5 L 745 1353.5 L 744 1351.5 L 745 1348.5 L 745 1346.5 L 745 1334.5 L 744 1333.5 L 745 1331.5 L 744 1330.5 L 744 1315.5 L 744 1313.5 L 745 1311.5 L 744 1310.5 L 744 1298.5 L 744 1296.5 L 744 1289.5 L 745.5 1289 L 745 1287.5 L 744 1282.5 L 746 1275.5 L 745 1271.5 L 746 1268.5 L 745 1267.5 L 745 1254.5 L 744 1253.5 L 745 1250.5 L 744 1247.5 L 745 1244.5 L 744 1243.5 L 744 1224.5 L 743 1222.5 L 744 1219.5 L 744 1215.5 L 744 1199.5 L 743 1198.5 L 744 1195.5 L 744 1193.5 Q 745.5 1186 743 1182.5 L 744 1177.5 L 744 1175.5 L 745 1164.5 L 744 1162.5 L 746 1155.5 L 745 1152.5 L 747 1143.5 L 747 1141.5 L 748 1136.5 L 748 1134.5 L 750 1095.5 L 751 1093.5 L 751 1091.5 L 752 1074.5 L 753 1072.5 L 753 1070.5 L 754 1048.5 L 756 1041.5 L 757 1028.5 L 759 1023.5 L 758 1018.5 L 764 992.5 L 771 974.5 L 783 951.5 L 795.5 936 L 815.5 924 L 822.5 918 L 830 917 L 830 937.5 L 827.5 938 L 816.5 946 Q 815 943.5 813.5 947 L 807 951.5 L 787 988.5 L 781 1004.5 L 781 1010.5 L 779 1014.5 L 778 1022.5 L 779 1025.5 L 774 1050.5 L 774 1065.5 L 773 1066.5 L 772 1087.5 L 771 1089.5 L 771 1091.5 L 769 1120.5 L 768 1121.5 L 768 1134.5 L 765 1147.5 L 766 1150.5 L 765 1151.5 L 763 1169.5 L 764 1171.5 L 763 1172.5 L 763 1195.5 L 762 1199.5 L 763 1202.5 L 763 1206.5 Q 764.7 1212.8 762 1214.5 L 763 1215.5 Q 761.3 1223.7 764 1227.5 L 763 1228.5 L 763 1252.5 L 764 1255.5 L 764 1257.5 L 764 1267.5 L 763 1268.5 L 764 1270.5 L 763 1272.5 L 764 1273.5 L 762.5 1276 L 764 1276.5 L 764 1285.5 L 764 1287.5 L 763 1290.5 L 764 1293.5 L 763 1295.5 L 763 1297.5 L 764 1300.5 L 762 1310.5 L 763 1311.5 L 763 1322.5 L 763 1324.5 Q 761.7 1331.3 764 1334.5 L 763 1337.5 L 764 1338.5 L 764 1365.5 L 766 1376.5 L 766 1378.5 Q 764.5 1384 767 1385.5 L 767 1387.5 L 767 1400.5 L 769 1410.5 L 769 1412.5 L 769 1424.5 L 771 1426.5 L 771 1435.5 L 773 1446.5 L 773 1448.5 L 774 1465.5 L 776 1474.5 L 776 1484.5 L 777 1485.5 L 776 1487.5 L 777 1490.5 L 779 1509.5 L 779 1511.5 L 780 1514.5 L 780 1516.5 L 780 1523.5 L 778.5 1524 L 778.5 1525 L 781 1526.5 L 783 1579.5 L 784 1581.5 L 783 1585.5 L 783 1587.5 L 784 1589.5 L 784 1604.5 L 782 1615.5 L 780 1619 L 777 1620.5 Q 777.7 1623.1 775 1622 L 775 1624 L 773 1624 L 773 1622 Q 775.7 1623.1 775 1620.5 L 773.5 1621 L 770.5 1623 L 761.5 1623 L 760.5 1624 L 755.5 1622 L 751.5 1624 L 746 1623 L 746.5 1625 L 748.5 1625 L 750 1625.5 L 735.5 1626 Q 737.2 1624 733.5 1622 L 730.5 1624 L 730 1622 L 723 1622.5 L 723.5 1624 L 721 1623 L 720.5 1621 L 719.5 1623 L 715.5 1621 L 714.5 1624 L 710.5 1622 L 708 1622.5 Q 707.1 1625.9 712.5 1624 L 712.5 1625 L 690.5 1623 L 689.5 1622 Q 688 1624.5 686.5 1621 L 685 1621.5 L 685.5 1623 L 678.5 1624 L 676.5 1624 L 672.5 1625 L 669.5 1624 L 663 1625 Q 664.1 1627.7 661.5 1627 L 659 1625.5 L 658.5 1628 L 654.5 1626 L 652.5 1627 Q 651.3 1624.7 646.5 1626 L 644.5 1627 L 639 1623.5 L 636 1613.5 L 638 1604.5 L 638 1594.5 L 639 1593.5 L 640 1574.5 L 641 1572.5 L 640 1570.5 L 640.5 1568 L 642 1567.5 L 641 1566.5 L 641 1547.5 L 643 1537.5 L 643 1535.5 L 644 1518 L 640.5 1520 L 638.5 1519 L 636.5 1520 Q 635 1517.5 633.5 1521 L 630.5 1520 L 628.5 1522 Q 623 1520.5 621.5 1523 L 601.5 1523 L 600.5 1524 L 598.5 1524 L 586.5 1523 L 579 1518 Q 576.7 1512.4 578 1501.5 L 579 1500.5 L 579 1490.5 L 580 1489.5 L 579 1487.5 L 581 1478.5 L 581 1474.5 L 581 1462.5 L 582 1461.5 L 581 1459.5 L 583 1456.5 L 582 1452.5 L 583 1449.5 L 584 1425.5 Q 581.3 1423.8 583 1417.5 L 584 1416.5 L 585 1390.5 L 586 1389.5 L 586 1387.5 Q 584.4 1377.4 587 1371.5 L 587 1369.5 Q 585.9 1359.9 589 1354.5 L 588 1349.5 L 588 1345.5 L 589 1343.5 L 588 1341.5 L 591 1327.5 L 590 1326.5 L 590 1316.5 L 590 1314.5 L 591 1309.5 L 591 1307.5 Q 589.6 1296.6 592 1289.5 L 591 1286.5 L 593 1281.5 L 592 1277.5 L 592 1275.5 L 593 1272.5 L 593 1270.5 L 593 1259.5 L 594 1258.5 L 594 1256.5 L 595 1243.5 L 594 1241.5 L 595 1238.5 L 594 1234.5 L 595 1233.5 L 595 1224.5 L 594 1219.5 L 595 1216.5 L 594 1214.5 L 595 1211.5 L 594 1209.5 L 594 1207.5 L 595 1202.5 L 594 1200.5 L 595 1197.5 L 594 1193.5 L 595 1191.5 L 594 1189.5 L 595 1187.5 L 595 1185.5 L 595 1175.5 L 596 1174.5 L 595 1173.5 L 595 1133.5 L 594 1132.5 L 594 1130.5 L 595 1127.5 L 594 1126.5 L 594 1116.5 L 590 1093.5 L 590 1091.5 L 584 1043.5 L 582 1036.5 L 582 1029.5 L 578 1020.5 L 578 1018.5 L 575 1003.5 L 572 996.5 L 571 987.5 L 569 984.5 L 565 968.5 L 565 966.5 L 563 956.5 L 557 946.5 L 557 944 L 550.5 945 L 548.5 945 L 524.5 945 L 519.5 947 L 517.5 947 L 507.5 947 L 501.5 949 Q 494.7 947.7 491.5 950 L 489.5 950 L 472.5 953 L 468.5 953 L 460.5 954 L 459 953.5 Q 459.6 956.3 453.5 955 L 452 954.5 Q 452.8 957.1 449.5 956 L 448 955.5 Q 448.9 958.5 444.5 957 L 441.5 958 L 439.5 958 L 433.5 960 L 430.5 959 L 428.5 961 L 423.5 961 L 416.5 964 L 414.5 964 L 412.5 965 L 409.5 964 L 405 964.5 L 405.5 966 L 396.5 967 L 394.5 966 L 390.5 968 L 387.5 967 L 385.5 968 L 382.5 967 L 378.5 969 L 377.5 968 L 369 968 L 368.5 970 L 361.5 970 L 358 970.5 L 357.5 969 L 357 971 L 354.5 970 L 353.5 971 L 339.5 972 L 330.5 975 L 328.5 975 L 304.5 975 L 293.5 977 L 292.5 976 L 277.5 975 L 275 977.5 L 274 981.5 L 274 987.5 L 272 993.5 L 272 1000.5 L 270 1008.5 L 270 1022.5 L 269 1023.5 L 270 1024.5 L 270 1035.5 L 271 1036.5 L 271 1047.5 L 272 1048.5 L 272 1050.5 L 274 1074.5 L 275 1075.5 L 276 1098.5 L 277 1099.5 L 277 1107.5 L 281 1129.5 L 281 1136.5 L 283 1143.5 L 283 1152.5 L 285 1158.5 L 285 1165.5 L 288 1175.5 L 289 1189.5 L 295 1219.5 L 295 1221.5 L 297 1230.5 L 296 1233.5 L 298 1241.5 L 298 1249.5 L 300 1252.5 L 299 1254.5 L 302 1269.5 L 304 1298.5 L 308 1316.5 L 308 1324.5 L 310 1334.5 L 310 1346.5 L 312 1355.5 L 312 1368.5 L 315 1385.5 L 314 1387.5 L 316 1396.5 L 317 1424.5 L 319 1427.5 L 319 1429.5 Q 317.3 1437.7 320 1441.5 L 320 1443.5 L 319 1448.5 L 319 1450.5 L 320 1453.5 L 320 1455.5 L 320 1475.5 L 321 1476.5 L 320 1480.5 L 321 1483.5 L 321 1505.5 L 322 1506.5 L 321 1508.5 L 323 1518.5 L 323 1522.5 L 325 1554.5 L 324 1558.5 L 324 1560.5 L 325 1563.5 L 324 1568.5 L 324 1570.5 L 324 1579.5 L 325 1580.5 L 324 1581.5 L 324 1608.5 L 325 1610.5 L 322.5 1616 L 319 1616 L 319 1618 Q 314.9 1616.7 316 1620 L 318 1620.5 L 317 1623 L 313 1624 L 310.5 1628 L 310.5 1626 Q 307 1628.5 299.5 1627 L 297.5 1626 L 295.5 1627 L 293.5 1627 Q 288 1625.5 286.5 1628 L 284.5 1628 L 272.5 1626 L 271 1626.5 L 271.5 1625 L 268.5 1626 Q 267.3 1623.8 262.5 1625 L 261.5 1626 L 248.5 1627 L 245.5 1626 L 235.5 1628 L 209.5 1629 L 201.5 1627 L 193 1621.5 L 191 1618.5 L 190 1609.5 L 190 1607.5 L 191 1603.5 L 190 1600.5 L 193 1591.5 L 192 1588 L 194 1587.5 L 192 1584.5 L 194 1578.5 L 193 1575.5 L 195 1571.5 L 194 1568.5 L 194 1564.5 L 195 1562.5 L 195 1560.5 L 194 1556.5 L 194 1554.5 Q 195.5 1548.5 192.5 1547 Q 189.3 1550 183 1549 L 182.5 1551 L 182 1549 L 180 1549.5 L 180.5 1551 L 178 1549.5 Q 178.8 1552.1 175.5 1551 L 172.5 1549 L 169.5 1550 L 155.5 1553 L 153.5 1553 L 149 1552 Q 150.1 1554.7 147.5 1554 L 145 1552.5 L 144.5 1554 L 141 1552 L 140.5 1554 L 139.5 1553 L 130.5 1553 L 127.5 1554 L 125.5 1553 L 122.5 1555 L 118.5 1555 L 116.5 1556 L 111.5 1555 L 109.5 1555 L 90.5 1549 L 88 1546.5 Q 88.6 1541.9 86 1540.5 L 88 1539.5 L 88 1535.5 L 89 1531.5 L 88 1527.5 L 90 1523.5 L 90 1521.5 L 93 1500.5 L 93 1498.5 L 94 1491.5 L 93 1489.5 L 93 1487.5 L 92 1484.5 L 93 1482.5 L 92 1480.5 L 93 1478.5 L 92 1476.5 L 92 1474.5 L 92.5 1473 L 93.5 1475 L 94 1471.5 L 93 1467.5 L 95 1465.5 L 93 1461.5 L 93 1450.5 L 92 1449.5 L 93 1446.5 L 93 1444.5 L 94 1435.5 L 93 1432.5 L 93 1430.5 L 94 1426.5 L 92 1423.5 L 93 1420.5 L 93 1418.5 L 92 1414.5 Q 95.5 1413 93 1411.5 Q 91.5 1406 94 1404.5 L 93 1402.5 L 93 1400.5 Q 91.7 1395.7 94 1394.5 L 92 1386.5 L 93 1385.5 L 93 1377.5 L 92 1374 L 94 1373.5 L 92 1373 L 92.5 1370 L 94 1370.5 L 94 1369 L 92 1368.5 L 92 1356.5 L 92 1354.5 L 91 1349.5 L 91.5 1345 Q 93.8 1345.8 93 1343.5 L 91 1336.5 L 91 1325.5 L 90 1324.5 L 91 1322.5 L 90 1318 L 92 1317.5 L 90 1317 L 88 1303.5 L 89 1301.5 L 88 1300.5 L 88 1292 Q 90.7 1293.1 90 1290.5 L 88 1290.5 Q 89.5 1285 87 1283.5 L 89 1283 L 88.5 1281 L 87 1281.5 Q 87.8 1273.8 86 1270 L 88 1269.5 L 86 1269 L 85 1261.5 L 87 1258.5 L 85 1254.5 L 85 1243 L 87 1242.5 L 85 1242 L 86 1239.5 L 86 1237.5 L 84 1232.5 Q 86.5 1231 85 1225.5 L 84 1223.5 L 84 1221.5 L 82 1211.5 L 82 1205.5 L 81 1198.5 L 83 1198.5 Q 83.7 1195.9 81 1197 L 81 1194.5 L 80 1193.5 Q 81.5 1186 79 1182.5 L 79 1180.5 L 80 1178.5 L 78 1170.5 Q 80.5 1169 77 1167.5 L 76 1158.5 L 76.5 1157 L 75 1156.5 L 75 1154.5 L 72 1139.5 L 73 1137.5 L 71 1134.5 L 70 1125.5 L 70 1123.5 L 71 1120.5 L 69 1116.5 L 68 1103.5 L 68.5 1102 Q 65.1 1102.9 67 1097.5 L 65 1086.5 L 65.5 1085 Q 62.9 1085.8 64 1082.5 L 64 1080.5 L 62 1075.5 L 62 1070.5 L 62.5 1069 Q 59.9 1069.8 61 1066.5 L 55.5 1049 L 54 1049.5 L 52 1039.5 L 50 1036.5 L 49 1024 L 47 1023.5 L 47 1021.5 L 45 1014.5 L 45 1007.5 L 43 1003.5 L 45 1002.5 L 43 1002 L 41 993.5 L 39 974.5 Q 35.5 967.5 35 957.5 L 31 947 L 18.5 942 L 16.5 942 L 6.5 939 L 3.5 940 L 0 939.5 L 0 919 L 7.5 919 L 10.5 921 L 31.5 927 Q 47.5 934.7 60 945 L 60 947 Q 62.7 945.9 62 948.5 L 70 959.5 L 74 969.5 L 86 987.5 L 98 1011.5 L 100 1019.5 L 105 1027.5 L 117 1067.5 L 125 1087.5 L 127 1098.5 L 141 1135.5 L 143 1148.5 L 145 1151.5 L 147 1162.5 L 149 1165.5 L 157 1192.5 L 157 1196.5 L 164 1225 Q 167.5 1223.9 166 1231.5 L 172 1251.5 L 174 1266.5 L 180 1287.5 L 182 1303.5 L 184 1307.5 L 185 1319.5 L 192 1345.5 L 194 1367.5 L 204 1423.5 Q 201.5 1425 205 1426.5 L 206 1431.5 L 206 1433.5 L 207 1445.5 L 209 1452.5 L 209 1454.5 L 211 1476.5 L 210 1478.5 L 210 1480.5 L 211 1482.5 L 211 1484.5 L 210 1488.5 L 211 1491.5 L 211 1493.5 L 210 1495.5 L 211 1496.5 L 211 1506.5 L 214 1521.5 L 214 1544.5 L 215 1546.5 L 214 1550.5 L 215 1553.5 L 214 1555.5 L 214 1557.5 Q 215.3 1562.2 213 1563.5 L 213 1565.5 L 212 1572.5 L 213 1577.5 L 213 1579.5 L 212 1582.5 L 213 1584.5 L 211 1588.5 L 211 1594.5 L 211 1608.5 L 212.5 1610 L 219.5 1611 L 220.5 1610 L 233.5 1610 L 243.5 1608 L 248.5 1609 L 249.5 1608 L 266.5 1607 L 267.5 1606 L 271.5 1607 L 273.5 1606 L 280.5 1608 L 282.5 1607 Q 284 1609.5 289.5 1608 Q 293.1 1605.1 300.5 1606 L 302 1604.5 L 303 1592.5 L 302 1587.5 L 303 1585.5 L 303 1583.5 L 303 1572.5 L 302 1571.5 L 303 1570.5 L 303 1542.5 L 302 1541.5 L 301 1514.5 L 301 1512.5 L 300 1504.5 L 300 1502.5 L 300 1480.5 L 298 1473.5 L 299 1468.5 L 298 1466.5 L 298 1464.5 L 299 1461.5 L 298 1459.5 L 299 1458.5 L 299 1443.5 L 298 1440.5 L 299 1437.5 L 298 1436.5 L 298 1426.5 L 296 1420.5 L 295 1392.5 L 294 1391.5 L 295 1387.5 L 293 1383.5 L 291 1351.5 L 289 1343.5 L 289 1328.5 L 287 1323.5 L 287 1321.5 L 287 1313.5 L 283 1294.5 L 282 1273.5 L 279 1260.5 L 276 1229.5 L 274 1224.5 L 272 1204.5 L 269 1193.5 L 268 1178.5 L 264 1161.5 L 263 1149.5 L 262 1148.5 L 262 1139.5 L 257 1112.5 L 254 1068.5 L 251 1051.5 L 251 1049.5 L 250 1024.5 L 249 1023.5 L 249 1006.5 L 251 999.5 L 253 978.5 L 257 963.5 L 257 957.5 L 259 953.5 L 259 948.5 L 269 913.5 Q 278 899 283 880.5 L 295.5 865 L 298.5 863 Z M 475 933 L 475 934 L 477 934 L 475 933 Z M 535 943 L 535 944 L 537 944 L 535 943 Z M 539 943 L 539 944 L 541 944 L 539 943 Z M 544 943 L 544 944 L 547 944 L 544 943 Z M 578 944 L 575 946 L 578 953 L 581 956 L 580 957 L 582 957 L 581 959 L 584 970 L 584 972 L 589 985 L 593 1004 L 597 1015 L 598 1023 L 600 1026 L 602 1043 L 602 1045 L 604 1052 L 603 1056 L 605 1056 L 604 1059 L 605 1066 L 605 1068 Q 608 1069 606 1076 L 606 1078 L 608 1088 L 608 1090 L 610 1101 L 608 1102 L 610 1102 L 611 1104 L 612 1120 L 613 1123 L 612 1125 L 613 1128 L 612 1130 L 614 1131 L 613 1133 L 612 1134 L 614 1136 L 614 1144 L 613 1146 L 614 1149 Q 612 1150 613 1155 L 614 1158 L 613 1160 L 613 1161 Q 615 1160 614 1163 L 613 1166 Q 612 1170 614 1172 L 613 1174 L 613 1176 L 614 1178 L 613 1179 L 613 1187 L 613 1189 L 612 1191 Q 615 1192 613 1199 L 613 1203 L 612 1205 L 613 1207 L 611 1213 Q 614 1214 612 1220 L 612 1222 L 614 1229 L 613 1232 Q 612 1237 614 1239 L 613 1246 L 613 1248 L 612 1251 L 613 1253 L 613 1255 L 612 1258 L 613 1260 Q 611 1261 612 1266 L 610 1268 L 612 1269 L 611 1271 L 611 1273 L 612 1278 L 611 1280 L 612 1284 L 610 1292 L 611 1295 L 609 1296 L 611 1300 L 610 1300 L 610 1302 L 609 1305 L 610 1308 L 610 1310 L 609 1312 L 610 1314 L 609 1319 Q 608 1323 610 1325 L 609 1327 L 610 1329 L 610 1333 L 609 1332 Q 606 1336 607 1343 L 607 1345 L 608 1348 L 607 1352 Q 610 1353 606 1355 L 607 1358 L 606 1361 Q 605 1366 607 1368 Q 604 1368 605 1373 L 605 1375 L 606 1377 L 604 1381 L 605 1383 L 606 1386 L 605 1386 L 605 1390 L 604 1394 Q 606 1395 603 1397 L 605 1397 L 603 1402 L 604 1407 L 603 1411 L 605 1411 L 603 1414 L 604 1417 Q 600 1418 603 1420 L 602 1424 L 602 1426 L 604 1427 L 603 1427 L 603 1428 Q 605 1427 604 1431 L 602 1431 L 603 1436 L 602 1438 L 603 1442 L 601 1443 L 603 1443 L 602 1445 L 603 1448 L 601 1449 L 603 1449 L 603 1450 Q 600 1449 601 1456 Q 604 1457 600 1459 L 602 1459 L 600 1462 L 601 1465 L 601 1464 L 602 1464 Q 603 1467 600 1466 L 601 1469 L 599 1483 L 601 1482 L 599 1485 L 600 1486 L 598 1488 L 599 1493 L 598 1496 L 598 1498 L 599 1501 L 599 1503 L 598 1505 L 600 1507 L 602 1506 L 622 1506 L 636 1502 L 645 1502 L 646 1501 L 646 1493 L 647 1492 L 648 1464 L 648 1462 L 649 1458 L 649 1450 L 648 1449 L 651 1434 L 650 1429 L 650 1427 L 650 1392 L 651 1391 Q 653 1385 650 1384 L 651 1382 L 650 1378 L 651 1376 L 651 1359 L 652 1358 L 651 1354 L 651 1352 L 652 1347 L 652 1320 L 652 1318 L 653 1289 L 654 1288 L 653 1285 L 654 1278 L 653 1274 L 654 1270 L 653 1267 L 653 1250 L 654 1249 L 653 1248 L 653 1225 L 651 1222 L 652 1220 L 651 1219 L 651 1190 L 650 1189 L 651 1187 L 650 1186 L 650 1175 L 649 1173 L 650 1170 L 649 1168 L 650 1166 L 649 1164 L 649 1156 L 650 1155 L 649 1150 L 650 1145 L 649 1141 L 650 1138 L 649 1133 L 650 1131 L 649 1129 L 650 1117 L 649 1114 L 650 1109 L 649 1106 L 650 1104 L 649 1100 L 649 1098 L 650 1096 Q 648 1094 649 1090 L 648 1087 L 649 1083 L 646 1069 L 646 1063 L 644 1057 L 644 1050 L 636 1026 Q 637 1022 634 1023 L 632 1014 L 627 1004 L 625 996 L 617 981 L 616 976 L 602 946 Q 601 943 597 944 L 595 944 L 591 945 Q 582 946 578 944 Z M 366 968 L 366 969 L 368 969 L 366 968 Z M 342 970 L 342 971 L 345 971 L 342 970 Z M 301 973 L 295 975 L 301 975 L 301 973 Z M 58 981 L 63 1010 L 64 1022 L 79 1063 L 83 1089 L 85 1094 L 85 1100 L 85 1102 L 87 1108 L 87 1118 L 88 1119 L 87 1122 L 88 1126 L 88 1128 L 95 1160 L 96 1175 L 97 1176 L 97 1186 L 99 1192 L 99 1203 L 100 1204 L 99 1206 L 101 1210 L 101 1222 L 102 1224 L 102 1228 L 103 1230 Q 104 1234 102 1236 L 103 1242 L 103 1244 L 102 1247 L 103 1248 L 103 1262 L 104 1263 L 105 1283 L 105 1285 L 106 1286 L 106 1299 L 108 1309 L 108 1318 L 108 1320 L 109 1322 L 109 1333 L 109 1335 L 110 1339 L 109 1345 L 110 1348 L 110 1357 L 109 1358 L 110 1359 L 110 1378 L 110 1380 Q 109 1385 111 1387 L 110 1389 L 111 1391 L 111 1393 L 110 1396 L 110 1398 L 111 1400 L 110 1402 Q 109 1407 111 1409 L 110 1410 L 110 1421 L 109 1422 L 110 1426 L 110 1428 L 111 1430 L 111 1432 L 111 1441 L 110 1442 L 111 1448 L 111 1450 L 110 1452 L 111 1458 L 111 1460 L 111 1492 L 110 1492 L 110 1493 L 111 1494 L 111 1501 L 110 1504 L 111 1506 L 108 1519 L 108 1534 L 107 1536 L 111 1538 Q 117 1536 119 1539 L 131 1536 L 133 1537 L 134 1536 L 150 1536 L 152 1536 L 170 1532 L 183 1532 L 185 1532 Q 186 1529 193 1531 L 194 1530 L 193 1525 L 194 1523 L 193 1520 L 193 1518 L 191 1509 L 191 1497 L 190 1496 L 191 1492 L 191 1488 Q 190 1483 193 1483 Q 194 1480 191 1481 L 190 1479 L 191 1477 L 190 1475 Q 189 1470 191 1469 L 189 1461 L 191 1456 L 190 1456 Q 191 1454 188 1453 L 189 1452 L 189 1444 L 188 1444 L 187 1442 L 188 1440 L 186 1436 L 187 1432 L 185 1419 L 184 1423 L 183 1423 L 184 1415 L 184 1413 Q 183 1410 182 1412 L 181 1410 L 182 1408 L 181 1403 L 182 1401 L 179 1399 L 180 1396 L 179 1393 L 180 1390 L 179 1387 L 178 1390 L 177 1386 L 179 1386 L 177 1385 L 175 1376 Q 174 1371 176 1370 L 173 1362 Q 172 1359 175 1360 L 175 1358 L 174 1357 L 174 1356 Q 175 1352 172 1353 L 171 1351 Q 173 1349 172 1345 L 171 1345 L 172 1343 L 170 1342 L 171 1340 L 170 1336 L 169 1336 L 167 1332 L 168 1329 L 166 1327 L 165 1316 L 164 1315 L 166 1314 L 163 1311 Q 165 1305 162 1304 L 163 1302 L 161 1298 L 161 1296 L 159 1289 L 160 1287 Q 157 1288 158 1284 L 158 1282 L 157 1277 L 155 1273 L 156 1270 L 154 1269 L 153 1262 L 153 1260 Q 155 1261 154 1259 L 153 1259 L 152 1258 L 152 1256 L 151 1254 L 152 1251 L 150 1250 L 151 1248 L 148 1243 L 149 1241 L 148 1240 L 148 1239 L 146 1235 L 145 1226 L 143 1224 L 141 1217 Q 140 1212 142 1211 L 140 1210 L 139 1206 L 140 1203 Q 141 1200 138 1201 L 137 1194 L 137 1192 L 135 1190 L 135 1186 L 131 1172 L 127 1164 L 122 1142 L 115 1122 L 115 1120 L 110 1111 L 101 1081 L 101 1079 L 98 1074 L 96 1063 L 90 1048 L 90 1045 L 82 1027 Q 83 1023 80 1024 Q 73 999 58 981 Z M 611 1136 L 609 1138 L 611 1138 L 611 1136 Z M 610 1139 L 612 1141 Q 613 1138 610 1139 Z M 612 1155 L 611 1159 L 612 1159 L 612 1155 Z M 612 1161 L 611 1164 L 612 1164 L 612 1161 Z M 612 1165 L 610 1167 Q 609 1170 612 1169 L 612 1167 L 612 1165 Z M 611 1173 L 611 1179 L 612 1177 L 611 1173 Z M 612 1179 L 610 1181 L 612 1181 L 612 1179 Z M 611 1183 L 609 1188 L 610 1190 L 612 1189 L 611 1183 Z M 611 1192 L 609 1196 L 610 1200 L 608 1200 Q 607 1202 610 1201 L 609 1203 L 610 1205 L 611 1205 L 611 1192 Z M 611 1214 L 610 1217 L 611 1217 L 611 1214 Z M 610 1223 L 610 1224 Q 612 1223 611 1226 L 609 1227 L 611 1227 L 612 1228 Q 614 1222 610 1223 Z M 611 1232 L 609 1238 L 610 1240 L 610 1248 L 609 1249 L 610 1251 L 610 1253 L 609 1255 Q 608 1257 611 1256 L 611 1244 L 612 1243 L 611 1240 L 611 1238 L 612 1235 L 611 1232 Z M 96 1252 L 96 1255 Q 99 1254 96 1252 Z M 611 1258 Q 608 1259 609 1264 L 609 1267 Q 611 1268 610 1265 L 611 1260 L 611 1258 Z M 609 1270 L 610 1272 Q 611 1269 609 1270 Z M 609 1275 L 609 1278 Q 612 1277 609 1275 Z M 609 1279 L 608 1283 L 607 1286 L 609 1286 L 609 1279 Z M 671 1290 L 671 1292 L 673 1291 L 671 1290 Z M 608 1295 L 607 1299 L 608 1299 L 608 1295 Z M 608 1305 L 606 1310 L 608 1310 L 608 1305 Z M 607 1311 L 606 1316 L 608 1317 L 607 1311 Z M 606 1318 L 604 1322 L 606 1322 L 605 1325 L 606 1326 L 608 1321 Q 609 1317 606 1318 Z M 607 1326 L 605 1328 L 606 1330 L 607 1330 L 607 1326 Z M 605 1332 L 606 1336 L 607 1334 Q 608 1331 605 1332 Z M 604 1337 L 605 1341 L 606 1341 Q 607 1336 604 1337 Z M 603 1370 Q 601 1373 604 1372 L 603 1370 Z M 602 1373 L 602 1375 L 604 1374 L 602 1373 Z M 602 1388 L 601 1389 Q 598 1388 599 1391 L 602 1390 L 602 1388 Z M 600 1405 Q 599 1408 602 1407 Q 603 1404 600 1405 Z M 104 1409 L 102 1411 L 103 1414 L 104 1411 L 104 1409 Z M 106 1437 L 107 1439 Q 108 1436 106 1437 Z M 599 1437 L 599 1439 L 601 1438 L 599 1437 Z M 670 1440 L 667 1442 L 670 1442 L 670 1440 Z M 598 1447 L 598 1449 L 600 1448 L 598 1447 Z M 599 1452 Q 597 1455 600 1454 L 599 1452 Z M 104 1461 L 102 1465 L 104 1464 L 104 1461 Z M 595 1490 L 596 1494 L 597 1491 L 595 1490 Z M 595 1495 L 595 1497 L 597 1496 L 595 1495 Z M 175 1547 L 175 1548 L 177 1548 L 175 1547 Z M 741 1623 L 738 1624 L 738 1625 L 745 1625 L 741 1623 Z " />
<path fill="rgb(2,2,2)" stroke="rgb(2,2,2)" stroke-width="1" opacity="0.984313725490196" d="M 162.5 1552 L 166 1552.5 L 162.5 1553 L 162.5 1552 Z " />
<path fill="rgb(2,2,2)" stroke="rgb(2,2,2)" stroke-width="1" opacity="0.984313725490196" d="M 721.5 1624 L 724 1625.5 L 714.5 1626 L 714.5 1625 Q 720 1626.5 721.5 1624 Z " />
<path fill="rgb(2,2,2)" stroke="rgb(2,2,2)" stroke-width="1" opacity="0.984313725490196" d="M 756.5 1624 L 755.5 1626 L 756.5 1624 Z " />
<path fill="rgb(2,2,2)" stroke="rgb(2,2,2)" stroke-width="1" opacity="0.984313725490196" d="M 751.5 1625 L 754 1625.5 L 751.5 1626 L 751.5 1625 Z " />
<path fill="rgb(2,2,2)" stroke="rgb(2,2,2)" stroke-width="1" opacity="0.984313725490196" d="M 762.5 1625 L 768 1625.5 L 762.5 1626 L 762.5 1625 Z " />
<path fill="rgb(2,2,2)" stroke="rgb(2,2,2)" stroke-width="1" opacity="0.984313725490196" d="M 291.5 1628 L 294 1628.5 L 291.5 1629 L 291.5 1628 Z " />
</svg>