
<svg width="830" height="1660" version="1.1" xmlns="http://www.w3.org/2000/svg" desc="Created with imagetracer.js version 1.2.6" >
<path fill="rgb(2,2,2)" stroke="rgb(2,2,2)" stroke-width="1" opacity="1" d="M 410.5 183 L 461.5 183 L 462.5 184 L 464.5 183 L 465.5 184 L 475.5 184 L 486.5 186 L 507.5 187 L 508.5 188 L 515.5 188 L 543.5 193 L 551.5 193 L 563.5 196 L 568.5 196 L 581.5 200 L 585.5 199 L 646.5 219 L 672.5 232 L 697.5 242 L 722.5 255 L 728.5 256 L 730.5 258 L 733.5 258 L 738.5 261 L 754.5 266 L 756.5 266 L 764.5 267 L 775.5 272 L 788.5 273 L 796.5 275 L 804.5 275 L 814.5 278 L 827.5 278 Q 828.7 275.8 830 278.5 L 830 298 L 820.5 298 L 819.5 297 L 804.5 296 L 794.5 293 L 784.5 292 L 782.5 292 L 768.5 290 L 755.5 286 L 753.5 287 L 730.5 278 L 711.5 274 L 704 270 Q 705.1 267.3 702.5 268 L 698.5 265 L 685 260 Q 686.3 256.7 681.5 258 L 670.5 251 Q 669 253.5 667.5 250 L 629.5 235 L 627.5 233 L 604.5 226 L 601.5 224 L 598.5 224 L 591.5 220 L 582.5 218 L 580.5 218 L 552.5 212 L 531.5 210 L 523.5 208 L 515.5 208 L 514.5 207 L 506.5 207 L 505.5 206 L 468.5 204 L 467.5 203 L 410.5 203 L 409.5 204 L 398.5 204 L 396.5 205 L 394.5 205 L 358.5 208 L 350.5 210 L 348.5 210 L 335.5 211 L 315.5 215 L 315.5 214 L 322 212.5 L 316.5 212 L 312 213.5 L 314 214 Q 315.4 218 308.5 216 L 305.5 218 L 297.5 219 Q 296 216.5 294.5 220 L 270.5 224 L 260.5 227 L 260.5 226 L 265 224.5 L 260.5 224 L 258 225.5 L 259 228 L 254 227.5 L 257 227 L 256.5 225 L 250 227.5 L 252 228.5 L 250 229.5 Q 250.9 226.5 246.5 228 L 241 230.5 L 243 231.5 L 241.5 232 L 237 231 Q 238.3 234.7 232.5 233 L 228 234.5 L 233 235.5 L 217.5 239 L 214.5 238 L 214.5 239 L 216 239.5 L 210.5 241 L 208.5 243 L 195.5 246 L 194 245.5 Q 194.8 248.1 191.5 247 L 153.5 260 L 153.5 258 L 149 259 L 148.5 261 L 147.5 259 L 145.5 261 L 141.5 261 L 130 265.5 L 130.5 267 L 127.5 266 L 119 269.5 L 119.5 271 L 116.5 270 L 115.5 273 L 114 272.5 L 116 271.5 L 113.5 271 L 110.5 273 Q 109 270.5 107.5 274 L 93.5 280 L 83.5 282 L 73.5 287 L 67.5 288 L 61.5 292 L 57.5 292 L 44.5 296 L 42.5 295 L 39.5 297 L 23.5 300 L 18.5 299 Q 16.8 301.8 10.5 300 L 6.5 302 L 0 301 L 0 281 L 12.5 281 L 13.5 280 L 27.5 280 L 33.5 278 L 35.5 278 L 49.5 276 L 67.5 268 L 87.5 263 L 141.5 243 L 151.5 241 L 190.5 227 L 237 216 Q 235.7 212.7 240.5 214 L 287.5 202 L 302.5 200 L 305.5 198 L 312.5 198 L 324.5 194 L 338.5 193 L 345.5 191 L 358.5 190 L 364.5 188 L 372.5 188 L 377.5 186 L 379.5 186 L 393.5 185 L 394.5 184 L 409.5 184 L 410.5 183 Z M 340 208 L 337 209 L 337 210 L 347 209 L 340 208 Z M 328 210 L 322 212 L 328 212 L 328 210 Z M 297 216 L 297 218 L 303 217 L 297 216 Z M 294 217 L 291 218 L 291 219 Q 294 220 295 218 L 294 217 Z M 279 220 L 279 221 L 282 221 L 279 220 Z M 274 221 L 274 222 L 277 222 L 274 221 Z M 269 222 L 266 223 L 266 224 L 273 223 L 269 222 Z M 221 236 L 219 237 L 219 238 L 224 237 L 221 236 Z M 160 255 L 160 256 L 162 256 L 160 255 Z " />
<path fill="rgb(2,2,2)" stroke="rgb(2,2,2)" stroke-width="1" opacity="1" d="M 248.5 229 L 247.5 231 L 245 230.5 L 248.5 229 Z " />
<path fill="rgb(2,2,2)" stroke="rgb(2,2,2)" stroke-width="1" opacity="1" d="M 234.5 234 L 237 234.5 L 234.5 235 L 234.5 234 Z " />
<path fill="rgb(2,2,2)" stroke="rgb(2,2,2)" stroke-width="1" opacity="1" d="M 329 868 L 336.5 868 L 340 870 Q 343 873.3 342 881.5 L 340 883.5 L 340 887.5 Q 334 896.9 332 909 L 339.5 907 L 348.5 907 L 355.5 905 L 357.5 905 L 361.5 906 L 372.5 903 L 374.5 903 L 396.5 902 L 397.5 901 L 399.5 901 Q 410.5 903 415.5 899 L 435 899 Q 436.1 896.3 433.5 897 L 416 884 L 415 880.5 L 416 877.5 Q 414.5 873.1 417.5 874 L 423.5 872 L 437.5 878 L 470.5 900 L 507 933.5 L 517 945.5 L 519 950 Q 521.7 948.9 521 951.5 Q 526.8 957.2 529 966.5 L 532 969.5 L 543 994.5 L 550 1005.5 L 562 1035.5 L 566 1054.5 L 568 1058.5 L 568 1062.5 L 570 1066.5 L 571 1078.5 L 574 1091.5 L 574 1101.5 L 575 1102.5 L 575 1134.5 L 575 1136.5 L 574 1140.5 Q 576.5 1142 575 1147.5 L 574 1151.5 L 574 1153.5 L 575 1162.5 L 574 1167.5 L 575 1176.5 L 574 1179.5 Q 575.3 1188.8 572 1193.5 L 573.5 1195 L 581.5 1195 L 582.5 1196 L 585.5 1195 L 588.5 1194 L 589.5 1195 L 605.5 1195 L 608.5 1194 L 636.5 1193 L 637.5 1192 L 656.5 1191 L 664.5 1189 L 666.5 1189 L 688.5 1188 L 689.5 1187 L 712.5 1187 L 713.5 1186 L 729.5 1185 L 737.5 1183 L 745.5 1183 L 751.5 1181 L 753.5 1181 L 757 1181 Q 755.8 1178 759.5 1179 L 764.5 1177 L 766.5 1177 L 769 1175.5 L 768 1160.5 L 767 1159.5 L 768 1158.5 L 768 1149.5 L 768 1147.5 L 768 1131.5 L 769 1130.5 L 769 1116.5 L 770 1114.5 Q 767.7 1113.3 769 1108.5 L 769 1106.5 L 769 1090.5 L 770 1087.5 L 769 1086.5 L 769 1057.5 L 768 1056.5 L 768 1045.5 L 767 1044.5 L 768 1043.5 L 768 1032.5 L 771 1018.5 L 771 1016.5 L 771 1007.5 L 773 997.5 L 772 993.5 L 776 976.5 L 784 957.5 L 802.5 930 L 817.5 921 Q 822.4 918.1 830 919 L 830 937.5 L 827.5 938 L 825.5 938 L 823.5 938 L 816 943.5 L 798 971.5 L 795 980.5 L 795 984.5 L 793 987.5 L 792 996.5 L 792 998.5 L 792 1014.5 L 791 1015.5 L 790 1032.5 L 788 1039.5 L 788 1053.5 L 790 1057.5 L 790 1105.5 L 790 1109.5 L 790 1124.5 L 789 1125.5 L 789 1127.5 L 789 1135.5 L 788 1136.5 L 789 1138.5 L 788 1141.5 L 789 1146.5 L 788 1150.5 L 789 1153.5 L 788 1157.5 L 789 1158.5 L 789 1166.5 L 791 1169.5 L 792 1175.5 L 789.5 1180 Q 788 1177.5 786.5 1181 Q 783.1 1180.1 785 1185.5 L 784 1188 L 786 1188.5 L 782 1191.5 L 784 1192.5 L 765.5 1198 L 757 1198 L 756.5 1200 L 747.5 1200 L 745.5 1201 L 744 1200.5 Q 744.8 1202.8 742.5 1202 L 740.5 1201 L 738.5 1201 L 732.5 1202 L 729.5 1204 L 727.5 1203 L 724.5 1204 Q 719.8 1202.8 718.5 1205 L 715.5 1204 L 713.5 1205 L 711.5 1205 L 709.5 1206 L 708.5 1205 L 686.5 1205 L 683.5 1206 Q 678 1204.5 676.5 1207 L 674.5 1207 L 659.5 1208 L 658.5 1209 L 656.5 1209 L 630.5 1212 L 628.5 1212 L 625.5 1211 L 624.5 1212 Q 614.4 1210.4 608.5 1213 L 604.5 1211 L 585.5 1211 Q 584 1213.5 578.5 1212 L 576.5 1211 L 577.5 1214 L 576.5 1213 L 559.5 1212 Q 558.4 1209.3 555 1210 Q 556.4 1206.3 550.5 1208 L 549.5 1206 L 551 1205.5 L 550 1199 L 548 1198.5 L 551 1194.5 L 551 1192.5 L 554 1178.5 L 554 1170.5 L 553.5 1168 L 551 1169.5 Q 551.8 1171.8 549.5 1171 L 544.5 1175 L 533.5 1176 L 532.5 1175 L 520.5 1175 L 515.5 1176 L 515.5 1175 Q 520.3 1175.8 522 1173.5 L 515.5 1173 L 513.5 1175 L 504.5 1175 L 502.5 1174 Q 501 1176.5 499.5 1173 L 489.5 1174 L 486.5 1172 Q 485 1174.5 483.5 1171 L 480 1168.5 Q 477.2 1162.2 479 1151.5 L 480 1150.5 L 480 1134.5 L 479 1132.5 L 479 1130.5 L 477 1120.5 L 477 1118.5 L 476 1111.5 L 476 1109.5 L 476 1098.5 L 473 1086.5 L 473 1084.5 L 472 1079.5 L 472 1077.5 L 471 1067.5 L 469 1061.5 L 469 1059.5 L 468 1057.5 L 469 1055.5 L 468 1053.5 L 468 1049.5 L 464 1023.5 L 457 998 Q 453.7 999.3 455 994.5 L 441 948.5 L 431 927.5 L 424.5 920 Q 415.5 918.5 411.5 922 L 395.5 922 L 390.5 923 L 388.5 923 L 368.5 924 L 362.5 926 L 360.5 926 L 339.5 927 L 330.5 929 L 326.5 928 L 325 929.5 L 322 943.5 L 322 945.5 L 322 949.5 L 318 963.5 L 319 965.5 L 316 973.5 L 316 978.5 L 314 984.5 L 313 1005.5 L 310 1019.5 L 310 1021.5 L 309 1033.5 L 308 1034.5 L 308 1036.5 L 308 1047.5 L 307 1048.5 Q 308.7 1056.7 306 1060.5 L 306 1062.5 L 306 1106.5 L 307 1108.5 L 307 1112.5 L 307 1146.5 L 308 1147.5 L 307 1149.5 Q 309.5 1151 308 1156.5 L 308 1158.5 L 307 1161.5 Q 309.5 1163 308 1168.5 L 310 1172.5 L 310 1179.5 L 312 1186.5 L 312 1195.5 L 306 1200.5 L 305 1203.5 Q 307.3 1204.8 304.5 1206 L 301 1206 Q 302.3 1209 298.5 1208 L 295.5 1209 L 294.5 1208 L 282.5 1208 L 281.5 1207 L 278.5 1208 L 277 1207.5 L 276.5 1209 L 274.5 1209 Q 266.3 1207.8 261.5 1210 L 259.5 1210 L 240.5 1211 L 237.5 1213 L 228.5 1213 L 227.5 1214 L 223.5 1214 Q 218.7 1212.8 217.5 1215 L 212.5 1214 L 209.5 1215 L 205.5 1214 L 204.5 1215 L 151.5 1215 L 150.5 1216 L 98.5 1217 L 95.5 1216 Q 90.5 1216.5 90 1212.5 L 89 1208 Q 84.9 1209.3 86 1206 Q 89 1207.3 88 1203.5 L 88 1201.5 Q 88.8 1199.3 86.5 1200 L 86.5 1199 L 91 1200 Q 90.3 1196.6 93 1195.5 L 93 1184.5 L 95 1177.5 L 95 1171.5 L 94 1167.5 L 95 1166.5 L 96 1153 L 93.5 1154 L 77.5 1154 L 70.5 1152 L 68 1152.5 L 67.5 1154 L 66.5 1153 L 52.5 1152 L 42 1146 L 38 1136.5 L 40 1135.5 L 39 1132.5 L 43 1116.5 L 43 1106.5 L 44 1105.5 L 45 1093.5 L 45 1091.5 L 45 1077.5 L 47 1067.5 L 47 1065.5 L 47 1046.5 L 45 1037.5 L 45 1035.5 L 44 1018.5 L 43 1017.5 L 43 1006.5 Q 40.5 1005 42 999.5 L 40 995.5 L 40 993.5 L 38 980.5 L 26 947.5 L 27 944.5 L 20.5 940 L 0 940 L 0 921 L 15.5 921 L 18.5 923 L 23.5 923 L 32.5 926 L 52 937 L 53.5 940 L 58 943.5 L 68 957 Q 71.3 955.7 70 960.5 L 74 967.5 L 80 990.5 L 92 1014.5 L 101 1042.5 L 101 1044.5 L 103 1058.5 L 107 1072.5 L 108 1088.5 L 111 1102.5 L 111 1104.5 L 114 1127.5 L 113 1129.5 Q 115.3 1130.8 114 1135.5 L 113.5 1137 L 115 1137.5 L 114 1138.5 L 113 1163.5 L 111 1170.5 L 112 1171.5 L 112 1185.5 L 111 1186.5 L 111 1196 L 121.5 1195 L 122.5 1196 L 150.5 1196 Q 152 1193.5 157.5 1195 L 159.5 1195 L 161.5 1196 L 163.5 1196 L 169.5 1195 L 171.5 1196 L 173.5 1195 L 176.5 1196 L 177.5 1195 L 211.5 1195 L 212.5 1194 L 215.5 1195 L 222.5 1194 L 224.5 1194 L 234.5 1194 L 246.5 1191 L 260.5 1191 L 261.5 1190 L 273.5 1190 L 274.5 1189 L 276.5 1190 L 277.5 1189 L 288.5 1189 L 290 1187.5 L 288 1177.5 L 289 1175.5 L 286 1167.5 L 285 1062.5 L 286 1061.5 L 288 1026.5 L 290 1021.5 L 290 1019.5 L 290 1012.5 L 293 998.5 L 292 994.5 L 293 993.5 L 295 975.5 L 297 970.5 L 297 965.5 L 299 961.5 Q 299.2 950.2 303 942.5 L 305 927.5 L 307 923.5 L 309 912.5 L 311 909.5 L 311 904.5 Q 315.5 898.5 317 889.5 L 319 887.5 L 320 882.5 L 329 868 Z M 448 920 Q 448 926 453 930 L 459 944 L 476 998 L 478 1000 L 481 1009 L 486 1030 L 488 1050 L 488 1052 L 492 1072 L 492 1079 L 494 1084 L 495 1096 L 495 1098 L 496 1100 L 496 1112 L 500 1133 L 500 1155 L 501 1155 L 508 1155 L 511 1156 L 524 1154 L 533 1151 L 538 1151 L 540 1151 L 548 1153 L 552 1152 L 554 1152 L 554 1118 L 553 1117 L 554 1113 L 554 1111 L 553 1110 L 553 1100 L 552 1099 L 551 1088 L 551 1086 L 548 1072 L 548 1070 L 539 1038 L 522 1001 Q 523 997 520 998 L 512 980 L 500 959 L 483 939 L 481 936 L 469 925 Q 466 926 467 923 L 462 920 L 457 921 L 448 920 Z M 60 995 L 59 999 L 61 999 L 60 995 Z M 62 999 L 61 1008 L 62 1009 L 63 1028 L 65 1037 L 65 1046 L 66 1051 L 66 1065 L 65 1066 L 65 1075 L 63 1084 L 64 1087 L 63 1088 L 63 1106 L 63 1108 L 61 1117 L 61 1125 L 61 1127 L 59 1133 L 60 1136 L 77 1136 L 78 1137 Q 89 1139 95 1135 L 94 1134 L 91 1104 L 88 1091 L 86 1071 L 83 1061 L 83 1056 L 79 1047 L 76 1032 L 62 999 Z M 571 1211 L 571 1212 L 573 1212 L 571 1211 Z " />
<path fill="rgb(2,2,2)" stroke="rgb(2,2,2)" stroke-width="1" opacity="1" d="M 586.5 1212 L 589 1212.5 L 586.5 1213 L 586.5 1212 Z " />
<path fill="rgb(2,2,2)" stroke="rgb(2,2,2)" stroke-width="1" opacity="1" d="M 591.5 1212 L 594 1212.5 L 591.5 1213 L 591.5 1212 Z " />
<path fill="rgb(2,2,2)" stroke="rgb(2,2,2)" stroke-width="1" opacity="1" d="M 596.5 1212 L 600 1212.5 L 596.5 1213 L 596.5 1212 Z " />
<path fill="rgb(2,2,2)" stroke="rgb(2,2,2)" stroke-width="1" opacity="1" d="M 579.5 1213 L 583 1213.5 L 579.5 1214 L 579.5 1213 Z " />
</svg>