
<svg width="830" height="1660" version="1.1" xmlns="http://www.w3.org/2000/svg" desc="Created with imagetracer.js version 1.2.6" >
<path stroke="rgb(1,1,1)" stroke-width="1" opacity="1" d="M 344.5 24 L 452.5 24 L 463.5 27 L 486.5 38 Q 497.2 42.8 504 51.5 Q 506.8 54.5 506 60 Q 509 58.8 508 62.5 Q 510.3 63.8 509 68.5 L 508 68.5 Q 509.3 63.7 506 65 L 507 68.5 L 506 73.5 L 500 85 L 497 86.5 L 508 96.5 L 516 109.5 L 518 122.5 Q 515.8 123.7 517 128.5 L 506.5 141 L 496.5 148 L 490 149 L 497 158.5 L 502 168.5 L 504 179.5 L 502 190.5 L 496.5 199 L 487 205.5 L 493 213.5 L 498 224.5 Q 500.7 230.7 499 241.5 L 495 250 L 493 250 Q 494.1 252.7 491.5 252 L 487 255.5 L 506.5 256 Q 508.3 258.7 514.5 257 L 518.5 259 L 531.5 259 L 532.5 260 L 542.5 260 L 543.5 261 L 554.5 262 L 556.5 262 L 560.5 261 L 561.5 262 L 578.5 262 L 579.5 263 Q 587.8 259.3 601.5 261 L 602.5 262 L 617.5 262 L 618.5 263 L 628.5 263 L 639.5 265 L 642.5 264 L 647.5 266 Q 649 263.5 654.5 265 L 655.5 266 L 667.5 266 L 674.5 268 L 683.5 268 L 690.5 270 L 696.5 270 L 704.5 273 L 719.5 276 L 741.5 278 L 742.5 279 L 751.5 279 L 752.5 280 L 765.5 280 L 766.5 281 L 768.5 281 L 773.5 282 L 774.5 281 L 830 281 L 830 300 L 818.5 300 L 817.5 299 L 762.5 298 L 761.5 297 L 743.5 296 L 735.5 294 L 733.5 294 L 728.5 294 L 721.5 292 L 719.5 292 L 714.5 292 L 689.5 286 L 682.5 286 L 667.5 283 L 658.5 283 L 645.5 280 L 605.5 279 L 604.5 278 L 602.5 279 L 598.5 278 L 596.5 278 L 593.5 279 L 589.5 277 L 557.5 276 L 556.5 277 L 542.5 277 Q 541.3 274.8 536.5 276 L 534.5 276 L 515.5 275 L 514.5 276 L 503.5 276 L 502.5 275 L 481 275 Q 484.6 281 483 293.5 Q 481.5 300.4 476.5 304 L 460.5 309 L 458.5 309 L 436.5 312 L 428 308.5 Q 430.5 307 427 305.5 L 427 302 Q 429.7 303.1 429 300.5 L 428.5 299 L 431 299 L 431.5 297 L 435.5 297 L 436.5 296 L 451.5 295 L 462 290.5 L 461 280.5 L 458.5 277 L 451.5 276 L 443 273 L 441 265.5 L 448.5 256 L 461.5 252 L 478 238.5 L 478 231.5 L 468.5 216 L 464.5 214 L 457.5 213 L 450 208.5 L 448 202.5 L 453.5 195 L 458.5 195 L 472.5 191 L 481 184.5 Q 479.7 179.8 482 178.5 L 474 162 L 470.5 161 L 468.5 162 L 465.5 161 L 462.5 162 L 456 157.5 Q 456.8 154.9 453.5 156 L 445 151.5 L 446 149.5 L 444 148.5 L 446.5 143 L 449.5 141 L 450.5 140 L 460.5 140 L 471.5 136 L 484.5 134 Q 492 131 496 124.5 Q 499.4 121.9 498 114.5 L 489.5 103 L 481.5 99 L 470.5 98 L 465.5 96 L 463.5 96 Q 456 95.5 453 90.5 L 451 83.5 L 461.5 76 L 470.5 74 L 473.5 75 L 484 70.5 L 486 65.5 L 486 61.5 L 477.5 55 L 456.5 45 L 435.5 40 L 420.5 40 L 418.5 40 L 409.5 40 L 408.5 39 L 406.5 39 L 391.5 40 L 385.5 42 L 361.5 42 L 360.5 43 L 352.5 43 L 343.5 45 L 334.5 45 L 324.5 47 L 300.5 56 L 294.5 57 L 253.5 78 L 234.5 91 L 217 107.5 L 203 125.5 L 194 143.5 L 191 146.5 L 185 160.5 L 179 180.5 L 179 185.5 L 177 190.5 L 176 203.5 L 175 204.5 L 175 214.5 L 174 215.5 L 175 216.5 L 175 225.5 L 174 227.5 L 175 230.5 Q 172.5 232 174 237.5 L 175 240.5 L 174 244.5 L 175 245.5 L 175 265.5 L 176 266.5 L 178 288.5 L 177 291.5 L 177 293.5 L 173.5 300 Q 170.9 299.3 172 302 L 169.5 302 Q 168.2 305.3 162.5 304 L 156 299.5 L 155 292.5 L 156 287 L 112.5 288 L 108.5 287 L 106.5 287 L 104.5 288 L 77.5 289 L 76.5 290 L 61.5 290 L 60.5 291 L 58.5 290 L 54.5 292 L 33.5 293 L 20.5 298 L 18.5 297 L 13.5 299 L 0 299 L 0 280 L 14.5 280 L 16.5 280 L 25.5 277 L 42.5 276 L 56.5 272 L 58.5 273 L 59.5 272 L 72.5 272 L 86.5 269 L 97 269 L 95 258.5 L 95 208.5 L 97 202.5 L 97 200.5 L 97 195.5 L 99 189.5 L 99 187.5 L 102 172.5 L 107 159.5 L 124 131.5 L 141 110 Q 143.7 111.1 143 108.5 L 151.5 100 L 153 100 L 154.5 97 Q 167 86 182.5 78 L 205.5 71 L 220.5 70 L 227.5 73 L 248.5 59 L 264.5 52 L 273.5 46 L 276 46 Q 274.8 43 278.5 44 L 286.5 39 L 313.5 30 L 344.5 24 Z M 205 89 L 190 95 L 168 111 Q 169 113 167 112 L 163 117 L 161 118 L 159 121 L 155 124 Q 156 126 154 125 L 139 145 L 121 177 L 115 204 L 114 219 L 114 225 L 113 227 L 113 237 L 114 238 L 113 240 L 114 241 L 114 254 L 116 264 L 116 266 L 117 269 L 127 269 L 128 268 L 155 268 L 155 261 L 154 260 L 155 258 L 155 235 L 156 234 L 156 223 L 157 222 L 158 193 L 160 188 L 163 170 L 163 168 L 171 145 L 178 133 L 178 130 L 186 115 L 193 106 Q 192 103 195 104 L 207 90 L 205 89 Z " />
<path stroke="rgb(1,1,1)" stroke-width="1" opacity="1" d="M 441.5 914 L 443.5 914 L 457 915.5 L 455 916.5 L 458 917 L 458.5 915 L 472.5 918 L 480.5 922 L 483.5 922 L 485.5 924 L 495.5 927 L 498.5 930 L 500 929.5 Q 499.3 931.8 501.5 931 L 506 933.5 L 505.5 935 L 510 938.5 Q 509.3 940.8 511.5 940 L 525 955.5 L 530 966 Q 532.7 964.9 532 967.5 L 536 978.5 L 536 983.5 L 540 998.5 L 541 1028.5 L 540 1029.5 L 540 1039.5 L 539 1040.5 L 539 1047.5 L 538 1048.5 L 536 1065.5 L 526 1098.5 L 524 1100.5 L 521 1109.5 Q 523.5 1111 520 1112.5 L 518 1118.5 L 518 1120.5 L 517 1123.5 L 518 1126 L 520.5 1125 L 543.5 1125 L 544.5 1124 L 547.5 1125 L 550.5 1124 L 633.5 1124 L 634.5 1125 L 636.5 1124 L 638.5 1124 L 640.5 1125 L 756.5 1125 L 759 1126 L 762 1112.5 L 762 1110.5 L 759 1087.5 L 753 1068.5 L 751 1053.5 L 751 1051.5 L 751 1044.5 L 749.5 1044 L 750 1042.5 L 749 1037.5 L 749 1011.5 Q 751.8 1009.8 750 1003.5 L 754 990.5 Q 759.1 983.6 761 973.5 Q 767.6 958.6 778.5 948 L 784 943.5 Q 783.3 941.3 785.5 942 Q 796.6 930.1 812.5 923 L 822.5 920 L 830 920 L 830 940 L 822.5 940 L 812.5 945 L 792 961.5 L 790 964.5 L 783 972.5 L 770 1002.5 L 768 1023.5 L 769 1024.5 L 769 1035.5 L 772 1051.5 L 772 1059.5 L 774 1070.5 L 776 1072.5 L 776 1077.5 L 779 1084.5 L 782 1099.5 L 782 1113.5 L 783 1114.5 L 780 1126.5 L 782 1129.5 Q 780.8 1134.3 783 1135.5 L 780 1141 L 768.5 1144 L 765.5 1143 L 758.5 1146 L 752.5 1146 Q 749.8 1143.2 743.5 1144 L 742.5 1145 L 734.5 1145 L 729.5 1144 L 727.5 1145 L 724.5 1144 L 719.5 1145 L 718.5 1144 L 625.5 1144 L 624.5 1143 L 585.5 1143 L 584.5 1142 L 583.5 1143 L 553.5 1143 L 552.5 1144 L 548.5 1143 L 546.5 1143 L 542.5 1144 L 540.5 1144 L 524.5 1144 L 512.5 1147 L 510.5 1146 L 505.5 1147 L 499 1143 L 495 1133.5 L 496 1130.5 L 498 1124.5 L 500 1107.5 L 509 1083.5 L 512 1071 L 481.5 1072 L 480.5 1073 L 460.5 1075 L 452.5 1073 L 448 1068.5 L 447 1062.5 L 451 1055.5 L 452 1048.5 L 454 1045.5 L 454 1041.5 L 462 1016.5 L 464 998.5 L 465 997.5 L 466 971.5 L 465 968.5 Q 466.2 963.8 464 962.5 L 465 961.5 L 465 950.5 Q 460.8 944.4 462 934 L 459.5 933 L 440.5 933 L 431 938 Q 432.1 940.7 429.5 940 Q 413.6 949.6 402 963.5 Q 402.8 965.8 400.5 965 L 382 989.5 L 372 1008.5 L 366 1026.5 L 365 1037.5 L 363 1041.5 L 363 1043.5 L 363 1055.5 L 362 1057.5 L 362 1059.5 L 363 1064.5 L 362 1066.5 L 363 1067.5 L 363 1081.5 L 364 1082.5 L 365 1098.5 L 374 1129.5 L 373 1132.5 Q 374.1 1135.8 371.5 1135 L 370.5 1136 L 362 1136 L 360.5 1140 L 348.5 1142 L 347.5 1141 L 315.5 1141 L 314.5 1140 L 313.5 1141 L 303.5 1141 L 302.5 1142 L 300.5 1142 L 298.5 1141 L 297.5 1142 L 287.5 1142 L 286.5 1143 L 272.5 1143 L 270.5 1143 L 267.5 1142 L 265.5 1142 L 262.5 1143 L 259.5 1142 L 256.5 1141 L 252.5 1143 L 251.5 1142 L 179.5 1142 L 178.5 1141 L 176.5 1142 L 174.5 1142 L 167.5 1141 L 165.5 1142 L 164.5 1141 L 155.5 1141 L 153.5 1141 L 150.5 1142 L 125.5 1143 L 123.5 1143 L 109.5 1143 L 108.5 1144 Q 107.2 1141.8 102.5 1143 L 101.5 1144 L 91.5 1144 L 84.5 1146 L 84.5 1145 L 86 1144.5 L 80.5 1144 L 78.5 1145 L 78.5 1144 L 80 1143.5 L 73 1140 Q 73.8 1136.6 71 1135.5 L 71 1131.5 Q 75.4 1127.4 76 1119.5 L 83 1112.5 L 96 1093.5 L 104 1076.5 L 108 1061.5 L 106.5 1062 L 98.5 1062 L 97.5 1063 L 95.5 1063 L 76.5 1066 L 61.5 1070 L 54.5 1070 L 46 1064.5 L 44 1057.5 L 48.5 1050 Q 50.8 1050.8 50 1048.5 Q 60.8 1037.8 65 1020.5 L 70 996.5 L 71 978.5 L 72 977.5 L 72 964.5 L 66 948.5 L 66 944 L 54.5 939 L 49.5 939 L 38.5 936 L 29.5 936 L 22.5 938 L 15.5 938 L 10.5 940 L 0 940 L 0 920.5 Q 0.1 919.4 5.5 920 L 22.5 916 L 35.5 916 L 36.5 915 L 45.5 918 L 58.5 920 L 77.5 928 Q 99.9 942.1 118 960.5 L 129 979.5 L 132 989.5 Q 132 1003.5 136 1013.5 L 136 1029.5 L 135 1031.5 L 135 1033.5 L 134 1042.5 L 135 1046.5 L 133 1057.5 L 121 1089.5 L 107 1114 Q 104.3 1112.9 105 1115.5 Q 101.3 1116.8 102 1121 L 100 1121.5 L 103.5 1123 Q 105.2 1120.3 111.5 1122 L 113.5 1122 Q 120.3 1120.7 123.5 1123 L 124.5 1122 L 137.5 1122 L 138.5 1121 L 141.5 1122 L 142.5 1121 L 246.5 1121 L 248.5 1121 L 251.5 1122 L 257.5 1122 L 262.5 1121 L 265.5 1122 L 270.5 1121 L 274.5 1122 L 276.5 1122 L 301.5 1122 L 302.5 1121 L 306.5 1122 L 311.5 1121 L 313.5 1121 L 344.5 1121 L 347.5 1120 L 352.5 1121 L 352 1119.5 L 349 1111.5 L 348 1100.5 L 343 1079.5 L 344 1077.5 L 343 1076.5 L 343 1064.5 L 342 1063.5 L 342 1047.5 L 343 1046.5 L 343 1037.5 L 346 1021.5 L 355 995.5 L 374 964.5 L 388.5 949 L 391 947.5 Q 390.3 945.3 392.5 946 L 394 943 L 404 936 L 404 934 L 406 934 Q 404.9 931.3 407.5 932 L 423.5 920 L 441.5 914 Z M 483 943 L 482 946 L 485 952 L 485 958 L 485 960 Q 484 964 486 966 L 486 996 L 483 1009 L 483 1016 L 480 1029 L 473 1046 L 472 1053 L 472 1054 Q 476 1055 478 1053 L 496 1053 L 498 1053 L 500 1052 L 512 1053 L 516 1056 L 516 1049 L 518 1041 L 518 1030 L 519 1029 L 519 1007 L 518 1006 L 516 985 L 512 973 L 504 962 Q 505 959 502 960 L 498 954 Q 492 946 483 943 Z M 92 963 Q 90 967 92 969 L 92 984 L 89 999 L 89 1006 L 87 1010 L 87 1016 L 85 1020 L 83 1033 L 78 1046 L 78 1047 L 92 1046 L 93 1045 L 110 1045 L 113 1046 L 113 1036 L 114 1035 L 113 1033 Q 115 1031 114 1027 L 115 1024 L 110 990 L 100 972 Q 101 969 98 970 L 98 968 L 92 963 Z " />
</svg>