
<svg width="830" height="1660" version="1.1" xmlns="http://www.w3.org/2000/svg" desc="Created with imagetracer.js version 1.2.6" >
<path fill="rgb(0,0,0)" stroke="rgb(0,0,0)" stroke-width="1" opacity="1" d="M 502.5 30 Q 516.6 28.3 524 32 L 527 38.5 L 526 41.5 L 525 47.5 L 518 56 L 514 58.5 L 512 61.5 L 502.5 72 L 486 85.5 L 484 88.5 L 476 99.5 Q 478.5 101 475 102.5 L 471 109.5 L 471 116.5 L 474.5 120 Q 482.5 121 486.5 126 L 503.5 131 L 510.5 135 L 522.5 136 L 531 139 L 534 144.5 L 534 148.5 L 532 154 Q 529.3 152.9 530 155.5 L 516 165 L 513.5 169 L 509 172.5 L 506.5 176 L 500 181.5 L 494 189.5 L 490 204.5 L 490 210.5 L 493.5 219 L 506.5 224 L 515.5 230 L 547.5 239 L 554 244.5 L 555 251.5 L 548.5 257 L 546.5 257 L 542.5 256 L 538.5 258 L 520.5 267 L 500 285.5 L 498 289.5 L 495 304.5 L 496.5 304 L 514.5 302 L 544.5 294 L 549.5 294 L 553.5 292 L 568.5 290 L 600.5 281 L 607.5 281 L 626.5 277 L 651.5 275 L 654.5 273 L 664.5 271 L 670.5 267 L 680.5 265 L 690.5 265 L 691.5 264 Q 699 265.5 702.5 263 L 704.5 264 L 705.5 263 L 742.5 263 L 752.5 265 L 761.5 265 L 768.5 267 L 776.5 267 L 803.5 277 L 820.5 278 L 822.5 278 L 830 279 L 830 300 L 811.5 300 L 809.5 299 L 805.5 299 L 796.5 297 L 785.5 291 L 773.5 287 L 771.5 288 L 767.5 286 L 761.5 286 L 750.5 283 L 746.5 284 L 745.5 283 L 698.5 283 L 697.5 284 L 684.5 285 L 682.5 285 L 679.5 284 L 655.5 289 L 645.5 294 L 635.5 295 L 613.5 301 L 602.5 302 L 598.5 304 L 584.5 306 L 577.5 309 L 567.5 310 L 563.5 312 L 550.5 314 L 540.5 318 L 501 326 Q 501.9 332.1 507.5 335 L 512 338.5 Q 515 340.8 514 346 L 510 346.5 L 510.5 348 L 504.5 349 L 497.5 347 L 488 339.5 L 486 336.5 L 481 329.5 L 476 312.5 L 477 308.5 L 477 306.5 L 477 300.5 L 480 288.5 Q 481.5 280.9 486.5 277 Q 488.8 277.8 488 275.5 L 494 267 L 517 250.5 Q 517.8 247.9 514.5 249 L 510.5 247 Q 509 249.5 507.5 246 L 487 235.5 Q 489.2 234.3 486.5 233 L 483 232 Q 484.1 229.3 481.5 230 L 473 219.5 L 471 209.5 L 471 200.5 L 474 189.5 L 479 178.5 L 487.5 168 Q 489.8 168.8 489 166.5 L 492 165 L 493.5 162 L 505 153 Q 506.3 150 502.5 151 L 481.5 143 L 467.5 136 L 464 132.5 L 462.5 130 L 460 128.5 L 454 117.5 L 453 106.5 Q 455.7 104.8 454 98.5 L 467 77 L 469 77 L 469 75 Q 471.7 76.1 471 73.5 L 477 68.5 Q 476.3 66.3 478.5 67 L 495 52.5 Q 495.8 49.9 492.5 51 L 491.5 52 L 479.5 52 L 478.5 53 L 460.5 54 L 438.5 58 L 436.5 57 L 410 62 Q 411.3 65.3 406.5 64 L 387.5 69 L 385.5 69 L 364.5 75 L 333.5 87 L 284.5 111 L 240.5 138 L 211.5 159 L 209 159 Q 210.1 161.7 207.5 161 L 193 172.5 L 188 179.5 L 209.5 194 L 213 194 Q 211.9 196.7 214.5 196 L 225 204.5 L 227 207.5 L 231 213 Q 233.7 211.9 233 214.5 L 237 221 L 240 222.5 L 260 260.5 L 263 271.5 L 263 282.5 L 265 293.5 L 263 299.5 L 262 315.5 L 260 319.5 Q 262.3 320.7 259.5 322 Q 256.2 320.9 257 323.5 L 255.5 323 L 254 323.5 L 254.5 325 L 251.5 324 L 247.5 325 L 244 322.5 L 242 315.5 L 243 309 L 230.5 310 L 228.5 309 L 226.5 309 Q 220.3 310.8 218.5 308 L 216.5 308 L 208.5 308 L 198.5 306 L 185.5 306 L 184.5 305 L 172.5 305 L 171.5 304 L 168.5 305 L 79.5 299 L 76.5 300 L 71.5 299 L 66.5 300 L 64.5 300 L 11.5 301 L 10.5 302 L 0 302 L 0 282.5 L 1.5 281 L 3.5 282 L 10.5 280 L 65.5 278 L 66.5 279 L 76.5 279 L 78.5 279 L 80.5 278 L 82.5 278 L 168.5 283 L 170.5 283 L 182.5 283 L 183.5 284 L 185.5 284 L 191 284 L 191 281.5 Q 186.7 276.3 186 267.5 L 181 261 L 178 259.5 Q 178.8 257.3 176.5 258 L 151.5 240 L 144.5 238 L 134.5 238 L 133.5 237 L 130.5 238 L 123.5 239 L 116.5 237 L 112 233.5 Q 106.7 229.3 106 220.5 L 108 218.5 L 112 205.5 L 121 187.5 L 144 153 Q 146.7 154.1 146 151.5 L 158.5 137 L 169 127.5 L 172.5 123 L 199.5 102 L 203 101 Q 201.9 98.3 204.5 99 L 246.5 74 L 264.5 67 L 295.5 52 L 332.5 39 L 334.5 39 L 337.5 40 Q 342.9 36.4 351.5 36 L 354 37 L 353 41.5 L 353.5 43 Q 351.3 42.3 352 44.5 L 350 52.5 L 344 62.5 L 345.5 63 L 369.5 53 L 373.5 53 L 376.5 51 L 383.5 50 L 394.5 46 L 410 44 Q 408.6 40.3 414.5 42 L 424.5 39 L 431.5 39 L 432.5 38 L 438.5 38 L 439.5 37 L 451.5 36 L 465.5 33 L 472.5 33 L 473.5 32 L 475.5 32 L 484.5 32 L 485.5 31 L 487.5 31 L 501.5 31 L 502.5 30 Z M 326 59 L 304 70 L 294 73 L 262 87 L 243 97 L 239 101 Q 219 110 204 122 L 173 147 L 171 151 Q 167 150 169 154 L 167 154 L 156 169 Q 157 171 154 170 L 138 195 L 129 206 L 123 219 L 127 218 L 133 220 L 152 221 Q 162 224 169 230 Q 172 229 171 232 L 176 235 Q 178 234 177 237 L 180 238 Q 182 237 181 240 Q 187 241 191 246 L 204 263 L 212 285 Q 214 289 216 286 L 226 288 L 245 288 L 244 287 L 244 277 L 242 266 L 227 236 L 210 216 L 206 211 L 190 202 L 184 197 Q 180 198 181 195 L 178 194 L 176 192 L 167 187 L 168 185 L 167 181 L 169 177 L 172 175 L 173 172 L 182 160 Q 184 161 183 159 L 209 138 L 220 131 Q 222 132 221 130 L 249 111 L 267 101 Q 269 102 268 99 L 271 99 L 295 85 L 309 79 Q 310 75 312 78 L 320 74 L 328 60 L 326 59 Z " />
<path fill="rgb(0,0,0)" stroke="rgb(0,0,0)" stroke-width="1" opacity="1" d="M 83.5 901 L 90.5 901 L 94 903 L 94 905 Q 96.7 903.9 96 906.5 Q 99.6 908.4 99 914.5 L 98 915.5 L 98 940.5 L 98 942.5 L 99 946.5 L 98 948.5 L 99 949.5 L 99 963.5 L 98 964.5 L 98 981.5 L 97 982.5 L 97 993.5 L 96 994.5 L 97 996.5 L 96 997.5 L 96 1011.5 L 95 1013.5 Q 97.8 1015.2 96 1021.5 L 94 1030.5 L 94 1038.5 L 92 1045.5 L 91 1064.5 L 91 1066.5 L 92 1068.5 L 91.5 1070 L 107.5 1070 L 110.5 1069 L 112.5 1069 L 130.5 1068 L 140.5 1065 L 157 1063 L 158 1048.5 L 157 1047.5 L 157 1025.5 L 156 1024.5 L 156 1009.5 L 155 1007.5 L 156 1006.5 L 157 976.5 L 159 970.5 L 161 949.5 L 159 944.5 L 159 942.5 L 159 928.5 L 158 926.5 L 159 922.5 L 158 920.5 L 158 918.5 L 158 916 L 156 915.5 L 156 910.5 L 159.5 905 L 169.5 904 L 173.5 902 L 209.5 902 L 211.5 903 L 214.5 902 L 216.5 903 L 227.5 903 L 228.5 904 L 233.5 903 L 235.5 903 L 237.5 904 L 239.5 904 L 243.5 903 L 253.5 905 L 255.5 905 L 267.5 905 L 268.5 906 Q 270 903.5 275.5 905 L 276.5 906 L 301.5 908 L 303.5 908 L 326.5 908 L 327.5 909 L 350.5 910 L 351.5 911 L 353.5 911 L 370.5 912 L 371.5 913 L 387.5 913 L 388.5 914 L 390.5 914 L 411.5 915 L 414.5 914 L 415.5 915 L 427.5 915 L 428.5 916 L 440.5 916 L 441.5 917 L 499.5 918 L 500.5 919 L 510.5 919 L 511.5 920 L 513.5 919 L 514.5 920 L 535.5 920 L 551.5 916 L 617.5 916 L 618.5 917 L 644.5 917 Q 646.3 919.7 652.5 918 L 656.5 917 Q 665 918.5 669 924.5 L 672 931.5 L 672 940.5 L 673 941.5 L 673 945.5 L 673 960.5 L 674 961.5 L 673 963.5 L 674 966.5 L 674 987.5 L 675 989.5 Q 672.5 991 674 996.5 L 674 998.5 L 675 1000.5 L 674 1001.5 L 674 1015.5 L 673 1016.5 L 673 1027.5 L 672 1028.5 Q 674.2 1029.7 673 1034.5 L 672 1036.5 L 673 1040.5 L 672 1041.5 L 672 1048 L 677.5 1049 L 688.5 1049 L 689.5 1048 L 706.5 1047 L 707.5 1048 L 728.5 1048 L 739.5 1045 L 751.5 1044 L 754 1045 L 753 1024.5 L 750 1009.5 Q 752.5 1008 751 1002.5 L 751 1000.5 L 751 988.5 L 752 986.5 L 752 984.5 L 753 976.5 L 753 974.5 L 756 945.5 L 758 940.5 L 758 938.5 L 760 932.5 L 766.5 925 L 776.5 924 L 786.5 926 L 789.5 925 L 794.5 925 L 801.5 923 L 817.5 923 L 830 919 L 830 939.5 L 828.5 941 L 821.5 943 L 819.5 943 Q 813.3 941.2 811.5 944 L 809.5 943 L 807.5 943 L 800.5 945 L 798.5 945 L 782.5 945 L 777 944 L 775 949.5 L 775 955.5 L 773 961.5 L 773 971.5 L 772 972.5 L 770 995.5 L 768 999.5 L 770 1009.5 L 769 1012.5 L 771 1015.5 L 769 1015.5 Q 768.3 1017.8 770.5 1017 L 770 1018.5 L 772 1029.5 L 772 1031.5 Q 772.3 1042.7 777 1049.5 L 776 1051.5 L 777 1053.5 L 776 1059 L 768.5 1064 L 757.5 1065 L 749.5 1063 L 746.5 1065 L 741.5 1065 L 731.5 1068 L 729.5 1068 L 716.5 1068 L 715.5 1067 L 713.5 1068 L 712.5 1067 L 701.5 1067 L 700.5 1068 L 686.5 1068 L 685.5 1069 L 674.5 1067 L 664.5 1067 L 652 1063 L 649 1056.5 L 651 1046.5 L 651 1028 L 646.5 1030 L 645.5 1028 L 642.5 1030 Q 641 1026.5 634.5 1028 L 632.5 1029 L 631.5 1028 L 620.5 1028 L 609.5 1030 L 607.5 1030 L 592.5 1030 L 590.5 1029 L 587.5 1030 L 584.5 1029 L 582.5 1030 L 580.5 1029 L 579.5 1030 L 571.5 1030 L 557.5 1027 L 546 1020.5 Q 546.7 1017.5 543 1019 L 543 1016.5 L 543 1014.5 L 543 1007.5 L 549 988.5 L 549 981.5 L 551 974.5 L 551 964.5 L 553 954.5 L 553 940.5 L 554 935 L 546.5 935 L 535.5 938 L 530.5 938 L 529.5 937 L 520.5 937 Q 519.3 939.3 514.5 938 L 512.5 938 L 449.5 937 L 448.5 936 L 429.5 936 L 428.5 935 L 414.5 935 L 412.5 934 L 411.5 935 L 403.5 935 L 392.5 933 L 390.5 934 L 389.5 933 L 370.5 933 L 365.5 931 Q 354.9 932.6 349.5 929 L 344.5 930 L 343.5 929 L 324.5 928 L 322.5 928 L 308.5 928 L 307.5 927 L 304.5 928 L 302.5 927 L 300.5 927 L 298.5 928 L 289.5 926 L 286.5 927 L 284.5 927 Q 280.7 924.3 272.5 926 L 271.5 925 L 252.5 925 L 251.5 924 L 236.5 924 L 235.5 923 Q 234.3 925.2 229.5 924 L 228.5 923 L 202.5 923 L 200.5 923 L 186.5 923 L 186 926.5 L 179 956.5 L 179 966.5 L 176 978.5 L 175 989.5 L 175 991.5 L 175 1001.5 L 176 1002.5 Q 173.7 1003.7 175 1008.5 L 176 1011.5 L 176 1013.5 L 176 1023.5 L 177 1024.5 L 176 1026.5 L 178 1034.5 L 179 1059.5 L 180 1060.5 L 180 1062.5 L 179 1064.5 L 181 1065 Q 182.5 1073.3 179 1077.5 L 180.5 1080 L 175.5 1081 L 168.5 1085 L 165.5 1085 L 164.5 1084 L 150.5 1084 L 139.5 1086 L 136.5 1088 L 95.5 1091 L 94.5 1092 L 88.5 1090 L 86.5 1090 L 81.5 1090 L 72 1086 Q 73.1 1083.3 70.5 1084 L 69 1082.5 L 68 1075.5 Q 70.7 1072.2 70 1065.5 L 69 1063.5 L 70 1059 L 66.5 1060 L 51.5 1061 L 50.5 1062 L 42.5 1062 L 41.5 1063 L 39.5 1062 L 37.5 1062 L 35 1062 Q 36.3 1059 32.5 1060 L 27 1055.5 L 28 1049.5 L 28 1047.5 L 31 1038.5 L 32 1026.5 L 33 1025.5 L 33 1023.5 L 32 1021.5 L 36 999.5 L 36 988.5 L 37 987.5 L 37 980.5 L 39 971.5 L 39 958.5 L 40 957.5 L 40 955.5 L 39 935.5 L 40 931 L 24 933 Q 25.1 935.7 22.5 935 L 16.5 940 L 0 940 L 0 920 L 9.5 920 L 21.5 915 L 32.5 914 L 33.5 913 L 35.5 913 L 40.5 913 L 51.5 910 L 61.5 910 L 62.5 909 L 64.5 910 Q 68.1 907.1 75.5 908 L 83.5 901 Z M 73 924 L 63 926 L 62 933 L 62 935 L 61 937 L 61 972 L 61 974 L 60 975 L 58 998 L 56 1005 L 56 1012 L 54 1019 L 54 1031 L 52 1039 L 53 1041 L 60 1041 L 62 1041 L 63 1040 L 71 1040 L 72 1039 L 73 1023 L 74 1022 L 73 1020 L 75 1010 L 75 996 L 76 995 L 75 993 Q 78 989 76 981 L 77 980 L 77 964 L 78 963 L 78 938 L 77 937 L 77 924 L 73 924 Z M 575 935 L 575 944 L 574 945 L 575 947 L 574 948 L 574 959 L 573 960 L 573 971 L 573 973 L 571 981 L 571 990 L 567 1007 L 569 1008 L 586 1009 L 588 1009 L 616 1008 L 618 1008 L 620 1007 L 622 1007 Q 626 1006 628 1008 L 631 1007 L 633 1007 L 638 1008 L 639 1007 L 641 995 L 644 988 L 645 980 Q 648 978 646 977 L 648 975 L 652 964 L 651 948 L 650 945 L 651 942 L 650 939 L 647 938 L 644 939 Q 640 936 632 938 L 631 937 L 626 938 L 615 936 L 602 936 L 600 936 L 595 935 L 586 936 L 584 936 L 582 935 L 578 936 L 575 935 Z " />
</svg>