
<svg width="830" height="1660" version="1.1" xmlns="http://www.w3.org/2000/svg" desc="Created with imagetracer.js version 1.2.6" >
<path fill="rgb(2,2,2)" stroke="rgb(2,2,2)" stroke-width="1" opacity="1" d="M 525.5 256 L 569.5 256 L 570.5 257 L 572.5 257 L 574.5 256 L 575.5 257 L 588.5 257 L 589.5 258 L 591.5 258 L 593.5 257 L 594.5 258 L 607.5 258 L 624.5 261 L 626.5 261 L 628.5 260 L 641.5 263 L 643.5 263 Q 649.8 262.2 652.5 265 L 654.5 265 L 658.5 266 L 660.5 266 L 665.5 267 L 667.5 267 L 678.5 268 L 682.5 267 L 685.5 268 L 687.5 267 L 690.5 268 L 704.5 267 L 707.5 268 L 713.5 268 L 724.5 271 L 729.5 271 L 731.5 271 Q 739.5 270.3 744 272 L 744.5 274 Q 746.3 271.2 752.5 273 L 755.5 275 L 763.5 275 L 771.5 277 L 804.5 278 L 819.5 281 Q 820.8 278.8 825.5 280 L 830 280.5 L 830 299.5 L 828.5 300 L 824.5 302 L 822.5 301 L 820.5 301 L 813.5 301 L 793.5 296 L 791.5 297 L 788.5 296 L 780.5 295 L 778.5 295 L 768.5 295 L 761.5 292 L 755.5 292 L 747.5 290 L 737.5 290 L 736.5 289 L 718.5 288 L 717.5 287 L 700.5 286 L 699.5 285 L 680.5 285 L 679.5 284 L 677.5 284 L 660.5 282 L 658.5 282 L 635.5 280 L 634.5 279 L 613.5 279 L 611.5 278 L 609.5 278 L 598.5 278 L 596.5 277 L 594.5 278 L 593.5 277 L 530.5 277 L 529.5 278 L 515.5 278 L 514.5 279 L 501.5 280 L 494.5 283 L 490.5 283 L 477 290.5 Q 476.1 297.6 471.5 301 L 464.5 303 L 458 298.5 L 456.5 295 L 442.5 287 L 419.5 282 L 417.5 282 L 415.5 283 L 403.5 283 L 396.5 285 L 375.5 286 L 374.5 287 L 372.5 286 L 357.5 289 L 331.5 291 L 330.5 292 L 314.5 293 L 297.5 296 L 263.5 296 L 262.5 297 L 248.5 297 L 238.5 299 L 236.5 299 L 233.5 298 L 232.5 299 L 218.5 299 L 216.5 299 L 208.5 299 L 207.5 300 L 205.5 300 L 194.5 303 Q 189.5 309.7 181 312 L 180 316 L 175.5 317 L 173 316 L 172 312 L 165 310 L 163.5 307 Q 161.3 307.8 162 305.5 L 149.5 299 L 126.5 295 L 123.5 296 L 121.5 295 L 66.5 295 L 65.5 296 L 55.5 296 L 54.5 297 L 51.5 296 L 44.5 297 L 42.5 297 L 22 299 L 21.5 301 L 0 301 L 0 281.5 L 1.5 280 L 17.5 279 L 18.5 278 L 40.5 278 L 41.5 277 L 44.5 278 L 49.5 277 L 51.5 277 L 91.5 276 L 93.5 277 L 95.5 277 L 99.5 276 L 101.5 277 L 102.5 276 L 112.5 276 L 114.5 276 L 130.5 276 L 131.5 277 L 142.5 277 L 143.5 278 L 155.5 279 L 160.5 280 L 173 287 L 173 289 Q 175.7 287.9 175 290.5 L 178.5 293 L 184 288.5 Q 183.3 286.3 185.5 287 L 196.5 281 L 204.5 279 L 206.5 279 L 240.5 279 L 241.5 278 L 280.5 277 L 284.5 277 L 289.5 278 L 291.5 277 L 293.5 278 L 294.5 277 L 308.5 277 L 309.5 276 L 311.5 276 L 334.5 275 L 347.5 271 L 357.5 271 L 362.5 269 L 382.5 268 L 383.5 267 L 397.5 267 L 412.5 264 L 414.5 265 L 417.5 264 L 433.5 265 L 459 273 Q 457.9 275.7 460.5 275 Q 461.9 277.6 466.5 277 L 475.5 269 L 478.5 269 L 492.5 261 L 509.5 257 L 524.5 257 L 525.5 256 Z " />
<path fill="rgb(2,2,2)" stroke="rgb(2,2,2)" stroke-width="1" opacity="1" d="M 169.5 879 L 175.5 881 L 178 883.5 L 179 891.5 L 166 909.5 L 172.5 910 L 173.5 909 L 230.5 909 L 256.5 916 L 267 922 Q 265.9 924.7 268.5 924 L 283 935.5 Q 289.8 941.7 293 951.5 L 296 961.5 L 298 980.5 L 299 981.5 L 298 982.5 L 297 1027.5 L 296 1028.5 L 296 1042.5 L 295 1044.5 L 295 1046.5 L 293 1063.5 L 291 1067.5 L 289 1085.5 L 288 1086.5 L 288 1108.5 L 286 1116.5 L 286 1131.5 L 285 1132.5 L 285 1142.5 L 283 1150.5 L 283 1160.5 L 279 1176.5 L 279 1181.5 L 273 1202.5 L 271 1204.5 L 271 1208 L 284.5 1207 L 286.5 1207 L 289.5 1208 L 290.5 1207 L 302.5 1207 L 322.5 1203 L 324.5 1203 L 340.5 1203 L 357.5 1199 L 374.5 1199 L 381.5 1196 L 383.5 1196 L 388 1195 L 386 1182.5 L 387 1179.5 L 385 1165.5 L 385 1163.5 L 384 1148.5 L 382 1145.5 L 383 1143.5 L 380 1135.5 L 381 1133.5 L 379 1126.5 L 379 1117.5 L 376 1101.5 L 376 1099.5 Q 377.5 1094 375 1092.5 L 375 1088.5 L 375 1079.5 L 374 1078.5 L 375 1075.5 L 374 1072.5 L 374 1054.5 L 373 1051.5 L 374 1048.5 L 373 1045.5 L 374 1044.5 L 374 1036.5 L 373 1035.5 L 373 1023.5 L 371 1019.5 L 370 989.5 L 369 986.5 L 369 984.5 L 370 982.5 L 370 978.5 L 371 959.5 L 378 926.5 L 382 917.5 L 382 914.5 L 394 894 L 397 892.5 Q 396.3 890.3 398.5 891 Q 399.5 886 406.5 887 L 410 889.5 L 412 892.5 Q 414.6 893.9 414 898.5 L 413 902.5 L 408 909.5 L 404 921.5 L 405.5 921 L 447.5 913 L 492.5 908 L 494.5 908 L 525.5 907 L 526.5 906 L 545.5 906 L 546.5 907 L 563.5 907 L 577.5 912 L 583 916.5 L 588 928.5 L 594 937.5 L 594 942.5 L 596 949.5 L 595 951.5 L 596 954.5 L 596 956.5 L 595 958.5 L 595 991.5 L 596 994.5 L 595 995.5 L 594 1012.5 L 592 1019.5 L 592 1027.5 L 590 1033.5 L 590 1035.5 L 583 1070.5 L 580 1096.5 L 578 1100.5 L 578 1102.5 L 574 1124.5 L 563 1154.5 L 563 1158.5 L 558 1175.5 L 551 1189.5 L 556.5 1192 L 566.5 1192 L 582.5 1195 L 593.5 1195 L 602.5 1197 L 611.5 1197 L 622.5 1199 L 626.5 1201 L 654.5 1202 L 657.5 1201 L 660.5 1202 L 665.5 1201 L 666.5 1202 L 681.5 1202 L 685 1200.5 L 684 1199.5 L 684 1190.5 L 684 1188.5 L 684 1180.5 L 677 1162.5 L 676 1149.5 L 674 1143.5 L 674 1141.5 L 673 1130.5 L 672 1129.5 L 673 1125.5 L 672 1124.5 L 672 1107.5 L 671 1106.5 L 672 1104.5 L 671 1103.5 L 671 1075.5 L 670 1072.5 L 670 1070.5 L 670 1057.5 L 672 1049.5 L 674 1012.5 L 679 994.5 L 679 992.5 L 686 972.5 L 694 956.5 Q 704.1 941.1 717.5 929 Q 719.8 929.8 719 927.5 L 725 924 L 726.5 921 L 748.5 907 L 771.5 898 L 780.5 897 L 788 900 L 789 904.5 L 789 906.5 L 786.5 912 L 775.5 915 L 762 922.5 L 775.5 923 L 777.5 924 L 779.5 924 Q 785.8 925.7 787.5 923 L 791.5 924 L 800.5 922 L 804.5 923 L 813.5 920 L 830 919 L 830 939 L 806.5 939 L 804.5 939 L 800.5 940 L 798.5 940 L 793.5 941 L 791.5 941 L 770.5 941 L 761.5 938 L 745.5 937 L 741.5 939 Q 736 937.5 734.5 940 L 732.5 939 L 715 956.5 L 704 976.5 L 703 982.5 L 700 986.5 L 695 1002.5 L 692 1026.5 L 693 1028.5 L 692 1029.5 L 692 1044.5 L 690 1053.5 L 690 1079.5 L 690 1081.5 L 690 1093.5 L 691 1094.5 L 691 1096.5 L 690 1099.5 L 691 1100.5 L 691 1118.5 L 692 1120.5 L 691 1122.5 L 692 1123.5 L 692 1132.5 L 693 1133.5 L 694 1144.5 L 693 1146.5 L 694 1147.5 L 695 1160.5 L 702 1180.5 L 703 1185.5 L 703 1200.5 L 706 1207.5 L 705 1212.5 L 701.5 1218 L 689.5 1222 L 687.5 1221 L 686.5 1222 L 668.5 1222 L 667.5 1223 L 654.5 1223 L 653.5 1224 L 653 1222 L 646.5 1223 L 638.5 1221 L 636.5 1221 L 629.5 1222 L 610.5 1218 L 608.5 1218 L 584.5 1217 L 567.5 1214 L 557.5 1214 L 549.5 1212 L 536 1205 L 536 1200.5 Q 533 1199.3 534 1195 L 509.5 1192 Q 502.2 1186.6 492 1185 L 489 1180.5 L 489 1173.5 L 508 1121.5 L 508 1118.5 L 510 1116.5 L 510 1113.5 L 513 1107.5 L 516 1094.5 L 516 1089.5 L 518 1086.5 Q 517.4 1080.4 520 1077.5 L 522 1059.5 L 524 1052.5 L 524 1040.5 L 526 1034.5 L 526 1013.5 L 527 1012.5 L 527 998.5 L 528 997.5 L 527 994.5 L 527 986.5 L 526 985.5 L 527 983.5 L 526 982.5 L 526 974.5 L 520 955.5 L 520 951.5 L 512 929.5 L 507.5 925 L 506.5 926 L 490.5 926 L 489.5 927 L 487.5 927 L 476.5 927 L 468.5 929 L 466.5 929 L 458.5 929 L 444.5 932 L 428.5 933 L 397 940 L 395 953.5 L 393 958.5 L 393 960.5 L 392 974.5 L 391 975.5 L 391 1004.5 L 392 1005.5 L 392 1018.5 L 393 1019.5 L 393 1032.5 L 394 1033.5 L 394 1063.5 L 395 1065.5 L 395 1067.5 L 395 1083.5 L 397 1093.5 L 396 1096.5 L 398 1107.5 L 398 1109.5 L 406 1164.5 L 406 1166.5 L 407 1183.5 L 410 1197.5 L 412 1199.5 L 412 1204.5 L 409.5 1208 L 411 1208.5 L 409.5 1209 L 407.5 1208 L 398.5 1213 L 393.5 1213 L 383.5 1217 L 374.5 1218 L 372.5 1218 L 363.5 1217 L 345.5 1221 L 322.5 1222 L 314.5 1224 L 287.5 1226 L 286.5 1227 L 283.5 1226 L 266.5 1229 L 262.5 1228 L 260.5 1228 L 254 1224.5 Q 254.7 1221.9 252 1223 L 252 1221 Q 248.3 1222.5 249 1219.5 Q 246 1218.5 247 1213.5 L 252 1199.5 L 255 1184.5 L 257 1181.5 L 255.5 1181 L 253.5 1181 L 237.5 1180 L 236.5 1179 L 213.5 1179 Q 207 1177.5 204 1172.5 L 203 1167.5 L 214 1133.5 L 216 1121.5 L 220 1112.5 L 229 1068.5 L 231 1042.5 L 232 1041.5 L 232 983.5 L 231 980.5 L 229 970.5 L 230 967.5 L 229 966.5 L 229 950.5 L 224 929 L 218.5 928 L 175.5 928 L 172.5 929 L 165.5 929 L 156.5 932 L 152 932 L 147 942.5 L 145 952.5 L 145 994.5 L 146 996.5 L 146 998.5 L 148 1025.5 L 151 1034.5 L 153 1053.5 L 161 1088.5 L 161 1096.5 L 165 1113.5 L 165 1126.5 L 167 1132.5 L 167 1134.5 L 167 1142.5 L 169 1148.5 L 169 1156.5 Q 171.7 1159.8 171 1166.5 L 173 1171.5 L 173 1177.5 L 175 1181.5 L 177 1192.5 L 179 1195.5 L 179 1200.5 L 181 1202.5 L 183 1209.5 L 182.5 1212 L 177.5 1216 L 165.5 1217 L 163.5 1219 L 161.5 1218 L 157.5 1219 L 155.5 1218 L 154.5 1219 L 146.5 1219 L 145.5 1218 L 134.5 1218 L 132.5 1219 L 130.5 1218 L 128.5 1218 L 123.5 1218 L 114.5 1221 Q 108.3 1219.2 106.5 1222 L 67.5 1223 L 50.5 1227 L 49 1226.5 L 48.5 1229 L 44.5 1227 L 43.5 1228 L 39.5 1227 Q 37.8 1229.8 36 1225.5 L 36 1224 Q 32.2 1225.5 33 1222.5 L 32 1219.5 L 34 1219.5 L 32 1216.5 L 34 1216 L 35 1210.5 L 35 1206.5 L 37 1202.5 L 37 1197.5 L 40 1186.5 Q 37.8 1185.2 39 1180.5 L 39 1178.5 L 42 1160.5 L 40.5 1161 L 37.5 1160 L 33.5 1161 L 32.5 1160 L 26 1160 Q 27.3 1156.7 22.5 1158 L 17 1154.5 L 15 1151.5 L 15 1139.5 L 16 1134.5 L 18 1132.5 Q 15.5 1131 19 1129.5 L 18 1126.5 L 20 1123.5 Q 18.7 1115.2 22 1111.5 L 20 1110.5 L 22 1110 L 21 1106.5 L 22 1103.5 L 23 1101.5 L 22 1097.5 Q 25.5 1096 23 1094.5 L 24 1091.5 L 23 1089.5 L 24 1086.5 L 23 1082.5 L 25 1082.5 L 25 1074.5 L 24 1073.5 L 25 1068.5 L 25 1066.5 L 24 1061.5 L 26 1055.5 L 26 1053.5 L 25 1049.5 L 27 1041.5 L 27 1039.5 L 27 1027.5 L 26 1026.5 L 26 1024.5 L 26 1006.5 L 27 1005.5 Q 24.8 1004.3 26 999.5 L 26 997.5 L 26 965.5 L 25 964.5 L 25 962.5 L 23 951.5 L 23 943.5 L 22 942.5 L 23 938 Q 18.5 937.2 16.5 940 L 4.5 940 L 3.5 941 L 0 940 L 0 920.5 L 2.5 920 L 4.5 920 L 7.5 921 L 10.5 920 L 13.5 919 L 16.5 920 Q 19.5 917 26.5 918 L 30.5 918 L 42.5 920 L 59 930 Q 57.9 932.7 60.5 932 Q 69.2 939.8 75 950.5 L 82 981.5 L 81 983.5 L 82 985.5 L 82 987.5 L 82 1014.5 L 83 1015.5 L 82 1017.5 L 83 1020.5 L 82 1021.5 L 82 1044.5 L 81 1045.5 L 80 1061.5 L 77 1074.5 L 77 1080.5 L 73 1095.5 L 73 1100.5 L 71 1105.5 L 71 1111.5 L 69 1118.5 L 69 1128.5 L 67 1136.5 L 67 1151.5 L 65 1158.5 L 65 1160.5 L 65 1166.5 L 61 1186.5 L 61 1193.5 L 58 1206 Q 65.9 1203.6 79.5 1205 L 81.5 1205 L 105.5 1204 L 118.5 1201 L 153.5 1201 L 156 1200 L 156 1195 Q 153.3 1196.1 154 1193.5 L 154.5 1192 Q 151.1 1192.9 153 1187.5 L 151 1182.5 L 151 1180.5 L 151 1174.5 L 149 1168.5 L 149 1166.5 L 148 1155.5 L 146 1149.5 L 146 1145.5 L 145 1143.5 L 145 1141.5 L 144 1131.5 L 144.5 1130 Q 142.3 1130.8 143 1128.5 L 144 1125.5 L 143 1120.5 L 143 1118.5 L 140 1094.5 L 139 1093.5 L 139 1085.5 Q 135.7 1079.8 136 1070.5 L 133 1062.5 L 133 1060.5 L 130 1044.5 L 130 1037.5 L 126 1020.5 L 126 1010.5 L 124 1002.5 L 124 981.5 L 123 976.5 L 124 974.5 L 124 972.5 L 124 956.5 L 125 954.5 L 125 952.5 L 126 938.5 L 136 914.5 L 150 894.5 L 159.5 884 L 164.5 880 L 169.5 879 Z M 533 924 L 534 934 L 536 936 L 539 948 L 539 950 Q 543 956 543 966 L 545 968 L 547 991 L 547 993 L 548 996 L 547 1001 L 548 1004 L 547 1005 L 546 1030 L 542 1052 L 542 1062 L 534 1095 L 534 1099 L 532 1102 L 532 1107 L 529 1116 L 529 1118 L 527 1118 L 510 1168 Q 513 1169 509 1171 L 514 1174 L 525 1175 L 533 1177 L 538 1168 L 542 1155 L 543 1147 L 548 1136 L 552 1120 L 554 1117 L 556 1104 L 558 1099 L 558 1093 L 560 1088 L 560 1081 L 564 1066 L 564 1059 L 568 1046 L 574 1008 L 576 1003 L 576 992 L 576 990 L 576 959 Q 579 957 577 951 L 578 948 L 577 942 L 571 932 L 571 929 L 565 928 L 562 926 L 557 926 L 555 926 L 554 925 L 533 924 Z M 246 933 L 250 950 L 250 958 L 251 959 L 250 963 L 251 964 L 252 980 L 253 981 L 252 983 L 253 984 L 253 995 L 254 996 L 253 999 L 253 1001 L 254 1005 L 253 1042 L 252 1043 L 252 1053 L 251 1054 L 251 1065 L 248 1076 L 248 1082 L 245 1093 L 245 1098 L 234 1131 L 231 1149 L 227 1157 L 227 1162 L 248 1163 L 260 1165 L 263 1151 L 262 1149 L 264 1142 L 265 1125 L 266 1124 L 268 1080 L 274 1052 L 275 1033 L 275 1031 L 276 1030 L 276 1015 L 277 1014 L 277 994 L 277 992 L 278 991 L 278 974 L 278 972 L 272 952 L 255 935 L 246 933 Z M 44 941 L 44 952 L 44 954 L 46 959 L 47 971 L 48 972 L 48 990 L 47 991 L 49 1000 L 48 1021 L 48 1023 L 49 1026 L 49 1049 L 47 1058 L 47 1067 L 46 1068 L 46 1093 L 45 1094 L 46 1096 Q 43 1097 45 1104 L 45 1106 L 43 1111 L 44 1114 L 41 1124 L 41 1130 Q 38 1132 39 1138 L 39 1140 L 38 1142 L 44 1141 L 47 1113 Q 50 1111 48 1110 Q 47 1102 51 1099 L 50 1097 L 51 1092 L 51 1090 L 56 1069 L 58 1050 L 58 1048 L 60 1038 L 60 1006 L 61 1005 L 60 1004 L 60 982 L 60 980 L 59 979 L 58 968 L 58 966 Q 55 964 56 959 L 56 957 L 51 949 L 49 946 L 44 941 Z " />
<path fill="rgb(2,2,2)" stroke="rgb(2,2,2)" stroke-width="1" opacity="1" d="M 154.5 1196 L 155 1198.5 L 154 1198.5 L 154.5 1196 Z " />
</svg>