
<svg width="830" height="1660" version="1.1" xmlns="http://www.w3.org/2000/svg" desc="Created with imagetracer.js version 1.2.6" >
<path fill="rgb(0,0,0)" stroke="rgb(0,0,0)" stroke-width="1" opacity="0.9882352941176471" d="M 374.5 159 L 378.5 160 L 380.5 159 L 383.5 160 L 394.5 160 L 395.5 161 Q 403.7 159.3 407.5 162 L 409.5 162 Q 415 163.5 416.5 161 L 419.5 162 Q 425.7 160.3 427.5 163 L 429.5 163 L 442.5 164 L 466.5 170 L 468.5 170 L 475.5 172 L 498.5 175 L 529.5 185 L 559.5 197 L 561.5 199 L 566.5 200 L 599.5 217 L 602 217 Q 600.9 219.7 603.5 219 L 617.5 227 L 619.5 227 Q 628.9 229.1 634 235.5 Q 632.9 238.8 635.5 238 L 648.5 244 L 696.5 257 L 733.5 270 L 738.5 270 L 751.5 274 L 767.5 275 L 776.5 277 L 788.5 277 Q 793.1 279.9 801.5 279 L 806.5 281 L 818.5 281 L 819.5 280 L 830 280 L 830 302 L 821.5 302 L 817.5 302 L 809.5 303 L 779.5 297 L 777.5 297 L 730.5 291 L 704.5 282 L 699.5 282 L 684.5 277 L 662.5 272 L 655.5 267 L 653.5 267 L 642.5 265 L 627.5 259 L 615.5 249 L 610 247 Q 611.1 244.3 608.5 245 L 591.5 234 L 583 231 Q 584.3 228 580.5 229 L 567.5 221 L 554.5 217 L 552.5 215 L 543.5 213 L 520.5 203 L 501.5 198 L 489.5 193 L 463.5 189 L 459.5 187 L 444.5 184 L 417.5 182 L 416.5 181 L 415.5 182 L 402.5 182 L 393.5 180 L 364.5 180 L 363.5 181 L 352.5 181 L 351.5 182 L 341.5 182 L 340.5 183 L 338.5 182 L 336.5 183 L 334.5 182 Q 333 185.5 331.5 183 L 313.5 185 L 306.5 187 L 304.5 187 L 271.5 192 L 243.5 202 L 227.5 206 L 185.5 225 L 176.5 231 L 137.5 250 L 134.5 253 L 115.5 261 L 86.5 278 L 54.5 288 L 41.5 295 L 18.5 301 L 15.5 300 L 11.5 302 L 0 302 L 0 282 L 14.5 282 L 16.5 280 L 36.5 274 L 43.5 269 L 46.5 269 Q 57 262.5 71.5 260 L 84.5 255 L 86.5 253 L 89.5 253 L 98.5 247 L 146.5 223 L 149 223 Q 147.8 220 151.5 221 L 191.5 201 L 213.5 193 L 217.5 190 L 224.5 189 L 253.5 178 L 283.5 171 L 298.5 170 L 304.5 168 L 318.5 167 L 357.5 160 L 359.5 161 L 360.5 160 L 373.5 160 L 374.5 159 Z " />
<path fill="rgb(0,0,0)" stroke="rgb(0,0,0)" stroke-width="1" opacity="0.9882352941176471" d="M 143.5 395 L 145 395.5 L 134.5 401 L 137.5 397 Q 142.1 397.6 143.5 395 Z " />
<path fill="rgb(0,0,0)" stroke="rgb(0,0,0)" stroke-width="1" opacity="0.9882352941176471" d="M 448.5 906 L 467.5 906 L 469.5 907 L 471.5 906 L 473.5 906 L 475.5 907 L 477.5 906 L 493.5 912 L 495.5 912 Q 505.6 914.4 511 921.5 Q 519.1 931.4 524 944.5 L 524 948.5 L 526 951.5 L 530 969.5 L 530 982.5 L 529 983.5 L 528 997.5 L 526 1002.5 L 526 1010.5 L 522 1021.5 L 522 1027.5 L 518 1042.5 L 513 1054.5 L 512 1060.5 L 510 1062.5 L 509 1068.5 L 503 1082.5 L 495 1096.5 L 490 1110.5 L 480 1128.5 L 477 1138.5 L 470 1151.5 L 465 1164.5 L 462 1180.5 L 460 1183.5 L 460 1185.5 L 456 1201.5 L 454 1216.5 Q 450.3 1218.8 451 1225.5 L 452 1229.5 L 451 1230.5 L 451 1253.5 L 450 1254.5 L 450 1256.5 L 450.5 1274 L 451.5 1272 L 452 1273.5 L 452 1275.5 L 451.5 1278 L 450.5 1276 L 450 1283.5 L 451 1283.5 L 451.5 1281 L 452 1283.5 L 452 1285.5 L 452 1293.5 L 451 1294.5 L 452 1296.5 Q 449.5 1298 453 1299.5 L 452 1303 L 454 1303.5 L 452 1304 L 454 1311.5 L 456 1332.5 Q 460.8 1342.2 462 1355.5 L 464 1357.5 L 466 1369.5 L 468 1372.5 L 470 1382.5 L 477 1401.5 L 486 1418 Q 489 1416.8 488 1420.5 L 492 1427 Q 494.7 1425.9 494 1428.5 L 499.5 1435 L 522.5 1430 L 524.5 1431 L 525.5 1430 L 546.5 1429 L 547.5 1428 L 557.5 1428 L 558.5 1427 L 581.5 1425 L 595.5 1422 L 613.5 1421 Q 615 1418.5 620.5 1420 L 622.5 1418 L 650.5 1416 L 654.5 1414 L 687.5 1412 L 695.5 1410 L 705.5 1410 L 716.5 1408 L 718.5 1408 L 747.5 1407 L 760.5 1404 L 762.5 1405 L 773 1387.5 L 779 1369.5 L 780 1361.5 L 790 1325.5 Q 787.8 1324.3 789 1319.5 L 790 1318.5 L 790 1302.5 L 791 1301.5 L 790 1299.5 L 793 1285.5 L 793 1273.5 L 794 1272.5 L 794 1270.5 L 796 1232.5 L 795 1231.5 L 794 1217.5 L 791 1202.5 L 791 1200.5 L 789 1193.5 L 789 1191.5 L 789 1184.5 L 786 1176.5 L 782 1156.5 L 780 1153.5 L 780 1149.5 L 778 1147.5 L 778 1144.5 L 766 1114.5 L 763 1102.5 L 754 1085.5 L 750 1070.5 L 739 1042.5 L 739 1037.5 L 736 1031.5 L 735 1024 Q 731.7 1025.3 733 1020.5 L 730 1006.5 L 730 1004.5 L 731 987.5 L 735 972.5 L 743 958.5 L 754.5 946 L 764.5 937 L 779.5 932 L 785.5 928 L 804.5 922 L 806.5 920 L 830 919 L 830 940 L 820.5 940 Q 818.8 942.7 812.5 941 L 810.5 941 L 775.5 953 L 763 964.5 L 752 980.5 L 750 987.5 L 749 1005.5 L 763 1053 Q 766.7 1051.7 765 1057.5 L 769 1064.5 L 773 1079.5 L 781 1096.5 L 793 1135.5 L 800 1152.5 L 807 1183.5 L 807 1190.5 L 811 1206.5 L 811 1214.5 L 813 1225 Q 816.5 1223.9 815 1231.5 Q 818.3 1236.2 817 1245.5 L 820 1248.5 L 821 1255 Q 817.7 1253.7 819 1258.5 L 821 1266.5 L 821 1268.5 L 820 1283.5 L 818 1288.5 L 813 1319.5 L 808 1335.5 L 808 1342.5 L 800 1372.5 L 800 1377.5 L 797 1385.5 L 798 1387.5 L 794.5 1395 Q 791.9 1394.2 793 1397.5 L 781.5 1420 Q 779.3 1419.3 780 1421.5 L 779 1424 L 761.5 1424 L 760.5 1425 L 757.5 1424 L 747.5 1426 L 734.5 1426 L 732.5 1425 L 731.5 1426 L 705.5 1427 L 704.5 1428 L 684.5 1429 L 668.5 1432 L 659.5 1432 L 653.5 1434 L 621.5 1437 L 619.5 1439 L 610.5 1439 L 600.5 1441 L 598.5 1441 L 582.5 1443 L 576.5 1445 L 574.5 1445 L 565.5 1445 L 557.5 1447 L 548.5 1447 L 547.5 1448 L 515.5 1451 L 511.5 1453 L 502.5 1453 L 497.5 1449 L 497 1451 Q 487.8 1450.9 484 1444.5 Q 484.8 1442.3 482.5 1443 L 471.5 1427 Q 469.3 1427.8 470 1425.5 L 466 1421.5 L 466 1419.5 L 459.5 1410 Q 457.3 1413 452 1412 L 449 1422.5 L 448 1432.5 L 442 1440.5 L 438.5 1449 Q 431.8 1450.2 429.5 1447 L 420.5 1447 L 416.5 1449 L 412.5 1448 L 409.5 1449 L 399.5 1447 L 396.5 1448 L 394.5 1448 L 391.5 1449 L 387.5 1448 L 385.5 1449 Q 384.2 1446.8 379.5 1448 L 377.5 1448 L 373.5 1449 L 371.5 1448 Q 370 1451.5 368.5 1449 L 361.5 1450 L 359.5 1450 L 347.5 1450 L 346.5 1451 L 343.5 1450 L 342.5 1451 L 330.5 1452 L 327.5 1454 L 318.5 1454 L 307.5 1457 L 296.5 1457 L 295.5 1458 L 293.5 1458 L 285.5 1458 L 276.5 1460 L 260.5 1460 L 259.5 1461 L 242.5 1462 L 241.5 1463 L 239.5 1462 L 225.5 1465 L 219.5 1465 L 215.5 1467 L 194.5 1467 L 192.5 1468 L 190.5 1468 L 165.5 1470 L 143.5 1475 L 132.5 1475 L 128 1474 L 128 1470.5 L 124 1466.5 L 124 1463.5 L 118.5 1458 Q 116.3 1458.8 117 1456.5 L 111 1450.5 L 98.5 1433 Q 96.3 1433.8 97 1431.5 L 95 1428 Q 92.3 1429.1 93 1426.5 Q 84.9 1416.2 81 1403 Q 77.3 1401.5 78 1404.5 L 76.5 1404 L 74.5 1405 L 72.5 1404 L 71.5 1405 L 60.5 1405 L 50.5 1407 L 45.5 1406 L 36.5 1409 L 34.5 1409 L 29.5 1408 Q 28 1410.5 22.5 1409 L 16 1400.5 L 10 1385.5 Q 11.2 1380.8 9 1379.5 L 9 1377.5 L 8 1374.5 L 9 1372.5 L 7 1364.5 L 7 1347.5 L 6 1346.5 L 7 1344.5 L 7 1342.5 L 6 1339.5 Q 8.3 1338.2 7 1333.5 L 6 1331.5 L 7 1328.5 L 7 1326.5 L 9 1292.5 L 12 1281.5 L 12 1276.5 L 15 1268.5 L 15 1263.5 L 19 1252.5 L 19 1248.5 L 27 1229.5 L 27 1225.5 L 37 1200.5 L 39 1191.5 L 47 1175.5 L 69 1145.5 L 83 1117.5 L 84 1111.5 L 91 1096.5 L 96 1077.5 L 99 1071.5 L 101 1057.5 L 105 1043.5 L 106 1028.5 L 105 1025.5 L 96 996.5 L 78 963.5 L 74 953.5 L 67.5 945 L 57 941 Q 58.1 938.3 55.5 939 L 49.5 941 L 41.5 941 L 35.5 943 L 29.5 943 Q 25.1 939.9 16.5 941 Q 15.2 943.3 10.5 942 L 9.5 941 L 0 941 L 0 920.5 Q 0.3 919.3 6.5 920 L 16.5 918 L 41.5 918 L 43.5 918 L 47.5 919 L 56.5 917 L 58.5 918 L 63.5 917 L 71.5 919 L 75.5 918 L 77.5 918 L 92.5 919 L 106.5 924 L 117.5 926 L 152.5 944 L 162 952.5 L 161.5 954 L 165 956.5 L 177 976.5 L 180 984.5 L 181 994.5 L 183 998.5 L 184 1017.5 L 183 1018.5 L 183 1030.5 L 179 1050.5 L 179 1052.5 L 173 1082.5 L 170 1086.5 Q 167.5 1097.5 162 1105.5 L 162 1108.5 L 140 1152.5 L 140 1155.5 L 121 1190.5 L 116 1205.5 L 104 1226.5 L 104 1228.5 L 91 1263.5 L 89 1277.5 L 87 1281.5 L 87 1287.5 L 85 1291.5 Q 86.1 1300.1 83 1304.5 L 83 1339.5 L 85 1347.5 L 85 1354.5 L 92 1383.5 L 97 1393.5 L 98 1398.5 L 111 1423 L 115 1425.5 L 116.5 1428 Q 118.8 1427.3 118 1429.5 Q 122.6 1432.4 124 1438.5 L 133.5 1448 L 138.5 1452 L 147.5 1452 L 148.5 1451 L 159.5 1451 L 165.5 1449 L 200.5 1447 L 201.5 1446 L 203.5 1447 L 204.5 1446 L 219 1446 L 219.5 1444 L 228.5 1444 L 236.5 1442 L 279.5 1440 L 282.5 1439 L 284.5 1439 L 303.5 1438 L 304.5 1437 L 322.5 1436 L 323.5 1435 L 341.5 1435 L 342.5 1434 L 352.5 1434 L 353.5 1433 L 358.5 1434 L 359.5 1433 L 380.5 1432 L 390.5 1430 L 392.5 1430 L 405.5 1430 L 406.5 1429 L 419.5 1429 L 420.5 1428 L 428 1428 L 433 1415.5 L 438 1395.5 L 447 1377.5 L 446 1373.5 L 447 1370.5 L 442 1358.5 L 435 1323.5 L 435 1321.5 L 432 1304.5 L 432 1296.5 L 431 1295.5 L 431 1269.5 L 432 1268.5 L 432 1239.5 L 434 1231.5 L 435 1212.5 L 437 1207.5 L 437 1202.5 L 441 1188.5 L 441 1182.5 L 443 1178.5 L 445 1165.5 L 450 1151.5 L 450 1145.5 L 449 1144.5 L 449 1134.5 L 448 1133.5 L 448 1129.5 L 448 1124.5 Q 443.4 1114.1 443 1099.5 L 438 1084.5 L 431 1073.5 L 409 1026.5 L 403 1019.5 L 398 1009.5 L 398 1006.5 L 394 1000.5 L 392 993.5 L 392 964.5 L 394 956.5 L 397 952.5 L 397 949.5 Q 400.7 946.7 401 940.5 L 414 921 L 416 921 L 416 919 Q 418.7 920.1 418 917.5 L 432.5 909 L 448.5 906 Z M 472 920 L 466 922 L 473 931 L 479 949 L 489 969 L 492 984 L 492 997 L 493 1000 Q 494 1004 492 1006 L 493 1013 L 493 1015 Q 490 1017 491 1024 L 491 1026 L 483 1045 L 473 1063 L 469 1075 L 465 1081 L 461 1084 L 463 1088 L 468 1109 L 475 1091 L 484 1074 L 489 1061 L 489 1058 L 499 1036 L 501 1023 L 504 1016 L 507 1000 L 509 996 L 510 983 L 511 982 L 511 974 L 509 967 L 509 962 L 506 954 L 504 943 L 496 931 L 488 924 L 472 920 Z M 440 925 Q 441 928 438 927 L 427 938 L 426 941 L 418 950 L 413 968 L 413 982 L 412 983 L 414 994 L 419 1000 L 431 1023 L 435 1027 Q 442 1046 453 1062 Q 456 1048 464 1039 L 468 1027 L 468 1025 L 470 1021 Q 469 1015 471 1014 L 471 991 L 471 989 L 468 971 L 457 946 L 456 941 L 450 932 L 440 925 Z M 87 936 L 87 939 L 97 953 L 119 996 L 128 1027 L 128 1041 L 126 1046 L 126 1051 L 122 1065 L 122 1069 L 120 1073 L 120 1077 L 115 1088 L 110 1105 L 106 1112 L 104 1121 L 100 1128 L 100 1131 L 95 1138 L 93 1145 L 88 1153 L 65 1184 L 50 1222 L 49 1229 L 44 1240 L 44 1244 Q 41 1244 42 1249 L 39 1254 L 34 1272 L 32 1286 L 30 1290 L 29 1310 L 29 1312 L 28 1313 L 27 1335 L 26 1336 L 27 1338 L 26 1341 L 27 1346 L 26 1349 L 28 1371 L 34 1386 L 44 1386 L 54 1383 L 73 1382 Q 70 1375 70 1365 L 68 1361 L 67 1342 L 66 1341 L 66 1305 L 69 1290 L 69 1286 L 74 1262 L 82 1238 L 86 1230 L 86 1226 L 96 1207 L 100 1194 L 109 1175 L 115 1163 L 118 1160 L 129 1133 L 140 1113 L 143 1102 L 153 1083 L 155 1075 L 155 1073 L 157 1064 L 157 1062 L 161 1049 L 163 1028 L 163 1026 L 164 1022 L 163 1001 Q 160 997 161 990 L 149 965 L 138 955 L 120 946 L 117 946 L 109 941 L 87 936 Z " />
<path fill="rgb(0,0,0)" stroke="rgb(0,0,0)" stroke-width="1" opacity="0.9882352941176471" d="M 451.5 1264 L 452 1267.5 L 451 1267.5 L 451.5 1264 Z " />
</svg>