
<svg width="830" height="1660" version="1.1" xmlns="http://www.w3.org/2000/svg" desc="Created with imagetracer.js version 1.2.6" >
<path fill="rgb(0,0,0)" stroke="rgb(0,0,0)" stroke-width="1" opacity="1" d="M 416.5 237 L 421.5 238 L 423.5 238 L 457.5 239 L 458.5 240 L 466.5 240 L 467.5 241 L 483.5 242 L 484.5 243 L 494.5 243 L 503.5 245 L 505.5 245 L 511.5 245 L 519.5 247 L 528.5 247 L 529.5 248 L 538.5 248 L 539.5 249 L 541.5 249 L 552.5 249 L 553.5 250 L 565.5 250 L 573.5 252 L 582.5 252 L 588.5 254 L 594.5 254 L 616.5 258 L 618.5 257 L 619.5 258 L 626.5 258 L 632.5 260 L 658.5 263 L 659.5 264 L 668.5 264 L 675.5 266 L 677.5 266 L 695.5 268 L 724.5 275 L 746.5 277 L 748.5 277 L 758.5 277 L 774.5 281 L 776.5 281 L 817.5 282 L 818.5 281 L 830 281 L 830 300 L 818.5 300 L 817.5 301 L 804.5 301 L 803.5 300 L 772.5 299 L 753.5 295 L 743.5 295 L 742.5 294 L 727.5 293 L 725.5 294 L 718.5 292 L 711.5 292 L 700.5 288 L 683.5 286 L 671.5 283 L 663.5 283 L 662.5 282 L 660.5 282 L 642.5 280 L 641.5 279 L 634.5 279 L 633.5 278 L 631.5 278 L 617.5 277 L 615.5 278 L 605.5 276 L 602.5 277 L 601.5 276 L 588.5 275 L 583.5 273 L 576.5 273 L 570.5 271 L 568.5 271 L 557.5 269 L 547.5 269 L 539.5 267 L 527.5 267 L 522.5 265 L 520.5 266 L 519.5 265 L 509.5 265 L 500.5 263 L 498.5 264 L 489.5 262 L 487.5 263 L 470.5 260 L 468.5 260 L 458.5 260 L 457.5 259 L 455.5 259 L 435.5 259 L 434.5 260 L 433.5 259 L 416.5 259 L 414.5 260 L 410.5 258 L 367.5 257 L 366.5 258 L 352.5 258 L 350.5 259 L 349.5 258 L 335.5 258 L 334.5 259 L 309.5 259 L 307.5 260 L 304.5 259 L 303.5 260 Q 290.2 258.2 281.5 261 L 279.5 260 L 268.5 262 L 266.5 261 L 265.5 262 L 242.5 262 L 241.5 263 L 230.5 263 L 229.5 264 L 215.5 264 L 212.5 266 L 196.5 267 L 181.5 270 L 173.5 270 L 172.5 271 L 145.5 274 L 130.5 278 L 112.5 279 Q 109.2 281.7 102.5 281 L 100.5 283 L 94.5 283 L 90.5 285 L 88.5 284 L 77.5 287 L 69.5 287 L 65.5 289 L 60.5 289 L 40.5 294 L 34.5 294 L 24.5 297 L 19.5 297 L 9.5 301 L 0 301 L 0 281.5 Q 0 280.5 4.5 281 L 19.5 277 L 21.5 277 L 61.5 267 L 67.5 267 L 86.5 263 L 93.5 263 L 116.5 258 L 124.5 258 L 125.5 257 L 145.5 255 L 152.5 253 L 168.5 252 L 169.5 251 L 176.5 251 L 177.5 250 L 200.5 248 L 201.5 247 L 209.5 247 L 218.5 244 L 220.5 244 Q 228.7 245.7 232.5 243 L 234.5 243 L 264.5 243 L 265.5 242 L 277.5 242 L 288.5 240 L 290.5 240 L 317.5 239 L 320.5 240 L 323.5 239 L 358.5 239 L 359.5 238 L 361.5 238 L 390.5 238 Q 392.3 240.8 398.5 239 L 400.5 239 Q 411.1 240.6 416.5 237 Z " />
<path fill="rgb(0,0,0)" stroke="rgb(0,0,0)" stroke-width="1" opacity="1" d="M 537.5 908 L 536 910.5 L 537 911.5 Q 536.3 913.8 538.5 913 Q 540.8 913.8 540 917.5 L 538 920.5 L 539 924.5 L 533 931.5 L 533 933.5 L 526 943 Q 523.3 941.9 524 944.5 L 516 955.5 L 517.5 956 Q 519 953.5 524.5 955 L 530.5 952 L 532.5 952 L 546.5 950 L 550.5 948 L 552.5 948 L 564.5 947 L 565.5 946 L 574.5 946 L 602.5 941 L 610.5 941 L 622.5 938 L 631.5 938 L 639.5 935 L 660.5 933 L 661.5 932 L 671.5 932 L 682.5 930 L 705.5 930 L 706.5 929 L 723.5 928 L 724.5 929 L 738.5 929 L 739.5 930 L 756.5 930 L 769.5 927 L 785.5 927 L 799.5 924 L 801.5 924 L 804.5 923 L 806.5 923 L 810.5 922 L 812.5 922 L 816.5 922 L 822.5 919 L 824.5 919 L 827.5 920 L 830 919 L 830 939 L 819.5 939 L 818.5 940 L 810.5 940 L 805.5 942 L 785.5 943 Q 784 940.5 778.5 942 L 777.5 943 L 765.5 944 L 761.5 943 L 759.5 943 L 757.5 942 L 755.5 942 L 747.5 944 L 733.5 945 L 732.5 944 L 719.5 943 L 716.5 944 L 709.5 943 L 708.5 944 L 693.5 944 L 691 943 L 690.5 945 L 683.5 945 L 682.5 946 L 670.5 947 L 661.5 950 L 654.5 950 L 648.5 952 L 618.5 956 L 612.5 959 L 605.5 959 L 598.5 961 L 592.5 961 L 587.5 963 L 549.5 967 L 510.5 976 L 508.5 976 Q 505.2 974.9 506 977.5 L 500 993.5 L 498 1004.5 L 495 1010.5 L 491 1029.5 L 492 1032.5 L 481 1081.5 L 481 1083.5 L 476 1105.5 L 474 1121.5 L 474 1123.5 L 471 1140.5 L 470 1154.5 L 469 1155.5 L 469 1157.5 L 467 1169.5 L 461 1188.5 L 460 1197.5 L 457 1203.5 L 451 1226.5 L 448 1230.5 L 449 1233.5 L 433 1278.5 L 424 1299.5 L 421 1308.5 L 420 1317.5 L 418 1319.5 L 418 1323.5 L 415 1331 L 421.5 1330 L 432.5 1334 L 439 1339.5 L 450 1353.5 L 454 1361.5 L 454 1365.5 L 451 1372.5 L 465 1379 L 466.5 1382 L 475 1387 Q 473.9 1389.7 476.5 1389 L 492 1402.5 L 504 1420.5 L 508 1432 Q 511.3 1430.7 510 1435.5 Q 514.8 1443.7 515 1456.5 L 512.5 1461 L 510 1460 Q 510.8 1463.8 507.5 1465 L 505.5 1466 L 494.5 1466 L 487.5 1463 L 485.5 1463 L 446.5 1461 L 445.5 1460 L 443.5 1460 L 419.5 1460 L 414.5 1462 L 412 1461.5 Q 412.8 1459.3 410.5 1460 L 410.5 1462 Q 408.3 1462.8 409 1460.5 L 406.5 1462 L 404.5 1460 Q 401.9 1459.3 403 1462 L 400.5 1462 L 398.5 1462 L 393.5 1460 L 389.5 1462 Q 388 1459.5 382.5 1461 L 379.5 1462 L 374.5 1463 L 370.5 1462 L 368 1463.5 Q 368.8 1461.3 366.5 1462 L 363.5 1464 L 358.5 1463 L 357.5 1464 L 347.5 1464 L 342.5 1466 L 340.5 1465 L 328.5 1468 Q 321 1466.5 317.5 1469 L 315.5 1469 Q 310.8 1467.8 309.5 1470 L 307.5 1470 L 275.5 1473 L 274.5 1474 L 266.5 1474 L 256.5 1477 L 254.5 1477 L 240.5 1478 L 233.5 1480 L 223.5 1480 L 214.5 1483 Q 205.5 1482 200.5 1485 L 183.5 1486 L 178.5 1485 L 164 1474.5 Q 159 1466.5 161 1451.5 L 162 1450.5 L 162 1441.5 L 164 1433.5 L 164 1431.5 L 164 1427.5 L 166 1422 L 162.5 1422 L 153.5 1427 L 127.5 1427 L 125.5 1427 L 122 1424.5 L 120 1421.5 L 121 1420.5 L 118 1417.5 L 118 1402.5 L 117 1400.5 L 117 1398.5 L 118 1395.5 L 117 1392.5 L 118 1389.5 L 117 1385.5 L 118 1384.5 L 119 1369.5 L 122 1358.5 L 131 1343 Q 133.7 1344.1 133 1341.5 Q 142.1 1332.1 155.5 1327 L 189.5 1317 L 197.5 1317 L 205.5 1319 L 207.5 1319 L 216.5 1318 L 221 1316 Q 223.6 1313.7 223 1307.5 L 230 1294.5 L 230 1290.5 L 233 1281.5 L 235 1279.5 L 241 1256.5 L 251 1231.5 L 250 1229.5 L 253 1219.5 L 253 1217.5 L 254 1206.5 L 256 1203.5 Q 254.8 1198.8 257 1197.5 L 256 1195.5 L 258 1188.5 L 257 1183.5 Q 259.5 1182 258 1176.5 L 260 1172.5 L 260 1170.5 Q 259.7 1155.2 264 1144.5 L 263 1142.5 L 265 1136.5 L 265 1125.5 L 266 1124.5 L 268 1106.5 L 267 1104.5 Q 269.8 1102.7 268 1096.5 Q 265.2 1094.7 267 1088.5 L 268 1087.5 L 268 1048.5 L 265 1031.5 L 263 1029.5 L 260 1014.5 L 247 986.5 L 235.5 970 L 232.5 968 L 230.5 969 Q 229 965.5 227.5 968 Q 220.1 968.9 216.5 966 L 215.5 967 L 206.5 967 L 205.5 966 L 190.5 965 L 174.5 962 L 172.5 963 L 171.5 962 L 154.5 961 L 147.5 959 L 139.5 959 L 132.5 957 L 123.5 957 L 117.5 955 L 115.5 955 L 90.5 953 L 83.5 951 L 68.5 950 L 62.5 948 L 60.5 948 L 48.5 947 L 41.5 945 L 34.5 945 L 21.5 942 L 12.5 942 L 10.5 943 L 0 941 L 0 921 L 14.5 921 L 15.5 920 L 24.5 920 L 36.5 924 L 47.5 925 L 51.5 927 L 59.5 927 L 61.5 929 L 63.5 929 L 86.5 932 L 99.5 935 L 117.5 936 L 133.5 939 L 135.5 939 L 173.5 943 L 174.5 944 L 176.5 944 L 194.5 946 L 196.5 946 L 215.5 948 Q 216.8 945.8 221.5 947 L 222.5 948 L 230.5 948 L 236.5 950 L 242.5 950 L 247.5 952 L 256.5 952 L 260.5 954 L 281.5 954 L 286.5 955 L 285 952.5 L 279 943.5 L 279 938.5 Q 280.3 935.8 285.5 937 L 295.5 941 L 300 945.5 L 308 957.5 L 326 994.5 L 326 997.5 L 332 1013.5 L 334 1029.5 L 337 1038.5 L 339 1056.5 L 340 1057.5 L 340 1059.5 L 341 1064.5 L 341 1095.5 L 340 1096.5 L 338 1134.5 L 337 1135.5 L 337 1145.5 L 336 1146.5 L 335 1169.5 L 334 1172.5 L 334 1174.5 L 330 1200 L 328 1200.5 L 329 1203.5 L 328 1206 L 326 1206.5 L 327 1209.5 L 325 1213.5 L 324 1216.5 L 325 1218.5 L 323 1218.5 L 322 1223.5 L 323 1225.5 L 321 1225.5 L 320 1230.5 L 321 1234.5 L 317 1247.5 L 318 1249.5 L 316 1252.5 L 316.5 1254 L 315 1254.5 L 316 1256.5 L 313 1260.5 L 314 1262.5 L 309 1272.5 L 308 1280.5 L 306 1283.5 L 304 1293.5 L 295 1318.5 L 295 1320.5 L 284 1354.5 L 285 1356.5 L 284 1357.5 L 283 1372.5 L 279.5 1378 L 274.5 1379 Q 273 1376.5 271.5 1380 Q 266.8 1378.8 265.5 1381 Q 264 1378.5 262.5 1382 L 255.5 1382 L 240.5 1385 L 238.5 1385 L 224.5 1388 L 217 1391.5 Q 217.8 1393.8 215.5 1393 Q 200.7 1398.2 192 1409.5 L 186 1421.5 L 186 1426.5 L 184 1432.5 L 185 1435.5 L 183 1439.5 L 182 1458.5 L 181 1460.5 Q 183.7 1462.3 182 1468.5 L 183.5 1470 Q 193.5 1469.5 200.5 1466 L 209.5 1466 L 222.5 1463 L 236.5 1462 L 240.5 1460 L 269.5 1455 L 271.5 1455 L 283.5 1454 L 288.5 1452 L 311.5 1450 L 318.5 1448 L 343.5 1446 L 348.5 1444 L 350.5 1444 L 358.5 1442 L 367.5 1442 L 378.5 1440 L 383.5 1441 L 385.5 1441 L 387.5 1440 L 389.5 1441 L 391.5 1440 L 393.5 1441 L 396.5 1440 L 398.5 1441 L 399.5 1440 L 415.5 1440 L 418.5 1441 L 419.5 1440 L 452.5 1440 L 454.5 1440 L 457.5 1441 L 459.5 1440 L 460.5 1441 L 477.5 1441 L 492.5 1444 L 495 1443 L 492 1432 Q 489.3 1433.1 490 1430.5 L 480 1414.5 L 473.5 1407 L 465 1400.5 Q 465.8 1398.3 463.5 1399 L 455 1393 Q 456.1 1390.3 453.5 1391 L 443.5 1386 L 418.5 1377 L 416.5 1377 L 414.5 1377 L 407.5 1371 Q 406.1 1373.6 401.5 1373 L 399 1372 L 397 1367.5 L 396 1357.5 L 397 1356.5 L 397 1336.5 L 399 1329.5 L 401 1327.5 L 408 1303.5 L 427 1257.5 Q 428.2 1246.2 433 1238.5 L 433 1236.5 L 434 1226.5 L 439 1209.5 L 438 1207.5 L 440 1205.5 L 443 1195.5 L 444 1184.5 L 450 1165.5 L 450 1160.5 L 452 1153.5 L 452 1144.5 L 453 1143.5 L 453 1141.5 L 453 1135.5 L 456 1123.5 L 457 1108.5 L 462 1091.5 L 462 1086.5 L 466 1072.5 L 466 1066.5 L 470 1053.5 L 472 1035.5 L 474 1030.5 L 473 1025.5 L 481 994.5 L 485 984.5 L 485 980.5 L 487 977.5 L 488 970.5 L 499 948.5 L 507 937 Q 509.7 938.1 509 935.5 Q 518.1 928.7 523 919 L 528 915.5 L 529.5 913 L 530.5 914 L 535.5 909 L 537.5 908 Z M 261 973 L 276 1003 L 282 1019 L 284 1030 L 286 1033 L 287 1044 L 289 1050 L 289 1080 L 289 1082 Q 286 1083 288 1090 L 288 1092 L 287 1093 L 287 1116 L 285 1125 L 284 1142 L 283 1143 L 283 1152 L 280 1162 L 279 1177 L 276 1189 L 276 1198 L 270 1226 L 270 1234 L 256 1269 L 254 1279 L 252 1281 L 249 1291 Q 250 1293 247 1292 L 248 1295 Q 249 1297 246 1296 L 237 1318 L 237 1326 L 235 1326 L 233 1329 L 234 1330 Q 231 1329 232 1333 L 229 1334 Q 223 1336 222 1333 Q 217 1332 216 1335 L 210 1335 L 203 1333 L 193 1333 L 172 1337 L 153 1346 L 145 1357 L 142 1358 L 138 1367 L 136 1375 L 135 1397 L 136 1400 L 136 1409 L 147 1409 L 149 1409 L 156 1406 L 172 1405 L 179 1392 L 191 1383 Q 193 1384 192 1381 L 207 1373 L 231 1363 L 238 1363 L 248 1360 L 265 1359 L 270 1349 L 280 1316 L 287 1300 L 295 1271 L 303 1250 L 305 1237 L 305 1235 L 310 1208 L 312 1205 L 315 1192 L 317 1172 L 318 1171 L 318 1153 Q 320 1151 319 1147 L 319 1145 L 321 1134 L 321 1120 L 322 1119 L 321 1116 L 322 1114 L 322 1095 L 323 1092 L 321 1063 L 321 1061 L 318 1047 L 318 1041 L 316 1035 Q 318 1029 314 1030 L 314 1023 L 309 1004 L 303 988 L 299 982 L 299 979 Q 297 974 296 977 L 284 976 L 278 974 Q 267 975 261 973 Z M 411 1346 L 411 1349 L 410 1352 L 410 1356 Q 413 1355 412 1358 L 417 1361 L 437 1367 Q 438 1361 434 1359 L 430 1355 L 426 1349 L 421 1347 L 411 1346 Z " />
</svg>