
<svg width="830" height="1660" version="1.1" xmlns="http://www.w3.org/2000/svg" desc="Created with imagetracer.js version 1.2.6" >
<path fill="rgb(2,2,2)" stroke="rgb(2,2,2)" stroke-width="1" opacity="1" d="M 353.5 231 L 356.5 232 L 370.5 232 L 371.5 231 L 372.5 232 L 445.5 232 L 446.5 233 L 472.5 233 L 473.5 234 L 505.5 235 L 506.5 236 L 532.5 237 L 534.5 238 L 536.5 238 L 550.5 236 L 551.5 237 L 561.5 237 L 562.5 238 L 564.5 238 L 583.5 240 L 597.5 244 L 603.5 244 L 608.5 246 L 638.5 250 L 659.5 255 L 667.5 255 L 676.5 258 L 678.5 258 L 689.5 259 L 695.5 261 L 702.5 261 L 707.5 263 L 714.5 263 L 744.5 269 L 751.5 269 L 763.5 272 L 770.5 272 L 777.5 275 L 779.5 275 L 792.5 277 L 796.5 279 Q 804.7 277.3 808.5 280 L 810.5 280 L 821.5 281 L 823.5 280 L 830 281 L 830 300 L 818.5 300 L 801.5 297 L 798.5 298 L 784.5 294 L 755.5 290 L 750.5 288 L 743.5 288 L 741.5 286 L 739.5 286 L 736.5 287 L 712.5 282 L 703.5 282 L 694.5 280 L 670.5 278 L 637.5 269 L 632.5 269 L 625 266 Q 626.1 268.7 623.5 268 Q 621.8 270.8 615.5 269 L 604.5 265 L 598.5 265 L 592.5 263 L 590.5 263 L 583.5 263 L 580.5 261 L 576.5 261 L 567.5 258 L 555 257.5 L 555.5 256 L 547.5 255 L 543.5 257 L 542.5 256 L 524.5 256 L 523.5 255 L 499.5 254 L 497.5 253 L 495.5 253 L 486.5 253 L 485.5 254 L 476.5 252 L 474.5 252 L 464.5 252 L 463.5 251 Q 462 253.5 456.5 252 L 455.5 251 L 423.5 251 L 422.5 250 L 419.5 251 L 415.5 250 L 412.5 251 L 408.5 250 L 407.5 251 L 397.5 251 Q 396.2 248.7 391.5 250 L 389.5 251 L 388.5 250 L 377.5 250 L 375.5 250 L 370.5 251 L 366.5 250 L 364.5 251 L 360.5 250 L 358.5 250 L 354.5 251 L 334.5 251 L 332.5 252 L 330.5 252 L 286.5 254 L 285.5 255 L 275.5 255 L 274.5 256 L 258.5 257 L 257.5 258 L 255.5 258 L 246.5 258 L 245.5 259 L 237.5 259 L 227.5 261 L 225.5 261 L 214.5 262 L 179.5 270 L 179.5 268 L 172.5 270 L 170.5 270 L 166.5 271 L 165.5 270 L 161.5 272 L 148.5 274 L 146.5 273 L 134 276 Q 135.3 279.7 129.5 278 L 122.5 280 L 113.5 280 L 102.5 284 L 93.5 285 L 89.5 287 Q 78.9 287.4 71.5 291 L 69.5 291 L 46.5 297 L 44.5 297 L 34.5 300 L 15.5 302 L 14.5 303 L 12.5 302 L 10.5 303 L 7.5 302 L 0 302 L 0 282.5 Q 1 280 5.5 281 L 6.5 282 L 24.5 282 L 27.5 281 L 35.5 279 L 48.5 278 L 51.5 276 L 61.5 274 L 63.5 272 L 65.5 272 L 85.5 269 L 109.5 263 L 130.5 261 L 146.5 257 L 164.5 255 L 192.5 248 L 212.5 245 L 221.5 242 L 223.5 243 L 230.5 241 L 232.5 241 L 242.5 241 L 251.5 239 L 253.5 239 L 261.5 239 L 262.5 238 L 270.5 238 L 271.5 237 L 288.5 236 L 289.5 235 L 291.5 235 L 352.5 232 L 353.5 231 Z " />
<path fill="rgb(2,2,2)" stroke="rgb(2,2,2)" stroke-width="1" opacity="1" d="M 180.5 900 L 190 902 L 191.5 905 L 194 906.5 Q 193.3 908.8 195.5 908 L 201.5 915 L 208 920.5 L 214.5 929 L 220 932 L 240 961.5 L 247 976.5 L 251 980.5 L 256 989.5 L 265 1008.5 L 274 1037.5 L 279 1047.5 L 288 1082.5 L 289 1105.5 L 290 1106.5 L 290 1141.5 L 289 1142.5 L 289 1154.5 L 288 1155.5 L 288 1167.5 L 287 1168.5 L 287 1170.5 L 286 1183.5 L 282 1200.5 L 282 1205.5 L 276 1227.5 L 274 1230.5 L 273 1238.5 L 268 1253.5 L 266 1255.5 L 262 1271.5 L 260 1273.5 L 252 1296.5 L 248 1302.5 L 248 1304.5 L 246 1307.5 L 247 1310.5 L 243.5 1315 L 238 1317 Q 239.1 1319.7 236.5 1319 Q 233.6 1321.6 227.5 1321 L 218 1315.5 L 216.5 1313 Q 210.2 1312.4 208 1307.5 L 204.5 1303 L 189.5 1294 L 173.5 1291 L 172.5 1292 L 157.5 1293 L 142.5 1298 L 129.5 1306 L 119 1316.5 L 104 1338.5 Q 102.7 1346.7 98 1351.5 L 92 1370.5 Q 84.7 1380.2 82 1394.5 L 79 1398.5 Q 80.3 1401.2 81.5 1399 L 83.5 1400 L 93.5 1398 L 120.5 1397 L 121.5 1396 L 139.5 1396 L 140.5 1395 L 142.5 1395 L 144.5 1396 L 145.5 1395 L 169.5 1394 L 170.5 1393 L 172.5 1393 L 207.5 1391 L 216.5 1389 L 218.5 1389 L 225.5 1389 L 238.5 1386 L 240.5 1386 L 244.5 1385 L 246.5 1386 L 256.5 1384 L 258.5 1384 L 275.5 1384 L 276.5 1383 L 293.5 1382 L 312 1379 L 313 1373.5 L 325 1356.5 L 336 1334.5 L 360 1301.5 L 365 1292 Q 367.7 1293.1 367 1290.5 L 374 1278.5 L 382 1269.5 L 389 1254.5 L 394 1248.5 L 402 1233.5 L 401 1232.5 L 403.5 1229 L 402 1228.5 L 406 1225.5 Q 406.8 1223.3 404.5 1224 L 404.5 1223 L 406.5 1224 L 411 1212 Q 414.3 1213.3 413 1208.5 L 418 1195.5 L 417.5 1194 Q 419.8 1194.8 419 1192.5 L 417 1192.5 L 421 1186.5 L 425 1175.5 L 425 1173.5 L 426 1170.5 L 426 1168.5 Q 426.8 1166.3 424.5 1167 L 424.5 1166 Q 428.7 1167.3 427 1162.5 L 431 1145.5 L 431 1143.5 Q 430.4 1137.4 433 1134.5 L 433 1125.5 L 435 1120.5 L 435 1118.5 L 435 1094.5 L 436 1093.5 L 436 1091.5 L 435 1056.5 L 429 1036.5 L 427 1018.5 L 423 1007.5 L 419 984.5 L 417 979.5 L 416 956.5 L 415 955.5 L 415 946.5 L 413 940.5 L 413 930.5 L 417 916 L 420.5 915 L 422.5 915 L 426 916 Q 430.6 924.3 429 939 L 435.5 938 L 441.5 940 L 444.5 939 L 454.5 937 L 456.5 937 Q 462.8 938.7 464.5 936 L 468.5 938 L 470.5 938 L 478 940 L 487 922.5 L 495.5 913 L 504.5 906 L 506.5 908 L 512 909 L 513 913.5 L 496 936.5 L 488 956.5 L 488 960.5 L 486 963.5 L 486 968.5 L 483 977.5 L 483 984.5 L 475 1013.5 L 473 1029.5 L 474 1032.5 L 472 1043.5 L 472 1056.5 L 473 1059.5 L 474 1073.5 L 476 1081.5 L 476 1083.5 L 477 1090.5 L 477 1092.5 L 477 1097.5 L 479 1103.5 L 479 1111.5 L 481 1114.5 L 481 1116.5 L 483 1126.5 L 483 1128.5 L 484 1138.5 L 490 1153.5 Q 487.5 1155 491 1156.5 L 503 1187.5 L 503 1192.5 L 508 1201.5 L 512 1214.5 L 515 1218.5 L 521 1240.5 L 529 1255.5 L 531 1262.5 L 531 1267.5 L 533 1270.5 L 537 1287.5 L 536 1287.5 L 535.5 1285 L 535 1290.5 L 537 1295.5 L 536.5 1297 L 538 1297.5 L 535 1299.5 L 537 1308 L 535 1308.5 L 535 1315.5 L 533 1318.5 L 533 1320.5 L 533 1327.5 L 530 1338.5 L 530 1345.5 Q 527.3 1348.8 528 1355.5 L 525 1361.5 L 526.5 1362 L 528.5 1362 L 535.5 1361 L 537.5 1361 L 548.5 1361 L 549.5 1360 L 551.5 1360 L 556.5 1361 L 558.5 1360 L 559.5 1361 L 588.5 1361 L 590.5 1361 L 593.5 1360 L 595.5 1361 L 599.5 1361 L 627.5 1361 L 628.5 1362 L 632.5 1361 L 635.5 1362 L 640.5 1361 L 641.5 1362 L 677.5 1362 L 713.5 1355 L 740.5 1354 L 742.5 1353 Q 744.3 1355.7 746 1351.5 L 745 1347.5 Q 747.5 1346 746 1340.5 L 745 1339.5 L 745 1327.5 L 744 1326.5 L 744 1324.5 L 740 1299.5 L 736 1289.5 L 728 1277 L 724.5 1276 L 714 1268 L 711 1262 L 689.5 1250 L 676.5 1246 L 674.5 1246 L 661.5 1245 L 659.5 1245 L 644.5 1246 L 642.5 1246 L 637.5 1245 L 636 1245.5 Q 636.8 1243.3 634.5 1244 L 631 1241.5 L 632 1229.5 L 629 1219.5 L 627 1201.5 L 622 1180.5 L 622 1178.5 L 618 1163.5 L 615 1139.5 L 613 1133.5 L 613 1126.5 L 611 1121.5 L 610 1089.5 L 616 1062.5 L 632 1020.5 L 631.5 1019 L 633 1019.5 L 635 1016.5 L 633 1015.5 L 635 1015 L 636 1011.5 L 635.5 1008 L 637 1008.5 L 640 998.5 L 652 975.5 L 659 957.5 L 675.5 940 L 703.5 927 Q 705 929.5 706.5 926 L 732.5 920 L 742.5 920 L 756.5 917 L 774.5 917 L 782.5 920 L 797.5 920 L 798.5 921 L 800.5 920 L 801.5 921 L 812.5 921 L 820.5 919 L 830 919 L 829.5 940 Q 827.8 937.3 821.5 939 Q 820.3 941.2 815.5 940 L 809.5 937 L 806.5 937 Q 804.8 939.8 798.5 938 L 788.5 936 L 785.5 937 L 772.5 933 L 771.5 934 L 757.5 934 L 756.5 935 L 754.5 935 L 743.5 936 L 742.5 937 L 734.5 937 L 721.5 941 L 717.5 941 L 692.5 955 L 682 964.5 L 675 974.5 L 665 995.5 L 661 1000.5 L 653 1023.5 L 645 1039.5 L 641 1054.5 L 641 1059.5 L 639 1063.5 L 637 1078.5 L 635 1081.5 L 631 1097.5 L 630 1115.5 Q 632.7 1117.3 631 1123.5 L 633 1127.5 L 633 1133.5 L 635 1138.5 L 635 1144.5 L 637 1148.5 L 637 1153.5 L 639 1159.5 L 639 1165.5 L 643 1176.5 L 645 1191.5 L 647 1196.5 L 647 1201.5 L 649 1207.5 L 649 1215.5 L 652 1226 L 681.5 1229 L 691.5 1233 L 699 1238 Q 697.9 1240.7 700.5 1240 L 705.5 1244 L 726 1253 L 733.5 1262 L 739 1265 Q 737.9 1267.7 740.5 1267 L 750 1276.5 L 757 1290.5 L 757 1293.5 L 759 1295.5 L 761 1311.5 L 764 1320.5 L 765 1355.5 L 762 1365.5 L 762 1367.5 Q 762.8 1369.8 760.5 1369 Q 756.9 1373.9 749.5 1375 L 733.5 1375 L 731.5 1376 L 727.5 1376 L 717.5 1376 L 716.5 1377 L 700.5 1378 L 692.5 1380 L 663.5 1382 L 660.5 1381 L 659.5 1382 L 638.5 1382 L 636.5 1382 L 620.5 1382 L 619.5 1381 L 618.5 1382 L 610.5 1382 L 607.5 1381 L 604.5 1382 L 603.5 1381 L 595.5 1381 L 594.5 1382 L 562.5 1382 L 560.5 1381 L 558.5 1382 Q 557.3 1379.8 552.5 1381 L 550.5 1381 L 518.5 1384 L 515 1381.5 L 511 1372 Q 507.7 1373.3 509 1368.5 L 510 1367.5 L 511 1356.5 L 517 1339.5 L 517 1330.5 L 520 1319.5 L 520 1317.5 L 522 1308.5 L 522 1300 L 509.5 1300 L 500.5 1297 L 499.5 1298 L 485.5 1298 L 471.5 1301 L 461 1294.5 L 461 1290.5 L 464 1284.5 L 466 1264.5 L 465 1261.5 L 466 1251.5 L 464 1241.5 L 464 1239.5 L 463 1229.5 L 457 1209.5 L 457 1203.5 L 447 1172.5 L 445.5 1163 L 443 1171.5 L 444 1174.5 L 443 1174.5 L 442.5 1172 L 441 1179.5 L 442 1181.5 Q 439.4 1182.9 440 1187.5 L 437 1190.5 L 437 1193.5 L 437.5 1195 L 436 1194.5 L 433 1199.5 L 435 1200.5 L 432.5 1205 L 431 1204.5 L 432 1208 Q 429 1206.8 430 1210.5 L 430 1212.5 L 429 1215.5 L 429.5 1217 L 427.5 1216 L 427.5 1218 Q 425.3 1217.3 426 1219.5 L 425 1221.5 L 425.5 1223 L 424 1223.5 L 424.5 1225 L 423 1225.5 L 423.5 1227 L 422 1226.5 L 423 1229.5 L 421 1230 L 422 1232.5 L 419 1233.5 L 420 1236.5 L 412 1251 L 409 1251.5 L 409 1253.5 Q 409.8 1255.8 407.5 1255 L 407 1257.5 Q 407.8 1259.8 405.5 1259 L 405 1261.5 L 404 1266 Q 401 1264.8 402 1268.5 L 399 1270.5 Q 401.5 1272 398 1273.5 L 396.5 1276 L 395 1276.5 L 395 1278.5 L 394 1282 L 391 1282.5 Q 393.3 1283.8 390.5 1285 L 389 1285.5 L 389 1287.5 Q 389.7 1290.1 387 1289 L 387 1291.5 L 379 1300.5 Q 381.5 1302 378 1303.5 Q 378.8 1305.8 376.5 1305 L 374 1306.5 L 376 1307.5 L 373 1309.5 L 373 1311.5 L 368.5 1316 L 367 1316.5 L 367 1318.5 L 365.5 1322 L 362.5 1324 L 362.5 1326 L 361 1325.5 Q 361.8 1330.3 358.5 1331 L 356 1332.5 L 356 1334.5 L 353 1341 L 350 1341.5 L 350 1343.5 L 346.5 1352 L 345 1352.5 L 346 1354.5 L 342 1363 Q 338.3 1361.7 340 1367.5 L 335 1374.5 L 335.5 1376 L 334 1375.5 L 330.5 1384 L 328.5 1384 Q 325.2 1382.9 326 1385.5 L 325.5 1387 L 327 1387.5 L 322 1398 L 286.5 1400 L 269.5 1403 L 240.5 1404 L 232.5 1406 L 230.5 1406 L 216.5 1409 L 198.5 1410 L 197.5 1411 L 195.5 1411 L 172.5 1412 L 171.5 1413 L 163.5 1413 L 155.5 1415 L 143.5 1415 L 142.5 1416 L 140.5 1415 L 138.5 1415 L 134.5 1416 L 113.5 1416 L 112.5 1417 L 102.5 1417 L 101.5 1418 L 83.5 1419 L 82.5 1420 L 69.5 1420 L 68.5 1421 L 60 1413.5 L 59 1404 L 64 1402 L 64 1396.5 Q 67.6 1390.1 68 1380.5 L 74 1369.5 L 75 1363.5 L 77 1361.5 L 82 1347.5 L 82 1344.5 L 88 1332.5 L 91 1329.5 L 94 1321.5 L 103 1309.5 L 88.5 1306 L 72.5 1305 Q 70.8 1307.7 64.5 1306 L 61.5 1305 L 55 1302 L 52 1296.5 L 52 1282.5 L 56 1267.5 L 63 1250.5 Q 72.8 1240.3 79 1226.5 L 88 1217.5 L 88 1216 L 90 1216 L 90 1214 Q 92.7 1215.1 92 1212.5 Q 103.4 1200.4 118.5 1192 Q 129 1190.5 136.5 1186 L 149.5 1185 Q 151.3 1187.8 157.5 1186 L 170.5 1190 L 179.5 1195 L 188 1202 Q 186.9 1204.7 189.5 1204 Q 196.2 1208.8 199.5 1217 L 205 1206.5 L 209 1193.5 L 210 1181.5 L 216 1156.5 L 216 1138.5 L 217 1137.5 L 216 1136.5 L 216 1124.5 L 217 1122.5 L 216 1120.5 L 216 1118.5 L 212 1092.5 L 210 1088.5 L 206 1065.5 L 202 1053.5 L 202 1048.5 L 199 1036.5 L 197 1033.5 L 197 1029.5 L 188 1001.5 L 170 964.5 L 169 951 L 144.5 947 L 142.5 947 L 111.5 942 L 110.5 943 L 100.5 943 L 99.5 944 L 83.5 944 L 82.5 943 L 67.5 943 L 65.5 944 L 43.5 940 L 28.5 940 L 25.5 941 L 23.5 940 L 20.5 941 L 19.5 940 L 11.5 940 L 9.5 940 L 0 940 L 0 920 L 12.5 919 L 13.5 920 L 32.5 920 L 33.5 921 L 45.5 922 L 48.5 921 L 59.5 921 L 66.5 923 L 74.5 923 L 84.5 925 L 86.5 925 L 116.5 926 L 145.5 931 L 147.5 931 L 167.5 935 L 174.5 935 L 193 938 L 190.5 934 L 188 932.5 L 184.5 928 L 181 925.5 L 178 920 Q 175.3 921.1 176 918.5 Q 172.1 915.9 173 908.5 L 175 903 L 180.5 900 Z M 182 953 L 184 955 L 205 995 L 210 1012 L 212 1014 L 212 1018 Q 216 1023 216 1032 L 220 1042 L 222 1056 L 226 1067 L 230 1089 L 232 1094 L 235 1119 L 235 1121 L 234 1126 L 235 1130 L 234 1155 L 227 1185 L 225 1199 L 220 1211 L 220 1219 L 216 1226 L 216 1229 L 208 1241 L 206 1248 L 203 1251 L 198 1252 L 191 1249 L 187 1244 L 186 1235 L 181 1225 L 173 1218 L 171 1214 Q 168 1215 169 1212 L 159 1205 L 150 1203 L 147 1204 L 146 1202 L 128 1207 Q 120 1210 116 1216 L 113 1218 Q 102 1225 96 1237 Q 97 1239 94 1238 L 94 1241 L 92 1241 L 92 1244 L 82 1257 Q 81 1267 76 1273 L 74 1288 L 88 1289 L 95 1291 L 97 1291 L 100 1293 L 105 1293 L 111 1295 L 116 1295 L 132 1283 L 145 1277 L 170 1272 L 183 1273 L 201 1278 L 222 1293 L 223 1296 L 226 1298 Q 225 1295 228 1296 L 229 1291 L 233 1285 L 234 1279 L 241 1266 L 246 1250 L 248 1248 L 249 1240 L 249 1238 L 251 1236 L 251 1231 L 256 1217 L 256 1215 L 261 1200 Q 260 1193 263 1190 L 263 1183 L 265 1177 L 266 1157 L 267 1156 L 267 1139 L 268 1137 L 268 1135 L 268 1111 L 267 1110 L 267 1101 L 266 1100 L 264 1081 L 264 1079 L 259 1059 L 249 1036 L 243 1016 L 239 1010 L 239 1007 L 211 960 L 201 955 L 182 953 Z M 461 953 L 448 956 L 449 959 L 446 971 L 445 984 L 445 988 L 445 1003 L 444 1008 L 444 1010 L 447 1023 L 448 1036 Q 451 1038 450 1045 L 452 1048 L 453 1059 L 454 1060 L 454 1080 L 454 1082 L 455 1084 L 455 1086 L 454 1089 L 454 1111 L 453 1112 L 453 1116 L 457 1124 L 458 1135 L 458 1137 L 459 1148 Q 464 1154 464 1166 L 477 1203 L 477 1209 L 483 1231 L 485 1254 L 485 1256 Q 483 1257 484 1262 L 484 1264 L 483 1265 L 483 1276 L 482 1277 Q 481 1282 484 1283 L 492 1283 L 499 1281 L 506 1281 L 516 1285 L 524 1284 L 522 1274 L 520 1272 L 515 1257 L 508 1244 L 504 1226 L 495 1210 L 495 1207 L 486 1189 L 480 1170 L 475 1161 L 471 1146 L 469 1143 L 465 1120 L 460 1103 L 458 1081 L 454 1058 L 454 1049 L 454 1047 L 457 1035 L 457 1022 L 460 1005 L 460 1003 L 461 1000 L 461 998 L 465 990 L 469 967 L 473 955 L 461 953 Z M 433 955 L 434 968 L 435 967 L 437 957 Q 436 954 435 956 L 433 955 Z M 439 1186 L 437 1189 L 439 1188 L 439 1186 Z " />
<path fill="rgb(2,2,2)" stroke="rgb(2,2,2)" stroke-width="1" opacity="1" d="M 411.5 1209 L 410 1211.5 L 409.5 1213 L 409 1211.5 L 411.5 1209 Z " />
</svg>