
<svg width="830" height="1660" version="1.1" xmlns="http://www.w3.org/2000/svg" desc="Created with imagetracer.js version 1.2.6" >
<path stroke="rgb(1,1,1)" stroke-width="1" opacity="1" d="M 299.5 245 L 302.5 246 L 303.5 245 L 360.5 245 L 362.5 245 L 376.5 245 L 377.5 246 L 379.5 246 L 416.5 246 L 417.5 245 L 426.5 245 L 431.5 246 L 433.5 245 L 436.5 246 L 438.5 245 L 439.5 246 L 456.5 246 L 457.5 247 L 478.5 249 L 480.5 249 Q 491.1 247.4 496.5 251 L 498.5 251 L 500.5 250 L 506.5 252 L 508.5 251 L 521.5 255 L 523.5 254 L 528.5 257 L 531.5 256 L 543.5 257 L 546.5 259 L 549.5 258 L 550.5 259 L 558.5 259 L 562.5 261 L 564.5 261 Q 569.1 260.4 570.5 263 L 574.5 262 L 575.5 263 L 587.5 263 L 589.5 264 L 591.5 264 L 602.5 264 L 603.5 265 L 605.5 265 L 614.5 265 L 621.5 267 L 631.5 267 L 639.5 269 L 641.5 269 L 649.5 269 L 650.5 270 L 652.5 270 L 654.5 271 L 659.5 270 L 668.5 270 L 669 271.5 L 670 271.5 Q 669.3 269.3 671.5 270 L 679.5 272 L 682.5 271 L 683.5 272 L 698.5 272 L 699.5 273 L 701.5 273 L 706.5 274 L 726.5 274 L 728.5 274 L 736.5 273 L 737.5 274 L 773.5 274 L 774.5 275 L 812.5 275 L 830 278 L 830 298 L 816.5 298 L 806.5 295 L 779.5 294 L 778.5 293 L 776.5 293 Q 771.8 294.3 770.5 292 L 732.5 292 L 731.5 291 L 729.5 291 L 726.5 292 L 723.5 291 L 720.5 292 L 718.5 291 L 715.5 292 L 707.5 290 L 705.5 291 L 703.5 290 L 701.5 290 Q 693.3 291.7 689.5 289 L 687.5 289 L 659.5 288 L 656.5 289 L 643.5 287 L 641.5 287 L 630.5 287 L 629.5 286 L 602.5 284 L 601.5 283 L 565.5 281 L 553.5 278 L 551.5 278 L 519.5 275 L 493.5 269 L 489.5 269 Q 484.7 270.2 483.5 268 L 481.5 268 L 450.5 266 L 448.5 265 L 446.5 265 L 417.5 265 L 416.5 266 L 407.5 266 L 405.5 266 L 403.5 265 L 376.5 265 L 375.5 264 L 372.5 265 L 369.5 264 L 367.5 265 L 363.5 265 L 361.5 264 L 308.5 264 L 305.5 265 L 288.5 265 L 287.5 266 L 275.5 266 L 274.5 267 L 263.5 267 L 262.5 268 L 247.5 268 L 246.5 269 L 244.5 269 L 230.5 270 L 229.5 271 L 227.5 271 L 208.5 273 L 207.5 274 L 197.5 274 L 182.5 277 L 180.5 277 Q 174.8 276.3 172.5 279 L 161.5 279 L 160.5 280 L 158.5 279 L 157.5 280 L 148.5 280 L 140.5 282 L 123.5 283 L 109.5 286 L 107.5 286 L 93.5 287 L 86.5 289 L 67.5 290 L 58.5 292 L 56.5 292 L 31.5 293 L 30.5 294 L 17.5 295 L 5.5 299 L 0 299 L 0 280.5 L 1.5 280 L 12.5 277 L 29.5 275 L 34.5 273 L 57.5 272 L 73.5 269 L 75.5 269 L 82.5 269 L 97.5 266 L 105.5 266 L 126.5 262 L 153.5 260 L 154.5 259 L 164.5 259 L 165.5 258 L 169.5 258 L 175.5 258 L 178.5 256 L 183.5 256 L 190.5 254 L 192.5 254 L 200.5 253 L 202.5 253 L 209.5 253 L 219.5 251 L 221.5 252 L 222.5 251 L 243.5 250 L 251.5 248 L 267.5 248 L 268.5 247 L 270.5 247 L 298.5 246 L 299.5 245 Z " />
<path stroke="rgb(1,1,1)" stroke-width="1" opacity="1" d="M 425.5 907 L 438.5 907 L 447.5 909 L 473.5 920 L 501.5 941 L 512 951.5 L 514.5 955 Q 516.8 954.3 516 956.5 L 523 969 Q 525.7 967.9 525 970.5 L 537 993.5 L 544 1015.5 L 544 1017.5 L 545 1021.5 L 544.5 1023 L 546 1023.5 L 544 1024.5 L 546 1025 L 548 1034.5 L 548 1043.5 L 550 1049.5 L 551 1064.5 L 553 1070.5 L 553 1087.5 L 554 1088.5 L 553 1091.5 L 553 1093.5 L 554 1097.5 L 553 1099.5 L 553 1101.5 L 554 1111.5 L 553 1115.5 L 555 1115.5 L 553 1117.5 L 553 1129.5 L 552 1131.5 L 552.5 1133 L 551 1132.5 L 552 1141.5 L 550 1145.5 L 548 1165.5 L 546 1172.5 L 548 1173 L 547.5 1175 Q 546.3 1172.8 545 1175.5 Q 545.6 1180.9 544 1183 Q 546.7 1181.9 546 1184.5 L 544 1184.5 L 543 1188.5 L 545 1189 L 544 1191.5 L 544.5 1193 L 543 1193.5 L 544 1196.5 L 542 1196.5 Q 543.5 1204 541 1207.5 L 542 1210.5 L 541 1212.5 L 542 1216.5 L 539 1231.5 L 539 1233.5 L 538 1249.5 L 531 1284.5 Q 528 1288.5 528 1295.5 L 523 1303.5 L 523 1305.5 L 522 1307.5 L 522.5 1309 Q 519.2 1307.9 520 1310.5 L 521 1311.5 L 515 1317.5 L 510 1327.5 L 510 1331 Q 507 1329.8 508 1333.5 L 505 1335 Q 506.1 1337.7 503.5 1337 L 503 1339.5 L 501 1342.5 L 487.5 1360 L 485 1361.5 L 483 1364.5 L 479 1367.5 L 479 1369.5 L 472 1376.5 L 472.5 1378 L 470.5 1378 Q 468.3 1377.3 469 1379.5 L 463 1384 L 461.5 1387 L 460 1387.5 L 460.5 1389 Q 456.1 1387.5 457 1390.5 L 456.5 1393 L 452 1393.5 L 452.5 1395 Q 450.3 1394.3 451 1396.5 L 440 1403 Q 441.3 1406 437.5 1405 Q 433.8 1407 435.5 1409 L 433 1408 L 429 1415.5 L 430 1417.5 L 429 1417.5 L 428.5 1416 L 427 1418.5 Q 429.5 1420 426 1421.5 L 425.5 1423 L 424 1422.5 L 425 1424.5 L 424 1427.5 Q 424.8 1429.8 422.5 1429 L 422.5 1431 L 420 1432.5 L 421 1438.5 L 418 1450.5 L 418 1452.5 L 419 1455.5 L 417 1459.5 L 418 1461.5 L 416 1466.5 L 417 1469.5 L 416 1470.5 L 416 1478.5 L 417.5 1484 L 421.5 1479 L 424.5 1477 L 427 1473 L 429 1473 Q 427.9 1470.3 430.5 1471 L 444.5 1459 L 446.5 1459 Q 455.8 1450.3 468.5 1445 L 471.5 1446 L 476.5 1445 L 476.5 1446 L 475 1446.5 L 479 1447.5 L 477 1448.5 L 479 1449 Q 477.9 1451.7 480.5 1451 L 480.5 1453 Q 484.3 1452 483 1455 L 481 1455 L 481 1459 L 479.5 1459 L 480 1460.5 L 486 1474.5 L 492.5 1481 L 495.5 1483 L 508.5 1494 L 513 1485.5 L 529.5 1465 L 544 1453.5 L 545.5 1451 L 550.5 1449 L 560 1448 L 562 1451.5 L 562 1455 L 564 1455.5 L 561 1457.5 L 561 1459.5 L 562 1465.5 L 566 1473.5 L 576 1488 Q 578.7 1486.9 578 1489.5 L 583 1493.5 Q 582.3 1496.1 585 1495 L 587 1487.5 L 601 1459.5 L 615.5 1442 L 619 1439.5 L 619.5 1438 L 622.5 1439 L 624.5 1438 L 623 1440.5 L 624.5 1442 L 626 1441.5 Q 627.1 1444.8 624.5 1444 L 624.5 1445 L 626.5 1446 L 628 1445.5 L 626 1451 L 628 1450.5 L 627.5 1449 Q 629.8 1449.8 629 1447.5 L 630 1447.5 L 635 1461.5 L 640.5 1468 L 659 1478 L 662 1459.5 L 670 1445 L 672 1445 Q 670.5 1441.3 673.5 1442 L 686.5 1427 L 689 1425.5 L 692.5 1421 Q 694.8 1421.8 694 1419.5 L 711 1398.5 L 726 1368.5 L 726 1365.5 L 730 1357.5 L 733 1342.5 L 737 1332.5 L 738 1322.5 L 743 1306.5 L 743 1304.5 L 747 1286.5 L 749 1262.5 L 750 1261.5 L 750 1218.5 L 749 1217.5 L 749 1200.5 L 748 1199.5 L 748 1179.5 L 746 1170.5 L 747 1168.5 L 746 1166.5 L 746 1164.5 L 746 1156.5 L 743 1143.5 L 743 1136.5 L 738 1113.5 L 739 1111.5 L 737 1101.5 L 737 1099.5 Q 738.2 1091.2 736 1086.5 L 737 1083.5 L 737 1081.5 L 736 1076.5 L 736 1074.5 L 736 1065.5 L 734 1058.5 L 734 1056.5 L 734 1038.5 L 732 1028.5 L 733 1026.5 L 731 1022.5 L 731 1020.5 L 730 1012.5 L 730 1010.5 L 730 996.5 L 731 995.5 L 729 992.5 L 729 978.5 L 730 975.5 Q 733.3 948.8 751.5 937 Q 753.8 937.8 753 935.5 L 758 931.5 Q 757.3 929.3 759.5 930 Q 767.5 923 779.5 920 L 790.5 920 L 799.5 917 L 830 917 L 830 938 L 820.5 938 L 819.5 937 L 798.5 937 L 796.5 937 L 787.5 938 L 774.5 944 L 759 956 L 750 974.5 L 749 986.5 L 748 987.5 L 748 989.5 L 749 992.5 L 748 994.5 L 749 995.5 L 749 1014.5 L 754 1038.5 L 753 1043.5 L 754 1052.5 L 753 1054.5 L 754 1055.5 L 754 1064.5 L 756 1072.5 L 756 1074.5 L 756 1085.5 L 758 1093.5 L 757 1096.5 L 757 1098.5 L 759 1116.5 L 760 1117.5 L 759 1119.5 L 764 1140.5 L 763 1143.5 L 765 1148.5 L 765 1150.5 L 766 1168.5 L 767 1170.5 L 766 1172.5 L 767 1173.5 L 768 1186.5 L 768 1188.5 L 768 1207.5 L 769 1208.5 L 769 1219.5 L 770 1220.5 L 769 1224.5 L 770 1227.5 L 770 1231.5 L 770 1240.5 L 769 1241.5 L 770 1243.5 L 769 1247.5 L 769 1251.5 L 770 1256.5 L 769 1259.5 L 769 1261.5 L 768 1281.5 L 766 1284.5 L 766 1286.5 L 763 1305.5 L 764 1307.5 L 761 1312.5 L 761 1314.5 L 759 1319.5 L 758 1330.5 L 754 1340.5 L 754 1345 L 752 1345.5 L 754 1346.5 L 750 1354.5 L 751 1357.5 Q 747.7 1360.7 748 1367.5 L 746 1369.5 L 747 1370.5 L 745 1374.5 L 744 1379 Q 741.3 1377.9 742 1380.5 L 739 1386.5 L 739.5 1388 Q 738.3 1385.8 737 1388.5 Q 732.6 1399.6 725 1407.5 L 724 1412 Q 721.3 1410.9 722 1413.5 L 707.5 1430 L 706 1430.5 L 706.5 1432 Q 704.3 1431.3 705 1433.5 L 699 1438 L 697.5 1442 L 696 1442 L 696 1444 Q 693.3 1442.9 694 1445.5 Q 689.3 1446.9 690 1452 Q 687.3 1450.9 688 1453.5 L 687 1456 Q 684.3 1454.9 685 1457.5 L 681 1464.5 L 681 1466.5 L 679 1473.5 L 679 1475.5 Q 678.7 1487.3 684 1493.5 Q 681.2 1494.3 682 1498.5 L 682.5 1500 L 678 1501 L 677.5 1503 L 673.5 1501 L 670.5 1503 L 662.5 1499 L 659.5 1499 L 643 1490 L 643 1488 L 640 1488 Q 641.5 1484.2 638.5 1485 L 636.5 1484 L 634.5 1485 L 634.5 1483 L 622 1477.5 L 622 1475 Q 617.9 1476.7 619 1472.5 L 616 1467 L 613 1468.5 L 612 1473 Q 609 1471.8 610 1475.5 L 602 1488.5 L 599 1504 L 596 1504.5 L 596 1506.5 L 594 1509.5 L 591 1509.5 Q 591.9 1506.1 586.5 1508 L 582.5 1507 L 582.5 1508 L 584 1508.5 L 580.5 1509 Q 567.6 1503.9 560 1493.5 L 560 1491 Q 557.3 1492.1 558 1489.5 L 546.5 1472 L 546 1474 L 544 1474 Q 545.1 1476.7 542.5 1476 L 539 1478 L 537.5 1481 Q 535.3 1480.3 536 1482.5 L 535.5 1485 L 534 1484.5 L 532.5 1487 Q 530.3 1486.3 531 1488.5 L 526 1498.5 L 526.5 1500 L 525 1500.5 L 526 1501.5 L 523 1504.5 L 523 1506.5 L 522 1511 L 519 1511.5 L 519.5 1513 Q 515.1 1511.5 516 1514.5 L 512.5 1516 L 508.5 1513 L 506.5 1514 L 490 1502.5 Q 490.8 1500.3 488.5 1501 L 469 1478.5 L 466 1472.5 L 466 1469 L 442 1485 L 440.5 1488 Q 438.3 1487.3 439 1489.5 Q 434.3 1492.8 432.5 1499 Q 431.3 1496.8 430 1499.5 L 428.5 1502 L 426 1503.5 L 425.5 1505 L 421.5 1505 L 420 1505.5 Q 423.8 1507.3 420.5 1509 Q 416.3 1508.3 415.5 1511 L 412.5 1510 L 410.5 1511 L 404 1505.5 L 400 1498.5 L 396 1480.5 L 396 1474.5 L 400 1451.5 L 400 1447.5 L 401 1440.5 L 401 1438.5 L 402 1433 L 404 1432.5 L 404 1430.5 Q 410.5 1408 426.5 1395 Q 428.8 1395.8 428 1393.5 L 469 1356.5 Q 469.9 1353.5 465.5 1355 L 454.5 1351 L 433.5 1348 L 427.5 1346 L 425.5 1346 L 420.5 1345 L 420 1347 L 417.5 1346 L 415.5 1346 L 404.5 1346 L 403.5 1345 L 401.5 1346 L 399.5 1346 L 392.5 1346 L 379 1350 Q 380.1 1352.7 377.5 1352 L 375.5 1352 L 373.5 1353 L 365.5 1351 L 362 1348.5 L 360.5 1338 L 351 1359.5 L 339.5 1373 L 337 1374.5 Q 337.8 1377.1 334.5 1376 L 315 1391.5 Q 315.8 1393.8 313.5 1393 L 289 1409.5 L 287 1412.5 Q 274.9 1421.8 267 1435.5 L 263 1445.5 L 263 1459.5 L 265 1468.5 L 263 1475.5 L 260 1480 Q 254.1 1478.8 252.5 1483 L 251 1482.5 Q 251.8 1485.1 248.5 1484 L 248.5 1486 L 238.5 1485 L 226 1478 L 222 1470.5 L 209.5 1456 Q 207.3 1456.8 208 1454.5 L 207 1452 L 205.5 1452 L 196 1442.5 L 191.5 1436 L 188 1438.5 L 179 1450.5 L 169 1474.5 L 171 1475 Q 171.8 1478.8 168.5 1480 L 167 1479.5 L 165.5 1483 Q 164.3 1480.8 163 1483.5 Q 163.8 1486.1 160.5 1485 L 158.5 1486 L 156.5 1486 Q 147.5 1485 144 1478.5 L 141 1468.5 L 129 1441.5 L 126 1437.5 L 119.5 1418 L 101 1432.5 L 101 1434.5 L 90.5 1448 L 88.5 1447 L 85.5 1451 L 75.5 1453 L 72 1449.5 L 68 1440.5 L 63 1415.5 L 64 1410.5 L 63 1405.5 L 64 1400.5 L 64 1398.5 L 64 1391.5 L 67 1381.5 L 74 1369 Q 76.7 1370.1 76 1367.5 L 82 1360.5 L 83 1355.5 L 92.5 1345 Q 112.5 1337 128 1324.5 Q 127.3 1322.3 129.5 1323 L 130.5 1321 L 128.5 1320 L 126.5 1321 L 122.5 1319 L 120.5 1320 Q 119 1317.5 113.5 1319 L 112.5 1320 L 101.5 1320 L 99 1318.5 L 101.5 1318 L 105.5 1319 L 105.5 1318 L 92.5 1315 L 89.5 1313 L 87.5 1313 L 86 1313.5 L 86.5 1315 L 80.5 1314 L 79.5 1315 L 68.5 1315 L 58.5 1318 Q 48.1 1322.6 41 1330.5 L 38.5 1334 L 35.5 1335 L 29 1334 Q 30.1 1331.3 27.5 1332 L 24.5 1333 L 24.5 1332 L 27 1330.5 L 26.5 1329 Q 24.5 1333 22.5 1329 Q 19.2 1330.1 20 1327.5 L 17 1320.5 Q 18.5 1315 16 1313.5 L 17 1311.5 L 15 1307.5 Q 16.5 1302 14 1300.5 L 17 1288.5 L 21 1281.5 Q 29.5 1268.5 41.5 1259 L 74.5 1235 L 80 1233 L 80 1231 Q 82.7 1232.1 82 1229.5 L 88 1217.5 L 92 1194.5 L 92 1192.5 L 93 1189.5 L 92 1187.5 L 93 1186.5 L 93 1171.5 L 94 1170.5 L 94 1144.5 L 93 1143.5 L 93 1134.5 L 91 1124.5 L 91 1114.5 L 88 1105.5 L 88 1095.5 L 86 1085.5 L 85 1066 Q 82.3 1067.1 83 1064.5 L 83 1062.5 L 83 1053.5 L 81 1045.5 L 81 1033.5 L 78 1025.5 L 78 1014.5 L 76 1006.5 L 71 995.5 L 68 979.5 L 60 961.5 L 60 957.5 L 48 941 Q 45.3 942.1 46 939.5 L 41.5 935 L 21.5 935 L 14.5 937 L 12.5 939 L 0 939 L 0 918 L 11.5 918 L 13.5 919 L 19.5 916 L 33.5 916 L 34.5 917 L 58.5 918 L 75.5 924 L 87.5 931 L 111 952.5 Q 119.6 961.9 125 974.5 L 129 978.5 L 129 981 Q 131.7 979.9 131 982.5 L 145 1006.5 Q 146.5 1015.5 151 1021.5 L 151 1024.5 L 157 1037.5 L 157 1042.5 L 160 1048.5 L 164 1066 Q 167.3 1064.7 166 1069.5 L 168 1074.5 L 170 1087.5 L 172 1090.5 L 172 1095.5 L 174 1098.5 L 174 1100.5 L 176 1113.5 L 175 1118.5 L 176 1122.5 L 175 1124.5 L 176 1126.5 L 175 1129.5 L 176 1134.5 L 176 1136.5 L 177 1153.5 L 177 1155.5 Q 175.5 1161 178 1162.5 L 178 1164.5 Q 179.3 1169.2 177 1170.5 L 179 1176.5 L 179 1184.5 L 180 1185.5 L 181 1196.5 L 181 1198.5 L 182 1201.5 L 182 1203.5 L 182 1211.5 L 184 1219.5 L 184 1237.5 L 185 1238.5 L 183 1241.5 Q 185.5 1243 184 1248.5 L 181.5 1256 L 183 1256.5 L 181 1257 L 182 1261.5 L 180 1261.5 L 177 1274.5 L 177 1276.5 L 174 1284.5 L 175 1286.5 L 174 1289 Q 171.3 1287.9 172 1290.5 L 171.5 1293 Q 168.2 1291.9 169 1294.5 L 169 1296.5 L 167.5 1299 Q 164.2 1297.9 165 1300.5 L 160 1307.5 L 160.5 1309 Q 158.3 1308.3 159 1310.5 L 158 1313 L 152 1317.5 L 150 1320.5 L 146 1323 L 146 1325 L 144 1325 L 144 1327 Q 141.3 1325.9 142 1328.5 L 136.5 1335 L 134 1336.5 Q 134.8 1338.8 132.5 1338 L 104 1356 L 104 1358 L 102 1358 L 102 1361 Q 99.3 1359.9 100 1362.5 L 93.5 1373 Q 91.3 1372.3 92 1374.5 L 89 1380 L 87 1380 Q 88.3 1384.1 85 1383 L 85 1387.5 L 83 1390.5 L 83 1402.5 L 82 1403.5 L 83 1404.5 L 83 1421.5 L 84 1424 L 107.5 1405 L 121.5 1399 L 130.5 1399 L 139 1402 L 139 1415.5 L 140 1417.5 L 140 1419.5 L 144 1435.5 L 146 1437.5 L 147 1442.5 L 154 1458 Q 156.7 1459.1 156 1456.5 L 164 1443.5 L 164 1441 Q 166.7 1442.1 166 1439.5 L 184 1416 Q 187 1417 186 1414 L 190.5 1414 L 197.5 1411 L 200.5 1413 L 201.5 1412 L 204.5 1415 L 207 1416.5 L 208 1418.5 L 208 1420.5 L 209 1426.5 L 219.5 1440 Q 221.8 1439.3 221 1441.5 Q 229.2 1447.2 233 1456 Q 235.7 1454.9 235 1457.5 L 242.5 1466 Q 245.1 1465.3 244 1468 L 246.5 1468 L 246 1466.5 L 246 1458.5 L 244 1451.5 L 244 1441.5 L 248 1428.5 Q 255.6 1415.1 266.5 1405 L 311 1369.5 Q 310.3 1367.3 312.5 1368 L 324 1360 L 339 1334.5 L 346 1314.5 L 347 1307.5 L 346 1303.5 L 347 1302.5 L 347 1289.5 L 348 1288.5 L 349 1273.5 L 348 1269.5 L 348 1267.5 L 348 1258.5 L 349 1257.5 L 348 1252.5 L 349 1251.5 L 349 1241.5 L 351 1233.5 L 351 1213.5 L 351 1211.5 L 349 1201.5 L 349 1199.5 L 350 1196.5 L 349 1194.5 L 350 1189.5 L 349 1187.5 L 350 1184.5 L 351 1154.5 L 351 1152.5 L 350 1149.5 L 350 1147.5 L 350 1135.5 L 351 1134.5 L 350 1133.5 L 350 1118.5 L 349 1116.5 L 350 1112.5 L 350 1110.5 L 349 1106.5 L 349 1078.5 L 347 1071.5 L 348 1066.5 L 347 1061.5 L 347 1059.5 L 346 1008.5 L 347 1004.5 L 346 999.5 L 347 998.5 L 348 979.5 Q 350.8 976.8 350 970.5 L 352 968.5 L 352 962.5 L 361 942.5 L 372 928 Q 384.8 918.6 401.5 912 L 409.5 910 L 417.5 910 L 425.5 907 Z M 433 923 L 410 927 L 388 940 L 380 949 L 373 964 L 368 983 L 367 1001 L 367 1003 L 366 1008 L 367 1010 L 366 1011 L 366 1020 L 366 1022 L 366 1032 L 367 1033 L 367 1063 L 366 1064 L 368 1081 L 369 1082 L 369 1094 L 368 1095 L 369 1097 L 369 1119 L 369 1121 L 370 1124 L 369 1126 L 369 1128 L 370 1130 L 370 1161 L 371 1162 Q 368 1165 370 1174 L 369 1175 L 370 1178 L 369 1182 L 370 1183 L 371 1221 L 372 1222 L 371 1225 L 371 1240 L 370 1241 L 370 1255 L 369 1256 L 370 1258 L 369 1259 L 369 1273 L 370 1276 L 369 1289 L 368 1290 L 368 1304 L 367 1305 L 369 1305 Q 373 1295 381 1288 L 383 1285 L 395 1276 L 418 1269 Q 422 1264 430 1263 L 436 1252 L 443 1229 L 451 1209 L 457 1181 L 457 1179 L 461 1166 Q 459 1159 462 1158 L 461 1156 L 463 1145 L 463 1134 L 463 1132 L 467 1111 L 467 1096 L 469 1086 L 469 1075 L 470 1074 L 469 1049 L 468 1048 L 469 1043 L 468 1040 L 469 1038 L 469 1036 L 468 1034 L 469 1032 L 468 1030 L 467 1008 L 467 1006 Q 464 998 466 986 L 465 985 L 465 978 L 464 977 L 462 959 L 458 947 L 452 936 L 452 932 Q 445 925 433 923 Z M 72 945 L 73 946 Q 78 952 79 964 L 81 963 L 80 965 L 81 968 L 79 968 L 83 981 L 85 980 L 87 988 L 87 992 L 93 1006 L 95 1019 L 97 1022 L 97 1028 L 101 1039 L 101 1045 L 103 1049 L 105 1064 L 108 1070 L 108 1080 L 109 1081 L 109 1089 L 105 1089 L 105 1091 Q 101 1092 104 1094 L 103 1096 L 105 1101 L 105 1107 L 108 1120 L 107 1122 Q 110 1123 108 1130 L 110 1133 Q 109 1137 111 1139 L 111 1146 L 111 1148 L 112 1150 L 112 1161 L 111 1159 L 110 1159 L 111 1164 L 111 1163 L 112 1163 L 112 1168 L 111 1165 L 110 1169 L 112 1170 L 110 1170 L 109 1177 L 109 1191 L 110 1192 L 108 1196 L 110 1198 L 110 1199 L 109 1197 Q 109 1207 106 1214 L 107 1216 L 105 1218 L 103 1226 L 102 1229 L 104 1230 L 103 1230 Q 101 1228 100 1231 L 101 1234 L 98 1234 L 97 1237 Q 96 1239 99 1238 L 99 1241 L 88 1252 L 58 1269 L 40 1289 L 35 1299 Q 33 1307 37 1310 L 39 1309 L 38 1308 L 49 1303 L 57 1302 L 61 1299 L 67 1299 L 69 1299 L 71 1298 L 90 1299 L 110 1306 L 113 1305 L 121 1306 L 127 1309 L 134 1309 L 142 1304 L 144 1305 L 144 1303 L 148 1302 L 159 1282 L 161 1269 L 163 1264 L 165 1253 L 165 1222 L 165 1220 L 164 1215 L 164 1211 L 163 1210 L 161 1188 L 161 1186 L 159 1176 L 158 1154 L 158 1152 L 156 1145 L 157 1140 L 156 1139 L 156 1122 L 155 1121 L 153 1103 L 148 1086 L 145 1070 L 140 1061 L 139 1053 Q 135 1048 135 1040 L 121 1006 L 92 961 Q 84 950 72 945 Z M 478 948 L 482 967 L 484 988 L 484 990 L 485 991 L 485 1003 L 486 1004 L 485 1007 L 488 1024 L 488 1054 L 489 1055 L 489 1066 L 490 1067 L 489 1081 L 489 1083 L 488 1085 L 488 1099 L 487 1100 L 487 1115 L 485 1122 L 485 1128 L 485 1130 Q 482 1137 483 1149 L 483 1151 L 482 1153 L 482 1164 L 475 1195 L 475 1197 L 462 1239 L 460 1242 L 460 1246 L 456 1258 L 449 1271 L 449 1273 L 446 1274 Q 444 1277 443 1275 L 430 1278 L 428 1278 L 416 1284 L 407 1286 L 403 1288 L 402 1291 L 400 1290 L 400 1292 L 399 1291 L 388 1304 L 388 1306 L 388 1308 L 383 1318 L 384 1320 L 382 1331 L 402 1327 L 431 1328 L 471 1336 L 478 1336 L 484 1339 L 491 1331 L 503 1309 L 503 1307 L 509 1295 L 509 1291 L 512 1284 L 513 1274 L 516 1265 L 516 1259 L 518 1252 L 519 1237 L 519 1235 L 520 1226 L 520 1224 L 521 1223 L 521 1211 L 521 1209 L 522 1204 L 521 1200 L 526 1177 L 525 1175 L 527 1171 L 529 1154 L 529 1152 L 532 1142 L 535 1118 L 535 1114 L 534 1109 L 534 1098 L 535 1097 L 534 1096 L 534 1086 L 533 1085 L 534 1083 L 533 1081 L 533 1067 L 531 1066 L 528 1038 L 520 1006 L 506 977 L 501 970 Q 502 967 500 968 L 493 959 Q 490 960 491 958 L 478 948 Z M 111 1154 L 110 1157 L 111 1157 L 111 1154 Z M 142 1305 L 139 1307 L 139 1308 L 143 1307 Q 144 1304 142 1305 Z M 629 1452 L 628 1456 L 630 1457 L 629 1452 Z M 618 1466 L 617 1469 L 620 1470 Q 621 1467 618 1468 L 618 1466 Z " />
<path stroke="rgb(1,1,1)" stroke-width="1" opacity="1" d="M 94.5 1317 L 98 1317.5 L 94.5 1318 L 94.5 1317 Z " />
<path stroke="rgb(1,1,1)" stroke-width="1" opacity="1" d="M 178.5 1458 L 178 1459.5 L 176.5 1462 L 177 1460.5 L 178.5 1458 Z " />
<path stroke="rgb(1,1,1)" stroke-width="1" opacity="1" d="M 532.5 1488 L 533 1489.5 L 531 1490.5 L 532.5 1488 Z " />
</svg>