
<svg width="830" height="1660" version="1.1" xmlns="http://www.w3.org/2000/svg" desc="Created with imagetracer.js version 1.2.6" >
<path fill="rgb(0,0,0)" stroke="rgb(0,0,0)" stroke-width="1" opacity="0.9921568627450981" d="M 60.5 275 L 61.5 277 L 60.5 275 Z " />
<path fill="rgb(0,0,0)" stroke="rgb(0,0,0)" stroke-width="1" opacity="0.9921568627450981" d="M 694.5 278 L 705.5 280 L 708.5 279 L 710.5 280 L 712.5 280 L 714.5 279 Q 716.3 281.8 722.5 280 L 725.5 279 L 726.5 280 L 758.5 280 L 766.5 282 L 768.5 282 L 794.5 282 L 795.5 283 Q 797 280.5 802.5 282 L 803.5 283 L 817.5 284 L 825.5 282 L 828.5 283 L 830 282.5 L 830 301.5 L 826.5 302 L 824.5 302 L 821.5 303 L 819.5 302 L 809.5 304 L 790.5 300 L 772.5 300 L 769.5 299 L 768.5 300 L 754 300 L 753.5 298 L 748.5 299 L 748.5 297 Q 743.2 296.2 741.5 299 L 736.5 299 L 733.5 298 L 731.5 298 L 727.5 299 L 723.5 298 L 721.5 299 L 720.5 298 L 699 298 L 698.5 296 L 695.5 298 L 691.5 296 L 685 296.5 L 688 297.5 L 667.5 299 L 666.5 300 L 664.5 299 Q 663 301.5 657.5 300 L 655.5 300 L 646.5 300 L 645.5 301 L 643.5 301 L 637.5 301 L 627.5 304 L 620.5 304 L 613.5 306 L 611.5 306 L 587.5 308 L 559.5 315 L 545.5 316 L 536.5 318 L 536.5 317 L 538 316.5 L 534.5 316 L 534.5 318 L 524.5 320 L 514.5 320 L 499.5 323 L 492.5 323 L 491.5 324 L 479.5 324 L 478.5 325 L 476.5 324 L 474.5 325 L 472.5 324 L 470.5 324 L 468.5 325 L 452.5 325 L 451.5 326 L 419.5 326 L 417.5 326 L 400.5 326 L 398.5 325 L 396.5 326 Q 395 323.5 389.5 325 L 387.5 326 L 384.5 325 L 383.5 326 L 364.5 326 L 363.5 325 L 354.5 325 L 353.5 326 L 316.5 326 L 315.5 325 L 303.5 325 L 302.5 324 L 300.5 324 L 297.5 325 L 295.5 325 L 293.5 324 L 283.5 326 L 282.5 325 L 272.5 325 L 271.5 324 L 269.5 325 L 264.5 324 L 246.5 324 L 246 322.5 L 244.5 323 L 222.5 321 L 221.5 320 L 219.5 320 Q 211.5 322 209.5 318 L 206.5 319 L 192.5 316 L 163.5 315 L 158.5 313 L 153.5 314 L 146.5 311 L 144.5 311 L 126.5 307 L 117.5 307 L 105.5 304 L 93.5 303 L 79.5 300 L 71.5 300 L 63.5 298 L 38.5 298 L 33.5 300 L 0 300 L 0 280 L 25.5 280 L 26.5 279 L 47.5 279 Q 49 281.5 54.5 280 L 56.5 280 L 69.5 280 L 79.5 282 L 89.5 282 L 118.5 288 L 127.5 288 L 141.5 291 L 147.5 291 L 151.5 293 L 161.5 295 L 169.5 295 L 170.5 296 L 172.5 295 L 173.5 296 L 186.5 296 L 196.5 298 L 198.5 298 L 217.5 300 L 218.5 301 L 226.5 301 L 234.5 303 L 242.5 303 L 243.5 304 L 273.5 305 L 276.5 306 L 278.5 305 L 283.5 306 L 285.5 306 L 287.5 305 L 310.5 305 L 312.5 306 L 320.5 306 L 399.5 306 L 400.5 305 Q 401.8 307.3 406.5 306 L 408.5 305 L 410.5 306 L 412.5 305 L 413.5 306 L 429.5 306 L 431.5 305 Q 433.3 307.8 439.5 306 L 441.5 305 L 446.5 306 L 449.5 305 L 451.5 306 L 452.5 305 L 473.5 305 L 474.5 304 L 478.5 305 L 481.5 304 L 492.5 304 L 501.5 302 L 504.5 303 L 509.5 301 L 511.5 302 L 527.5 299 L 530.5 300 L 533.5 298 Q 545 299.5 551.5 296 L 553.5 296 L 557.5 296 L 576.5 290 L 578.5 290 L 582.5 289 L 584.5 289 L 608.5 287 L 609.5 286 L 618.5 286 L 623.5 284 L 644.5 282 L 645.5 281 L 654.5 281 L 655.5 280 L 658.5 281 L 660.5 280 L 675.5 280 L 676.5 279 L 678.5 280 L 679.5 279 L 693.5 279 L 694.5 278 Z M 679 296 L 679 297 L 683 297 L 679 296 Z M 672 297 L 672 298 L 674 298 L 672 297 Z M 562 312 L 562 313 L 564 313 L 562 312 Z M 557 313 L 557 314 L 559 314 L 557 313 Z M 548 314 L 548 315 L 551 315 L 548 314 Z M 542 315 L 542 316 L 545 316 L 542 315 Z M 526 317 L 526 318 L 529 318 L 526 317 Z M 519 318 L 519 319 L 524 319 L 519 318 Z " />
<path fill="rgb(0,0,0)" stroke="rgb(0,0,0)" stroke-width="1" opacity="0.9921568627450981" d="M 495.5 846 Q 505.3 845.7 508 852.5 L 509 857.5 L 505 864.5 L 497 893.5 L 497 900.5 L 495 909.5 L 495 933.5 L 497 943.5 L 497 954.5 L 498 955.5 L 500 986.5 L 501 987.5 L 501 1000.5 L 502 1001.5 L 502 1003.5 L 502 1011.5 L 503 1012.5 L 503 1014.5 L 503 1023.5 L 504 1024.5 L 504 1026.5 L 507 1058.5 L 513 1088.5 L 520 1107.5 L 531 1129.5 L 531 1132.5 L 533 1134.5 L 551 1177.5 L 554 1180.5 L 572 1214.5 L 621 1284 Q 623.7 1282.9 623 1285.5 L 629 1291.5 L 637 1303.5 L 637 1305.5 L 646 1317.5 L 659 1340.5 L 667 1359.5 L 674 1392.5 L 673 1394.5 L 676 1411.5 L 675 1413.5 L 676 1414.5 L 676 1424.5 L 676 1426.5 L 674 1450.5 L 672 1457.5 L 672 1470.5 L 673 1472.5 Q 670.2 1474.2 671 1479.5 L 672 1479.5 L 672.5 1478 L 673 1480.5 L 670 1481.5 L 668 1486 L 665 1486.5 L 666 1488.5 L 665 1488.5 L 664.5 1487 L 664 1489.5 L 665 1491.5 L 664 1495 L 661 1496.5 L 658.5 1500 L 651.5 1501 L 650.5 1500 L 642.5 1500 Q 639.8 1497.2 633.5 1498 L 608.5 1490 L 577.5 1483 L 560.5 1482 L 547.5 1479 L 527.5 1478 L 526.5 1477 L 524.5 1477 L 489.5 1477 L 479.5 1479 L 477.5 1478 L 476.5 1479 L 467.5 1479 L 457.5 1481 L 433.5 1489 L 413.5 1498 L 399 1508 L 387 1522.5 L 376 1539.5 L 376 1542 L 373 1543.5 L 371 1549.5 L 372 1551.5 L 370 1551.5 Q 369.3 1560.3 365 1565.5 Q 367.5 1567 364 1568.5 L 361 1578.5 L 360 1592.5 L 359 1593.5 L 361 1604 Q 373.3 1604 382.5 1600 L 389.5 1600 L 394.5 1598 L 402.5 1598 L 403.5 1597 L 405.5 1598 L 406.5 1597 L 418.5 1596 L 420.5 1596 L 439.5 1594 L 442.5 1592 L 444.5 1592 L 451.5 1590 L 453.5 1591 L 459.5 1589 L 483.5 1587 L 485.5 1587 L 488.5 1588 L 490.5 1587 L 492.5 1587 L 509.5 1586 L 510.5 1585 L 512.5 1585 L 527.5 1585 L 528.5 1584 L 530.5 1585 L 532.5 1585 L 535.5 1584 L 537.5 1584 L 550.5 1584 L 551.5 1583 L 559.5 1583 L 560.5 1582 L 576.5 1581 L 577.5 1580 L 587.5 1580 L 588.5 1579 L 597.5 1579 L 598.5 1578 L 600.5 1578 L 633.5 1577 L 645.5 1574 L 647.5 1574 L 665.5 1572 L 666.5 1571 L 673.5 1571 L 674.5 1570 L 676.5 1570 L 684.5 1570 L 693.5 1568 L 695.5 1568 Q 700.3 1569.3 701.5 1567 L 703.5 1567 L 705.5 1568 L 706.5 1567 L 725.5 1566 L 729.5 1566 L 747.5 1566 L 748.5 1565 Q 756 1566.5 759.5 1564 L 761.5 1565 L 780 1562 L 781 1554.5 L 783 1551.5 L 783 1532.5 L 782 1528.5 L 783 1523.5 Q 780.5 1522 782 1516.5 L 785 1509.5 L 785 1504.5 L 782 1495.5 L 782 1488.5 L 783 1487.5 L 783 1472.5 L 783 1470.5 L 783 1460.5 L 778 1433.5 L 777 1411.5 L 767 1371.5 L 767 1369.5 L 758 1343.5 L 758 1340.5 L 748 1321.5 L 748 1318.5 L 707 1250.5 L 699 1235.5 L 691 1215.5 L 687 1193.5 L 685 1188.5 L 683 1166.5 L 681 1161.5 L 681 1147.5 L 680 1146.5 L 680 1134.5 L 679 1133.5 L 679 1131.5 L 679 1090.5 L 680 1089.5 L 680 1087.5 L 681 1075.5 Q 684 1071.5 684 1064.5 L 690 1052.5 L 695 1034.5 Q 699.5 1028.5 701 1019.5 L 704 1015.5 L 707 1004.5 L 710 1001.5 L 716 987.5 L 723 978 L 732 970.5 L 733.5 968 L 736 966.5 L 736 965 L 738 965 Q 736.9 962.3 739.5 963 L 745.5 957 L 762.5 946 L 799.5 927 L 802.5 927 L 813.5 922 L 830 921 L 830 941 L 814.5 941 L 783.5 956 L 758.5 971 L 749 979.5 L 746.5 983 Q 744.3 982.3 745 984.5 L 741 990 Q 738.3 988.9 739 991.5 L 726 1014.5 L 726 1016.5 Q 724.1 1026.1 719 1032.5 L 717 1041.5 L 704 1075.5 L 702 1093.5 L 701 1094.5 L 701 1096.5 L 701 1134.5 L 702 1135.5 L 702 1147.5 L 703 1148.5 L 703 1162.5 L 704 1163.5 L 707 1190.5 L 711 1203.5 L 711 1207.5 L 719 1230.5 L 742 1271.5 L 768 1313.5 L 778 1334.5 L 780 1343.5 L 782 1345.5 L 783 1352.5 L 788 1364.5 L 789 1374.5 L 797 1408.5 L 797 1419.5 L 798 1420.5 L 799 1439.5 L 801 1446.5 L 802 1463.5 L 802 1465.5 L 801 1467.5 L 800 1488.5 L 802 1496.5 L 802 1506.5 L 799 1515.5 L 799 1521.5 L 801 1521.5 L 799 1526.5 L 799 1546.5 L 799.5 1548 Q 796.9 1547.2 798 1550.5 L 799 1552.5 L 799 1554.5 L 796 1562.5 L 796 1568.5 Q 798.5 1570 795 1571.5 L 794 1574.5 L 795 1577 L 791 1577 L 791 1578.5 L 787.5 1581 L 785.5 1580 L 782.5 1581 L 765.5 1584 L 763.5 1584 Q 758.8 1585.3 757.5 1583 L 753.5 1585 L 748.5 1584 L 746.5 1585 L 744.5 1584 Q 742.8 1586.8 736.5 1585 L 734.5 1584 Q 733.8 1586.8 729.5 1586 L 724.5 1585 Q 723.2 1587.2 718.5 1586 L 715.5 1585 L 711.5 1587 L 708.5 1586 L 701.5 1588 L 699.5 1588 L 694.5 1587 L 688.5 1589 L 679.5 1589 L 678.5 1590 L 676.5 1589 L 674.5 1589 L 648.5 1594 L 633.5 1595 L 629.5 1597 Q 623.2 1595.3 621.5 1598 L 619.5 1598 L 608.5 1598 L 607.5 1599 L 596.5 1599 L 595.5 1600 Q 587.3 1598.8 582.5 1601 L 580.5 1601 L 545.5 1604 Q 544.3 1601.8 539.5 1603 L 538.5 1604 L 517.5 1604 L 516.5 1605 L 502.5 1605 L 501.5 1606 L 499.5 1605 L 498.5 1606 L 472.5 1606 L 471.5 1607 L 454.5 1608 L 435.5 1612 L 411.5 1613 L 410.5 1614 L 402.5 1614 L 387.5 1617 L 377.5 1617 L 370.5 1619 L 355 1619 L 353.5 1616 L 350.5 1616 L 347 1614 L 341 1596.5 L 341 1584.5 L 345 1565.5 L 351 1552.5 L 351 1549.5 L 365 1520 Q 367.7 1521.1 367 1518.5 L 368 1515 L 371 1513.5 L 376 1505 L 379 1503.5 L 378.5 1502 L 355.5 1502 L 354.5 1503 L 337.5 1503 L 329.5 1505 L 327.5 1504 L 325.5 1504 L 316.5 1503 L 309.5 1499 L 305 1499 L 304 1489.5 L 307 1476.5 L 322 1444.5 Q 332.4 1428.9 346.5 1417 L 356 1412 Q 354.9 1409.3 357.5 1410 L 368.5 1403 L 387.5 1396 L 400.5 1393 L 405.5 1393 L 414.5 1390 L 438.5 1389 L 439.5 1388 L 441.5 1389 L 446.5 1388 L 447.5 1389 L 456.5 1389 L 458.5 1389 L 471.5 1389 L 482.5 1391 L 486.5 1393 L 498.5 1394 Q 501.4 1396.6 507.5 1396 L 517.5 1401 L 533.5 1404 Q 536 1403 535 1398.5 L 534 1397.5 L 534 1387.5 L 533 1386.5 L 534 1384.5 L 533 1383.5 L 533 1373.5 Q 530.1 1369.9 531 1362.5 L 515 1316.5 L 505 1298.5 L 502 1289.5 L 492 1269.5 L 489 1266.5 L 485 1256.5 L 465 1223.5 L 457 1205.5 L 454 1202.5 L 443 1182.5 L 438 1170.5 L 437 1164.5 L 423 1137.5 L 412 1111.5 L 405 1087.5 L 405 1081.5 L 403 1077.5 L 403 1072.5 L 400 1059.5 L 398 1037.5 L 397 1036.5 L 397 1026.5 L 396 1025.5 L 396 1006.5 L 397 1004.5 L 396 1001.5 L 396 999.5 Q 398.4 994.4 397 985.5 L 401 963.5 L 401 951.5 L 402 945 L 389.5 948 L 387.5 948 L 385.5 949 L 383.5 948 L 364.5 953 L 355.5 954 L 351.5 956 L 346.5 956 L 343.5 958 L 321.5 961 L 319.5 960 L 318.5 961 Q 310.3 959.3 306.5 962 L 304.5 962 L 294.5 962 L 293.5 963 L 283.5 961 L 280.5 962 Q 276.7 959.3 268.5 961 L 262 959 L 262 967.5 L 261 968.5 L 261 985.5 L 262 986.5 L 262 995.5 L 263 996.5 L 267 1040.5 L 270 1051.5 L 274 1059.5 L 278 1076.5 L 280 1094.5 Q 284.5 1103 286 1114.5 L 296 1137.5 L 312 1186.5 L 325 1211.5 L 330 1226.5 L 339 1244.5 L 341 1251.5 L 346 1259.5 L 346 1263.5 L 345 1265.5 L 346 1270.5 L 336 1290.5 L 333 1301.5 L 331 1303.5 L 330 1310.5 L 322 1330.5 L 322 1334.5 L 314 1356.5 L 311 1371.5 L 309 1374.5 L 309 1376.5 L 309 1381.5 L 306 1390.5 L 306 1396.5 L 303 1405.5 L 303 1407.5 L 302 1419.5 L 296 1448.5 L 294 1482.5 L 292 1490.5 L 292 1492.5 L 289 1507.5 L 289 1509.5 L 288 1522.5 L 286 1525.5 L 285 1542.5 L 283 1550.5 L 283 1561.5 L 281 1567.5 L 282 1569.5 L 281 1571.5 L 282 1573.5 L 280 1581.5 L 280 1583.5 Q 281.5 1593 277 1596.5 Q 280 1597.5 279 1602.5 L 277 1606 Q 274 1605 275 1608 L 271.5 1608 L 270.5 1609 L 260.5 1609 L 259.5 1608 L 241.5 1608 L 230.5 1605 L 217.5 1605 L 216.5 1606 L 195.5 1606 L 187.5 1604 L 185.5 1604 L 179.5 1604 Q 177.5 1601.2 173 1602 L 171.5 1599 Q 168.2 1600.1 169 1597.5 L 157 1576.5 L 150 1554.5 L 147 1536 L 143 1537 Q 144.1 1539.7 141.5 1539 L 133.5 1544 L 123.5 1545 L 112.5 1543 L 110.5 1543 L 73.5 1544 L 70.5 1543 L 68.5 1544 L 67.5 1543 L 45.5 1542 L 39 1539 Q 37.3 1536.6 38 1530.5 L 39 1527.5 L 37 1523.5 L 35 1512.5 L 35 1492.5 L 34 1491.5 L 35 1486.5 L 35 1482.5 L 35 1467.5 L 36 1466.5 L 36 1457.5 L 38 1451.5 L 37 1447.5 L 48 1398.5 L 59 1364.5 L 68 1345.5 L 68 1342.5 L 71 1337.5 L 74 1327.5 L 78 1321.5 L 87 1300.5 L 95 1287.5 L 95 1285 Q 97.7 1286.1 97 1283.5 L 102 1276.5 L 109 1261.5 L 112 1258.5 L 116 1248.5 L 111 1241.5 L 99 1217.5 L 82 1167.5 L 79 1151.5 L 76 1144.5 L 73 1128.5 L 71 1124.5 L 70 1112.5 L 62 1070.5 L 60 1040.5 L 58 1032.5 L 59 1030.5 L 58 1029.5 L 58 1009.5 L 58 1007.5 L 59 1003.5 L 59 1001.5 L 57 992.5 L 58 990.5 L 55 976.5 L 56 975.5 L 56 962.5 L 57 961.5 L 59 939.5 L 60 938.5 L 58.5 937 L 52.5 937 L 46.5 935 L 44.5 936 Q 38.8 932.8 28.5 934 Q 23.9 936.8 17 936 L 16.5 938 L 0 938 L 0 919 L 19.5 919 L 31.5 916 L 38.5 916 L 47.5 919 L 56.5 919 L 57.5 920 L 68.5 921 L 89.5 926 L 103.5 933 L 111 940.5 L 111 942.5 L 112 944.5 L 112 999.5 L 113 1000.5 L 113 1012.5 L 114 1014.5 L 114 1016.5 L 114 1023.5 L 118 1041.5 L 118 1051.5 L 120 1055.5 L 120 1060.5 Q 122.6 1063.4 122 1069.5 L 124 1072.5 L 126 1086.5 L 128 1091.5 L 128 1096.5 L 134 1113.5 L 135 1121.5 L 148 1158.5 L 170 1202 Q 173 1200.8 172 1204.5 L 184 1226.5 L 205 1258.5 L 214 1269.5 Q 216.8 1272.5 216 1278 L 218 1278.5 Q 215.7 1279.7 217 1284.5 L 213 1289.5 L 192 1333.5 L 185 1356.5 L 177 1375.5 L 170 1401.5 L 170 1407.5 L 167 1418.5 L 166 1443.5 L 164 1454.5 L 164 1467.5 L 162 1476.5 L 162 1504.5 L 163 1504.5 L 163.5 1503 L 164 1504.5 Q 161.5 1506 163 1511.5 L 164 1512.5 L 166 1529.5 L 172 1549.5 L 173 1557.5 L 186.5 1588 L 188.5 1588 L 209.5 1588 L 210.5 1587 L 212.5 1588 L 213.5 1587 L 230.5 1587 L 232.5 1587 L 241.5 1589 L 259 1589 L 260 1571.5 L 261 1570.5 L 261 1560.5 L 263 1556.5 L 263 1548.5 L 265 1542.5 L 265 1533.5 L 269 1513.5 L 269 1505.5 L 272 1494.5 L 276 1445.5 L 279 1434.5 L 279 1428.5 L 281 1422.5 L 281 1416.5 L 283 1410.5 L 283 1404.5 L 287 1387.5 L 287 1382.5 L 289 1378.5 L 290 1369.5 L 292 1366.5 L 303 1323.5 L 309 1308.5 L 309 1304.5 L 311 1301.5 L 314 1289.5 Q 319.5 1282 321 1270.5 L 323 1268.5 L 323 1264.5 L 321 1262.5 L 317 1248.5 L 313 1242.5 L 307 1225.5 L 302 1217.5 L 298 1204.5 L 293 1197.5 L 283 1171.5 Q 285.5 1170 282 1168.5 L 277 1151.5 L 277 1147.5 L 270 1131.5 L 259 1097.5 L 256 1073.5 L 245 1038.5 L 243 1014.5 L 241 1007.5 L 241 996.5 L 239 987.5 L 239 962.5 L 240 959.5 L 240 931.5 L 241 929.5 L 241 927.5 L 241 920.5 L 243 916.5 L 243 910.5 L 246 898.5 L 249 894.5 L 249 891.5 L 254.5 886 L 256.5 885 L 262 888.5 L 263.5 891 L 266 892.5 Q 265.3 895.1 268 894 L 268 896.5 L 268 898.5 L 269 902.5 L 266 909.5 L 266 915.5 L 264 920.5 L 263 935.5 L 262 936.5 L 262 938.5 Q 261.1 941.5 265.5 940 L 270.5 942 L 282.5 943 L 284.5 943 L 297.5 943 L 298.5 942 L 300.5 942 L 316.5 941 L 317.5 940 L 328.5 940 L 366.5 931 L 368.5 931 L 396.5 925 L 398.5 925 L 405.5 925 L 418.5 922 L 430.5 921 Q 435.9 917.9 444.5 918 L 454.5 914 L 470.5 913 L 473 914 L 475 892.5 L 477 886.5 L 477 884.5 L 480 870.5 L 482 868.5 L 487 854.5 L 492.5 847 L 495.5 846 Z M 471 932 L 463 934 L 461 934 L 450 938 L 446 938 L 444 938 L 442 939 L 440 939 Q 438 942 433 940 L 429 942 L 426 941 L 424 942 L 422 944 L 422 950 L 420 957 L 420 967 L 419 968 Q 417 974 420 976 L 418 980 L 417 992 L 416 993 L 416 1029 L 417 1030 L 417 1039 L 418 1040 L 420 1060 L 422 1064 L 422 1069 L 428 1091 L 428 1095 L 433 1105 L 433 1108 L 454 1150 L 463 1173 L 481 1203 L 487 1218 L 510 1257 L 537 1314 L 542 1328 L 543 1336 L 547 1347 L 551 1365 L 552 1388 L 553 1389 L 554 1405 L 555 1406 L 555 1420 Q 554 1422 553 1420 L 552 1422 L 550 1422 Q 551 1425 548 1424 L 544 1429 L 541 1429 L 539 1427 L 529 1424 L 516 1423 L 503 1416 L 494 1414 L 487 1414 L 467 1408 L 431 1408 L 430 1409 L 416 1410 L 414 1410 L 409 1413 L 400 1414 L 383 1419 L 366 1429 L 346 1445 L 336 1460 L 325 1486 L 332 1485 Q 335 1488 344 1486 L 348 1486 L 357 1484 L 393 1484 L 394 1483 L 400 1485 L 418 1476 L 427 1473 L 431 1473 L 430 1472 L 432 1472 Q 434 1473 433 1470 L 462 1462 L 464 1463 L 468 1461 L 471 1462 L 473 1462 L 481 1460 L 483 1460 Q 486 1458 494 1459 L 495 1458 L 539 1459 L 559 1463 L 573 1463 L 574 1464 L 581 1464 L 586 1461 L 601 1458 L 604 1456 L 606 1457 L 632 1449 L 635 1445 L 637 1438 L 639 1396 L 638 1393 L 638 1377 L 639 1375 L 639 1373 L 638 1368 L 638 1354 L 639 1353 L 637 1346 L 629 1330 L 619 1316 L 617 1311 L 602 1290 L 592 1279 Q 593 1276 590 1277 L 586 1272 L 585 1268 L 582 1267 L 583 1265 L 579 1263 L 581 1263 L 573 1251 Q 574 1248 571 1249 L 571 1248 L 564 1238 L 561 1236 L 560 1232 L 556 1229 Q 557 1224 554 1223 Q 551 1224 552 1221 L 551 1221 L 551 1220 L 549 1218 L 543 1203 L 533 1189 L 533 1186 L 528 1179 Q 529 1176 526 1177 L 514 1149 L 514 1147 L 510 1140 L 509 1134 L 505 1129 L 499 1115 L 489 1086 L 486 1063 L 485 1062 L 485 1052 L 483 1045 L 481 1012 L 479 1002 L 479 985 L 476 969 L 476 962 L 476 960 L 475 959 L 475 945 L 473 937 Q 475 931 471 932 Z M 79 942 L 77 947 L 76 962 L 75 963 L 75 971 L 75 973 L 74 975 Q 76 979 75 988 L 75 992 L 76 994 Q 77 998 75 1000 L 76 1001 L 76 1023 L 78 1034 L 79 1053 L 79 1055 L 82 1072 L 82 1080 L 84 1084 L 84 1090 L 87 1100 L 89 1116 Q 92 1118 91 1125 L 93 1128 L 93 1133 L 96 1138 L 96 1147 L 98 1147 L 97 1149 L 99 1157 L 101 1159 L 101 1166 L 105 1180 L 108 1181 L 110 1193 L 114 1198 L 113 1200 L 114 1202 Q 113 1204 116 1203 L 115 1205 L 119 1217 L 126 1227 L 126 1230 L 129 1231 Q 130 1237 134 1242 L 135 1247 L 135 1249 L 134 1251 L 137 1252 Q 135 1253 136 1259 L 108 1305 L 94 1333 L 86 1356 L 83 1360 L 68 1403 L 62 1431 L 58 1441 L 58 1446 L 58 1448 L 56 1459 L 55 1476 L 53 1479 Q 54 1483 52 1485 L 52 1505 L 54 1511 L 54 1517 L 57 1526 L 87 1526 L 88 1525 L 99 1525 L 100 1524 L 114 1524 L 115 1525 L 127 1525 L 130 1522 L 139 1518 L 141 1515 L 142 1515 Q 141 1517 144 1516 L 142 1505 L 143 1503 L 142 1500 L 142 1498 L 142 1481 L 145 1466 L 145 1458 L 146 1457 L 145 1454 L 147 1444 L 147 1431 L 148 1430 L 149 1417 L 149 1415 L 151 1407 L 151 1400 L 154 1395 L 158 1375 L 177 1322 Q 176 1318 179 1319 L 179 1317 L 188 1300 Q 187 1295 190 1296 L 190 1293 L 195 1284 L 153 1217 L 130 1172 L 122 1152 L 110 1112 L 104 1082 L 99 1066 L 98 1054 L 95 1044 L 93 1028 L 93 1026 Q 89 1020 91 1010 L 91 1008 L 90 1007 L 90 990 L 89 989 L 89 969 L 89 967 Q 88 961 90 960 L 89 958 L 90 956 L 89 953 L 90 951 L 89 949 L 79 942 Z M 103 1015 L 103 1017 L 105 1016 L 103 1015 Z M 165 1359 L 166 1362 L 167 1360 L 165 1359 Z M 652 1379 L 652 1383 L 653 1383 L 652 1379 Z M 654 1386 L 652 1394 L 652 1414 L 653 1415 L 653 1429 L 652 1430 L 653 1442 L 653 1444 L 649 1457 L 645 1461 L 626 1465 Q 620 1470 610 1471 L 627 1474 L 634 1477 L 653 1479 L 655 1471 L 654 1469 L 655 1461 L 657 1457 L 656 1454 Q 659 1450 658 1443 L 658 1441 L 659 1437 L 658 1434 L 658 1432 L 659 1427 L 658 1426 L 657 1405 L 656 1404 Q 655 1398 657 1397 L 655 1395 Q 656 1389 654 1386 Z " />
<path fill="rgb(0,0,0)" stroke="rgb(0,0,0)" stroke-width="1" opacity="0.9921568627450981" d="M 670.5 1484 L 671 1486.5 L 670 1486.5 L 670.5 1484 Z " />
</svg>