
<svg width="830" height="1660" version="1.1" xmlns="http://www.w3.org/2000/svg" desc="Created with imagetracer.js version 1.2.6" >
<path fill="rgb(2,2,2)" stroke="rgb(2,2,2)" stroke-width="1" opacity="1" d="M 409.5 96 L 414.5 96 L 421 98 L 425 108.5 L 424 110.5 L 425 113.5 L 426 125.5 L 428 132.5 L 428 140.5 L 432 157.5 L 433 171.5 L 437 185.5 L 452 220.5 L 470 247.5 L 476.5 254 L 478 239.5 L 479 238.5 L 479 236.5 L 479 229.5 L 481 224.5 L 483 211.5 L 491 187.5 L 494 182.5 L 495 176.5 L 505 152.5 L 520 132 L 524 129.5 Q 523.3 127.3 525.5 128 L 532.5 121 L 552 106.5 L 552 105 L 557 105 L 557 103.5 L 558 103.5 Q 557.3 105.8 559.5 105 L 566 109.5 Q 568.7 113.3 567 121.5 L 569 131.5 L 572 138.5 L 572 142.5 L 587 176.5 L 587 179.5 L 589 181.5 L 603 213.5 L 610 223.5 L 628.5 244 L 644 255 L 644 250.5 L 650 228.5 L 659 210.5 L 681.5 176 L 689.5 170 L 700 167 L 703 160 L 716 161 Q 714.9 163.7 717.5 163 L 719 166 Q 722.3 164.7 721 169.5 L 721 173.5 L 723 190.5 L 735 216.5 L 755 247.5 L 764.5 257 L 773 262 L 774.5 265 L 786.5 273 Q 794 273.5 798.5 277 L 803.5 277 L 819.5 281 Q 821 278.5 826.5 280 L 830 281 L 830 301.5 L 828.5 302 L 826.5 302 Q 817.7 303.4 818.5 300 L 808.5 300 L 786.5 292 L 777.5 291 L 762 281.5 Q 762.8 279.3 760.5 280 Q 752.1 276.4 747 269.5 Q 747.8 267.3 745.5 268 L 744 265 Q 741.3 266.1 742 263.5 Q 728 247.5 717 228.5 Q 711.7 213.3 703 201.5 L 701 194.5 L 701 188.5 L 699.5 187 L 694 191.5 L 684 206.5 L 671 230.5 L 663 257.5 L 662 268.5 L 663 269.5 L 663 277.5 L 659.5 283 L 654.5 287 L 652.5 287 L 648 286 L 646.5 283 L 644.5 284 Q 633.6 278.9 627 269.5 L 624.5 266 Q 622.3 266.8 623 264.5 L 610 253.5 L 585 221.5 L 580 207.5 L 567 180.5 L 563 167.5 L 557 156.5 L 549.5 132 L 535 144.5 L 533 147.5 L 523 161.5 L 506 205.5 L 499 234.5 L 498 258.5 Q 500.3 259.8 499 264.5 L 503 273.5 L 503 278.5 Q 500.8 279.8 503.5 281 Q 505.8 280.3 505 282.5 L 506 287.5 L 505 290 L 499.5 293 L 494.5 294 L 486 292 L 484.5 289 L 479 286 L 479 283.5 L 475 278 L 471.5 276 L 469.5 277 L 463 272.5 L 459 265 Q 456.3 266.1 457 263.5 L 449 253.5 L 449 251 Q 446.3 252.1 447 249.5 L 435 232.5 Q 428.3 221.7 425 207.5 L 423 205.5 L 423 202.5 L 419 193.5 L 419 189.5 L 416 183.5 L 415 171.5 L 412 159.5 L 412 157.5 L 410 147.5 L 411 145.5 L 409 140.5 L 407 119.5 L 405.5 118 L 392 129.5 L 390.5 132 L 388 133.5 L 374.5 151 Q 372.3 150.3 373 152.5 L 361 170.5 L 347 210.5 L 346 221.5 L 345 222.5 L 345 242.5 Q 347.2 253.7 354 260.5 L 357 270.5 L 352 280 Q 349.3 278.9 350 281.5 L 348.5 281 L 346 281 Q 347.3 284 343.5 283 L 341.5 284 L 338.5 283 L 336.5 284 L 311.5 271 Q 296.8 262.2 286 249.5 L 274 231.5 L 266 210.5 L 264 208.5 L 257 187.5 L 255 174.5 L 253 171.5 L 249 157.5 L 249 152.5 L 247 148.5 L 247 146.5 Q 248.7 138.3 246 134.5 L 247 131.5 L 246 123 L 217.5 138 L 204 148.5 L 202 151.5 Q 184.3 169.8 172 193.5 Q 172.6 199.6 170 202.5 L 170 211.5 L 169 212.5 L 169 225.5 L 170 226.5 L 170 246.5 L 172 251.5 L 172 253.5 L 176 271.5 L 180 279.5 L 180 288 L 176 290.5 L 174.5 293 L 168 292 Q 169.3 295 165.5 294 L 162.5 292 L 160.5 292 L 152.5 289 L 139.5 279 L 132 276 Q 133.1 273.3 130.5 274 L 125 266 L 123 266 L 123 264 Q 120.3 265.1 121 262.5 L 104 241.5 L 93 217.5 L 89 212.5 L 78 184.5 L 74 163.5 L 75 160 Q 70.3 160.5 68 164.5 L 66 167.5 L 54 178.5 L 42 194.5 L 37 204.5 L 34 217.5 L 31 223.5 L 30 235.5 L 28 242.5 L 28 270.5 L 31 283.5 L 34.5 289 L 38 291.5 L 38 293.5 Q 39 299 35.5 300 L 25.5 305 L 18.5 303 L 16.5 303 L 0 302 L 0 281.5 L 1.5 281 L 4.5 282 L 6.5 281 L 8.5 282 L 10.5 282 L 15 280.5 L 13 274.5 L 13 264.5 L 12 263.5 L 12 259.5 L 13 241.5 L 14 240.5 L 14 228.5 L 20 202.5 Q 32.2 175.7 53.5 158 Q 55.8 158.8 55 156.5 L 67 148 Q 65.9 145.3 68.5 146 L 75.5 142 L 84.5 140 L 91 143 L 94 148.5 L 94 150.5 L 94 169.5 L 100 190.5 L 113 213.5 L 120 229.5 L 132 246 Q 134.7 244.9 134 247.5 L 143.5 258 L 152.5 264 L 153 262.5 L 151 257.5 L 149 239.5 L 150 237.5 L 149 236.5 L 149 217.5 L 150 215.5 L 150 213.5 L 150 204.5 L 151 203.5 L 151 201.5 Q 150 194.5 153 191.5 L 153 189.5 L 157 178.5 L 166.5 166 L 168 166 L 168 163 Q 170.7 164.1 170 161.5 L 174 155 Q 176.7 156.1 176 153.5 L 183.5 144 Q 185.8 144.8 185 142.5 L 195 132.5 L 195 131 L 207 123 Q 205.8 120 209.5 121 L 213.5 118 L 216 118 Q 214.9 115.3 217.5 116 L 237.5 104 L 244.5 101 L 250.5 101 L 256.5 103 L 258.5 103 Q 265.8 103.3 268 108.5 L 270 116.5 L 268 120.5 L 267 145.5 L 271 162.5 L 274 167.5 L 278 185.5 L 280 188.5 L 286 209.5 L 295 227.5 L 307.5 244 L 310.5 246 Q 317.3 253.7 328.5 257 L 328 255.5 L 324 237.5 L 325 236.5 L 326 213.5 L 328 209.5 L 329 202.5 L 333 194.5 L 333 191.5 L 335 189.5 L 335 187.5 L 339 172.5 L 348 154.5 L 370.5 126 Q 372.8 126.8 372 124.5 L 385.5 110 Q 394.9 102.1 408 99 L 409.5 96 Z " />
<path fill="rgb(2,2,2)" stroke="rgb(2,2,2)" stroke-width="1" opacity="1" d="M 755 289 Q 759.1 287.7 758 291 Q 753.9 292.3 755 289 Z " />
<path fill="rgb(2,2,2)" stroke="rgb(2,2,2)" stroke-width="1" opacity="1" d="M 575.5 888 L 578.5 889 L 580 888.5 L 583.5 893 L 586 893 L 586 895 Q 589.7 893.5 589 896.5 L 588 898.5 L 588 900.5 L 584.5 905 L 574 910 Q 575.1 912.7 572.5 912 L 550.5 928 L 542 936.5 Q 542.8 938.8 540.5 938 L 534 946 Q 531.3 944.9 532 947.5 L 526 953.5 L 520 964 Q 517.3 962.9 518 965.5 L 508 977.5 L 495 997.5 L 479 1032.5 L 470 1057.5 L 465 1076.5 L 463 1079.5 L 463 1083.5 L 458 1100.5 L 458 1105.5 L 455 1118.5 L 455 1125.5 L 454 1126.5 L 454 1128.5 L 453 1155.5 L 452 1156.5 L 458.5 1157 L 461.5 1156 Q 466.2 1157.2 467.5 1155 L 469.5 1155 L 496.5 1153 L 497.5 1152 L 507.5 1152 L 508.5 1151 L 519.5 1151 L 520.5 1150 L 539.5 1150 L 549.5 1148 L 577.5 1147 L 578.5 1146 L 580.5 1146 L 582.5 1147 L 585.5 1146 L 591.5 1147 L 594.5 1146 L 596.5 1146 L 598.5 1147 L 616.5 1147 L 617.5 1148 L 619.5 1147 L 622.5 1148 L 660.5 1149 L 661.5 1150 L 676.5 1150 L 677.5 1151 L 690.5 1151 L 691.5 1152 L 732 1153 L 731 1133.5 L 725 1117.5 L 721 1099.5 L 721 1091.5 L 720 1090.5 L 720 1055.5 L 721 1050.5 L 720 1048.5 L 721 1045.5 L 721 1043.5 L 722 1030.5 L 738 981.5 Q 744.7 965.7 757.5 956 L 760 954.5 Q 759.3 952.3 761.5 953 L 785.5 935 L 815.5 920 L 817.5 920 L 830 919 L 830 940 L 818.5 940 L 791.5 955 L 763 978.5 L 756 990.5 L 751 1004.5 L 751 1006.5 L 743 1029.5 L 741 1039.5 L 741 1090.5 L 743 1098.5 L 743 1106.5 L 751 1127.5 L 755 1148.5 L 754 1150.5 L 756 1157.5 L 754 1161.5 L 754.5 1163 L 752 1164.5 L 754 1170 L 743.5 1173 L 740.5 1172 L 733.5 1173 L 730.5 1172 L 716.5 1172 L 707.5 1170 L 705.5 1170 L 674.5 1169 L 673.5 1168 L 644.5 1167 L 643.5 1166 L 640.5 1167 L 639.5 1166 L 624.5 1166 L 623.5 1165 L 611.5 1165 L 610.5 1164 L 606.5 1165 Q 605 1162.5 599.5 1164 L 597.5 1164 L 576.5 1164 L 571.5 1165 L 569.5 1164 L 568.5 1165 L 557.5 1165 L 556.5 1166 L 522.5 1167 L 513.5 1169 L 477.5 1172 L 464.5 1175 L 457.5 1175 L 446.5 1178 L 439.5 1178 L 434 1170.5 L 433 1165.5 L 433 1144.5 L 434 1141.5 L 434 1139.5 L 434 1129.5 L 436 1118 L 433.5 1119 L 419.5 1120 L 415.5 1119 Q 412 1114 406 1113 Q 403.7 1109.4 405 1100.5 L 407 1092.5 L 407 1082.5 L 409 1076.5 L 409 1071.5 L 413 1061.5 L 413 1057.5 L 421 1038.5 L 431 1006.5 L 446 976.5 L 444.5 976 L 431 989.5 L 431 991 L 428 992.5 L 408 1019 Q 405.3 1017.9 406 1020.5 L 398 1030.5 L 375 1076.5 L 363 1125.5 L 364 1128.5 L 362 1134.5 L 362 1136.5 L 363 1139.5 L 361 1143.5 L 363 1147.5 L 362 1147.5 L 361.5 1146 L 361 1149.5 L 363 1149.5 L 364 1157 L 362 1157.5 L 365 1169.5 L 364 1173 L 356.5 1174 L 356.5 1172 L 353.5 1171 Q 352.4 1173.8 349 1173 L 348.5 1175 L 291.5 1175 L 289.5 1175 L 282.5 1174 L 280.5 1174 L 278.5 1175 L 276.5 1175 Q 271 1173.5 269.5 1176 L 265.5 1175 L 262.5 1176 L 259.5 1175 L 256.5 1176 L 254.5 1176 L 252.5 1175 L 249.5 1177 Q 247.8 1174.3 241.5 1176 L 239.5 1177 Q 237.8 1174.3 231.5 1176 L 229.5 1177 L 227.5 1176 L 225 1177.5 L 225.5 1176 L 223 1176.5 L 223.5 1178 L 220.5 1176 Q 219 1178.5 213.5 1177 L 211.5 1177 L 193.5 1178 L 191.5 1178 L 180.5 1178 L 178.5 1180 L 177.5 1179 L 167.5 1179 L 166.5 1178 L 165.5 1179 L 142.5 1179 L 141.5 1180 L 136.5 1179 L 133.5 1180 L 121.5 1180 L 117.5 1183 L 112.5 1182 L 105.5 1184 L 99 1179.5 L 95 1170.5 L 95 1162.5 L 94 1161.5 L 95 1159.5 L 94 1158.5 L 94 1134.5 L 93 1133.5 L 93 1123 L 87.5 1121 L 58.5 1120 L 52.5 1122 L 47.5 1122 L 40.5 1124 L 31.5 1124 L 30.5 1125 L 21 1118.5 L 18 1113.5 L 18 1104.5 L 21 1095.5 L 21 1088.5 L 26 1068.5 L 28 1054.5 L 34 1043.5 L 34 1041.5 L 36 1038.5 L 36 1036.5 L 38 1029.5 L 59 994.5 L 79.5 972 L 84 970 Q 82.9 967.3 85.5 968 L 111.5 946 L 126 936.5 L 122.5 935 L 121.5 936 L 87.5 936 L 86.5 937 L 83.5 936 L 79.5 937 Q 78 934.5 72.5 936 L 68.5 937 Q 67 934.5 61.5 936 L 59.5 936 L 56.5 937 L 54.5 937 Q 49.7 938.3 48.5 936 L 47.5 937 L 34.5 938 L 33.5 937 L 23.5 937 L 21.5 939 L 15.5 940 L 12.5 939 L 11.5 940 L 0 940 L 0 920 L 12.5 920 L 17.5 918 L 19.5 918 L 69.5 918 L 70.5 917 L 83.5 917 L 85.5 916 L 87.5 916 L 114.5 916 L 115.5 915 L 116.5 916 L 145.5 916 L 146.5 917 L 148.5 917 L 150.5 916 L 151.5 917 L 205.5 918 L 206.5 917 L 214.5 917 L 219.5 918 L 263.5 897 L 280.5 891 L 287.5 891 L 297 898.5 Q 296.8 904.3 293.5 907 L 274.5 913 L 234.5 931 L 206.5 949 L 194 959 L 190.5 964 L 178 973 L 164 990 Q 161.3 988.9 162 991.5 L 144 1016 Q 141.3 1014.9 142 1017.5 Q 127.9 1035.4 121 1060.5 L 121 1062.5 L 118 1073.5 L 118 1079.5 L 116 1082.5 L 116 1084.5 L 116 1090.5 L 111 1115.5 L 111 1131.5 L 112 1132.5 L 112 1151.5 L 112 1155.5 L 112.5 1166 L 119.5 1164 L 149.5 1163 L 150.5 1162 L 153.5 1163 L 155.5 1162 L 200.5 1162 L 201.5 1161 L 203.5 1161 L 224.5 1161 L 225.5 1160 L 240.5 1160 L 241.5 1159 L 254.5 1159 L 255.5 1158 L 273.5 1158 L 274.5 1157 L 278.5 1157 L 321.5 1157 L 322.5 1158 L 324.5 1158 L 332.5 1157 L 334.5 1157 L 337.5 1158 L 346 1156 L 345 1153.5 L 345 1139.5 L 346 1138.5 L 347 1113.5 L 349 1107.5 L 349 1102.5 L 351 1097.5 L 353 1084.5 L 355 1080.5 L 355 1076.5 L 358 1070.5 L 361 1058.5 L 378 1024.5 L 397.5 996 Q 399.8 996.8 399 994.5 L 405 986 L 409 983.5 L 413 978.5 L 415 975 L 418 974.5 Q 415.8 973.3 418.5 972 L 421 971.5 L 420 970.5 L 424.5 966 L 428 964.5 Q 427.5 959.5 431.5 959 Q 432.7 961.3 434 958.5 L 433.5 957 L 435.5 958 Q 433.7 955.5 438.5 953 L 440.5 954 L 442.5 950 L 444.5 951 L 454 945.5 L 453 943.5 L 454 943.5 Q 453.3 945.8 455.5 945 L 459 942.5 Q 456.8 941.2 459.5 940 L 461 940.5 L 459 941.5 L 461.5 942 L 474.5 934 L 476.5 934 L 487 930 L 487.5 928 L 489.5 929 L 494 927.5 L 492 926.5 L 494.5 925 L 494.5 927 L 514.5 923 L 524.5 923 L 527.5 924 L 545 910 Q 543.9 907.3 546.5 908 L 565.5 893 L 575.5 888 Z M 165 937 L 165 939 L 158 940 L 157 944 L 155 946 L 150 947 L 134 956 L 84 996 Q 85 998 82 997 L 81 1001 L 61 1029 L 54 1043 Q 55 1045 52 1044 Q 49 1048 49 1056 L 46 1060 L 46 1065 L 44 1069 L 44 1074 L 38 1104 L 52 1103 L 53 1102 L 65 1102 L 74 1104 L 82 1104 L 87 1106 L 94 1106 L 95 1101 L 95 1099 L 98 1084 L 98 1077 L 102 1063 L 102 1059 L 112 1031 L 123 1014 L 123 1012 L 141 988 Q 140 985 143 986 L 153 973 L 160 967 L 161 964 L 167 960 L 169 957 L 172 955 L 173 952 L 190 939 L 165 937 Z M 510 942 L 496 946 L 482 952 L 479 961 L 476 962 L 474 966 Q 475 969 473 968 L 458 992 L 456 1000 L 442 1031 L 439 1043 L 433 1058 L 433 1060 L 428 1075 L 427 1094 L 426 1095 L 427 1097 L 426 1099 L 432 1098 L 439 1099 L 440 1098 L 442 1084 L 445 1078 L 447 1068 L 449 1066 L 453 1049 L 455 1047 L 457 1038 L 461 1029 Q 460 1025 463 1026 L 463 1023 L 467 1016 L 467 1013 L 470 1010 L 469 1009 L 470 1006 L 473 1005 L 472 1003 Q 475 1001 474 999 Q 476 1000 475 998 L 475 996 L 479 990 Q 478 987 481 988 L 480 987 L 490 972 Q 489 969 492 970 L 493 967 Q 501 960 506 950 Q 505 947 508 948 L 511 944 Q 512 941 510 942 Z " />
<path fill="rgb(2,2,2)" stroke="rgb(2,2,2)" stroke-width="1" opacity="1" d="M 505.5 922 L 508 922.5 L 505.5 923 L 505.5 922 Z " />
</svg>