
<svg width="830" height="1660" version="1.1" xmlns="http://www.w3.org/2000/svg" desc="Created with imagetracer.js version 1.2.6" >
<path fill="rgb(0,0,0)" stroke="rgb(0,0,0)" stroke-width="1" opacity="1" d="M 586.5 268 L 590.5 269 L 592.5 268 L 593.5 269 L 608.5 269 L 613.5 271 L 619.5 271 L 628.5 274 L 637.5 275 L 656.5 282 L 659.5 282 L 669.5 287 L 689.5 278 L 707.5 277 L 709.5 276 L 711.5 276 L 714.5 277 L 715.5 276 L 744.5 275 L 746.5 274 L 747.5 275 L 759.5 275 Q 761.3 272.3 767.5 274 L 768.5 275 L 775.5 275 L 792.5 278 L 794.5 278 Q 800.6 277.4 803.5 280 L 817.5 281 L 821.5 280 L 826.5 281 L 828.5 280 L 830 281.5 L 830 300 L 819.5 302 L 809.5 302 L 763.5 294 L 761.5 294 L 750.5 294 L 749.5 293 L 746.5 294 L 744.5 294 L 731.5 294 L 729.5 295 L 727.5 295 L 723.5 294 L 722.5 295 L 715.5 295 L 708.5 297 L 688.5 299 L 679.5 303 L 674 308.5 L 672.5 311 L 665 314 L 664 310 L 655.5 303 L 648.5 300 L 636.5 297 L 630.5 294 L 598.5 288 L 596.5 289 L 594.5 288 L 592.5 288 L 576.5 287 L 567.5 289 L 562.5 287 L 561.5 288 L 527.5 290 L 516 292 Q 517.1 289.3 514.5 290 L 497 294 L 497 296.5 L 491 302.5 Q 490.3 308.3 486.5 311 L 482.5 313 Q 481 310.5 479.5 314 Q 474.9 313.4 473.5 316 L 471.5 315 Q 470 317.5 468.5 314 Q 466.3 314.8 467 312.5 L 465 309 L 460.5 309 L 441.5 303 L 425.5 302 L 408.5 299 Q 407 301.5 401.5 300 L 399.5 299 L 397.5 299 Q 389.3 300.7 385.5 298 L 383.5 299 L 373.5 297 L 331.5 297 L 326.5 298 L 316.5 303 L 308.5 304 L 301.5 309 L 295 309 L 290.5 302 Q 287.9 302.7 289 300 L 286.5 300 L 272.5 294 L 247.5 293 L 239.5 291 L 238.5 292 L 218.5 293 L 217.5 292 L 199.5 292 L 182.5 295 L 167.5 302 L 161.5 307 L 155.5 307 Q 154.4 304.3 151 305 L 149 301 L 146.5 301 L 136.5 295 Q 131 296.5 129.5 294 L 127.5 294 L 93.5 293 L 92.5 292 L 89.5 293 L 86.5 292 L 84.5 292 Q 79.7 290.7 78.5 293 L 76.5 293 L 60.5 294 L 59.5 295 L 44.5 295 L 43.5 296 L 38.5 295 L 31.5 296 L 29.5 296 L 22.5 296 L 14 298.5 L 17 299.5 L 12.5 301 L 12.5 300 L 14 299.5 L 10 299 L 8.5 302 L 0 302 L 0 282 L 4.5 282 L 7.5 280 Q 12.3 281.2 13.5 279 L 41.5 278 L 42.5 277 L 46.5 278 L 48.5 277 L 50.5 278 L 58.5 276 L 60.5 276 Q 65.3 277.3 66.5 275 L 71 276 Q 69.9 273.3 72.5 274 L 76.5 275 L 79.5 274 L 82.5 275 L 84.5 274 L 85.5 275 L 107.5 275 Q 110.7 271.2 119.5 273 L 121.5 273 L 135.5 278 L 142.5 278 L 158.5 285 L 167 281 L 167.5 279 L 169.5 280 L 186.5 274 L 205.5 273 L 208.5 274 L 220.5 274 L 221.5 273 L 225.5 273 L 230.5 274 L 232.5 273 L 234.5 274 L 236.5 274 L 241.5 273 L 243.5 274 L 245.5 274 L 254.5 274 L 255.5 273 L 257.5 273 L 274.5 276 L 276.5 276 L 280.5 276 L 294.5 280 L 301.5 285 L 324.5 277 L 339.5 275 L 341.5 275 L 344.5 276 L 346.5 276 L 354.5 276 L 355.5 277 L 384.5 277 L 385.5 278 L 397.5 278 L 398.5 279 L 400.5 279 L 409.5 278 L 414.5 280 L 424.5 280 L 425.5 281 L 427.5 281 L 446.5 282 Q 447.8 284.3 452.5 283 L 455.5 285 L 457.5 285 L 465.5 287 L 467.5 287 L 470.5 287 L 477 290.5 L 478.5 293 Q 480.8 293.8 480 291.5 L 479.5 290 L 481.5 291 L 487.5 284 L 509.5 276 L 523.5 275 L 545.5 271 L 547.5 271 L 556.5 271 L 557.5 270 L 558.5 271 L 573.5 271 L 576.5 269 L 585.5 269 L 586.5 268 Z " />
<path fill="rgb(0,0,0)" stroke="rgb(0,0,0)" stroke-width="1" opacity="1" d="M 69.5 916 Q 77.5 914.5 79 919.5 Q 81.9 923.1 81 930.5 L 76 937.5 L 66 959.5 L 64 965.5 L 64 970.5 L 62 973.5 L 61 989.5 L 60 990.5 L 60 992.5 L 65 1023.5 L 75.5 1049 L 93 1018.5 L 112 994.5 L 111 993.5 L 115 989.5 L 120.5 982 L 131 973.5 Q 130.3 971.3 132.5 972 L 143.5 961 L 174.5 938 L 183.5 932 L 191.5 930 L 195 927.5 L 198.5 923 Q 200.8 920.3 206.5 921 L 209 922 L 213 929.5 L 213 937.5 L 206 967.5 L 205 989.5 L 204 990.5 L 204 992.5 L 205 994.5 L 205 1006.5 L 206 1007.5 L 206 1009.5 L 214 1037.5 L 221 1052.5 L 226.5 1060 L 242 1033.5 L 254 1017 L 255.5 1017 L 266 1006.5 L 270 1001.5 L 290.5 980 L 295 979 Q 293.9 976.3 296.5 977 L 302 973 Q 300.9 970.3 303.5 971 L 313 964 Q 311.9 961.3 314.5 962 L 334.5 947 L 342.5 943 L 350 942 L 351 937 L 353 937 Q 351.9 934.3 354.5 935 Q 356.5 931.5 362.5 932 L 367 935.5 L 370 941.5 L 370 948.5 L 367 954.5 Q 367.7 961.2 365 964.5 L 362 992.5 L 363 994.5 L 362 997.5 L 362 1010.5 L 364 1021.5 L 364 1023.5 L 366 1041.5 L 369 1050.5 L 372.5 1054 L 385 1035.5 L 414.5 999 Q 416.8 999.8 416 997.5 L 421 993.5 L 424.5 989 L 431 985 L 434.5 980 L 454 965 L 455.5 962 L 491.5 938 L 497.5 935 L 512 932 L 518 923 L 524.5 923 L 531 927.5 Q 533.7 930.8 533 937.5 Q 525.3 947.3 521 960.5 L 519 974.5 L 517 977.5 L 515 986.5 L 515 998.5 L 514 999.5 L 515 1002.5 L 514 1003.5 L 514 1021.5 L 517 1032.5 L 517 1038.5 L 524 1058.5 L 524 1063 L 528 1060.5 L 533 1047.5 L 544 1030 Q 546.7 1031.1 546 1028.5 L 562 1005.5 L 564 999 Q 567 1000.3 566 996.5 Q 570.3 994.3 568.5 992 Q 570.8 992.8 570 990.5 L 575 984 Q 577.7 985.1 577 982.5 L 581.5 977 L 593 966.5 L 607.5 950 L 623.5 939 L 643.5 929 L 645.5 929 L 657.5 923 L 656.5 925 L 654 926.5 L 655.5 927 L 659 924.5 L 660.5 921 L 660.5 923 Q 662.8 923.8 662 921.5 L 667.5 917 L 671.5 917 L 679 921 L 681 926.5 L 681 934.5 L 678 940.5 L 673 961.5 L 673 976.5 L 674 979.5 L 682 1028.5 L 686 1037.5 L 702.5 1062 L 718 1016.5 L 727 998.5 L 731 993.5 L 732 989.5 L 747.5 967 L 749 966.5 L 748 964.5 L 761.5 950 Q 763.8 950.8 763 948.5 Q 778.4 932.4 798.5 921 L 807.5 919 L 830 919 L 830 939.5 L 828.5 940 L 817.5 938 Q 793.6 944.6 779 960.5 L 779.5 962 Q 777.3 961.3 778 963.5 L 773 968.5 L 773 971 L 770 972.5 Q 770.8 975.1 767.5 974 L 749 1000.5 L 742 1015 Q 739.3 1013.9 740 1016.5 L 730 1038.5 L 730 1041.5 L 725 1055 Q 722.3 1053.9 723 1056.5 Q 718.7 1061.7 718 1070.5 L 713 1078.5 L 714 1082.5 L 712.5 1084 L 703.5 1086 L 697 1083.5 L 690.5 1075 L 688.5 1075 L 682 1068.5 L 680 1062.5 L 670 1047.5 L 662 1030.5 L 658 1014.5 L 658 1008.5 L 656.5 1007 Q 644.1 1013.1 635 1022.5 L 632.5 1026 L 631 1025.5 Q 631.8 1027.8 629.5 1027 L 624.5 1031 Q 619 1029.5 617.5 1032 L 609 1024.5 L 607 1021.5 L 603 992 L 601 992 L 601 983.5 L 599 983 L 590.5 995 Q 588.3 994.3 589 996.5 L 586 1001 Q 583.3 999.9 584 1002.5 L 552 1056.5 L 551 1060.5 L 548 1063.5 L 543 1077 L 533 1081.5 Q 533.8 1083.8 531.5 1083 L 530 1086 L 527.5 1087 L 525.5 1086 Q 523.8 1088.8 517.5 1087 L 510.5 1075 L 509 1075.5 L 509 1074 Q 505.2 1075.5 506 1072.5 L 504 1069.5 L 504 1064.5 L 500 1053.5 L 500 1049.5 L 498 1045.5 L 493.5 1024 L 475 1035.5 Q 475.8 1038.1 472.5 1037 L 470.5 1039 Q 465.7 1037.8 464.5 1040 L 455 1032.5 L 452 1022.5 L 451.5 993 L 446 997 Q 447.1 999.7 444.5 999 L 431.5 1012 L 430 1012 L 428.5 1015 L 422 1020.5 L 419 1026 Q 416.3 1024.9 417 1027.5 L 414 1032 Q 411.3 1030.9 412 1033.5 Q 395.5 1052.8 384 1076 L 373.5 1079 L 368 1078 L 367.5 1076 L 365.5 1076 L 363.5 1077 L 363.5 1075 L 360 1074 L 357 1065.5 L 358 1064.5 L 353 1059.5 L 353 1057 Q 350.3 1058.1 351 1055.5 L 346 1042.5 L 342.5 1019 L 324.5 1033 L 318.5 1035 L 316.5 1035 L 312.5 1034 L 306 1028.5 Q 306.8 1024.3 304 1023.5 L 302 1003.5 L 300 997.5 Q 302.3 996.3 299.5 995 L 280 1015.5 L 280 1017 L 276 1019.5 L 277 1021.5 L 260 1040.5 L 258 1046 Q 255.3 1044.9 256 1047.5 L 244 1060.5 L 242 1067.5 L 242 1069.5 L 240.5 1073 L 233 1077.5 Q 234.3 1081.3 230.5 1080 L 225.5 1081 L 222.5 1080 L 219.5 1080 L 212 1076 L 204 1065.5 L 199 1055.5 L 190 1032.5 L 190 1028.5 L 186 1016 Q 176.8 1019.5 171 1027.5 L 166.5 1033 L 155.5 1034 L 149 1028.5 L 143 1009.5 L 143 1000.5 L 140.5 992 L 140 994.5 L 132 1002.5 L 131 1005.5 L 119.5 1019 Q 118.3 1016.8 117 1019.5 L 115 1022.5 Q 105.5 1033.5 100 1048.5 L 100.5 1050 L 99 1049.5 L 86 1074 L 79.5 1073 L 77.5 1074 L 73.5 1071 L 70.5 1072 L 67.5 1071 Q 64.2 1072.1 65 1069.5 L 58 1065 L 54 1044.5 Q 47.8 1034.7 45.5 1021 L 39 1025 L 38 1029 Q 35 1027.8 36 1031.5 L 33 1033 L 33 1035 L 31 1035 Q 32.1 1037.7 29.5 1037 L 22.5 1042 L 19.5 1041 L 17.5 1042 L 14 1039.5 L 12.5 1037 L 10 1035.5 L 8 1030.5 L 8 1025.5 L 9 1024.5 L 9 994.5 L 8 993.5 L 8 972.5 L 9 971.5 L 9 964.5 L 12 951.5 L 12 946.5 L 14 942.5 L 12.5 942 L 10.5 942 L 0 941 L 0 920 L 11 920 Q 9.6 924 16.5 922 L 18.5 922 L 30.5 921 L 31.5 920 L 54.5 920 L 61.5 923 L 62 921 Q 64.7 922.1 64 919.5 L 69.5 916 Z M 45 939 L 44 940 L 31 941 Q 29 943 30 949 L 28 952 L 27 979 L 26 982 L 27 1006 L 28 1008 L 37 1002 L 42 1000 L 41 994 L 44 963 L 53 941 L 53 939 L 45 939 Z M 654 942 L 640 948 L 620 961 L 621 965 L 621 974 L 620 975 L 620 988 L 622 993 L 623 1005 L 645 991 L 654 988 L 653 978 L 653 976 L 651 967 L 652 953 L 655 943 L 654 942 Z M 186 953 L 185 954 Q 182 953 183 956 L 179 958 L 164 972 L 158 975 Q 157 978 160 980 Q 159 985 161 987 L 162 1008 Q 165 1009 164 1006 L 183 997 L 182 994 L 183 990 L 182 986 L 182 984 L 183 982 L 183 970 L 186 957 L 186 953 Z M 501 955 L 494 959 Q 491 958 492 961 L 488 963 L 472 976 L 473 982 L 473 984 L 474 987 Q 472 988 473 993 L 474 996 L 473 998 L 473 1012 L 493 1006 L 493 998 L 494 997 L 493 993 L 494 984 L 499 966 L 499 961 L 501 958 L 501 955 Z M 343 962 L 333 971 L 315 982 L 317 982 L 319 986 L 322 1001 L 321 1003 L 324 1009 Q 331 1002 341 1000 L 341 994 L 340 993 L 341 990 L 340 987 L 341 972 L 343 965 L 343 962 Z M 119 1016 L 119 1018 L 121 1017 L 119 1016 Z " />
</svg>