
<svg width="830" height="1660" version="1.1" xmlns="http://www.w3.org/2000/svg" desc="Created with imagetracer.js version 1.2.6" >
<path fill="rgb(2,2,2)" stroke="rgb(2,2,2)" stroke-width="1" opacity="1" d="M 94.5 99 L 97.5 100 Q 99 97.5 104.5 99 L 105.5 100 L 123.5 101 L 135.5 104 L 151.5 112 L 168 124 L 178 136.5 L 182 144 Q 184.7 142.9 184 145.5 L 192 159.5 L 196 176.5 L 196 186.5 L 197 187.5 L 197 189.5 L 197 209.5 L 199 210 L 201 201.5 L 214 178 Q 216.7 179.1 216 176.5 L 225 164 L 227 164 L 227 162 L 229 162 Q 227.9 159.3 230.5 160 L 248 146.5 Q 247.3 144.3 249.5 145 L 263.5 136 L 271.5 134 L 280.5 134 L 281.5 133 L 288.5 135 L 290.5 135 L 302.5 136 L 314.5 140 L 336 152 Q 334.9 154.7 337.5 154 Q 350.5 167 359 184.5 L 359 188.5 L 362 194.5 L 365.5 213 L 375 189.5 L 391.5 169 L 394.5 167 L 409.5 156 L 427.5 147 L 437.5 144 L 438.5 145 L 459.5 145 L 468.5 148 L 472.5 148 Q 487.2 152 497 160 Q 495.9 162.7 498.5 162 L 514 176.5 L 527 199.5 L 529 215.5 L 527 220.5 L 528 222.5 L 526 226.5 L 525 234.5 L 527 233.5 L 537 208.5 L 549.5 194 L 566.5 184 L 585.5 180 L 597.5 180 L 611.5 183 L 628 194.5 L 636.5 207 L 638 206.5 L 640 216.5 L 643 219.5 L 641 220.5 L 644.5 232 L 645.5 230 L 646 232.5 L 645 235.5 L 646 235.5 Q 650.2 224.7 658.5 218 Q 668.3 210.3 681.5 206 L 710.5 206 Q 722.8 208.8 730 216.5 L 737 225.5 L 745 240.5 L 748 250.5 L 748 252.5 L 747 267.5 L 742 282 L 751.5 282 L 752.5 283 L 754.5 283 L 771.5 284 Q 780.6 280.1 795.5 282 Q 798.4 285.6 806.5 284 L 812.5 282 L 818.5 282 L 822.5 280 L 824.5 280 L 828.5 281 L 830 280.5 L 830 300.5 Q 829.9 301.6 824.5 301 L 809.5 305 L 801.5 305 L 791.5 302 L 782.5 302 L 774.5 304 L 765.5 304 L 764.5 303 L 749.5 302 L 747.5 302 L 741.5 302 L 726.5 299 L 720 294.5 L 719 292.5 L 719 290.5 L 720 285.5 L 720 283.5 L 721 278.5 L 724 273.5 L 725 265.5 L 727 262.5 L 727 251.5 L 718 230 L 716 230 Q 717.1 227.3 714.5 228 Q 711.6 223.4 705.5 222 L 688.5 222 Q 677.1 226.1 669 233.5 Q 669.8 235.8 667.5 235 Q 659.3 242.8 658 257.5 L 659 259.5 L 658 262.5 L 659 265.5 L 659 267.5 L 658 271.5 L 660 275.5 L 659 277.5 L 659 279.5 Q 659.8 281.8 657.5 281 L 649.5 286 L 647.5 286 L 638.5 286 L 637.5 287 L 636.5 286 L 624.5 285 L 620 282 L 619 275.5 L 625 264.5 L 627 253.5 L 627 236.5 L 622 221.5 L 621 214.5 Q 618 207 611.5 203 L 604.5 199 L 590.5 198 L 589.5 197 L 579.5 199 L 568.5 204 L 557 213.5 L 554 220 Q 551.3 218.9 552 221.5 L 552.5 223 L 551 223.5 L 552 225.5 L 548 231.5 L 546 238.5 L 544 257.5 L 538.5 266 L 530.5 270 L 522.5 270 L 520.5 269 L 518.5 269 L 503 267 L 503 247.5 L 505 236.5 L 507 233.5 L 506 230.5 L 508 223.5 L 509 210.5 L 499 190.5 L 490.5 181 L 475.5 168 L 470.5 166 L 466.5 166 L 463.5 164 L 453.5 162 L 435.5 162 L 420.5 170 L 400 186 L 392 199.5 L 384 219.5 L 381 230.5 L 380 245.5 L 383 255.5 L 382 258.5 L 383 261.5 L 379 264 Q 380.1 266.7 377.5 266 L 373.5 268 L 371.5 269 L 354.5 269 L 353.5 270 L 348.5 269 L 342 264.5 L 341 262.5 L 341 247.5 L 343 243.5 L 345 232.5 L 345 211.5 Q 342.3 208.2 343 201.5 L 337 185.5 L 319.5 165 L 307.5 158 L 298.5 155 L 284.5 152 L 274.5 152 L 271.5 153 L 263.5 157 L 243 172.5 L 241 175.5 L 229 190.5 L 218 213.5 L 213 233.5 L 212 250.5 L 211 251.5 L 211 262.5 L 213 266.5 L 210 277 Q 205.4 276.4 203.5 280 L 192.5 282 L 187.5 281 L 178.5 284 L 171.5 284 Q 165.4 282.6 163 277.5 L 164 265.5 L 169 256.5 L 169 251.5 L 173 240.5 Q 171.9 231.9 175 227.5 L 175 225.5 L 175 197.5 L 174 194.5 L 175 190.5 L 174 188.5 L 174 186.5 L 170 164.5 L 153 139 Q 150.3 140.1 151 137.5 L 141.5 130 L 122.5 121 L 93 117 L 92 119.5 L 94.5 120 L 97.5 118 L 98 120 L 90.5 121 Q 89 117.5 87.5 120 L 66.5 128 L 48 142 L 48 144 Q 45.3 142.9 46 145.5 L 40 151.5 L 32 164.5 L 32 167.5 L 27 179.5 L 24 194.5 L 25 197.5 L 25 199.5 L 25 218.5 L 26 219.5 L 26 227.5 L 28 232.5 L 28 236.5 L 28 248.5 L 30 257.5 L 36 274.5 L 40 279.5 L 41 285 Q 44.8 284 46 286.5 Q 45.3 289.1 48 288 L 48 290.5 L 49 294.5 L 41.5 302 L 39.5 302 L 23.5 304 L 22.5 303 Q 15 304.5 11.5 302 L 10.5 303 L 0 303 L 0 282.5 L 1.5 282 L 3.5 283 Q 4.7 280.8 9.5 282 L 12.5 285 L 13.5 284 L 16.5 285 L 18.5 285 L 22 283.5 L 17 274.5 L 11 250.5 L 11 248.5 L 10 237.5 L 8 231.5 L 8 223.5 L 7 222.5 L 6 190.5 L 10 171.5 L 16 156.5 L 24 142.5 L 33.5 132 L 49.5 119 L 58.5 113 L 64.5 111 L 67.5 108 L 70.5 108 L 77.5 104 L 94.5 99 Z M 524 236 L 523 246 L 521 249 Q 520 251 524 250 L 526 241 Q 528 235 524 236 Z M 189 258 L 189 261 L 189 262 L 191 261 Q 192 257 189 258 Z " />
<path fill="rgb(2,2,2)" stroke="rgb(2,2,2)" stroke-width="1" opacity="1" d="M 692.5 744 L 693.5 746 L 692.5 744 Z " />
<path fill="rgb(2,2,2)" stroke="rgb(2,2,2)" stroke-width="1" opacity="1" d="M 810.5 917 L 812.5 918 L 813.5 917 L 823.5 917 L 830 920.5 L 830 939.5 Q 830 940.5 825.5 940 L 824.5 941 L 809.5 941 L 806.5 940 L 791 954.5 Q 782 965.5 777 980.5 L 775 987.5 L 775 1007.5 L 774 1009.5 L 775 1011.5 L 771 1027.5 L 766.5 1034 L 756.5 1036 L 751.5 1034 L 748.5 1035 L 747.5 1034 L 733.5 1034 L 732.5 1035 L 695.5 1035 Q 694 1037.5 688.5 1036 L 684.5 1038 L 672.5 1038 L 671.5 1039 L 660.5 1039 L 658.5 1040 L 656.5 1039 L 642.5 1042 L 640.5 1042 L 623.5 1042 L 613.5 1044 L 600.5 1044 L 599.5 1045 L 586.5 1045 L 585.5 1046 L 583.5 1045 L 580.5 1046 L 571.5 1046 L 570.5 1047 L 568.5 1046 L 567.5 1047 L 553.5 1047 L 552.5 1048 L 532.5 1048 L 531.5 1049 L 514.5 1049 L 513.5 1050 L 497.5 1050 L 496.5 1051 L 470.5 1052 L 446.5 1057 L 441.5 1056 L 438.5 1056 L 435 1054 Q 436.1 1051.3 433.5 1052 Q 428.1 1050.4 429 1042.5 L 430 1040 Q 433.7 1041.5 433 1038.5 L 431 1035.5 L 432 1033.5 L 431.5 1031 Q 426.7 1029.8 425.5 1032 L 423.5 1031 L 422.5 1032 L 411.5 1032 L 398 1026 Q 399.1 1023.3 396.5 1024 L 392 1017.5 L 383.5 982 L 380 989.5 L 379 997.5 L 377 999.5 L 370 1023.5 L 368 1026.5 L 364 1050.5 L 365 1054.5 L 364 1059 L 352.5 1063 L 345.5 1063 L 339.5 1061 L 325.5 1061 L 324.5 1060 L 292.5 1060 L 290.5 1061 L 288.5 1061 Q 280.3 1062.7 276.5 1060 L 274.5 1061 L 273.5 1060 L 241.5 1060 L 240.5 1061 L 227.5 1061 L 226.5 1062 L 224.5 1061 L 220.5 1062 L 199.5 1058 L 179.5 1058 L 176.5 1059 L 174.5 1058 L 173.5 1059 L 158.5 1059 L 156.5 1060 L 155.5 1059 L 131.5 1058 L 126.5 1059 L 123.5 1058 L 122.5 1059 L 85.5 1060 L 84.5 1061 L 73.5 1061 L 71.5 1062 L 69.5 1062 L 65.5 1062 L 54.5 1055 Q 53 1057.5 51.5 1054 Q 47.1 1055.5 48 1052.5 L 45 1044.5 L 49 1033.5 L 49 1031.5 Q 51.2 1025.2 45.5 1027 Q 40.9 1029.9 32.5 1029 L 28.5 1028 L 22 1022.5 L 20 1019.5 L 19 1017.5 L 20 1016.5 L 21 1001.5 L 26 974.5 L 26 964.5 L 24 956.5 L 24 943.5 L 23 941 L 20.5 940 L 19.5 941 L 0 941 L 0 921 L 21.5 921 L 39.5 925 Q 42.6 928.7 48 929 L 48 931 Q 50.7 929.9 50 932.5 L 53 934 Q 51.9 936.7 54.5 936 L 66 949.5 L 72 964.5 L 72 968.5 L 76 982.5 L 76 1010.5 L 75 1011.5 Q 76.7 1019.7 74 1023.5 L 74 1025.5 L 72 1040 L 94.5 1040 L 97.5 1039 L 99.5 1039 L 124.5 1039 L 127.5 1038 L 129.5 1038 Q 135.8 1036.3 137.5 1039 L 139.5 1039 L 141.5 1038 L 142.5 1039 L 151.5 1039 L 153.5 1039 L 165.5 1039 L 166.5 1038 L 168.5 1038 L 198.5 1038 L 200.5 1039 L 202.5 1039 Q 208 1037.5 209.5 1040 L 238.5 1040 L 239.5 1039 L 260.5 1039 L 262.5 1039 L 267.5 1040 L 269.5 1040 L 283.5 1040 L 284.5 1039 L 286.5 1040 L 288.5 1039 L 290.5 1040 L 291.5 1039 L 341.5 1039 L 346 1041 L 347 1034.5 L 347 1032.5 L 348 1026.5 L 353 1015.5 L 363 983.5 L 382.5 948 L 390.5 942 L 403.5 941 L 418 949 L 427 961.5 L 441 990.5 L 449 1013.5 L 454 1022.5 L 455 1033 L 473.5 1032 L 474.5 1031 L 476.5 1031 Q 482 1032.5 483.5 1030 L 485.5 1031 L 486.5 1030 L 498.5 1030 L 499.5 1029 L 514.5 1029 L 515.5 1028 L 517.5 1028 L 528.5 1028 L 529.5 1027 L 531.5 1027 L 561.5 1026 L 562.5 1025 L 582.5 1025 L 583.5 1024 L 585.5 1025 L 586.5 1024 L 598.5 1024 L 599.5 1023 L 620.5 1022 L 621.5 1021 L 637.5 1021 L 638.5 1020 L 640.5 1020 L 660.5 1020 L 661.5 1019 L 663.5 1020 L 672.5 1018 L 674.5 1018 L 691.5 1015 L 713.5 1015 L 715.5 1016 L 717.5 1016 L 721.5 1015 L 724.5 1016 L 734.5 1014 L 747.5 1014 L 749.5 1014 L 752.5 1015 L 755 1008.5 Q 753.2 1002.3 756 1000.5 L 756 985.5 L 762 964.5 L 775 942.5 L 792.5 924 L 802.5 919 Q 808.2 919.7 810.5 917 Z M 42 952 L 43 961 L 43 963 L 45 969 L 42 1000 L 40 1008 L 52 1009 L 53 1004 L 53 980 Q 51 965 45 954 L 42 952 Z M 399 956 L 396 959 L 401 979 L 405 987 L 410 1010 L 414 1009 L 415 1010 L 425 1010 L 423 1001 L 411 971 L 403 958 L 399 956 Z " />
</svg>