
<svg width="830" height="1660" version="1.1" xmlns="http://www.w3.org/2000/svg" desc="Created with imagetracer.js version 1.2.6" >
<path fill="rgb(0,0,0)" stroke="rgb(0,0,0)" stroke-width="1" opacity="1" d="M 352.5 155 L 354.5 156 L 357.5 155 L 360.5 156 L 361.5 155 L 405.5 155 L 406.5 156 L 424.5 156 L 425.5 157 L 457.5 159 L 491.5 166 L 493.5 166 L 522.5 172 L 556.5 184 L 588.5 200 L 593.5 204 L 604.5 208 L 636.5 224 Q 649.1 229.9 658.5 239 L 681.5 251 L 684.5 251 L 697.5 257 L 703.5 258 L 705.5 260 L 733.5 268 L 754.5 276 L 777.5 278 L 781.5 280 L 791.5 282 L 799.5 282 L 805.5 284 L 806.5 283 L 830 283 L 830 303 L 818.5 303 L 817.5 302 L 782.5 302 L 765.5 298 L 751.5 297 L 712.5 286 L 696.5 280 L 682.5 277 L 653.5 263 L 642.5 254 L 608.5 234 L 594.5 229 L 545.5 203 L 514.5 193 L 507.5 192 L 504.5 190 L 499.5 190 L 496.5 188 L 491.5 188 L 486.5 186 L 469.5 184 L 458.5 181 L 450.5 181 L 449.5 180 L 447.5 180 L 436.5 180 L 435.5 179 L 425.5 179 L 424.5 178 L 404.5 178 L 403.5 177 L 376.5 177 L 375.5 176 L 374.5 177 L 353.5 177 L 352.5 178 L 328.5 179 L 327.5 180 L 310.5 182 L 305.5 184 L 287.5 186 L 265.5 192 L 257.5 196 L 243.5 200 L 239.5 200 L 222.5 206 L 218.5 206 L 178.5 224 L 170.5 230 L 149.5 242 L 145.5 243 L 112.5 264 L 95.5 272 L 88.5 277 L 82.5 278 L 60.5 288 L 46.5 292 L 39.5 296 L 22.5 302 L 0 302 L 0 282 L 7.5 282 L 9.5 283 L 14.5 280 L 27.5 278 L 38.5 272 L 41 272 Q 39.7 268.7 44.5 270 L 74.5 259 L 89.5 252 Q 111.5 241 130.5 227 L 150.5 218 L 174.5 203 L 188.5 198 L 207.5 188 L 219.5 185 L 222.5 183 L 224.5 183 L 242.5 179 L 259.5 172 L 284.5 165 L 302.5 163 L 312.5 160 L 319.5 160 L 323.5 158 L 351.5 156 L 352.5 155 Z " />
<path fill="rgb(0,0,0)" stroke="rgb(0,0,0)" stroke-width="1" opacity="1" d="M 14.5 920 L 36.5 921 L 49.5 925 L 72.5 928 L 84.5 932 L 91.5 936 L 129 948 Q 127.9 950.7 130.5 950 L 140.5 958 L 160.5 969 L 191 992.5 L 196.5 1000 L 200 1002.5 Q 199.3 1004.8 201.5 1004 L 213 1016.5 L 235 1048.5 Q 239.5 1060.5 247 1069.5 L 251 1083.5 L 259 1100.5 L 265 1120.5 L 265 1125.5 L 270 1146.5 L 270 1161.5 L 271 1162.5 L 271 1175.5 L 273 1183.5 L 273 1209.5 L 274 1210.5 L 273 1213.5 L 275 1224.5 L 274 1225.5 L 274 1237.5 L 273 1239.5 L 273 1241.5 L 273 1256.5 L 267.5 1262 Q 262.8 1264.3 254.5 1263 L 253.5 1262 L 221.5 1262 L 220.5 1263 L 212.5 1263 L 203.5 1265 L 198.5 1268 L 195.5 1268 L 178.5 1275 Q 166.7 1280.2 159 1289.5 Q 159.7 1292.1 157 1291 L 157 1293 L 155.5 1293 L 137 1308.5 L 129 1321.5 L 127 1328 L 125 1328.5 L 126 1329.5 L 123 1332.5 L 120 1338.5 L 120 1340.5 L 119 1344 Q 116 1342.8 117 1346.5 L 115 1349.5 L 109 1369.5 L 109 1373.5 L 107 1376.5 L 107 1378.5 L 107 1386.5 L 105 1394.5 L 105 1406.5 L 104 1407.5 L 104 1430.5 L 110 1461.5 L 110 1463.5 L 110 1467.5 L 114.5 1478 L 135.5 1473 L 156.5 1472 L 165.5 1470 L 200.5 1469 L 201.5 1468 L 209.5 1468 L 215.5 1466 L 220.5 1466 L 227.5 1464 L 235.5 1464 L 236.5 1463 L 238.5 1463 L 256.5 1462 L 264.5 1460 L 276.5 1460 L 277.5 1459 L 294.5 1458 L 300.5 1456 L 310.5 1456 L 311.5 1455 L 338.5 1454 L 339.5 1453 L 341.5 1453 L 370.5 1452 L 371.5 1451 L 373.5 1452 L 378.5 1451 L 387.5 1451 L 388.5 1452 L 390.5 1450 L 403.5 1450 L 404.5 1449 L 406.5 1450 L 417.5 1448 L 420.5 1449 L 422.5 1449 L 426.5 1448 L 428.5 1448 Q 434.3 1446.7 435.5 1450 L 444.5 1448 Q 445.8 1450.3 450.5 1449 L 451.5 1448 L 461 1447.5 L 456 1446.5 L 461.5 1446 L 463.5 1447 L 466.5 1446 Q 468 1448.5 469.5 1445 L 474.5 1444 L 475 1446 L 478.5 1444 L 481.5 1445 L 485.5 1443 L 487.5 1444 L 495.5 1442 L 497.5 1442 L 510.5 1442 L 511.5 1441 L 513.5 1442 L 515.5 1441 L 517.5 1441 L 530.5 1440 L 538.5 1438 L 561.5 1438 L 564.5 1437 L 566.5 1438 L 568.5 1437 L 572.5 1438 L 574.5 1438 L 588.5 1434 L 593.5 1434 L 597.5 1432 Q 610.9 1433.9 618.5 1430 L 620.5 1430 L 633.5 1427 L 635.5 1427 L 639.5 1427 L 647.5 1423 L 656.5 1422 L 662 1420 L 661 1411.5 L 658 1405.5 L 649 1370.5 L 644 1357.5 L 644 1352.5 L 640 1334.5 L 633 1314.5 L 632 1306.5 L 627 1294.5 L 625 1283.5 L 625 1281.5 L 623 1275.5 L 623 1270.5 L 620 1257.5 L 620 1249.5 L 616 1233.5 L 616 1224.5 L 615 1223.5 L 615 1221.5 L 614 1189.5 L 613 1187.5 L 613 1185.5 L 614 1183.5 L 614 1167.5 L 614 1165.5 L 614 1151.5 L 625 1096.5 Q 629.1 1078.1 637 1063.5 L 641 1048.5 L 660 1009.5 L 680 982.5 L 688.5 974 Q 690.8 974.8 690 972.5 L 694 970 Q 692.9 967.3 695.5 968 L 705.5 959 L 734.5 944 L 738.5 944 L 792.5 924 Q 802.8 923.8 809.5 920 L 830 920 L 830 939.5 L 828.5 941 L 824.5 940 L 822.5 941 L 821.5 940 L 809.5 940 L 801.5 943 L 788.5 945 L 783.5 948 L 774.5 950 L 739.5 964 L 723.5 972 L 705 986 L 692 1004 Q 689.3 1002.9 690 1005.5 L 680 1017.5 L 677 1025.5 L 668 1039.5 L 656 1073.5 L 656 1076.5 L 652 1084.5 L 643 1122.5 L 643 1124.5 L 642 1132.5 L 638 1145.5 L 636 1163.5 L 636 1165.5 L 637 1167.5 L 636 1168.5 L 636 1205.5 L 637 1206.5 L 639 1237.5 L 642 1246.5 L 642 1248.5 Q 641.1 1256.9 644 1261.5 L 644 1263.5 L 644 1269.5 L 646 1274.5 L 646 1279.5 L 648 1283.5 L 650 1296.5 L 658 1318.5 L 658 1322.5 L 660 1325.5 L 664 1344.5 L 666 1348.5 L 666 1354.5 L 668 1357.5 L 670 1368.5 L 672 1370.5 L 672 1372.5 Q 672.9 1384.1 678 1391.5 L 680 1403.5 L 683 1408.5 Q 683.4 1417.1 687 1422.5 Q 684.3 1423.8 684.5 1428 L 682 1427 Q 683 1431.7 679.5 1433 Q 677.3 1432.3 678 1434.5 L 677 1437 L 669.5 1441 Q 653.5 1443 641.5 1449 L 639.5 1449 L 629.5 1450 L 625.5 1452 L 619.5 1452 L 613.5 1454 L 603.5 1454 L 590.5 1458 L 573.5 1459 L 571.5 1460 L 570.5 1459 L 559.5 1459 L 557.5 1460 L 555.5 1459 L 554.5 1460 L 543.5 1460 L 539.5 1462 L 530.5 1462 L 519.5 1464 L 517.5 1463 L 516.5 1464 L 492.5 1465 L 470.5 1469 L 468.5 1469 L 452.5 1469 L 451.5 1470 L 436.5 1470 L 435.5 1471 L 412.5 1471 L 411.5 1472 L 395.5 1472 L 394.5 1473 Q 383.8 1471.2 377.5 1474 L 375.5 1474 L 317.5 1476 L 304.5 1479 L 302.5 1479 L 279.5 1480 L 278.5 1481 L 261.5 1482 L 252.5 1484 L 250.5 1484 L 227.5 1486 L 216.5 1488 L 213.5 1490 L 211.5 1489 L 208.5 1490 L 197.5 1490 L 196.5 1491 L 194.5 1490 L 193.5 1491 L 170.5 1491 L 162.5 1493 L 131.5 1496 L 119.5 1499 L 113.5 1503 L 109.5 1503 L 107 1502 L 106.5 1500 L 105.5 1501 L 100 1495.5 L 91 1474.5 L 89 1466.5 L 89 1456.5 L 86 1444.5 L 86 1442.5 L 84 1432.5 L 84 1421.5 L 84 1419.5 L 85 1416.5 L 85 1412.5 L 85 1403.5 L 86 1402.5 L 85 1400.5 L 85 1398.5 L 86 1395.5 L 85 1393.5 L 87 1388.5 L 86 1385.5 L 87 1382.5 L 88 1373.5 L 88 1371.5 L 92 1352 L 82.5 1352 L 80.5 1354 Q 72.7 1353.2 69.5 1357 L 45.5 1360 L 43.5 1359 L 40.5 1361 L 40.5 1359 L 37.5 1360 Q 30.8 1358.8 27 1354.5 Q 27.8 1352.3 25.5 1353 L 18 1337.5 Q 19.6 1327.4 17 1321.5 Q 19.3 1320.2 18 1315.5 L 17 1314.5 L 17 1301.5 L 18 1297.5 L 18 1295.5 L 20 1291.5 L 19 1290.5 L 19 1277.5 L 19 1275.5 L 20 1270.5 L 20 1268.5 L 23 1256.5 L 22 1256.5 L 21.5 1258 L 21 1256.5 L 23.5 1251 L 23 1252.5 Q 22.3 1256.3 24.5 1257 L 25 1255.5 L 25 1253.5 L 26 1251.5 L 24 1248.5 L 25 1248.5 L 25.5 1250 L 29 1240 Q 32 1241.3 31 1237.5 L 40 1219 Q 42.7 1220.1 42 1217.5 L 46 1209.5 Q 43.8 1208.3 46.5 1207 L 46.5 1209 Q 49.5 1209.7 48 1206 L 50 1206 L 50 1203.5 L 49.5 1202 L 51 1202.5 Q 50.5 1198.5 53.5 1198 Q 55.8 1198.8 55 1196.5 L 62.5 1190 L 66 1189 L 67.5 1186 L 82 1176 Q 80.7 1172.7 85.5 1174 L 90.5 1170 L 101.5 1166 L 103.5 1166 L 107.5 1165 L 111.5 1166 L 111.5 1165 L 110 1164.5 L 112.5 1164 L 113.5 1165 L 121.5 1165 Q 123.3 1162.2 129.5 1164 L 131.5 1164 L 138.5 1162 L 141.5 1163 L 149.5 1161 L 151.5 1161 L 159.5 1162 L 163.5 1161 L 168.5 1163 L 171 1158.5 L 171 1148.5 L 172 1147.5 L 172 1139.5 L 174 1130.5 L 174 1117.5 L 175 1116.5 L 175 1096.5 L 176 1095.5 L 175 1093.5 L 175 1091.5 Q 177.7 1087.7 176 1079.5 L 175 1076.5 L 175 1069.5 L 171 1047.5 L 171 1045.5 L 170 1037.5 L 164 1022.5 L 164 1020.5 L 162 1011.5 L 156 998.5 Q 157.8 991.8 154.5 990 L 141.5 980 L 130.5 974 L 121.5 966 L 91.5 956 L 79.5 950 L 60.5 945 L 47.5 944 L 35.5 940 L 13.5 940 L 12.5 939 L 12 941 L 0 941 L 0 921 L 13.5 921 L 14.5 920 Z M 185 1017 L 193 1043 L 193 1050 L 195 1055 L 195 1063 L 197 1069 L 198 1085 L 199 1086 L 198 1128 L 198 1130 L 197 1131 L 197 1142 L 195 1149 L 195 1159 L 195 1161 L 191 1184 L 189 1187 L 186 1188 L 184 1188 L 181 1187 L 176 1188 L 176 1186 L 175 1188 L 172 1184 L 158 1182 L 156 1182 L 138 1182 L 137 1183 L 135 1182 L 130 1184 L 123 1184 L 107 1187 L 95 1192 L 81 1202 Q 78 1201 79 1204 L 72 1209 L 65 1217 Q 66 1219 63 1218 L 47 1245 L 39 1272 L 37 1275 L 36 1286 L 35 1287 L 35 1311 L 40 1337 L 52 1337 L 84 1330 L 102 1328 L 114 1305 L 127 1291 Q 134 1280 146 1274 L 148 1270 Q 154 1269 157 1264 L 176 1254 L 200 1246 L 210 1244 L 217 1244 L 218 1243 L 249 1242 Q 251 1241 249 1240 L 251 1231 L 250 1189 L 248 1181 L 248 1166 L 246 1156 L 246 1142 L 242 1128 L 242 1122 Q 239 1119 240 1114 L 238 1112 L 234 1098 L 232 1096 L 228 1083 L 222 1070 L 206 1043 L 190 1023 L 186 1020 L 185 1017 Z M 162 1162 L 162 1163 L 164 1163 L 162 1162 Z " />
<path fill="rgb(0,0,0)" stroke="rgb(0,0,0)" stroke-width="1" opacity="1" d="M 18.5 1265 L 19 1267.5 L 18 1267.5 L 18.5 1265 Z " />
</svg>