
<svg width="830" height="1660" version="1.1" xmlns="http://www.w3.org/2000/svg" desc="Created with imagetracer.js version 1.2.6" >
<path fill="rgb(0,0,0)" stroke="rgb(0,0,0)" stroke-width="1" opacity="0.9882352941176471" d="M 433.5 185 L 439.5 186 L 441.5 186 L 453.5 186 L 455.5 187 L 457.5 187 L 480.5 188 L 481.5 189 L 502.5 191 L 508.5 193 L 521.5 194 L 533.5 197 L 539.5 197 Q 546 200 555.5 200 L 559.5 202 L 564.5 202 L 604.5 213 L 613.5 214 L 617.5 216 L 626.5 217 L 684.5 234 L 695.5 238 L 697.5 240 L 721.5 248 L 725.5 251 L 734.5 253 L 740.5 257 L 744 257 Q 742.7 260.3 747.5 259 L 762.5 265 L 785.5 278 L 787.5 278 L 807.5 282 L 830 282 L 830 301 L 807.5 301 L 798.5 299 L 785.5 299 L 779.5 297 L 745.5 281 L 732.5 278 L 708.5 265 L 688.5 259 L 671.5 252 L 657.5 249 L 626.5 239 L 611.5 236 L 590.5 229 L 577.5 227 L 557.5 221 L 552.5 221 L 535.5 217 L 529.5 217 L 524.5 215 L 518.5 215 L 501.5 211 L 491.5 211 L 485.5 209 L 476.5 209 L 466.5 207 L 411.5 206 L 410.5 207 L 395.5 207 L 387.5 209 L 385.5 209 L 358.5 211 L 346.5 214 L 344.5 214 L 325.5 217 L 313.5 221 L 308.5 221 L 296.5 224 L 259.5 239 L 255.5 239 L 238.5 244 L 223.5 250 L 211.5 253 L 209.5 255 L 184.5 264 Q 158.5 270 135.5 279 L 94.5 288 L 92.5 288 L 76.5 293 L 64.5 295 L 61.5 297 L 47.5 299 L 40.5 302 L 0 302 L 0 281.5 L 1.5 281 L 6.5 282 L 23.5 282 L 33.5 279 L 72.5 273 L 88.5 267 L 124.5 260 L 138.5 255 L 146.5 254 L 162.5 249 L 171.5 248 L 214.5 231 L 268.5 215 L 293.5 204 L 305.5 201 L 310.5 201 L 327.5 196 L 361.5 190 L 363.5 190 L 381.5 189 L 391.5 187 L 404.5 187 L 405.5 186 L 407.5 187 L 408.5 186 L 432.5 186 L 433.5 185 Z " />
<path fill="rgb(0,0,0)" stroke="rgb(0,0,0)" stroke-width="1" opacity="0.9882352941176471" d="M 205.5 298 L 208 298.5 L 205.5 299 L 205.5 298 Z " />
<path fill="rgb(0,0,0)" stroke="rgb(0,0,0)" stroke-width="1" opacity="0.9882352941176471" d="M 632.5 846 Q 637.8 844.8 639 847.5 L 639 854.5 L 634 864.5 L 617 889.5 L 617 892 L 624.5 892 L 632.5 894 L 651.5 895 L 671.5 900 L 687.5 901 L 710.5 906 L 717.5 906 L 727.5 909 L 745.5 910 L 767.5 915 L 782.5 916 L 787.5 919 L 792.5 920 L 796.5 920 L 811.5 921 L 814 920.5 L 814.5 919 L 830 919 L 830 937.5 L 828.5 939 L 826.5 940 L 797.5 940 L 796.5 939 L 786.5 939 L 779.5 935 L 764.5 934 L 738.5 928 L 722.5 927 L 717.5 925 L 710.5 925 L 694.5 921 L 669.5 919 L 658.5 916 L 652.5 916 L 646.5 914 L 635.5 914 L 634.5 913 L 632.5 913 L 611.5 911 L 609.5 909 L 607 912.5 L 602 929.5 L 602 949.5 L 603 950.5 L 603 960.5 L 606 967.5 L 607 974.5 L 615 991.5 L 628 1005.5 Q 635.8 1021.8 648.5 1033 L 651.5 1035 L 667 1049.5 L 669 1052.5 L 675 1061.5 L 675 1067.5 L 667 1093.5 L 664 1108.5 L 657 1129.5 L 651 1141.5 L 639 1183.5 L 635 1192.5 L 633 1202.5 L 607 1275.5 L 607 1279.5 L 603 1289.5 L 601 1299.5 L 597 1305.5 L 597 1308.5 L 593 1315.5 L 593 1319.5 L 591 1324.5 L 591.5 1326 Q 588.9 1325.2 590 1328.5 L 590 1330.5 L 588 1333.5 L 588.5 1335 Q 585.5 1334.1 587 1338.5 L 589 1341.5 L 588 1341.5 L 587.5 1340 Q 585.1 1342.1 586 1347.5 L 586.5 1349 L 585 1349.5 L 585 1358.5 L 582 1375.5 L 577.5 1381 L 574 1380.5 L 572.5 1384 L 550.5 1379 L 514.5 1379 L 513.5 1378 L 505.5 1378 L 503.5 1378 L 489.5 1378 L 487.5 1377 L 482.5 1378 L 478.5 1377 L 476.5 1377 L 472.5 1378 L 469.5 1377 L 455.5 1377 L 454.5 1376 L 444.5 1376 L 443.5 1375 L 419.5 1375 L 418.5 1374 L 415.5 1375 L 410.5 1374 L 408.5 1374 L 398.5 1375 L 392.5 1377 L 376.5 1378 L 375.5 1379 L 373.5 1379 L 368.5 1379 L 357.5 1383 L 343.5 1385 L 335.5 1389 L 322.5 1391 L 317.5 1393 L 298.5 1395 L 284.5 1398 L 282.5 1398 L 268.5 1399 L 267.5 1400 L 265.5 1399 L 264.5 1400 L 237.5 1401 L 225.5 1405 L 201.5 1407 L 186.5 1411 L 184.5 1411 Q 179 1409.5 177.5 1412 L 168 1405.5 L 168 1403.5 L 167 1396.5 L 168 1393 Q 171 1394.3 170 1390.5 L 168.5 1388 L 167.5 1391 L 167 1388.5 L 167 1386.5 L 166 1382.5 L 171 1373.5 L 175 1361.5 L 175 1356.5 L 179 1341.5 L 187 1328.5 L 185.5 1327 Q 180 1328.5 178.5 1326 L 176.5 1326 L 158.5 1325 L 154.5 1323 L 138.5 1320 L 131 1314.5 Q 131.8 1312.3 129.5 1313 L 129.5 1312 L 131 1311.5 L 128 1310 L 127 1296.5 L 128 1295.5 L 129 1283.5 L 138 1262.5 L 140 1254.5 L 153 1232 Q 155.7 1233.1 155 1230.5 L 159 1225 L 161 1225 L 161 1223 L 163 1223 Q 161.9 1220.3 164.5 1221 L 185.5 1205 L 203.5 1196 Q 213.5 1195 220.5 1191 L 226.5 1191 L 233.5 1189 L 242.5 1189 L 243.5 1188 L 245.5 1188 L 260.5 1188 L 261.5 1187 L 267.5 1189 L 283.5 1190 L 287.5 1192 L 289.5 1192 L 319.5 1198 L 341.5 1205 L 359 1207 L 363 1193.5 L 363 1188.5 L 365 1186.5 L 368 1175.5 L 370 1173.5 L 369 1171.5 L 373 1162.5 L 378 1143.5 L 386 1124.5 L 389 1110.5 L 391 1107.5 L 395 1090.5 L 398 1083.5 L 361.5 1059 L 343 1041.5 L 327 1023.5 L 310 997.5 L 305 992.5 L 295 975.5 L 288 953.5 L 283 942.5 L 281 932.5 L 281 925.5 L 280 924.5 L 280.5 923 L 263.5 926 L 246.5 927 L 241.5 929 L 228.5 931 L 225.5 930 L 223.5 930 L 221.5 931 L 208.5 931 L 201.5 933 L 175.5 933 L 171.5 934 L 169.5 934 L 166.5 935 L 164.5 935 Q 159 933.5 157.5 936 L 155.5 936 L 153.5 935 L 152.5 936 L 139.5 936 L 137.5 937 L 135.5 937 L 115.5 937 L 114.5 938 L 112.5 938 L 103.5 939 L 101.5 938 L 100.5 939 L 84.5 939 L 82.5 940 L 80.5 939 L 76.5 939 L 72.5 940 L 70.5 939 L 67.5 941 L 66.5 940 L 43.5 940 L 38.5 938 L 12.5 938 L 11.5 939 L 0 939 L 0 919 L 35.5 919 L 42.5 921 L 60.5 921 L 62.5 922 L 65.5 921 L 68.5 922 L 71.5 921 L 73.5 921 L 97.5 921 L 107.5 919 L 109.5 920 L 110.5 919 L 132.5 919 L 133.5 918 L 135.5 919 L 138.5 918 L 142.5 919 L 143.5 918 L 155.5 918 L 157.5 917 L 159.5 917 L 168.5 917 L 169.5 916 L 181.5 915 L 185.5 916 L 187.5 916 L 191.5 915 L 193.5 915 L 200.5 915 L 207.5 913 L 222.5 913 L 223.5 912 L 240.5 910 L 244.5 908 L 262.5 907 L 283.5 903 L 300.5 903 L 301.5 902 Q 312.4 903.4 319.5 901 L 321.5 901 L 333.5 903 L 336.5 902 L 344 908.5 L 345 911.5 L 358 925.5 L 380 964.5 L 403 995 L 409 999.5 Q 408.3 1001.8 410.5 1001 L 435.5 1027 L 438.5 1029 L 445 1034 L 447.5 1038 L 470 1055 Q 468.9 1057.7 471.5 1057 L 496.5 1074 L 501 1075 L 504 1080.5 L 504 1090.5 L 501 1095.5 L 498 1105.5 L 498 1110.5 L 496 1114.5 L 493 1130.5 L 491 1133.5 L 491 1137.5 L 487 1148.5 L 487 1152.5 L 482 1169.5 L 482 1176.5 L 478 1197.5 L 478 1204.5 L 474 1222.5 L 473 1241.5 L 471 1245.5 L 469 1261.5 L 467 1267.5 L 466 1287.5 Q 463.7 1288.8 465 1293.5 L 462 1299 L 455.5 1302 L 448.5 1300 L 446.5 1298 L 442.5 1298 L 437.5 1295 L 428.5 1294 L 403.5 1285 L 401.5 1285 L 377.5 1280 L 375.5 1280 L 367.5 1278 L 338.5 1278 L 327.5 1280 L 325.5 1279 L 322.5 1280 L 319.5 1281 L 317.5 1280 L 316.5 1281 L 299.5 1282 L 268.5 1288 L 238.5 1303 L 222 1317.5 Q 222.8 1319.8 220.5 1319 L 218 1323 L 216 1323 L 216 1325 Q 213.3 1323.9 214 1326.5 L 210 1329 L 210 1330.5 L 201 1339.5 L 196 1348.5 L 194 1353.5 L 192 1367.5 L 186 1383.5 L 186 1386.5 L 181 1396 L 193.5 1393 L 195.5 1393 L 199.5 1391 L 206.5 1390 L 208.5 1390 L 219.5 1389 L 224.5 1387 L 230.5 1387 L 235.5 1385 L 248.5 1384 L 253.5 1382 L 255.5 1383 L 263.5 1381 L 275.5 1381 L 314.5 1374 L 322.5 1374 L 355.5 1364 L 381.5 1358 L 383.5 1358 L 399.5 1355 L 408.5 1355 L 409.5 1354 L 417.5 1356 L 419.5 1355 L 424.5 1356 L 437.5 1356 L 438.5 1355 L 440.5 1356 L 442.5 1356 L 462.5 1357 L 463.5 1358 L 465.5 1358 L 499.5 1358 L 500.5 1359 L 512.5 1359 L 522.5 1361 L 524.5 1360 L 527.5 1361 L 528.5 1360 L 538.5 1360 L 539.5 1359 L 542.5 1360 L 554.5 1361 L 564.5 1364 L 566 1361.5 L 565 1359.5 L 567 1353.5 L 566 1348.5 L 571 1319.5 L 586 1283.5 Q 587.7 1270.7 593 1261.5 L 595 1249.5 L 601 1235.5 L 601 1231.5 L 613 1197.5 L 613 1193.5 L 619 1177.5 L 619 1173.5 L 621 1171.5 L 622 1164.5 L 629 1144.5 L 629 1140.5 L 641 1109.5 L 645 1089.5 L 654 1061.5 L 643 1053.5 Q 643.8 1051.3 641.5 1052 L 618 1029.5 L 613 1019 Q 610 1020.3 611 1016.5 L 603 1005 Q 600.3 1006.1 601 1003.5 L 595 995.5 L 585 971.5 L 582 955.5 L 582 930.5 L 585 914.5 L 592 896.5 L 604 874.5 L 619 855 Q 621.7 856.1 621 853.5 L 628.5 847 L 632.5 846 Z M 307 920 L 301 921 L 302 924 L 301 929 L 302 933 L 302 935 L 305 945 L 312 960 L 312 964 L 315 973 L 334 1000 Q 333 1002 336 1001 Q 338 1009 344 1014 L 347 1015 L 355 1027 L 373 1043 Q 375 1042 374 1045 L 395 1058 L 404 1062 L 410 1068 Q 409 1070 412 1069 L 416 1078 L 416 1084 L 411 1090 L 412 1094 L 412 1096 L 412 1102 L 410 1106 L 410 1110 L 403 1135 L 394 1158 L 388 1179 L 386 1181 L 386 1185 L 384 1188 L 376 1220 L 376 1222 L 374 1226 Q 375 1228 372 1227 L 372 1229 L 371 1229 Q 369 1226 368 1230 L 362 1228 L 360 1229 L 359 1228 L 350 1228 L 348 1228 L 342 1226 L 340 1226 L 297 1213 L 266 1207 L 245 1207 L 238 1209 L 236 1208 L 235 1209 L 227 1209 L 207 1215 L 189 1225 L 177 1235 L 174 1239 L 173 1239 L 164 1248 Q 165 1250 162 1249 L 154 1266 L 154 1268 L 150 1275 L 150 1279 L 144 1292 L 145 1297 L 145 1299 L 144 1302 L 146 1303 L 152 1303 Q 153 1306 158 1305 L 160 1305 L 168 1307 L 192 1309 L 198 1311 L 199 1314 L 201 1314 L 217 1299 Q 219 1300 218 1298 L 230 1288 L 262 1270 L 289 1265 L 298 1265 L 307 1263 L 320 1263 L 322 1263 L 323 1262 L 334 1262 L 335 1261 L 365 1261 L 367 1261 L 368 1262 L 386 1263 L 414 1270 L 416 1270 Q 418 1273 423 1272 L 429 1256 L 439 1242 L 441 1236 L 450 1221 Q 451 1218 455 1218 L 457 1216 L 459 1200 L 461 1195 L 461 1187 L 464 1174 L 464 1168 L 464 1166 L 469 1143 L 476 1121 L 480 1099 L 482 1095 L 481 1093 L 483 1089 L 463 1076 L 437 1053 L 434 1051 L 431 1048 L 426 1044 L 425 1041 Q 422 1042 423 1039 L 419 1036 Q 416 1037 417 1034 L 411 1031 L 400 1017 L 397 1015 L 397 1014 L 383 999 Q 384 996 381 997 L 369 981 L 369 979 L 359 967 L 357 960 L 349 944 L 340 933 L 338 931 L 332 923 Q 331 920 327 921 L 325 921 L 324 920 L 307 920 Z M 451 1252 L 435 1277 L 447 1282 L 448 1273 L 448 1271 L 451 1256 L 451 1252 Z " />
</svg>