
<svg width="72" height="52" version="1.1" xmlns="http://www.w3.org/2000/svg" desc="Created with imagetracer.js version 1.2.6" >
<path fill="rgb(0,0,0)" stroke="rgb(0,0,0)" stroke-width="1" opacity="1" d="M 9.5 5 L 12.5 6 L 14.5 6 L 23 9 Q 21.6 12.7 27.5 11 L 35.5 14 L 37.5 14 L 44.5 15 L 48.5 17 L 58.5 17 L 60.5 17 L 62 17.5 L 61.5 19 L 66 19.5 L 66 21.5 L 65 23.5 L 67 27.5 L 67 29.5 L 64.5 33 L 62 32 Q 63.1 34.7 60.5 34 L 56.5 35 L 52.5 34 L 43.5 39 L 34.5 42 L 30.5 42 L 16.5 48 L 12.5 48 L 9 45.5 L 8 42.5 L 10 38 L 23.5 34 L 25.5 35 L 28.5 33 L 30.5 33 L 34 31.5 Q 33.2 28.9 36.5 30 L 47 27 Q 48.3 23.7 43.5 25 L 37.5 22 L 24.5 19 L 19.5 16 L 9.5 15 L 6 12.5 Q 5 6 9.5 5 Z " />
</svg>