
<svg width="89" height="60" version="1.1" xmlns="http://www.w3.org/2000/svg" desc="Created with imagetracer.js version 1.2.6" >
<path fill="rgb(0,0,0)" stroke="rgb(0,0,0)" stroke-width="1" opacity="1" d="M 46.5 6 L 59.5 7 L 72 14.5 L 74 17.5 L 77.5 22 Q 80.1 21.2 79 24.5 Q 84.3 29.7 85 39.5 L 83 47 L 79.5 49 L 71.5 49 L 53.5 53 L 46.5 53 L 44.5 55 L 33.5 55 L 15 46 Q 16.1 43.3 13.5 44 L 12 41 L 9 39.5 L 6 33.5 L 6 29.5 L 9.5 25 Q 11.8 25.8 11 23.5 L 26.5 12 L 35.5 8 L 44.5 8 L 46.5 6 Z M 52 17 L 52 19 L 58 21 Q 57 25 60 28 L 60 32 L 57 38 L 56 40 L 73 38 L 77 35 L 72 28 Q 73 25 70 26 L 69 23 Q 65 24 66 21 L 62 19 Q 57 20 58 17 L 52 17 Z M 39 18 L 37 20 L 26 24 L 21 28 L 18 28 Q 19 31 16 30 L 16 35 L 31 42 L 40 44 L 39 42 L 41 42 L 41 41 Q 40 38 39 40 L 37 36 Q 38 33 35 34 L 36 31 Q 38 29 35 28 L 37 27 L 38 22 L 45 19 L 39 18 Z " />
</svg>