
<svg width="67" height="65" version="1.1" xmlns="http://www.w3.org/2000/svg" desc="Created with imagetracer.js version 1.2.6" >
<path fill="rgb(0,0,0)" stroke="rgb(0,0,0)" stroke-width="1" opacity="1" d="M 39.5 5 Q 49.1 5.4 53 11.5 L 62 25.5 L 63 33.5 Q 61.1 43 57 49 L 55 49 Q 56.1 51.7 53.5 51 L 47 55 Q 48.3 58 44.5 57 L 38.5 60 L 29.5 61 L 27.5 61 L 17 57 L 16.5 54 L 15.5 56 L 15 53 Q 11.2 53.8 10 50.5 L 6 42.5 L 5 35.5 L 6 33.5 L 6 31.5 Q 7 23 11.5 18 L 17 13.5 Q 16.3 11.3 18.5 12 L 24 10 Q 22.6 6 29.5 8 L 39.5 5 Z M 34 19 L 30 23 L 31 28 Q 33 30 39 29 Q 43 28 42 23 Q 41 18 34 19 Z " />
</svg>