
<svg width="86" height="49" version="1.1" xmlns="http://www.w3.org/2000/svg" desc="Created with imagetracer.js version 1.2.6" >
<path fill="rgb(0,0,0)" stroke="rgb(0,0,0)" stroke-width="1" opacity="1" d="M 50.5 5 L 52.5 6 L 58.5 6 L 61.5 6 L 66.5 9 L 77.5 20 Q 81.5 19.5 82 22.5 L 81 29.5 Q 77 31.8 77 37 Q 69.7 37.1 67 31.5 L 64.5 28 L 58.5 25 L 49.5 23 L 44.5 25 L 39.5 24 L 30.5 26 L 25 30 L 25 32 L 23 32 Q 24.1 34.7 21.5 34 L 17 45 L 8.5 43 L 6 40.5 L 6 34.5 L 14 21 L 20 18 L 22.5 14 L 38.5 7 L 44.5 7 L 50.5 5 Z " />
</svg>