
<svg width="82" height="84" version="1.1" xmlns="http://www.w3.org/2000/svg" desc="Created with imagetracer.js version 1.2.6" >
<path fill="rgb(0,0,0)" stroke="rgb(0,0,0)" stroke-width="1" opacity="1" d="M 31.5 5 L 39.5 6 L 41.5 6 Q 54.8 7.7 64 13.5 Q 63.3 15.8 65.5 15 L 70.5 23 Q 73.5 22.1 72 26.5 L 75 30.5 L 77 37.5 L 77 49.5 L 75 59.5 L 71 68 L 67 70.5 Q 67.8 72.8 65.5 72 L 64 75 L 58.5 78 L 50.5 80 L 48.5 80 L 40.5 77 L 38.5 77 Q 26.3 77.7 20.5 72 L 18.5 72 L 13 67.5 Q 6.9 61.6 5 51.5 Q 7.3 50.2 6 45.5 L 6 43.5 L 7 40.5 L 6 38.5 L 10 30.5 L 12 22.5 L 16 16 L 18 16 L 18 14 Q 20.7 15.1 20 12.5 L 31.5 5 Z M 34 14 L 29 16 L 20 26 Q 19 35 15 41 L 16 44 L 14 48 L 15 57 Q 20 63 29 66 Q 33 68 42 67 L 43 68 L 45 67 L 48 68 Q 50 67 49 70 L 52 69 L 55 70 L 58 66 L 64 61 L 64 57 L 67 51 L 68 42 L 66 38 L 67 35 L 58 19 L 52 16 L 34 14 Z " />
<path fill="rgb(0,0,0)" stroke="rgb(0,0,0)" stroke-width="1" opacity="1" d="M 42.5 24 L 51 28 Q 49.9 30.7 52.5 30 L 56 35.5 L 55.5 37 Q 58.5 36.1 57 40.5 Q 61 42.5 57 44.5 L 58 49.5 L 56 53.5 L 55 55.5 L 55.5 57 L 44.5 62 L 39.5 61 L 37.5 62 L 26.5 58 L 23 54.5 L 20 46.5 L 20 41.5 L 21 37 L 26 33.5 L 27 30 L 34 27.5 L 34.5 26 L 36 26.5 L 36.5 25 L 42 26 L 42.5 24 Z " />
</svg>