
<svg width="52" height="46" version="1.1" xmlns="http://www.w3.org/2000/svg" desc="Created with imagetracer.js version 1.2.6" >
<path fill="rgb(0,0,0)" stroke="rgb(0,0,0)" stroke-width="1" opacity="0.9921568627450981" d="M 48.5 45 L 52 45.5 L 48.5 46 L 48.5 45 Z " />
<path fill="rgb(0,0,0)" stroke="rgb(0,0,0)" stroke-width="1" opacity="1" d="M 47.5 5 L 48 13 L 44.5 13 Q 41.6 17.6 34.5 18 L 14 31.5 L 38.5 35 L 39.5 34 L 48 34 L 48 41 L 43.5 41 L 42.5 42 L 33.5 42 L 31.5 41 L 29.5 42 L 16.5 39 L 13.5 40 L 10.5 39 Q 6 40 5 37.5 L 7.5 32 L 9 31.5 L 7 30.5 L 8 27.5 Q 5.8 26.2 8.5 25 L 14 22.5 Q 13.2 19.9 16.5 21 Q 17.6 18.3 21 19 Q 19.7 15.7 24.5 17 L 27.5 14 L 47.5 5 Z " />
</svg>