
<svg width="102" height="55" version="1.1" xmlns="http://www.w3.org/2000/svg" desc="Created with imagetracer.js version 1.2.6" >
<path fill="rgb(0,0,0)" stroke="rgb(0,0,0)" stroke-width="1" opacity="1" d="M 39.5 5 L 55.5 5 L 57.5 6 L 61.5 6 L 70.5 6 L 83.5 11 L 87.5 11 L 97 15.5 L 98 19.5 L 91 25 L 89.5 28 L 82.5 29 Q 76.6 34.6 66.5 36 L 55.5 43 L 43.5 46 L 33.5 51 L 30.5 51 L 26.5 50 Q 25 52.5 23.5 49 L 17.5 48 L 11 44 L 11 42 Q 8.3 43.1 9 40.5 L 6 37.5 L 5 30.5 L 6 25.5 L 10.5 18 L 31.5 7 L 39.5 5 Z M 42 13 L 35 15 L 25 21 L 29 21 L 31 21 L 33 22 L 36 30 L 34 34 Q 35 37 33 36 L 33 38 L 30 39 L 29 41 L 37 40 L 43 36 L 53 34 L 66 26 L 70 26 L 77 20 Q 80 21 79 18 L 64 13 L 62 14 L 59 13 L 57 13 L 46 13 L 45 14 L 42 13 Z " />
</svg>