
<svg width="80" height="53" version="1.1" xmlns="http://www.w3.org/2000/svg" desc="Created with imagetracer.js version 1.2.6" >
<path fill="rgb(0,0,0)" stroke="rgb(0,0,0)" stroke-width="1" opacity="1" d="M 11 5 L 15.5 5 L 20 8 Q 18.9 10.7 21.5 10 Q 29.2 18.3 45.5 18 L 48.5 17 L 52.5 16 L 54 16.5 Q 53.3 14.3 55.5 15 L 63.5 13 L 69.5 8 L 71.5 8 L 75 10.5 L 76 14.5 L 71.5 20 L 70 20.5 L 74 26.5 L 73 29.5 Q 75.3 30.7 74 35.5 Q 72.8 38.3 67.5 37 L 63 29.5 L 64 27 L 59.5 26 Q 58.3 28.3 53.5 27 L 50 29.5 L 49 31.5 L 49 45.5 L 46.5 49 L 42 49 Q 43.1 46.3 40.5 47 L 39 45.5 L 38 38.5 L 38 36.5 L 37 34.5 L 37 32.5 L 35.5 28 L 33.5 29 L 30.5 28 L 25 29 L 21 41 Q 14.9 42.8 13 39.5 Q 11.5 34 14 32.5 L 14 30.5 L 15 28.5 L 15 26.5 L 14 21.5 L 15 19 L 9.5 20 L 5 16.5 L 7 11 L 10 9.5 L 11 5 Z " />
</svg>