
<svg width="75" height="80" version="1.1" xmlns="http://www.w3.org/2000/svg" desc="Created with imagetracer.js version 1.2.6" >
<path fill="rgb(0,0,0)" stroke="rgb(0,0,0)" stroke-width="1" opacity="1" d="M 29.5 6 Q 36.3 4.7 39.5 7 L 41.5 6 L 43.5 8 Q 51.1 7.1 54 10 L 55.5 13 L 62 18.5 L 63.5 21 Q 66.1 20.2 65 23.5 L 66 26 L 68 26.5 L 67 27.5 L 69 31.5 Q 67.8 36.2 70 37.5 L 69 41.5 L 71 46.5 L 70 50.5 L 70 52.5 L 70 55.5 L 66 64 Q 63.3 62.9 64 65.5 L 61 70 L 56.5 73 L 53.5 73 L 47.5 76 L 42.5 76 L 39.5 74 L 37.5 75 L 34.5 74 Q 24.4 71.6 18.5 65 L 16 65 L 16 63 Q 13.3 64.1 14 61.5 L 9 55.5 L 7 46 L 5 45.5 L 6 42.5 L 5 38.5 L 7 27.5 Q 12.2 17.2 20.5 10 L 29.5 6 Z M 34 14 L 27 19 L 24 19 Q 25 22 22 21 L 16 30 L 14 37 L 14 45 L 18 53 L 23 56 L 25 59 Q 28 58 27 61 L 32 62 L 34 62 L 34 64 L 44 64 L 45 63 L 49 64 L 50 66 Q 51 63 54 64 L 60 55 L 61 52 Q 62 47 60 46 L 61 43 L 61 41 L 60 32 L 57 28 Q 58 24 55 25 L 53 20 Q 46 15 34 14 Z " />
<path fill="rgb(0,0,0)" stroke="rgb(0,0,0)" stroke-width="1" opacity="1" d="M 38.5 33 L 43 36.5 Q 44.3 42.8 40.5 44 L 38.5 45 L 34 41.5 Q 32.8 35.3 36.5 34 L 38.5 33 Z " />
<path fill="rgb(11,11,11)" stroke="rgb(11,11,11)" stroke-width="1" opacity="1" d="M 35.5 34 L 34.5 36 L 35.5 34 Z " />
<path fill="rgb(11,11,11)" stroke="rgb(11,11,11)" stroke-width="1" opacity="1" d="M 41.5 34 L 42.5 36 L 41.5 34 Z " />
<path fill="rgb(11,11,11)" stroke="rgb(11,11,11)" stroke-width="1" opacity="1" d="M 34.5 42 L 35.5 44 L 34.5 42 Z " />
<path fill="rgb(11,11,11)" stroke="rgb(11,11,11)" stroke-width="1" opacity="1" d="M 42.5 42 L 41.5 44 L 42.5 42 Z " />
<path fill="rgb(11,11,11)" stroke="rgb(11,11,11)" stroke-width="1" opacity="1" d="M 37.5 62 L 38.5 64 Q 35.7 64.7 37.5 62 Z " />
<path fill="rgb(11,11,11)" stroke="rgb(11,11,11)" stroke-width="1" opacity="1" d="M 53.5 73 L 52.5 75 L 51 74.5 L 53.5 73 Z " />
</svg>