
<svg width="62" height="58" version="1.1" xmlns="http://www.w3.org/2000/svg" desc="Created with imagetracer.js version 1.2.6" >
<path fill="rgb(0,0,0)" stroke="rgb(0,0,0)" stroke-width="1" opacity="1" d="M 46.5 6 Q 50.9 4.5 50 7.5 L 52 11.5 L 49 14.5 L 50 15.5 L 47.5 21 L 45 22.5 L 37.5 32 Q 35.3 31.3 36 33.5 L 25.5 42 L 23 42 Q 21.9 45.5 29.5 44 L 30.5 45 L 45.5 45 L 53.5 43 Q 58.1 45.3 57 52 L 51.5 54 Q 48.2 51.3 41.5 52 L 40.5 53 L 27.5 53 L 26.5 52 L 13.5 52 L 12.5 51 L 10 52 Q 11.3 49 7.5 50 L 5 44.5 L 7 44 L 8 41.5 L 7.5 40 L 11 38.5 Q 10.1 35.5 14.5 37 L 29 25.5 Q 28.3 23.3 30.5 24 Q 33.8 22.8 33 19 Q 35.7 20.1 35 17.5 L 38 16 Q 37 13 40 14 L 40 11 L 41.5 11 L 44 7 L 46.5 6 Z " />
</svg>