
<svg width="107" height="63" version="1.1" xmlns="http://www.w3.org/2000/svg" desc="Created with imagetracer.js version 1.2.6" >
<path fill="rgb(13,13,13)" stroke="rgb(13,13,13)" stroke-width="1" opacity="1" d="M 23.5 17 L 22.5 19 L 23.5 17 Z " />
<path fill="rgb(13,13,13)" stroke="rgb(13,13,13)" stroke-width="1" opacity="1" d="M 31.5 24 L 30.5 26 L 31.5 24 Z " />
<path fill="rgb(13,13,13)" stroke="rgb(13,13,13)" stroke-width="1" opacity="1" d="M 65.5 25 L 66.5 27 L 65.5 25 Z " />
<path fill="rgb(13,13,13)" stroke="rgb(13,13,13)" stroke-width="1" opacity="1" d="M 98.5 25 L 100.5 28 L 98.5 25 Z " />
<path fill="rgb(13,13,13)" stroke="rgb(13,13,13)" stroke-width="1" opacity="1" d="M 88.5 27 L 89.5 29 L 88.5 27 Z " />
<path fill="rgb(13,13,13)" stroke="rgb(13,13,13)" stroke-width="1" opacity="1" d="M 101.5 30 L 103 35.5 L 102 35.5 L 101.5 30 Z " />
<path fill="rgb(13,13,13)" stroke="rgb(13,13,13)" stroke-width="1" opacity="1" d="M 6.5 41 L 8 43.5 L 7 43.5 L 6.5 41 Z " />
<path fill="rgb(13,13,13)" stroke="rgb(13,13,13)" stroke-width="1" opacity="1" d="M 99.5 43 L 98.5 45 L 99.5 43 Z " />
<path fill="rgb(13,13,13)" stroke="rgb(13,13,13)" stroke-width="1" opacity="1" d="M 9.5 44 L 10.5 46 L 9.5 44 Z " />
<path fill="rgb(13,13,13)" stroke="rgb(13,13,13)" stroke-width="1" opacity="1" d="M 66.5 44 L 70 44.5 L 66.5 45 L 66.5 44 Z " />
<path fill="rgb(13,13,13)" stroke="rgb(13,13,13)" stroke-width="1" opacity="1" d="M 94.5 46 L 93.5 48 L 94.5 46 Z " />
<path fill="rgb(13,13,13)" stroke="rgb(13,13,13)" stroke-width="1" opacity="1" d="M 49.5 58 L 52 58.5 L 49.5 59 L 49.5 58 Z " />
<path fill="rgb(0,0,0)" stroke="rgb(0,0,0)" stroke-width="1" opacity="1" d="M 50.5 5 L 61.5 7 L 63.5 7 L 87.5 14 L 96 21.5 Q 93.7 22.8 96.5 24 Q 98.8 23.3 98 25.5 L 102 29.5 L 101 30.5 L 102 39.5 L 98 46 L 94.5 46 L 90 49 Q 91.3 52 87.5 51 L 80.5 54 L 74.5 54 L 68.5 56 L 66.5 56 L 59.5 58 Q 51.3 56.3 47.5 59 L 24.5 54 L 17 50 Q 18.1 47.3 15.5 48 L 12.5 44 Q 7.1 45.9 8 42.5 L 5 41 L 6 38.5 L 5 32 Q 7.7 33.1 7 30.5 L 11.5 25 Q 21.8 20.8 29 13.5 Q 28.1 10.5 32.5 12 L 41.5 7 L 50.5 5 Z M 48 17 Q 31 22 20 32 L 18 36 L 18 38 L 26 43 L 39 45 L 41 45 L 51 48 L 53 47 Q 59 49 58 45 L 52 45 L 51 44 Q 47 45 48 43 L 44 40 L 42 33 L 40 33 L 42 32 L 41 31 Q 40 25 43 23 L 48 19 L 48 17 Z M 62 18 L 67 29 L 65 34 L 66 36 L 65 36 L 65 38 Q 62 38 63 43 L 61 46 L 73 44 L 75 44 L 89 39 L 93 34 Q 94 31 91 32 L 90 29 L 86 25 L 76 22 L 74 20 Q 69 21 68 18 L 62 18 Z " />
</svg>