
<svg width="70" height="68" version="1.1" xmlns="http://www.w3.org/2000/svg" desc="Created with imagetracer.js version 1.2.6" >
<path fill="rgb(0,0,0)" stroke="rgb(0,0,0)" stroke-width="1" opacity="1" d="M 29.5 5 L 30.5 6 L 39.5 6 L 46.5 9 L 48 8.5 Q 47.3 10.8 49.5 10 L 58 13 L 62 19.5 L 64 28 L 66 28.5 L 65 30.5 L 66 34.5 L 65 39.5 L 63 41.5 L 63 43.5 L 62 45.5 Q 64.5 47 61 48.5 L 62 52.5 L 59 54 L 57.5 57 L 56 57.5 L 56.5 59 L 54 58 Q 55.3 61 51.5 60 L 48.5 62 L 46.5 61 L 42.5 64 L 40.5 64 L 37.5 63 L 35.5 64 L 32.5 63 L 29.5 64 L 24.5 63 L 11 57 L 11 55 Q 8.3 56.1 9 53.5 Q 2.8 46.2 5 30.5 L 10 18 Q 12.7 19.1 12 16.5 L 16.5 11 L 29.5 5 Z M 35 18 Q 30 19 31 27 Q 32 31 40 30 Q 44 29 43 22 Q 42 17 35 18 Z " />
</svg>