
<svg width="82" height="47" version="1.1" xmlns="http://www.w3.org/2000/svg" desc="Created with imagetracer.js version 1.2.6" >
<path fill="rgb(0,0,0)" stroke="rgb(0,0,0)" stroke-width="1" opacity="1" d="M 41.5 5 L 42 7 L 45.5 6 L 57.5 10 L 70 19.5 Q 69.3 22.1 72 21 L 72 23.5 L 74 27 Q 77 25.8 76 29.5 Q 79.5 31 78 37.5 L 75.5 41 L 71.5 42 L 63 37.5 Q 65.3 36.3 62.5 35 Q 60.3 35.8 61 33.5 L 60 30 L 53.5 26 L 48.5 25 L 46.5 25 L 40.5 24 L 31.5 26 L 18 34.5 L 16 42 L 11.5 43 L 6 40 L 5 33.5 L 7 29.5 L 7 27 Q 10 28.3 9 24.5 Q 12.2 18.1 19 17 Q 17.9 14.3 20.5 15 L 22 12 L 30.5 8 L 32.5 8 L 38.5 6 Q 40 8.5 41.5 5 Z " />
</svg>