
<svg width="75" height="80" version="1.1" xmlns="http://www.w3.org/2000/svg" desc="Created with imagetracer.js version 1.2.6" >
<path fill="rgb(0,0,0)" stroke="rgb(0,0,0)" stroke-width="1" opacity="1" d="M 29.5 6 Q 36.3 4.7 39.5 7 L 41.5 6 L 43.5 8 Q 50.8 7.4 54 10 L 55.5 13 L 62 18.5 L 63.5 21 Q 66.1 20.2 65 23.5 L 68 28.5 L 70 37.5 L 69 41.5 L 71 51.5 L 66 64 Q 63.3 62.9 64 65.5 L 61 70 L 56.5 73 L 53.5 73 L 47.5 76 L 42.5 76 L 39.5 74 L 37.5 75 L 34.5 74 Q 24.4 71.6 18.5 65 L 16 65 L 16 63 Q 13.3 64.1 14 61.5 L 9 55.5 L 7 46 L 5 45.5 L 6 42.5 L 5 38.5 L 7 27.5 Q 12.2 17.2 20.5 10 L 29.5 6 Z M 34 14 L 27 19 L 24 19 Q 25 22 22 21 L 15 32 L 14 45 Q 17 46 15 48 L 17 48 L 18 53 L 23 56 L 25 59 Q 28 58 27 61 L 32 62 L 34 62 L 34 64 L 44 64 L 45 63 L 49 64 L 50 66 Q 51 63 54 64 L 60 55 L 61 52 Q 62 47 60 46 L 61 43 L 61 41 L 60 32 L 57 28 Q 58 24 55 25 L 53 20 Q 46 15 34 14 Z " />
<path fill="rgb(0,0,0)" stroke="rgb(0,0,0)" stroke-width="1" opacity="1" d="M 34.5 22 L 45 24 L 46.5 27 L 51 29.5 L 56 38.5 Q 54.3 44.8 57 46.5 L 53.5 54 Q 47.4 58.4 35.5 57 Q 28.1 55.9 25 50.5 L 20 44.5 L 19 34.5 L 22.5 29 L 25 27.5 Q 24.2 24.9 27.5 26 L 34.5 22 Z " />
<path fill="rgb(9,9,9)" stroke="rgb(9,9,9)" stroke-width="1" opacity="1" d="M 66.5 25 L 67.5 27 L 66.5 25 Z " />
<path fill="rgb(9,9,9)" stroke="rgb(9,9,9)" stroke-width="1" opacity="1" d="M 24.5 27 L 23.5 29 L 24.5 27 Z " />
<path fill="rgb(9,9,9)" stroke="rgb(9,9,9)" stroke-width="1" opacity="1" d="M 37.5 62 L 38.5 64 Q 35.7 64.7 37.5 62 Z " />
<path fill="rgb(9,9,9)" stroke="rgb(9,9,9)" stroke-width="1" opacity="1" d="M 53.5 73 L 52.5 75 L 51 74.5 L 53.5 73 Z " />
</svg>