
<svg width="53" height="51" version="1.1" xmlns="http://www.w3.org/2000/svg" desc="Created with imagetracer.js version 1.2.6" >
<path fill="rgb(0,0,0)" stroke="rgb(0,0,0)" stroke-width="1" opacity="1" d="M 23.5 5 L 29.5 7 L 31.5 7 Q 39.5 9.5 44 15.5 L 49 22.5 L 49 31.5 L 46 37 L 39.5 41 L 37 41 Q 38.3 44 34.5 43 L 24.5 46 Q 17.7 44.7 14.5 47 L 13.5 46 L 5.5 46 L 2 44 Q -1.6 36.9 0 23.5 L 5 9 L 14.5 6 L 22.5 6 L 23.5 5 Z M 19 13 L 10 15 L 6 18 L 6 37 L 7 39 L 16 39 L 17 38 L 20 39 L 28 38 L 22 35 Q 23 32 21 33 Q 18 31 19 26 L 27 19 L 34 18 L 28 14 L 22 14 L 19 13 Z " />
</svg>