
<svg width="94" height="57" version="1.1" xmlns="http://www.w3.org/2000/svg" desc="Created with imagetracer.js version 1.2.6" >
<path fill="rgb(0,0,0)" stroke="rgb(0,0,0)" stroke-width="1" opacity="1" d="M 52.5 5 L 55.5 7 L 66.5 8 L 67.5 9 L 72.5 8 L 73.5 9 Q 81.7 7.3 85.5 10 L 87.5 9 L 90 11.5 L 90 22.5 L 85.5 27 L 83 27 Q 84.1 29.7 81.5 29 L 69 37 Q 70.1 39.7 67.5 39 L 54.5 47 L 52.5 47 L 49.5 47 L 44.5 50 L 36.5 52 L 20.5 52 L 12.5 49 L 6 43.5 L 5 37.5 L 5 35.5 L 6 30.5 L 12 20 L 26.5 10 L 33.5 10 L 43.5 7 L 45 7.5 L 45.5 6 L 47.5 6 L 52.5 5 Z M 50 15 L 43 18 Q 37 17 36 19 L 34 18 L 31 19 L 29 19 L 24 22 L 32 23 Q 35 25 35 30 Q 37 31 34 33 L 35 38 L 31 42 L 30 41 L 27 43 L 29 43 L 32 44 L 44 41 L 49 38 L 57 37 L 68 29 Q 70 30 69 27 L 72 27 L 79 21 L 73 18 L 69 19 L 67 19 L 58 17 L 55 15 L 50 15 Z " />
</svg>