
<svg width="98" height="54" version="1.1" xmlns="http://www.w3.org/2000/svg" desc="Created with imagetracer.js version 1.2.6" >
<path fill="rgb(0,0,0)" stroke="rgb(0,0,0)" stroke-width="1" opacity="1" d="M 81.5 5 L 87 9.5 Q 85.9 12.8 88.5 12 L 91 13 Q 90.4 17.6 94 19.5 L 94 23.5 L 92.5 25 L 86 25 L 82.5 20 L 80 20.5 Q 77.2 22.2 78 27.5 L 78.5 30 L 81 31.5 L 82 37.5 L 80 41 L 74.5 42 L 69 36.5 L 69 33.5 L 67 30 L 63.5 29 L 59 31 Q 60.1 33.7 57.5 33 L 55 34 L 54 37.5 L 56 41.5 L 55 45.5 L 51.5 49 L 49.5 49 L 46 47.5 Q 46.8 45.3 44.5 46 Q 41.8 44.7 44 43.5 L 43 36.5 L 43 34.5 Q 43.8 31.9 40.5 33 L 34.5 30 L 29.5 30 L 23 35.5 L 18.5 41 L 15.5 42 L 10 38.5 Q 9.7 31.7 13 28.5 L 13 26.5 L 9 22.5 L 8 20.5 L 9 19.5 L 6 16.5 L 5 12.5 L 7 9 L 12.5 10 Q 17.6 16.4 26.5 19 L 30.5 19 Q 31.9 21.6 36.5 21 L 38.5 21 Q 43.3 23.2 51.5 22 L 61.5 19 L 81.5 5 Z " />
</svg>