
<svg width="80" height="75" version="1.1" xmlns="http://www.w3.org/2000/svg" desc="Created with imagetracer.js version 1.2.6" >
<path fill="rgb(12,12,12)" stroke="rgb(12,12,12)" stroke-width="1" opacity="1" d="M 73.5 21 L 75 23.5 L 74 23.5 L 73.5 21 Z " />
<path fill="rgb(12,12,12)" stroke="rgb(12,12,12)" stroke-width="1" opacity="1" d="M 35.5 32 L 34.5 34 L 35.5 32 Z " />
<path fill="rgb(12,12,12)" stroke="rgb(12,12,12)" stroke-width="1" opacity="1" d="M 42.5 32 L 43.5 34 L 42.5 32 Z " />
<path fill="rgb(12,12,12)" stroke="rgb(12,12,12)" stroke-width="1" opacity="1" d="M 63.5 36 L 64 38 L 62 37.5 L 63.5 36 Z " />
<path fill="rgb(12,12,12)" stroke="rgb(12,12,12)" stroke-width="1" opacity="1" d="M 34.5 39 L 35.5 41 L 34.5 39 Z " />
<path fill="rgb(12,12,12)" stroke="rgb(12,12,12)" stroke-width="1" opacity="1" d="M 43.5 39 L 42.5 41 L 43.5 39 Z " />
<path fill="rgb(0,0,0)" stroke="rgb(0,0,0)" stroke-width="1" opacity="1" d="M 46.5 4 L 50.5 5 L 52.5 5 L 55.5 5 L 64 9 Q 62.9 11.7 65.5 11 L 70 14 L 73 18.5 L 73 21.5 L 76 27.5 L 76 32.5 L 74 35.5 L 75 37.5 L 74 40.5 Q 71.6 50.6 65 56.5 L 65 59 L 63 59 Q 64.1 61.7 61.5 61 L 55.5 66 L 46 68 L 45.5 70 L 42.5 69 L 38.5 70 L 27.5 68 Q 17.2 62.8 10 54.5 L 6 45.5 L 6 37.5 L 7 35.5 L 6 33.5 L 8 31.5 Q 7.1 23.9 10 21 L 13 19.5 L 18.5 13 L 21 11.5 Q 20.2 8.9 23.5 10 L 26 9 L 26.5 7 L 27.5 8 L 31.5 6 Q 36.2 7.3 37.5 5 L 41.5 6 L 46.5 4 Z M 40 14 Q 38 17 32 15 L 28 18 Q 24 17 25 20 L 20 22 L 17 28 L 14 40 L 14 42 L 19 49 L 19 51 Q 22 50 21 53 L 30 59 L 37 61 L 45 61 L 53 57 L 56 52 L 59 51 Q 58 47 61 48 L 62 44 L 62 42 L 64 41 L 64 32 L 63 31 L 64 26 L 66 26 Q 63 24 64 21 L 55 15 L 52 14 Q 47 13 46 15 L 44 14 L 42 15 L 40 14 Z " />
<path fill="rgb(0,0,0)" stroke="rgb(0,0,0)" stroke-width="1" opacity="1" d="M 36.5 32 Q 42.8 30.8 44 34.5 L 45 36.5 L 41.5 41 Q 35.3 42.3 34 38.5 L 33 36.5 L 36.5 32 Z " />
</svg>