
<svg width="830" height="1660" version="1.1" xmlns="http://www.w3.org/2000/svg" desc="Created with imagetracer.js version 1.2.6" >
<path fill="rgb(0,0,0)" stroke="rgb(0,0,0)" stroke-width="1" opacity="1" d="M 795.5 282 L 803.5 282 L 804.5 283 L 806.5 283 L 811.5 284 Q 818.5 280.4 830 282 L 830 299.5 L 827.5 300 L 822.5 301 L 816.5 305 L 803.5 305 L 790.5 308 L 783.5 308 L 780.5 310 L 766.5 310 L 763.5 309 L 741.5 309 L 740.5 310 L 737.5 309 L 736.5 310 L 717.5 312 L 708.5 315 L 703.5 315 L 694.5 318 L 677.5 321 L 675.5 321 L 659.5 322 L 653.5 324 L 651.5 324 L 642.5 325 L 633.5 329 L 626.5 330 L 612.5 335 L 608.5 335 L 585.5 344 L 564.5 348 L 544.5 355 L 542.5 354 L 529.5 359 L 527.5 361 L 521.5 362 L 497.5 372 L 464 394 Q 465.1 396.7 462.5 396 L 435 421.5 L 433.5 424 L 430.5 426 Q 418.1 435.9 411 450 Q 408.3 448.9 409 451.5 L 403 458.5 L 393 475.5 L 384 498.5 L 374 518.5 L 369 537.5 L 367 540.5 L 364 556.5 L 362 559.5 L 361 572.5 L 354 612.5 L 355 614.5 L 354 615.5 L 353 633.5 L 352 634.5 L 352 636.5 L 351 666.5 L 350 667.5 L 351 670.5 L 350 673.5 L 351 676.5 L 350 678.5 L 351 680.5 L 350 681.5 L 349 702.5 L 349 704.5 L 350 706.5 L 350 726.5 L 351 727.5 L 351 729.5 L 351 740.5 L 352 741.5 L 351 744.5 L 353 752.5 L 352 759.5 L 353 762.5 L 353 764.5 L 353 799.5 L 354 800.5 Q 351.3 802.3 353 808.5 L 354 811.5 L 353 814.5 L 355 823.5 L 354 824.5 L 354 838.5 L 355 841.5 L 356 862.5 L 360 884.5 L 360 895.5 L 362 899.5 L 362 901.5 L 363 904.5 L 362 906.5 L 364 912.5 L 364 914.5 L 366 930.5 L 368 936.5 L 368 955.5 L 369 958.5 L 368 959.5 L 368 967.5 L 371 983.5 L 371 993.5 L 370 996.5 L 368 1011.5 L 362 1033 L 386.5 1033 L 387.5 1032 L 388.5 1033 L 396.5 1033 L 405.5 1035 L 408 1034 L 408.5 1036 L 410.5 1036 L 414.5 1035 L 417.5 1036 L 419.5 1035 L 420.5 1036 L 429.5 1036 L 430.5 1035 L 451.5 1035 L 452.5 1034 L 475.5 1034 L 476.5 1033 L 492 1032.5 L 484 1019.5 L 480 1005.5 L 476 997.5 L 474 988.5 L 474 964.5 L 477 958.5 L 479 945.5 L 483 936 Q 486 937.3 485 933.5 L 494.5 920 L 503.5 916 L 506.5 917 L 509.5 914 L 521.5 908 L 532.5 905 L 539.5 901 L 545.5 901 L 552.5 899 L 572.5 899 L 576.5 900 L 578.5 900 L 589.5 901 L 609.5 906 L 629.5 907 L 630.5 908 L 632.5 908 L 637.5 908 L 646.5 911 L 648.5 911 L 652.5 912 L 654.5 912 Q 659.2 910.8 660.5 913 L 662.5 913 Q 672.2 912.8 677.5 917 L 697.5 919 L 707.5 922 L 728.5 923 L 729.5 924 L 743.5 924 L 746.5 923 L 748.5 923 L 752.5 922 L 754.5 923 L 755.5 922 L 767.5 922 L 769.5 921 L 770.5 922 L 795.5 922 L 796.5 923 Q 806.6 921.4 812.5 924 L 823.5 921 L 830 921 L 830 942 L 818.5 942 L 815.5 941 L 808.5 944 L 805.5 943 L 802.5 944 L 798.5 943 L 796.5 944 L 794.5 944 Q 789.1 943.4 787 945 L 785.5 942 L 760.5 942 Q 759.3 944.3 754.5 943 L 746.5 941 L 735.5 941 L 734.5 940 L 722.5 940 L 713.5 938 L 704.5 938 L 699.5 936 L 677.5 933 L 671.5 930 L 661.5 929 L 657.5 927 L 651.5 927 L 647.5 925 L 638.5 925 L 637.5 924 L 621.5 923 L 620.5 922 Q 619.3 925.2 613.5 924 L 612.5 923 L 599.5 923 L 597.5 922 L 595.5 922 L 585.5 920 L 562.5 919 L 561.5 920 L 552.5 920 L 543.5 923 L 538.5 923 L 513.5 937 L 505.5 939 Q 503.7 936.2 502 940.5 L 499 946.5 L 497 958.5 L 495 961.5 L 495 974.5 L 494 975.5 L 496 986.5 L 496 988.5 L 496 993.5 L 502 1009.5 L 514 1027.5 L 518 1041.5 L 514.5 1046 Q 512.3 1045.3 513 1047.5 Q 510.7 1052.8 503.5 1053 Q 502 1050.5 496.5 1052 L 495.5 1053 L 481.5 1054 L 476.5 1056 L 465.5 1056 L 464.5 1057 L 449.5 1057 L 448.5 1058 L 434.5 1058 L 433.5 1059 L 408.5 1059 L 392.5 1056 L 380.5 1056 L 379.5 1057 L 365.5 1057 L 364.5 1058 L 362.5 1058 L 352.5 1057 L 338 1048.5 L 337 1043.5 L 343 1019.5 L 346 1013.5 L 350 993.5 L 349 991.5 L 350 989.5 L 348 979.5 L 348 959.5 L 349 958.5 L 349 949.5 L 348 945.5 L 349 942.5 Q 350.2 937.8 348 936.5 L 348 934.5 L 346 917.5 L 341 899.5 L 339 878.5 L 337 870.5 L 337 860.5 L 335 854.5 L 335 852.5 L 335 840.5 L 334 839.5 Q 335.4 830.6 333 825.5 L 334 824.5 L 334 797.5 L 333 796.5 L 333 751.5 L 332 750.5 L 332 748.5 L 332 737.5 L 330 726.5 L 329 692.5 L 330 691.5 L 330 681.5 L 331 680.5 L 331 676.5 L 330 674.5 L 331 671.5 L 330 670.5 L 330 651.5 L 331 649.5 L 330 647.5 L 332 638.5 L 335 595.5 L 337 589.5 L 337 583.5 L 339 580.5 L 341 559.5 L 343 557.5 L 344 547.5 L 348 536.5 L 348 534.5 L 354 511.5 L 366 486.5 L 370 474.5 L 383 450.5 L 401.5 426 L 404 424.5 L 409.5 417 L 411 417 L 411 415 Q 413.7 416.1 413 413.5 L 425 401.5 L 425 400 L 427 400 Q 425.9 397.3 428.5 398 Q 434.5 390.2 443 386 Q 441.9 383.3 444.5 384 L 447 380 L 458.5 371 L 486.5 355 L 543.5 333 L 545.5 333 L 548.5 333 L 557.5 329 L 560.5 330 L 573 327 L 573.5 325 L 577.5 325 L 591.5 321 L 616.5 310 L 623.5 309 L 626.5 310 L 629 308.5 Q 626.8 309.7 629.5 311 L 631 310.5 L 630.5 309 L 634.5 310 L 648.5 306 L 650.5 306 L 660.5 304 L 662.5 304 L 673.5 303 L 675 301.5 L 675.5 300 L 677.5 303 L 681 302 Q 679.6 298.3 685.5 300 L 696.5 296 L 708.5 294 L 714.5 291 L 729.5 290 L 730.5 289 L 732.5 289 L 753.5 287 L 764.5 284 L 780.5 284 L 781.5 283 L 794.5 283 L 795.5 282 Z M 628 310 L 626 312 L 629 312 L 628 310 Z " />
<path fill="rgb(0,0,0)" stroke="rgb(0,0,0)" stroke-width="1" opacity="1" d="M 630.5 307 L 632.5 308 L 634.5 307 L 634.5 308 L 632.5 309 L 630.5 307 Z " />
</svg>