
<svg width="830" height="1660" version="1.1" xmlns="http://www.w3.org/2000/svg" desc="Created with imagetracer.js version 1.2.6" >
<path fill="rgb(0,0,0)" stroke="rgb(0,0,0)" stroke-width="1" opacity="0.9686274509803922" d="M 799.5 279 L 830 280 L 830 299 L 822.5 299 L 821.5 300 L 812.5 300 L 811.5 299 L 798.5 299 L 797.5 300 L 770.5 300 L 760.5 303 L 739.5 303 L 738.5 304 L 737 303.5 Q 737.5 306.5 730.5 305 L 729.5 306 L 719.5 306 L 718.5 307 L 716.5 307 L 700.5 308 L 687.5 312 Q 679.1 311.1 674.5 314 L 648.5 316 L 641.5 318 L 623.5 319 L 594.5 324 L 569 326 L 568.5 328 L 566.5 327 L 565.5 328 L 555.5 328 L 543.5 331 L 530.5 332 L 499.5 340 L 497.5 339 L 496.5 340 L 481.5 341 L 475 344.5 Q 475.6 349.1 473 350.5 L 473 357.5 L 466 384.5 L 466 392.5 L 463 403.5 L 462 417.5 L 459 432.5 L 458 461.5 L 456 472.5 L 455 493.5 L 456 496.5 L 455 497.5 L 453 527.5 L 452 528.5 L 450 552.5 L 449 553.5 L 449 564.5 L 448 565.5 L 447 588.5 L 446 590.5 L 447 592.5 L 446 593.5 L 445 629.5 L 446 632.5 L 445 634.5 L 446 637.5 L 446 641.5 L 446 650.5 L 445 651.5 L 446 652.5 L 446 662.5 L 448 664.5 Q 445.8 665.8 447 670.5 L 448 671.5 L 448 696.5 L 449 699.5 L 448 701.5 L 448 703.5 L 449 705.5 L 449 726.5 L 450 727.5 L 450 751.5 L 451 752.5 L 450 753.5 L 450 772.5 L 449 773.5 L 450 774.5 L 450 785.5 L 450 787.5 L 450 800.5 L 451 801.5 L 451 803.5 L 451 812.5 L 454 827.5 L 454 829.5 L 455 831.5 L 457 857.5 L 458 858.5 L 459 878.5 L 463 895.5 L 464 918.5 L 466.5 921 L 487.5 927 L 548.5 927 L 549.5 928 L 551.5 928 L 553.5 927 L 554.5 928 L 569.5 928 L 573.5 926 L 575.5 926 L 587.5 926 L 588.5 925 L 622.5 925 L 623.5 924 L 639.5 924 L 640.5 923 L 642.5 923 L 655.5 923 L 656.5 924 L 657.5 923 L 668.5 923 L 669.5 924 L 680.5 924 L 681.5 923 L 696.5 923 L 697.5 922 L 699.5 922 Q 704.3 920.8 705.5 923 L 706.5 922 L 723.5 922 L 725.5 921 L 727.5 921 L 738.5 921 L 739.5 920 L 806.5 920 Q 811.2 916.7 820.5 918 L 822.5 919 L 826.5 918 L 830 919 L 830 938.5 L 828.5 940 Q 819.6 941.4 814.5 939 L 808.5 941 L 751.5 941 L 750.5 942 L 747.5 941 L 744.5 942 L 739.5 941 L 735.5 943 L 733.5 943 L 705.5 944 L 703.5 943 L 701.5 944 L 700.5 943 L 692.5 943 L 688.5 944 L 686.5 943 L 685.5 944 L 664.5 944 L 662.5 943 L 660.5 943 L 657.5 944 L 635.5 944 L 633.5 945 L 631.5 945 L 610.5 945 L 609.5 946 L 605.5 945 L 604.5 946 L 572.5 947 L 569.5 949 L 552.5 949 L 549.5 948 L 546.5 949 L 545.5 948 L 527.5 948 L 526.5 947 L 522.5 948 L 520.5 948 L 493.5 948 L 491.5 949 L 490.5 948 L 479.5 948 L 478.5 947 L 467.5 946 L 458 941.5 L 456 938.5 L 449 926.5 L 449 920.5 L 447 916.5 L 447 911.5 L 445 904.5 L 445 897.5 L 443 893.5 L 441 882.5 L 440 865.5 L 437 849.5 L 437 836.5 L 434 827.5 L 434 818.5 L 432 810.5 L 431 764.5 L 432 763.5 L 432 752.5 L 431 751.5 L 430 733.5 L 428 727.5 L 428 725.5 L 428 704.5 L 427 703.5 L 427 701.5 L 428 698.5 L 427 697.5 L 427 676.5 L 426 675.5 L 427 673.5 L 426 670.5 L 427 668.5 L 426 665.5 Q 428.5 664 425 662.5 L 425 628.5 L 424 625.5 L 425 624.5 L 425 597.5 L 426 594.5 L 425 592.5 L 425 590.5 L 426 588.5 L 427 565.5 L 429 557.5 L 428 555.5 L 429 554.5 L 429 545.5 L 430 544.5 L 431 528.5 L 432 527.5 L 432 516.5 L 434 508.5 L 434 499.5 L 435 498.5 L 435 496.5 L 434 489.5 L 436 481.5 L 436 463.5 L 438 453.5 L 437 451.5 L 438 448.5 L 438 434.5 L 440 426.5 L 442 403.5 L 446 384.5 L 446 376.5 L 451 358.5 L 452 345.5 L 458.5 336 L 462 334.5 L 461 330.5 L 467.5 323 L 478.5 319 L 492.5 319 L 494.5 318 L 496.5 318 L 500.5 318 L 525.5 311 L 530.5 311 L 537.5 309 L 546.5 309 L 554.5 307 L 567.5 307 L 569.5 305 L 574.5 304 L 576.5 304 L 600.5 302 L 614.5 299 L 616.5 299 L 643.5 297 L 644.5 296 L 652.5 296 L 662.5 294 L 674.5 294 L 675.5 293 L 677.5 293 L 688.5 293 L 689.5 292 L 691.5 293 L 692.5 292 L 710.5 291 L 723.5 287 L 730.5 287 L 737.5 285 L 756.5 284 L 773.5 280 L 776.5 281 L 778.5 280 L 781.5 281 L 782.5 280 L 798.5 280 L 799.5 279 Z " />
</svg>