
<svg width="830" height="1660" version="1.1" xmlns="http://www.w3.org/2000/svg" desc="Created with imagetracer.js version 1.2.6" >
<path stroke="rgb(1,1,1)" stroke-width="1" opacity="1" d="M 466.5 148 L 477.5 148 Q 486.1 149.9 491 155.5 L 492 159.5 L 491.5 162 Q 488.8 161.4 490 167.5 L 493 179.5 L 493 189.5 L 494 190.5 L 496 209.5 L 499 219.5 L 499 228.5 L 501 233.5 L 501 235.5 L 502 244.5 L 502 246.5 L 505 261.5 L 505 277.5 L 504 280.5 L 504 296.5 L 505 299.5 L 505 301.5 Q 503.8 306.8 506.5 308 L 522 307 Q 519.9 302.1 521 292.5 L 520 291.5 L 520 289.5 L 519 274.5 L 518 273.5 L 516 251.5 L 515 250.5 L 515 241.5 L 514 240.5 L 514 238.5 L 514 224.5 L 513 222.5 L 514 219.5 L 513 216.5 L 515 199.5 L 519.5 194 L 530.5 190 L 532.5 191 L 535.5 190 L 537.5 190 L 553.5 190 L 555.5 189 L 557.5 189 Q 562.3 187.8 563.5 190 L 568.5 189 L 577.5 191 Q 579 188.5 584.5 190 L 599.5 194 L 603.5 197 L 615.5 199 L 623 203.5 L 628 212.5 L 635 245.5 L 635 247.5 L 636 263.5 L 639 272.5 L 640 286.5 L 641.5 288 L 646.5 289 L 654.5 287 L 656.5 288 L 657.5 287 L 676.5 286 Q 682.2 289.3 692.5 288 L 695.5 287 L 707.5 288 L 708.5 289 L 719.5 289 L 720.5 290 L 722.5 290 L 737.5 291 L 739.5 290 L 740.5 291 L 751 291 Q 749.6 287 756.5 289 L 783.5 284 L 788.5 282 L 805.5 281 L 806.5 280 L 830 280 L 830 299 L 802.5 299 L 777.5 304 L 763.5 305 L 758.5 307 L 735.5 308 L 733.5 307 L 731.5 308 L 726.5 306 L 724.5 306 L 667.5 304 L 656.5 306 L 635.5 306 L 633.5 305 L 631.5 308 L 624 301.5 L 621 291.5 L 621 277.5 L 619 273.5 L 616 242.5 L 613 232.5 L 611 216 L 596.5 214 L 593.5 212 L 578.5 208 Q 577 210.5 571.5 209 L 564.5 207 L 562.5 207 L 555.5 209 L 543.5 209 L 534.5 211 Q 533.3 208.8 532 211.5 L 533 217.5 Q 530.3 219.3 532 225.5 L 533 228.5 L 533 245.5 L 534 246.5 L 533 251.5 L 537 273.5 L 537 281.5 L 539 289.5 L 539 301.5 L 540 303.5 L 540 305.5 L 539 310 Q 541.7 308.9 541 311.5 L 540 314.5 Q 542.5 316 539 317.5 L 536.5 321 L 526.5 324 L 524.5 323 L 510.5 326 L 503.5 326 L 499 322.5 Q 499.8 319.9 496.5 321 L 494.5 320 Q 493 322.5 491.5 319 Q 488.9 319.8 490 316.5 L 489 310 Q 485.3 311.4 487 305.5 L 486 302.5 L 486 294.5 L 485 293.5 L 486 291.5 L 486 289.5 L 485 286.5 L 486 283.5 L 487 265.5 L 483 247.5 L 483 235.5 Q 480.1 230.9 481 222.5 L 477 206.5 L 477 187.5 L 473 169.5 L 474 167 L 467.5 169 L 453.5 170 L 437.5 173 L 435.5 172 L 433.5 172 L 405.5 171 L 401.5 171 L 386.5 173 L 384 172 Q 382.4 174.1 383 179.5 L 384 183.5 L 384 185.5 L 383 190.5 L 383 194.5 L 384 197.5 L 384 199.5 L 383 203.5 Q 385.8 205.2 384 211.5 L 384 215.5 L 383 218.5 L 384 220.5 L 384 222.5 L 385 298.5 L 384 299.5 L 384 310.5 L 385 314.5 L 385 316.5 L 384 318.5 L 385 319.5 L 385 334.5 L 384 337.5 L 384 347.5 L 385 348.5 L 384 352.5 L 385 354.5 L 385 356.5 L 385 373.5 L 384 374.5 L 384 396.5 L 383 397.5 L 383 408.5 L 382 409.5 L 382 425.5 L 379 438.5 L 380 440.5 L 380 442.5 L 379 466.5 L 380 468.5 L 379 469.5 L 379 482.5 L 380 485.5 L 379 486.5 L 379 498.5 L 377 506.5 L 377 508.5 L 377 518.5 L 376 519.5 L 376 521.5 L 375 530.5 L 375 532.5 L 374 544.5 L 374 546.5 Q 375.3 556.8 373 563.5 L 373 565.5 L 374 568.5 L 373 569.5 L 373 579.5 L 374 581.5 L 373 586.5 L 374 587.5 L 374 605.5 L 375 607.5 L 375 609.5 L 377 621.5 L 379 625.5 L 379 633.5 L 378 637.5 L 381 652.5 L 385 658.5 L 388 676.5 L 390 680.5 L 393 695.5 L 401 712.5 L 406 719.5 L 406 722 Q 408.7 720.9 408 723.5 L 427 757 L 431 759.5 L 446 780.5 L 459.5 794 L 467 799.5 Q 466.3 801.8 468.5 801 L 479.5 812 L 491.5 818 L 521.5 838 L 533.5 844 L 538.5 845 L 562.5 858 L 576.5 863 L 582.5 863 L 598.5 872 L 641.5 887 L 648.5 891 L 699.5 907 L 723.5 912 L 725.5 912 L 743.5 913 L 744.5 914 L 746.5 914 Q 751.2 915.2 752.5 913 L 768.5 916 L 797.5 918 L 804.5 920 L 805.5 919 L 830 919 L 830 939 L 821.5 939 L 820.5 940 L 808.5 940 L 795.5 937 L 793.5 937 L 775.5 936 L 752.5 932 L 750.5 933 L 743.5 931 L 730.5 931 L 729.5 930 L 713.5 929 L 693.5 925 L 659.5 913 L 652.5 912 L 622.5 900 L 616.5 899 L 603.5 892 Q 590.4 889.6 581.5 883 L 560.5 877 L 525.5 861 L 515.5 856 L 503.5 847 L 490.5 841 L 482.5 835 L 465.5 827 L 458 821 L 453.5 815 Q 451.3 815.8 452 813.5 L 438 800.5 Q 429.4 792.1 424 780.5 L 415 770.5 L 414 767 Q 411.3 768.1 412 765.5 L 409 761.5 L 409 758.5 L 406 752.5 L 392 731.5 L 388 720.5 L 378 701.5 L 377 694.5 L 372 679.5 L 369 662.5 L 363 648.5 L 363 636 Q 360 637.3 361 633.5 L 359 629.5 L 359 624.5 L 355 611.5 L 355 609.5 L 355 591.5 L 354 590.5 L 354 572.5 L 353 570.5 L 354 569.5 L 355 533.5 L 356 532.5 L 356 530.5 L 357 508.5 L 359 500.5 Q 357.7 490.2 360 483.5 L 359 478.5 L 360 475.5 L 359 473.5 L 360 472.5 L 360 428.5 L 361 427.5 L 362 415.5 L 361 413.5 L 361 411.5 L 362 409.5 L 361 408.5 L 361 397.5 L 362 396.5 L 362 325.5 Q 364.2 324.2 363 319.5 L 362 317.5 L 363 315.5 L 363 313.5 Q 360.3 307.3 362 296.5 L 363 295.5 L 363 274.5 L 363 272.5 L 363 249.5 L 362 248.5 L 362 228.5 L 361 227.5 L 362 223.5 L 361 221.5 L 361 219.5 L 362 213.5 L 361 211.5 L 362 206.5 L 362 204.5 Q 360.5 197 363 193.5 L 363 191.5 L 363 182.5 L 364 181.5 L 364 179.5 L 365 168.5 L 368 162.5 L 368 159.5 L 372 154 L 375.5 153 L 405.5 153 Q 406.8 150.7 411.5 152 L 419.5 154 L 437.5 154 L 450.5 151 L 458.5 151 L 466.5 148 Z " />
</svg>