
<svg width="830" height="1660" version="1.1" xmlns="http://www.w3.org/2000/svg" desc="Created with imagetracer.js version 1.2.6" >
<path fill="rgb(0,0,0)" stroke="rgb(0,0,0)" stroke-width="1" opacity="0.9725490196078431" d="M 817 280 L 830 280 L 830 300 L 818.5 300 Q 817.5 303 812.5 302 Q 810.8 299.2 804.5 301 L 792.5 304 L 780.5 304 L 772.5 306 L 769.5 305 L 768.5 306 L 756.5 307 L 754.5 307 L 749.5 307 L 736.5 310 L 734.5 310 L 719.5 310 L 718.5 311 L 710.5 311 L 709.5 312 L 694.5 313 L 683.5 316 L 677.5 316 Q 668.7 321.2 656.5 323 L 654.5 325 L 626.5 329 L 623.5 331 L 583.5 342 L 546.5 360 L 520.5 376 L 488 400 Q 489.1 402.7 486.5 402 L 473 414.5 Q 473.8 416.8 471.5 416 L 456 429.5 Q 456.8 431.8 454.5 431 L 430 456.5 L 429 459.5 L 416 475 Q 413.3 473.9 414 476.5 L 409 480 L 409 482.5 L 387 511.5 L 379 525 Q 376.3 523.9 377 526.5 Q 351.8 556.3 334.5 594 L 333 593.5 L 332 599.5 L 316 631.5 L 315 638.5 L 309 653 L 307 653.5 L 309 654.5 L 307 660 Q 304.3 658.9 305 661.5 L 306 665.5 L 304 669.5 L 302 683.5 L 296 703.5 L 296 708.5 L 294 713.5 L 294 719.5 L 291 733.5 L 289 759.5 L 288 760.5 L 287 806.5 L 287 808.5 L 288 812.5 L 288 814.5 L 287 816.5 L 288 817.5 L 288 828.5 L 290 830.5 L 290 838.5 L 293 851.5 L 293 859.5 L 295 865.5 L 297 881.5 L 299 885.5 L 301 902.5 L 308 919.5 L 314 942.5 L 329 973 L 332 974.5 L 334.5 979 Q 337.8 977.9 337 980.5 L 341.5 986 L 344 987.5 Q 343.3 989.8 345.5 989 L 351 996 L 364 1005.5 L 366.5 1009 L 376 1017.5 Q 375.3 1020.1 378 1019 L 378 1021 L 379.5 1021 L 384.5 1027 Q 386.8 1026.3 386 1028.5 L 409.5 1049 L 411.5 1049 L 418 1054 Q 416.9 1056.7 419.5 1056 L 421 1059.5 Q 420.3 1061.8 422.5 1061 L 436.5 1068 L 442 1072.5 Q 441.3 1074.8 443.5 1074 L 448.5 1078 L 471.5 1086 L 481.5 1088 L 484.5 1090 L 523.5 1097 L 525.5 1097 L 538.5 1098 L 540.5 1098 L 547.5 1097 L 549.5 1097 L 577.5 1096 L 579.5 1094 L 581.5 1094 L 599.5 1093 L 605.5 1091 L 607.5 1091 L 621.5 1090 Q 628.8 1086.4 639.5 1086 Q 646.5 1082 656.5 1081 L 672.5 1073 L 675.5 1073 L 701.5 1059 L 712.5 1051 L 733 1031.5 Q 732.3 1029.3 734.5 1030 L 753 1001.5 L 755 995.5 L 754 993.5 L 759 981.5 L 760 973.5 L 765 959.5 L 767 949.5 L 766 947.5 L 768 938.5 L 764 927.5 L 767.5 922 L 772.5 919 L 782.5 917 L 797.5 920 L 814.5 920 L 816.5 919 L 818.5 919 L 830 919 L 830 939 L 827.5 940 L 826.5 939 L 805.5 937 L 803.5 937 L 793.5 937 L 792.5 936 L 781.5 935 L 782 936.5 L 783 945.5 L 782 946.5 L 782 957.5 L 778 968.5 L 770 1003.5 L 765 1014.5 L 756 1028.5 L 753 1036.5 L 745 1046 L 742 1047.5 L 738.5 1052 Q 736.3 1051.3 737 1053.5 L 728.5 1063 L 716.5 1073 L 689.5 1087 L 686.5 1087 L 661.5 1098 L 652.5 1099 L 626.5 1107 L 624.5 1106 L 623.5 1107 L 614.5 1107 L 600.5 1110 L 593.5 1110 L 586.5 1112 L 584.5 1111 L 581.5 1112 L 561.5 1116 L 529.5 1116 L 528.5 1115 L 494.5 1110 L 448.5 1096 L 418.5 1081 Q 409.7 1070.6 397 1065 Q 398.1 1062.3 395.5 1063 L 391 1057 L 389 1057 Q 390.1 1054.3 387.5 1055 L 382 1050.5 L 378.5 1046 L 376 1044.5 Q 376.8 1042.3 374.5 1043 L 367 1036.5 L 365 1033.5 L 332.5 997 L 330 995.5 L 327.5 992 L 323 988.5 L 314 974.5 L 299 943.5 L 297 938.5 L 295 925.5 L 288 910.5 L 278 867.5 L 278 861.5 L 274 839.5 L 274 829 L 272 828.5 L 272 818.5 L 271 817.5 L 271 782.5 L 272 781.5 L 272 757.5 L 273 756.5 L 273 754.5 L 277 712.5 L 279 707.5 L 281 692.5 L 289 659.5 L 289 657.5 L 300 626.5 L 304 619.5 L 306 611 Q 309.3 612.3 308 607.5 L 331 563.5 L 337.5 555 Q 339.8 555.8 339 553.5 Q 336.5 552 340 550.5 L 342 547.5 L 344 537.5 L 356 521.5 L 358 516 Q 360.7 517.1 360 514.5 L 374 495.5 Q 371.8 494.3 374.5 493 L 376 492.5 Q 373.5 491 377 489.5 L 381 483 L 383 483 L 383 481 L 385 481 L 385 479 Q 387.7 480.1 387 477.5 L 397.5 466 Q 399.8 466.8 399 464.5 L 403 459 Q 405.7 460.1 405 457.5 L 420.5 438 Q 422.8 438.8 422 436.5 L 425 432 Q 427.7 433.1 427 430.5 L 433 426 L 433 424 L 435 424 Q 433.9 421.3 436.5 422 L 456.5 402 L 461 400 Q 459.9 397.3 462.5 398 L 472.5 389 L 476 388 Q 474.9 385.3 477.5 386 L 480 385 L 481.5 382 L 505.5 364 L 507 364.5 L 509.5 361 L 511.5 362 L 512 359 L 554.5 334 L 572.5 328 L 580.5 323 L 597.5 319 L 624.5 310 L 652.5 305 L 676.5 296 L 700.5 293 L 701.5 292 L 709.5 292 L 710.5 291 L 712.5 291 L 726.5 290 L 728.5 290 L 739.5 290 L 743.5 288 Q 749 289.5 750.5 287 L 769.5 286 L 776.5 284 L 790.5 284 L 805.5 281 L 807.5 281 L 812.5 282 L 814.5 282 Q 818.3 283 817 280 Z M 798 286 Q 796 289 799 288 L 798 286 Z " />
</svg>