
<svg width="830" height="1660" version="1.1" xmlns="http://www.w3.org/2000/svg" desc="Created with imagetracer.js version 1.2.6" >
<path fill="rgb(2,2,2)" stroke="rgb(2,2,2)" stroke-width="1" opacity="1" d="M 604.5 40 L 608 42 L 610 47.5 L 610 49.5 L 607 57.5 L 604 60.5 L 598 72.5 L 592 90.5 L 589 105.5 L 589 128.5 L 588 130.5 L 588 132.5 L 591 147.5 L 590 149.5 Q 592.8 151.3 591 157.5 L 592.5 160 L 606 137.5 L 606 135.5 L 619 118 L 625 113.5 L 636 97 Q 638.7 98.1 638 95.5 L 641 94 L 641 92 Q 643.7 93.1 643 90.5 L 657.5 79 L 663.5 77 L 668.5 78 L 670.5 78 Q 673.1 77.2 672 80.5 Q 674.5 82 673 87.5 L 670 94.5 L 672 97.5 L 671 99.5 L 672 101.5 L 658 136.5 L 659 140.5 L 657 143.5 Q 657.8 149.8 655 152.5 L 654 164.5 L 654 166.5 L 654 177.5 L 658 195 L 661 193.5 L 667 184 L 670 182.5 L 684.5 167 Q 687.6 163.3 693 163 Q 691.7 159.7 696.5 161 L 698.5 161 L 700.5 162 L 701 160 L 707.5 157 L 712 160.5 L 713 168.5 L 709 178.5 L 705 204.5 L 703 209.5 L 703 242.5 L 704.5 245 L 712 235 L 721 228.5 L 722.5 226 L 726 223.5 Q 725.3 221.3 727.5 222 Q 730.3 218.3 736.5 218 L 740 221.5 L 742 228.5 Q 740.8 233.3 743 234.5 L 743 263.5 Q 745.7 266.8 745 273.5 L 746.5 275 L 747 272.5 L 752.5 267 L 764.5 259 L 772 257 Q 770.9 259.7 773.5 259 L 779 261 L 781 275.5 L 784.5 280 L 795.5 274 L 800.5 274 L 803 275 Q 801.9 277.7 804.5 277 L 807 278 Q 805.9 280.7 808.5 280 L 813 283 L 814.5 286 L 816.5 287 L 818.5 282 Q 823.3 280.8 824.5 283 L 827.5 282 L 830 282.5 L 830 302 L 817.5 302 L 815.5 300 L 805.5 297 L 798 290.5 L 796.5 288 L 793 290 Q 794.1 292.7 791.5 292 Q 790.3 295.3 784.5 294 Q 783.1 291.4 778.5 292 L 773 286.5 L 767.5 276 L 750.5 289 L 746.5 289 Q 746 285.5 741.5 286 L 739.5 286 L 736 283.5 L 731 272.5 Q 732.2 267.8 730 266.5 L 730 249.5 L 729 248.5 L 730 247.5 L 730 241 L 724 245.5 L 710.5 264 L 705.5 267 L 700.5 266 L 698 263.5 L 697 261.5 L 697.5 260 L 692 257 L 689 248.5 L 688 212.5 Q 690.7 210.8 689 204.5 L 691 200.5 L 691 194.5 L 695 180.5 L 693.5 180 Q 682 189.9 675 203 Q 672 201.8 673 205.5 L 669 210.5 L 669 213 L 658.5 218 Q 651.1 215.4 647 209.5 L 642 200.5 Q 644.5 199 641 197.5 L 638 180.5 L 638 157.5 L 642 141.5 L 642 134.5 L 644 132.5 L 653 102.5 L 650 104.5 Q 650.8 106.8 648.5 106 L 635.5 121 Q 632.9 120.2 634 123.5 L 624 133.5 L 613 153.5 L 607 161.5 L 603 173.5 L 602 181.5 L 596.5 190 L 593.5 191 L 588 188.5 L 579 172.5 L 577 159.5 L 575 155.5 L 575 140.5 L 574 139.5 Q 576.5 138 573 136.5 Q 571.3 130.2 574 128.5 L 573 123.5 L 573 121.5 L 574 119.5 L 573 118.5 L 573 104.5 L 578 80.5 L 581 73.5 L 579.5 73 L 571 80.5 L 554 108.5 L 546 136.5 Q 548.5 138 547 143.5 L 547 145.5 L 545 154.5 L 545 180.5 L 544 181.5 L 547 193.5 L 543.5 200 L 534.5 201 L 529 193.5 L 529 186.5 L 526 175.5 L 526 170.5 L 517 147.5 L 513 139.5 L 492.5 117 L 486.5 115 L 482.5 111 L 472.5 107 L 463.5 100 L 461.5 100 L 464 103.5 L 466 108 Q 468.7 106.9 468 109.5 L 484.5 137 L 487 138.5 L 497 162.5 L 500 175.5 L 500 180.5 L 502 184.5 L 503 216.5 L 501 220.5 L 502 222.5 L 499.5 228 L 497 227 L 498 229.5 L 496.5 230 L 492.5 229 L 491.5 230 L 488 226.5 L 483 214.5 L 469 193 Q 466.3 194.1 467 191.5 L 463 186 L 461 186 L 461 184 L 459 184 L 459 182 Q 456.3 183.1 457 180.5 L 440.5 167 L 434.5 166 L 435 167.5 L 437 171.5 L 449.5 184 L 455 188.5 L 466 207.5 L 473 226.5 L 473 231.5 L 476 244.5 L 476 271.5 L 477 272.5 L 477 282.5 L 478 283.5 L 477 287.5 L 477 289.5 L 478 309.5 L 483 322.5 L 483 324.5 L 482 327.5 L 482 329.5 L 483 335.5 L 482.5 338 L 473.5 339 Q 466.3 337.2 463 331.5 L 451 311.5 L 444 291.5 L 444.5 290 Q 441.9 290.7 443 288 L 441 288 L 431 323.5 L 432 324.5 L 432 333.5 L 431 335.5 L 431 337.5 L 435 364.5 L 440 374.5 L 443 390.5 L 442 393.5 L 442 395.5 Q 443.1 398.8 440.5 398 L 436 400.5 Q 436.8 402.8 434.5 402 L 430 401 L 428 395 L 424 392.5 L 420 386 L 418 386 Q 419.1 383.3 416.5 384 L 410 379 L 409 384.5 L 409 386.5 Q 407.7 393.3 410 396.5 L 410 398.5 L 411 412.5 L 412 413.5 L 412 425.5 L 414 430.5 L 415 439.5 L 414 442 L 417 443.5 L 416 445.5 L 420 446.5 L 410.5 451 L 405.5 451 L 402.5 453 L 391 455 L 383 477.5 L 383 498.5 L 384 500.5 L 383 505 L 387 507.5 L 389 514 L 380.5 516 L 368 525.5 Q 360.2 535.2 359 551.5 L 360 552.5 L 360 560.5 L 363 568.5 L 369 575.5 L 368 578 L 371 579.5 L 359 588.5 L 354 597.5 L 353 622.5 L 355 630.5 L 359.5 638 L 361.5 637 L 364 638 L 365.5 641 L 368 642.5 L 367 644.5 L 368 645.5 L 364 649.5 L 358 662.5 L 357 672.5 L 361 689 Q 364 687.8 363 691.5 Q 365.1 700.4 371.5 705 Q 378.4 705.8 382 709 L 383 712.5 L 382 714.5 L 386 714.5 Q 385.3 716.8 387.5 716 Q 390.3 717.3 388 718.5 L 382.5 726 L 380 727.5 L 378 730.5 L 377 738.5 L 382 758.5 L 388.5 767 L 403.5 775 L 408.5 774 L 419 780.5 L 414 791.5 L 414 801.5 L 418 812.5 L 430.5 829 L 435.5 831 Q 437.3 828.3 443.5 830 Q 448 831.5 448.5 837 Q 450.3 834.3 452 838.5 L 454 854.5 L 457 863.5 L 461.5 869 L 477.5 879 L 483.5 879 L 495.5 873 L 505.5 870 L 514 875.5 Q 513.3 877.8 515.5 877 Q 517.8 877.8 517 881.5 Q 514.5 883 516 888.5 L 520 902.5 L 522.5 906 L 528.5 909 L 535.5 909 L 537.5 909 L 543.5 909 L 548.5 907 L 552.5 903 L 563 899 L 563.5 897 L 571 902.5 Q 569.2 916.3 577.5 920 L 590.5 926 L 593.5 926 L 603.5 923 L 612 918 L 615.5 913 L 620.5 915 Q 622.3 912.2 624 916.5 L 627 920.5 L 628 930.5 L 632.5 935 L 635.5 936 L 638.5 935 L 644.5 937 L 662.5 937 Q 663.9 934.4 668.5 935 L 682.5 926 L 686.5 926 L 692.5 923 L 699 928.5 L 704.5 936 L 709.5 937 L 722.5 933 L 739.5 923 L 741.5 924 L 742.5 923 L 745.5 926 L 756 933.5 L 758 936.5 L 760.5 939 L 767.5 941 L 772.5 941 L 783.5 937 L 792 929.5 L 796 923 Q 798.7 924.1 798 921.5 L 801.5 920 L 807.5 922 L 811.5 921 Q 812.8 923.3 817.5 922 L 818.5 921 L 830 921 L 830 940.5 Q 829.9 941.6 824.5 941 Q 823 943.5 817.5 942 L 804.5 937 L 799.5 944 L 786.5 954 L 779.5 955 L 775.5 958 L 764.5 958 L 753.5 955 L 747 948.5 L 742.5 939 L 735.5 945 L 722.5 951 L 710.5 954 L 701.5 954 L 688 945 L 684.5 940 L 671.5 949 Q 665 949.5 661.5 953 L 655.5 953 Q 654 950.5 648.5 952 L 643.5 953 L 636 951 L 635.5 953 L 625.5 950 L 616 941.5 Q 616.7 938.9 614 940 L 614 937.5 Q 611.3 936.4 612 933 L 609 934.5 Q 609.8 936.8 607.5 936 L 605.5 938 Q 598 938.5 593.5 942 L 585.5 942 L 565.5 931 L 559 925.5 L 557 920 L 543.5 926 L 527.5 926 L 522.5 925 L 510 917.5 L 504 907.5 L 504 903.5 L 501 895.5 L 501 889 L 491.5 894 L 489.5 894 L 476.5 896 Q 458.9 892.1 449 880.5 L 440 866.5 L 436 845 Q 420.9 846.4 416 836.5 L 414 833.5 L 402 816.5 L 399 807.5 L 399 792.5 L 401 786 L 387.5 781 L 377 772.5 L 375 769.5 L 371 764.5 L 367 753.5 Q 368 746.5 365 743.5 L 365 727.5 L 372 718.5 L 365 717 Q 366.3 714 362.5 715 L 355 708.5 L 349 695.5 L 347 684.5 L 344 678.5 L 343 669.5 L 344 664.5 L 346 653.5 L 351 644.5 Q 343.4 636.6 340 624.5 L 341 621.5 L 340 620.5 L 340 604.5 L 341 601.5 L 341 599.5 L 342 593.5 L 350 579 Q 355 579.8 357 576.5 Q 350.4 570.6 348 560.5 L 347 541.5 L 348 536.5 L 352 530.5 L 352 527.5 L 357 517.5 L 360.5 514 L 374 505.5 L 372 503.5 L 370 491.5 L 371 488.5 L 371 486.5 L 370 484.5 L 370 472.5 L 376 455.5 L 383.5 445 L 400.5 443 L 404 440.5 L 400 430.5 Q 401.4 418.1 398 410.5 L 399 405.5 L 398 401.5 L 398 399.5 L 398 383.5 L 403 373.5 L 404 366.5 L 406.5 363 L 411.5 363 L 421 372.5 Q 420.3 374.8 422.5 374 L 426 376 L 421 360.5 L 420 336.5 L 417 328.5 L 417 320.5 L 418 317.5 L 419 308.5 L 425 292.5 L 425 289.5 L 433 274.5 L 434 269 Q 436.7 270.1 436 267.5 L 439 263.5 Q 437.8 256.3 441.5 254 Q 448.8 252.8 450 257.5 L 454 267.5 L 453 269.5 Q 455.7 272.8 455 279.5 L 462.5 298 L 463 287.5 L 464 286.5 L 463 285.5 L 463 242.5 L 459 229.5 L 449 206.5 L 428 179.5 L 427 176 Q 423.7 177.3 425 172.5 Q 422.2 169.8 423 163.5 L 420 160.5 L 422.5 156 L 427.5 154 L 428.5 155 L 445.5 156 L 455.5 160 L 461 164.5 L 462.5 167 L 466 169.5 Q 465.3 171.8 467.5 171 L 479.5 185 L 482 186.5 L 487.5 195 Q 489.8 195.8 489 193.5 L 487 187.5 L 487 180.5 L 485 175.5 L 485 169.5 Q 482.3 167.2 483 161.5 L 469.5 137 Q 467.3 137.8 468 135.5 L 464 131.5 L 454 110.5 L 447 101.5 L 443 90.5 L 444 88.5 L 442 83.5 L 444 80 L 450.5 79 L 474.5 89 L 482.5 95 L 485.5 95 L 495.5 100 Q 499.4 105.3 506 107 Q 504.9 109.7 507.5 109 L 513 116 L 515 116 L 515 118 Q 517.7 116.9 517 119.5 L 532.5 141 L 533 137.5 L 533 135.5 L 534 125.5 L 540 103.5 L 550 84.5 L 553 81.5 L 554 77.5 L 563.5 66 L 570 62 Q 568.9 59.3 571.5 60 L 579.5 53 L 588.5 51 L 604.5 40 Z M 433 163 L 433 165 L 435 164 L 433 163 Z " />
<path fill="rgb(2,2,2)" stroke="rgb(2,2,2)" stroke-width="1" opacity="1" d="M 68.5 103 L 70 103.5 L 67 105.5 L 66.5 107 L 66 105.5 L 68.5 103 Z " />
<path fill="rgb(2,2,2)" stroke="rgb(2,2,2)" stroke-width="1" opacity="1" d="M 432.5 270 L 432 271.5 L 431.5 273 L 431 271.5 L 432.5 270 Z " />
</svg>