
<svg width="830" height="1660" version="1.1" xmlns="http://www.w3.org/2000/svg" desc="Created with imagetracer.js version 1.2.6" >
<path fill="rgb(2,2,2)" stroke="rgb(2,2,2)" stroke-width="1" opacity="1" d="M 577.5 24 L 597.5 24 L 600 26.5 L 603 32.5 L 613.5 44 Q 615.8 43.3 615 45.5 L 623.5 53 L 627 54 L 629.5 58 L 648 70 L 665 90.5 L 675 108.5 L 675 110.5 Q 677.3 117.2 676 127.5 L 677 128.5 L 677 130.5 L 677 139.5 L 675 141.5 L 675 143.5 L 675 147.5 L 672 152.5 L 671 159.5 L 672 161.5 L 668 168.5 L 667 173.5 L 668 175.5 L 665 182.5 L 656 193.5 L 654 199.5 L 657 205 Q 660 203.8 659 207.5 L 668 231.5 L 668 236.5 Q 670.6 237.9 670 242.5 L 673 246.5 L 676 257.5 L 685 276.5 L 688.5 291 L 692.5 288 L 701.5 287 Q 707.6 282.6 717.5 282 L 725.5 278 Q 733.7 279.7 737.5 277 L 740.5 278 L 743.5 276 L 754.5 278 L 759.5 277 L 781.5 278 L 782.5 279 L 784.5 279 L 807.5 277 L 808.5 278 L 830 278 L 829.5 299 L 826.5 298 L 821.5 299 Q 818.6 296.4 812.5 297 L 803.5 299 L 801.5 299 L 785.5 299 L 784.5 300 L 767.5 297 L 753.5 297 L 751.5 297 L 749.5 298 L 748.5 297 L 736.5 297 L 734.5 297 Q 731 299.5 723.5 298 L 718.5 301 L 707 304 L 705.5 307 L 688.5 308 L 683.5 307 L 681.5 307 L 678 305.5 Q 678.8 303.3 676.5 304 L 673 304.5 L 672 298 Q 669.3 299.1 670 296.5 L 666 283.5 L 662 276.5 L 658 260.5 L 655 256.5 L 655 252.5 L 644 222.5 L 642 209.5 L 639 205.5 L 638 200.5 L 640 195.5 L 639 193.5 Q 649 186 655 174.5 L 654 170.5 L 659 160.5 L 659 153.5 L 663 144.5 L 663 131.5 L 661 125.5 L 661 123.5 L 657 108.5 L 642.5 90 L 639.5 88 L 629 80 Q 630.1 77.3 627.5 78 L 608 63 L 606.5 60 Q 604.3 60.8 605 58.5 L 593.5 44 L 590.5 42 L 590 43.5 L 591 45.5 L 585 66.5 L 573 94.5 L 569 113.5 L 569 115.5 L 569 127.5 L 573 147.5 L 588 174 L 592 176.5 L 603.5 190 L 621.5 199 L 632 207.5 Q 637.1 214.4 639 224.5 L 642 228.5 L 642 231.5 L 649 249.5 L 648 251.5 L 661 289.5 L 665 308.5 L 660.5 313 L 658 313 L 658 315 L 656 315 Q 657.1 317.7 654.5 317 Q 652.8 319.8 646.5 318 L 643.5 317 L 640.5 318 L 638.5 317 L 637.5 318 L 622.5 318 L 616.5 320 L 599.5 321 Q 596.2 323.7 589.5 323 L 555.5 342 L 546.5 343 L 541.5 339 L 538.5 341 L 536 338.5 L 535 331.5 Q 537.5 330 536 324.5 L 535 323.5 L 535 313.5 L 536 312.5 L 536 304.5 L 536 302.5 L 536 261.5 Q 533.3 259.8 535 253.5 L 536 248.5 L 548 231.5 L 558 211.5 L 561 201.5 L 561 179.5 L 553 158.5 L 541.5 141 L 539 139.5 Q 529.5 127 523.5 111 L 516.5 120 Q 513.9 119.3 515 122 L 513 122 L 513 123.5 Q 504.4 133.4 499 146.5 L 489 159.5 L 483 174.5 L 484 177.5 L 483 178.5 Q 484.5 186 482 189.5 L 483 191.5 L 483 193.5 Q 481.4 203.6 484 209.5 Q 494.1 219.5 500 233 Q 502.7 231.9 502 234.5 L 506 237.5 L 508.5 241 L 511.5 243 L 521 251.5 Q 520.3 253.8 522.5 253 L 528 259.5 L 530 266.5 L 529 268.5 L 529 270.5 L 530 272.5 L 529 273.5 L 529 287.5 L 526 304.5 Q 529.3 305.8 528 311.5 L 525 320.5 L 525 332.5 L 526 334.5 L 525 336.5 L 526 337.5 L 527 354.5 L 528 355.5 L 526 364 L 524.5 364 L 506 382.5 L 501 390.5 Q 484.5 405 471.5 423 L 469 424.5 L 437 466.5 L 426 488.5 L 419 508.5 L 406 562.5 L 406 564.5 L 407 569.5 L 406 570.5 L 406 592.5 L 405 593.5 L 405 603.5 L 404 604.5 L 405 609.5 L 404 611.5 L 404 613.5 L 405 615.5 L 404 616.5 L 404 631.5 L 406 639.5 L 407 660.5 L 409 663.5 L 408 665.5 L 415 695.5 L 417 698.5 L 419 712.5 L 419 714.5 L 419 719.5 L 423 730.5 L 423 734.5 L 435 762.5 L 450 792.5 L 467.5 814 L 469 814 L 469 816 Q 471.7 814.9 471 817.5 L 479.5 826 L 482 826 L 482 827.5 L 498.5 844 L 542.5 874 L 544.5 874 L 560.5 882 L 566.5 883 L 581.5 890 L 588.5 891 L 607.5 898 L 626.5 902 L 638.5 902 L 651.5 905 L 673.5 907 L 674.5 906 L 683.5 906 L 685.5 906 L 694.5 908 L 704.5 908 L 724.5 912 L 733.5 912 L 738.5 914 L 756.5 916 L 757.5 917 L 758.5 915 L 759 917 L 761.5 918 L 771.5 918 L 779.5 920 L 804.5 921 L 807.5 920 L 811.5 921 L 813.5 920 L 816.5 921 L 819.5 919 L 830 919 L 830 937.5 L 826.5 938 L 820.5 941 Q 808.4 939.4 800.5 942 L 792.5 940 L 779.5 940 L 768.5 938 L 758.5 938 L 738.5 934 L 713.5 932 L 701.5 929 L 690.5 929 L 689.5 928 L 678.5 928 L 676.5 927 L 673.5 929 L 671.5 928 L 669.5 928 Q 664.8 929.2 663.5 927 L 661.5 927 Q 647.5 927 637.5 923 L 623.5 923 L 614.5 920 L 609.5 920 L 592.5 914 L 590.5 912 L 577.5 909 L 543.5 894 L 541.5 894 L 511.5 878 L 489.5 861 L 475.5 847 L 474 847.5 Q 476.7 845.7 472.5 844 L 471 844.5 Q 473.2 843.3 470.5 842 L 468 840.5 L 461.5 833 L 460 833.5 L 461 832.5 L 458 829.5 Q 458.8 827.3 456.5 828 Q 454.8 824.9 453 826.5 L 448.5 820 L 447 820.5 L 448 818 Q 445.3 819.1 446 816.5 L 431.5 795 L 430 795.5 L 431 793.5 L 422 777.5 L 408 745.5 L 403 725.5 L 398 715.5 L 394 696.5 L 392 694.5 L 390 686.5 L 390 684.5 L 385 658.5 L 385 644.5 L 383 634.5 L 383 603.5 L 383 601.5 Q 382.3 599.3 384.5 600 L 384.5 599 L 383 598.5 L 385 587.5 L 384 584.5 L 385 583.5 Q 383.3 572.8 386 566.5 L 385 564.5 L 386 563.5 L 386 555.5 L 388 550.5 L 388 548.5 Q 387.3 544.3 390 543.5 L 391 533.5 L 393 531.5 L 394 522.5 L 395.5 521 L 397 520.5 L 396 516.5 L 403 496.5 L 402.5 495 Q 405.5 495.9 404 491.5 L 412 473.5 L 412 470.5 L 422 452.5 L 421.5 451 Q 422.8 453.3 424 450.5 L 435 435.5 L 439 427 L 442 425.5 L 441.5 424 Q 444.8 425.1 444 422.5 L 449 416 L 453 413.5 L 470.5 391 Q 472.8 391.8 472 389.5 L 483 378.5 L 483 377 Q 485.7 378.1 485 375.5 L 491 367 L 494 365.5 L 497.5 360 L 507 352.5 L 506 351.5 L 506 338.5 L 512 305.5 L 511 304.5 L 511 282.5 L 513 274.5 L 513 267.5 L 502.5 254 L 494 246.5 L 492.5 244 L 486 238.5 L 474 216.5 L 474 210.5 L 469 192.5 L 469 184.5 L 470 183.5 L 470 175.5 L 470 173.5 L 470 169.5 L 477 152.5 L 487 139.5 L 497 120 L 501 117.5 L 510 104.5 L 517 97.5 L 520.5 91 L 525.5 88 L 534 93.5 L 539 110.5 L 553.5 130 L 554 128.5 L 553 126.5 L 553 124.5 L 554 120.5 L 553 116.5 L 554 115.5 L 554 106.5 L 557 92.5 L 565 70.5 L 571 58.5 L 576 34.5 L 576 25.5 L 577.5 24 Z M 577 187 L 577 189 L 573 211 L 560 237 L 557 239 L 549 249 L 550 254 L 550 272 L 551 273 Q 552 279 550 283 L 550 287 L 550 305 L 552 305 L 551 309 L 554 323 L 587 307 L 607 304 L 609 304 L 627 301 L 630 302 L 636 300 L 640 301 L 648 300 L 648 297 L 638 271 L 633 249 L 626 234 L 626 231 L 621 218 L 619 215 L 615 215 L 600 209 L 587 199 L 582 192 L 577 187 Z " />
<path fill="rgb(2,2,2)" stroke="rgb(2,2,2)" stroke-width="1" opacity="1" d="M 202.5 362 Q 205.5 363.5 202.5 365 Q 200.3 365.8 201 363.5 L 202.5 362 Z " />
</svg>