
<svg width="830" height="1660" version="1.1" xmlns="http://www.w3.org/2000/svg" desc="Created with imagetracer.js version 1.2.6" >
<path stroke="rgb(1,1,1)" stroke-width="1" opacity="1" d="M 627.5 66 L 632.5 67 Q 633.8 64.8 638.5 66 L 664.5 71 L 678 79 L 678 81 Q 680.7 79.9 680 82.5 L 686 89.5 L 702 119.5 L 714 154.5 L 714 156.5 L 716 165.5 L 715 168.5 L 718 182.5 L 718 200.5 L 720 206.5 L 720 228.5 L 721 232.5 L 721 234.5 L 722 236.5 L 721 237.5 L 721 246.5 L 723 253.5 L 723 269.5 L 724 270.5 L 723 272.5 L 726 281 Q 732.9 281.8 737.5 279 L 756.5 279 L 757.5 280 L 776.5 280 L 777.5 281 L 779.5 281 L 796.5 281 Q 798.2 283.7 804.5 282 L 807.5 284 L 813.5 285 L 819 284 L 819.5 282 L 830 282 L 830 301.5 L 828.5 303 L 825.5 304 L 809.5 304 L 790.5 299 L 779.5 299 L 777.5 298 L 775.5 298 L 767.5 298 L 766.5 297 L 764.5 298 L 763.5 297 L 748.5 297 L 746.5 296 L 744.5 296 L 727.5 299 Q 725.8 296.2 719.5 298 L 715 294.5 L 715 293 L 713 293 Q 714.1 290.3 711.5 291 L 706 281.5 L 707 280.5 L 707 265.5 L 706 264.5 L 706 255.5 L 704 250.5 L 705 248.5 L 704 243.5 L 705 240.5 L 704 236.5 L 704 216.5 L 702 211.5 L 703 209.5 L 701 202.5 L 701 178.5 L 696 151.5 L 683 119.5 L 675 105.5 L 665.5 94 L 654.5 88 L 652.5 88 L 647.5 88 L 636.5 85 L 627.5 85 L 625.5 86 L 622.5 85 L 605.5 89 L 596 96.5 L 588 110.5 L 588 114.5 L 584 125.5 L 584 140.5 L 587 151.5 L 595 163 L 597 163 Q 595.9 165.7 598.5 165 L 610.5 175 Q 615.1 177.9 623.5 177 L 633.5 174 L 640 168.5 L 643 163 L 648.5 159 L 655.5 157 L 665 161.5 L 667 165.5 L 667 172.5 L 670 181.5 L 672 199.5 L 679 221.5 L 679 223.5 L 678 226.5 L 679 227.5 L 679 236.5 L 681 244.5 L 681 261.5 L 683 268.5 L 683 270.5 L 684 280.5 L 686 282.5 L 686 290.5 L 682 299 L 678.5 301 L 674.5 301 L 670.5 300 L 667.5 304 L 632.5 312 L 627.5 312 L 613.5 319 L 600.5 322 L 590.5 328 L 574.5 333 L 566.5 334 L 562 332 L 560 328.5 L 559 321.5 L 559 319.5 L 558 298.5 L 556 293.5 L 556 291.5 L 556 282.5 L 554 273.5 L 555 271.5 Q 552.3 269.8 554 263.5 L 552 259.5 L 552 254.5 L 550 251.5 Q 548.8 238.2 544 228.5 L 542 213 Q 538 214.4 540 207.5 L 534 186.5 L 531 180.5 L 530 173.5 L 526 164.5 L 505.5 140 L 498.5 135 L 497.5 136 L 484.5 137 L 475 142.5 Q 475.8 144.8 473.5 144 Q 470.6 148.3 465 149 L 450 171.5 L 449 181.5 L 443 201.5 L 443 203.5 L 443 217.5 L 446 227.5 Q 452.5 239.1 462.5 247 L 469.5 251 L 477.5 252 L 484.5 249 L 494 241 L 495.5 238 L 504.5 231 L 508.5 231 L 515 233.5 Q 517.5 237 516 244.5 L 522 262.5 L 522 264.5 L 524 278.5 L 526 283.5 L 528 301.5 L 532 312.5 L 532 314.5 L 537 335.5 L 532 350 L 525.5 353 L 503.5 369 L 484.5 378 L 471.5 389 L 453 400.5 Q 453.8 402.8 451.5 402 L 446.5 406 L 407.5 424 Q 396.2 433.7 380.5 439 L 364.5 449 L 353.5 458 L 347 460 L 349 466.5 L 348 469.5 L 350 477.5 L 350 484.5 L 352 490.5 L 351 494.5 L 353 501.5 L 352 503.5 L 354 508.5 L 355 522.5 L 357 528.5 L 357 530.5 Q 356.4 535.1 359 536.5 L 359 546.5 L 361 553.5 L 362 573.5 L 363 574.5 L 363 576.5 Q 361.3 582.8 364 584.5 L 364 609.5 L 366 617.5 L 366 619.5 L 367 636.5 L 375 660.5 L 375 662.5 L 384 693.5 L 393 714.5 L 393 717.5 L 395 719.5 Q 392.5 721 396 722.5 L 403 741.5 L 414 760.5 L 415 764.5 L 431 790.5 L 431 793 Q 433.7 791.9 433 794.5 L 449 818.5 L 454.5 824 L 457 825.5 L 459.5 829 Q 461.8 828.3 461 830.5 L 472.5 843 Q 474.8 842.3 474 844.5 L 482.5 853 L 484 853 Q 482.9 855.7 485.5 855 L 489.5 859 L 501 865.5 Q 500.3 867.8 502.5 867 L 520.5 880 L 533.5 885 L 535.5 887 L 545.5 889 L 549.5 892 L 560.5 896 L 593.5 903 L 613.5 903 L 614.5 904 L 624.5 904 L 625.5 905 L 627.5 905 L 671.5 907 L 680.5 909 L 688.5 909 L 705.5 913 L 718.5 914 L 720.5 914 L 729.5 914 L 736.5 916 L 746.5 916 L 747.5 917 L 760.5 918 L 762.5 920 L 779.5 923 L 781.5 923 L 792.5 925 L 812.5 925 L 818.5 927 L 819 922 L 830 922 L 830 942 L 819.5 942 L 818.5 939 L 804.5 939 L 802.5 939 L 788.5 939 L 786.5 938 L 784.5 938 L 780.5 937 L 777.5 938 L 776.5 937 L 769.5 937 L 762.5 935 L 752.5 935 L 743.5 933 L 741.5 933 L 733.5 933 L 725.5 931 L 723.5 932 L 722.5 931 L 701.5 931 L 681.5 927 L 679.5 927 L 677.5 928 L 671.5 926 L 662.5 926 L 661.5 925 L 653.5 925 L 652.5 924 L 641.5 923 L 639.5 923 L 624.5 923 L 623.5 922 L 611.5 922 L 609.5 921 L 607.5 921 L 595.5 921 L 578.5 917 L 576.5 917 L 566.5 916 L 542.5 906 L 529.5 903 L 501.5 887 L 494.5 881 L 483.5 876 L 464.5 858 L 463 858 L 452 843 Q 449.3 844.1 450 841.5 L 439 831.5 L 427 816.5 L 411 792.5 L 389 749.5 L 385.5 740 L 384.5 742 L 383 739.5 L 385 738.5 L 378 721.5 L 366 684.5 L 366 680.5 L 364 677.5 L 365 675.5 L 361 663.5 L 355 635.5 L 352 630.5 Q 352.6 624.4 350 621.5 L 348 592.5 L 346 586.5 L 346 578.5 L 344 570.5 L 342 543.5 L 340 536.5 L 340 525.5 L 338 518.5 L 338 509.5 L 334 491.5 L 334 484.5 L 328 470.5 L 328 459.5 L 327 458.5 L 327 456.5 L 328 447.5 L 331 443 L 350.5 431 L 360.5 423 L 382.5 411 L 391.5 404 L 398.5 402 L 406.5 397 L 466 369 Q 464.8 366 468.5 367 L 480.5 362 L 498.5 351 L 516 337 L 516 330.5 L 514 325.5 L 512 312.5 L 510 308.5 L 507 284.5 L 503 270.5 L 501.5 259 L 494.5 267 Q 486.8 272.8 474.5 274 Q 472.8 271.2 466.5 273 L 456.5 269 L 446 259.5 Q 446.8 257.3 444.5 258 L 443 255 L 440 253.5 L 438.5 251 L 435 248.5 L 425 228.5 Q 426.3 223.7 424 222.5 L 424 204.5 L 434 163.5 L 449 140.5 L 456.5 133 L 471.5 122 L 488.5 117 L 503.5 117 L 523 129 L 540 151.5 L 546 162.5 L 552 186.5 L 555 193.5 L 556 202.5 L 560 214.5 L 562 227.5 L 566 238.5 L 572 267.5 L 572 269.5 L 572 276.5 L 575 285.5 L 576 299.5 L 578 307.5 L 577 310 L 589.5 307 L 600.5 301 L 611.5 299 L 613.5 297 L 625.5 293 L 631.5 293 L 643.5 289 L 649.5 289 L 664 286 L 663 265.5 L 662 263.5 L 662 261.5 L 663 258.5 L 663 256.5 Q 660.3 252.7 662 244.5 L 661 243.5 L 661 217.5 L 657 195.5 L 658 193.5 L 656 189.5 L 654.5 180 L 647.5 189 L 644.5 191 L 637.5 195 L 628.5 197 L 626.5 197 L 619.5 198 L 598.5 190 Q 587.2 183.8 579 174.5 L 568 156.5 L 565 143.5 L 565 125.5 L 570 110.5 L 571 103.5 Q 576.8 88.3 587.5 78 Q 595.4 70.9 607.5 68 L 626.5 67 L 627.5 66 Z " />
</svg>