
<svg width="830" height="1660" version="1.1" xmlns="http://www.w3.org/2000/svg" desc="Created with imagetracer.js version 1.2.6" >
<path fill="rgb(2,2,2)" stroke="rgb(2,2,2)" stroke-width="1" opacity="1" d="M 807.5 277 L 808.5 278 L 830 279 L 830 299 L 822.5 299 L 817.5 301 L 805.5 302 L 803.5 302 L 801.5 301 L 794.5 303 Q 792.2 299.3 785.5 300 L 778.5 302 L 769.5 302 L 763.5 304 L 725.5 304 L 719.5 306 L 710.5 306 L 709.5 307 L 707.5 307 L 691.5 310 L 675.5 317 L 667 318 Q 668.4 321.7 662.5 320 L 646.5 325 L 623.5 329 L 601.5 336 L 560.5 343 L 536 351 Q 537.1 353.7 534.5 353 L 514.5 366 L 501.5 372 L 494.5 378 L 473.5 391 L 468 396.5 L 463 405.5 Q 456.7 410.1 454 417 L 451 418.5 L 445.5 426 L 444 426 L 444 428 Q 441.3 426.9 442 429.5 Q 436.3 432.3 436 439 Q 433.3 437.9 434 440.5 L 413 465.5 L 412 470.5 L 406 482.5 L 391 505.5 L 385 525.5 L 381 532.5 L 381 534.5 L 377 542.5 L 377 544.5 L 377 557.5 L 375 566.5 L 376 570.5 L 374 575.5 L 374 583.5 L 373 584.5 L 374 586.5 L 373 589.5 L 373 591.5 L 372 623.5 L 373 624.5 L 373 635.5 L 374 636.5 L 374 638.5 L 374 646.5 L 375 647.5 L 375 649.5 L 379 678.5 L 385 698 Q 388 696.8 387 700.5 L 407 743.5 L 423 772 Q 425.7 770.9 425 773.5 Q 432.9 780.2 437 790 Q 439.7 788.9 439 791.5 L 464 818.5 L 464 820 L 493.5 843 L 497 844 L 498.5 847 Q 506.4 854.1 517.5 858 L 537.5 872 Q 539 869.5 540.5 873 L 573.5 891 L 588.5 896 L 595.5 900 L 629.5 909 L 634.5 909 L 647.5 912 L 665.5 913 L 666.5 914 L 667.5 913 L 675.5 913 L 683.5 915 L 721.5 917 L 722.5 918 L 731.5 918 L 739.5 920 L 766.5 921 L 775.5 923 L 777.5 923 L 789.5 922 L 791.5 923 L 793.5 923 L 797.5 922 Q 799 924.5 800.5 921 L 818.5 920 L 820.5 918 L 828.5 918 L 830 919.5 L 830 938 L 820.5 938 Q 819 934.5 817.5 937 L 792.5 938 L 782.5 935 L 778.5 935 L 769.5 935 L 768.5 934 L 765.5 935 L 763.5 934 L 761.5 934 Q 756 932.5 754.5 935 L 748.5 933 L 738.5 933 L 737.5 932 L 735.5 932 L 729.5 932 L 723.5 930 L 712.5 930 L 711.5 929 L 686.5 928 L 675.5 925 L 672.5 926 L 669 925 Q 670.4 929 663.5 927 L 652.5 924 L 638.5 923 L 636.5 921 L 621.5 917 L 611.5 916 Q 600.7 909.8 585.5 908 L 570.5 901 L 552.5 895 L 538.5 887 L 536.5 888 L 535 885 L 519.5 878 L 507.5 870 L 501 868 Q 502.1 865.3 499.5 866 L 471 846 L 466.5 840 L 447 824.5 L 440 814.5 L 415 786.5 L 408 775 L 404 772.5 L 395 758.5 L 394 754.5 L 390 750.5 L 383 732.5 L 378 724.5 L 372 706.5 L 365 694.5 L 365 689.5 L 362 684.5 L 361 675.5 L 357 660.5 Q 358.1 651.9 355 647.5 L 355 631.5 L 354 630.5 L 355 627.5 L 354 626.5 L 354 613.5 L 355 612.5 L 355 594.5 L 356 593.5 L 355 590.5 L 355 588.5 L 358 567.5 L 357 562.5 L 359 558.5 L 358 557.5 L 358 549.5 L 363 531.5 L 366 527.5 L 366 523.5 L 371 514.5 L 372 507.5 Q 377 502.5 378 493.5 L 390 474.5 L 394 470.5 L 401 454.5 Q 407.4 449.3 410 441 Q 412.7 442.1 412 439.5 L 419.5 429 Q 421.8 429.8 421 427.5 L 427 420 Q 429.7 421.1 429 418.5 L 431.5 415 L 439 409.5 L 446 398 Q 448.7 399.1 448 396.5 L 449 394 Q 451.7 395.1 451 392.5 L 464 375 L 497.5 352 L 504.5 349 L 524.5 336 L 536 332 Q 534.8 329 538.5 330 L 547.5 326 L 567.5 322 L 569.5 322 L 589.5 318 L 595.5 318 L 611.5 314 L 614.5 312 L 616.5 312 L 627 309 Q 625.9 306.3 628.5 307 L 642.5 301 L 662.5 297 L 667.5 294 L 675.5 292 L 680.5 292 L 686.5 289 L 698.5 286 L 700.5 284 L 702.5 284 L 705.5 283 L 707.5 283 L 726.5 279 L 728.5 279 L 755.5 280 L 756.5 279 L 769.5 279 L 771.5 280 L 773.5 280 L 783.5 278 L 784.5 279 L 797.5 279 L 807.5 277 Z " />
</svg>