
<svg width="830" height="1660" version="1.1" xmlns="http://www.w3.org/2000/svg" desc="Created with imagetracer.js version 1.2.6" >
<path stroke="rgb(1,1,1)" stroke-width="1" opacity="1" d="M 301.5 191 L 313.5 191 Q 315.8 193.7 321.5 193 L 355.5 212 L 374 226.5 L 375 231 L 386.5 233 L 401.5 239 L 403.5 238 L 412.5 242 L 424.5 244 L 440.5 250 L 463.5 253 L 486.5 261 L 502.5 262 L 510.5 264 L 539.5 276 L 567.5 282 Q 568.8 279.8 573.5 281 L 585.5 284 L 595.5 284 L 608.5 287 L 624.5 288 L 651.5 293 L 670.5 293 L 671.5 292 L 683.5 291 L 688.5 292 L 689.5 291 L 702.5 291 L 712.5 289 L 730.5 289 L 734.5 287 L 751.5 287 L 753.5 286 L 755.5 287 L 756.5 286 L 773.5 285 L 782.5 283 L 804.5 283 L 806.5 282 L 809.5 283 L 813.5 282 L 816 283 L 816.5 281 L 830 281 L 830 301 L 819.5 301 L 812.5 303 L 809.5 300 L 808.5 301 L 797.5 303 L 789.5 303 L 787.5 302 L 786.5 303 L 770.5 303 L 757.5 306 L 753.5 305 L 743.5 307 L 741.5 307 Q 734.5 306 731.5 309 L 709.5 309 L 707.5 310 L 705.5 310 Q 700 308.5 698.5 311 L 695.5 310 L 693.5 310 L 688.5 311 L 686.5 310 L 683.5 311 L 679.5 310 L 678.5 311 L 664.5 311 L 662.5 312 L 660.5 312 L 657.5 311 L 655.5 312 L 646.5 310 L 644.5 310 L 631.5 309 L 615.5 305 L 606.5 305 L 592.5 301 L 585.5 301 L 569.5 298 L 566.5 299 L 541.5 294 L 533.5 290 L 518.5 287 L 500.5 280 Q 495 281.5 493.5 279 L 491.5 279 L 476.5 278 L 453.5 269 L 432.5 266 L 420.5 261 Q 410.9 260.6 404.5 257 L 399.5 257 L 396.5 255 L 375.5 249 L 363.5 242 L 358.5 241 L 347.5 233 L 328.5 224 L 319.5 217 L 309.5 213 L 303.5 213 L 296 217.5 L 294 222.5 L 298.5 232 Q 300.8 231.3 300 233.5 L 316 254.5 L 332 281 Q 334.7 279.9 334 282.5 L 338 289 Q 340.7 287.9 340 290.5 L 361 322.5 L 364 330 L 367 331.5 L 385 362.5 L 388 365.5 L 400 393.5 L 401 399.5 L 405 408.5 L 405 412.5 L 407 416.5 L 412 440.5 L 415 447.5 L 415 453.5 Q 418.7 461.8 419 473.5 L 422 481.5 L 423 492.5 L 427 502.5 L 427 504.5 L 428 520.5 L 430 528.5 L 430 530.5 L 431 535.5 L 430 537.5 L 431 538.5 L 431 547.5 L 432 548.5 L 434 565.5 L 434 567.5 L 433 570.5 L 435 574.5 L 435 576.5 L 436 580.5 L 436 584.5 L 437 612.5 L 438 613.5 L 438 638.5 L 439 641.5 L 438 643.5 L 439 645.5 L 439 647.5 L 440 696.5 L 439 699.5 L 439 718.5 L 438 719.5 L 438 733.5 L 437 734.5 L 437 736.5 L 437 752.5 L 436 753.5 L 436 755.5 L 436 765.5 L 434 776.5 L 434 778.5 L 434 789.5 L 432 797.5 L 432 804.5 L 427 827.5 L 428 831.5 L 423 849.5 L 422 858.5 L 420 862.5 L 420 864.5 L 414 887.5 L 406 909.5 L 404 911.5 L 404 914.5 L 390 942.5 L 385 948.5 L 386 949.5 L 383 952.5 L 372 975 Q 369 973.8 370 977.5 L 364 988 Q 360 986.6 362 993.5 L 365 996.5 L 369 1006 Q 376.1 1008.3 388.5 1007 L 404 1004 Q 402.9 1001.3 405.5 1002 L 419.5 996 L 424.5 996 L 436.5 990 L 455.5 986 L 475.5 979 L 491.5 970 L 499.5 968 L 526.5 954 L 564.5 943 L 578.5 935 L 591.5 931 L 593.5 929 L 597.5 929 L 606.5 925 L 611.5 925 L 623.5 922 L 625.5 922 L 650.5 921 L 651.5 920 L 655.5 921 L 657.5 920 L 658.5 921 L 670.5 921 L 671.5 922 L 672.5 921 L 685.5 921 L 686.5 920 L 704.5 920 L 705.5 919 L 713.5 919 L 718.5 917 Q 719.8 919.2 724.5 918 L 725.5 917 L 745.5 916 L 755.5 918 L 757.5 917 L 758.5 918 L 789.5 918 L 791.5 918 L 809.5 918 Q 810.8 915.7 815.5 917 Q 820.3 920.8 830 919 L 830 940 L 817 940 Q 818.1 937.3 815.5 938 L 813.5 939 L 811.5 939 L 785.5 938 L 781.5 939 L 779.5 938 L 777.5 938 L 764.5 938 L 763.5 937 L 760.5 938 L 758.5 937 L 756.5 938 L 755.5 937 L 739.5 936 L 737.5 936 Q 734.9 935.3 736 938 L 731.5 938 L 729.5 938 L 715.5 939 L 710.5 941 Q 699.6 939.6 692.5 942 L 690.5 942 L 668.5 943 L 667.5 942 L 658.5 942 L 656.5 942 L 654.5 943 L 642.5 943 L 637.5 945 L 626.5 945 L 597.5 951 L 581.5 957 L 577.5 960 L 571.5 961 L 563.5 966 L 536.5 974 L 514.5 986 L 511.5 986 L 509.5 988 L 502.5 990 L 493.5 996 L 472.5 1005 L 462.5 1008 L 452.5 1009 L 424.5 1017 L 422.5 1017 L 390.5 1026 L 374.5 1026 L 364.5 1024 L 358 1020 L 348 1003.5 L 346 993.5 L 347 991.5 L 347 989.5 L 347 982.5 L 351 969.5 L 378 921.5 L 392 889.5 L 399 869.5 L 399 865.5 L 403 853.5 L 408 828.5 L 407 826.5 L 410 816.5 L 413 787.5 L 414 786.5 L 414 776.5 L 415 775.5 L 416 756.5 L 417 755.5 L 417 739.5 L 418 738.5 L 418 717.5 L 419 716.5 L 418 714.5 L 419 711.5 L 419 709.5 L 420 662.5 L 419 661.5 L 419 651.5 L 418 650.5 L 419 648.5 L 419 646.5 L 418 644.5 L 418 624.5 L 417 623.5 L 418 621.5 L 418 619.5 L 417 617.5 L 417 602.5 L 416 600.5 L 416 598.5 L 415 578.5 L 413 571.5 L 409 524.5 L 408 523.5 L 408 516.5 Q 405 509 405 498.5 L 401 489.5 L 398 470.5 L 394 456.5 L 394 451.5 L 386 420.5 L 380 400.5 L 370 376.5 L 367 373.5 L 363 364.5 L 341.5 330 Q 339.3 330.8 340 328.5 Q 332 319.5 327 307.5 L 305 277 Q 302.3 278.1 303 275.5 L 299 266.5 L 283 244.5 L 281 234.5 L 278 228.5 L 279 226.5 L 277 219.5 L 278 218.5 L 278 209.5 L 281 203 Q 284 204.3 283 200.5 L 288.5 196 L 301.5 191 Z " />
</svg>