
<svg width="830" height="1660" version="1.1" xmlns="http://www.w3.org/2000/svg" desc="Created with imagetracer.js version 1.2.6" >
<path fill="rgb(2,2,2)" stroke="rgb(2,2,2)" stroke-width="1" opacity="1" d="M 758.5 279 L 763.5 280 L 766.5 279 L 770.5 280 L 773.5 279 L 789.5 280 L 791.5 280 Q 796.3 278.8 797.5 281 L 815.5 281 L 816.5 282 L 818.5 280 L 830 280 L 830 300 L 818.5 300 L 816.5 300 L 810.5 299 L 808.5 299 L 800.5 300 L 791.5 298 L 762.5 298 L 760.5 299 L 758.5 299 L 735.5 299 L 729.5 301 L 719.5 301 L 718.5 302 Q 710.3 300.3 706.5 303 L 704.5 303 L 683.5 304 L 682.5 305 L 680.5 305 L 675.5 304 L 669.5 306 L 653.5 307 L 647.5 309 L 645.5 309 L 632.5 310 L 623 312 Q 624.4 315.7 618.5 314 L 588.5 321 L 565.5 329 L 552.5 336 L 539.5 340 L 514.5 356 L 495.5 366 L 479 381.5 L 459.5 406 L 457 407.5 L 455.5 410 Q 453.3 409.3 454 411.5 L 448 416.5 Q 448.8 418.8 446.5 418 L 419 448.5 L 376 508.5 L 376 510.5 L 348 562.5 L 324 616.5 L 325 618.5 L 309 660.5 L 308 669.5 L 306 673.5 L 306 678.5 L 304 684.5 L 304 690.5 L 297 718.5 L 297 723.5 L 297 725.5 L 296 737.5 L 292 754.5 L 292 756.5 L 291 761.5 L 291 763.5 L 290 769.5 L 291 772.5 Q 292.1 775.8 289.5 775 L 289 777.5 L 290 779.5 L 287 795.5 L 288 797.5 L 287 799.5 L 287 801.5 Q 285.8 807.6 288.5 807 L 288.5 808 L 286 809.5 L 286 813 Q 288.7 811.9 288 814.5 Q 284 816.5 286 824.5 L 287.5 827 L 286 826.5 Q 285.3 828.8 287.5 828 L 287 829.5 L 288 831.5 L 288 835.5 L 287 838.5 L 288.5 841 L 287 840.5 L 288 842.5 L 287 844.5 L 288 847.5 L 288 867.5 L 289 868.5 Q 287.5 876 290 879.5 L 290 881.5 L 290 892.5 L 292 901.5 L 292 909.5 L 297 936.5 L 299 938.5 L 313 984.5 L 329.5 1020 L 333 1015.5 L 338 1002.5 L 354 976.5 L 375.5 953 L 390.5 943 L 392.5 943 L 414.5 925 L 455.5 909 L 476.5 903 L 499.5 899 L 516.5 898 L 519.5 896 L 555.5 895 L 556.5 894 L 557.5 895 L 573.5 895 L 575.5 896 L 578.5 895 L 579.5 896 Q 588.4 894.6 593.5 897 L 595.5 897 L 618.5 897 Q 620 899.5 625.5 898 L 626.5 897 L 638.5 897 L 639.5 898 L 657.5 898 L 666.5 900 L 689.5 901 L 690.5 902 L 711.5 904 L 730.5 908 L 733.5 907 L 755.5 910 L 759.5 912 L 764.5 912 L 776.5 915 L 806.5 916 L 814.5 918 L 818.5 918 L 830 919 L 830 939 Q 824.7 937.8 825.5 941 L 819.5 941 L 818 938 Q 815.3 939.1 816 936.5 L 814.5 937 L 805.5 938 L 804.5 937 L 789.5 937 L 787.5 936 L 785.5 936 L 779.5 936 L 762.5 931 L 747.5 930 L 742.5 928 L 734.5 928 L 733.5 927 L 729.5 928 L 701.5 922 L 693.5 922 L 683.5 920 L 671.5 920 L 656.5 917 L 626.5 915 L 625.5 916 L 612.5 916 L 610.5 916 L 607.5 915 L 585.5 915 L 584.5 914 L 557.5 913 L 556.5 914 L 540.5 914 L 539.5 915 L 521.5 915 L 515.5 918 L 500.5 919 L 472.5 925 L 456.5 932 L 453.5 932 L 431.5 940 L 421.5 945 L 385 971 Q 386.1 973.7 383.5 973 Q 373.1 981.7 367 993 Q 364.3 991.9 365 994.5 L 351 1018.5 L 347 1029.5 L 342 1035.5 L 339 1044.5 L 340 1046.5 Q 339.3 1050.8 333.5 1050 L 327.5 1046 L 322.5 1045 L 317 1039.5 L 303 1015.5 Q 305.5 1014 302 1012.5 L 290 983.5 L 290 979.5 L 286 970.5 L 284 959.5 L 278 942.5 L 278 938 Q 274.3 939.4 276 933.5 L 271 908.5 L 271 897.5 L 269 888.5 L 269 875.5 L 267 865.5 L 267 863.5 L 267 833.5 L 266 832.5 L 266.5 831 L 265 830.5 L 265 815.5 L 266 814.5 L 266 796.5 L 268 787.5 L 268 773.5 L 269 772.5 L 270 757.5 L 276 724.5 L 275 719.5 Q 277.8 716.8 277 710.5 L 279 707.5 L 279 705.5 L 281 691.5 L 283 687.5 L 285 669.5 L 287 665.5 L 289 653.5 L 303 617.5 L 302 614.5 L 306 604 Q 308.7 605.1 308 602.5 L 310 595.5 L 322 574.5 L 322 571.5 L 340 535.5 L 354 511.5 L 355 506.5 L 362 496.5 L 363 492.5 L 384.5 462 Q 387.1 462.8 386 459.5 L 393 450 Q 395.7 451.1 395 448.5 L 399 443 Q 401.7 444.1 401 441.5 L 421 416 L 423 416 Q 421.9 413.3 424.5 414 L 436.5 398 Q 438.8 398.8 438 396.5 L 445 391 L 449 384 L 453 381.5 L 458 374 Q 460.7 375.1 460 372.5 L 474.5 357 L 483.5 350 L 485.5 350 L 488.5 350 L 499.5 341 Q 514.5 336 524.5 326 L 534.5 321 L 543.5 319 L 549.5 315 L 552.5 315 L 568.5 307 L 571.5 307 L 593.5 299 L 610.5 295 L 620.5 294 L 626.5 291 L 666.5 286 L 668.5 286 L 684.5 286 L 686.5 285 L 688.5 285 Q 694 286.5 695.5 284 Q 696.7 286.3 701.5 285 L 711.5 283 L 713.5 283 L 724.5 283 L 730.5 281 L 743.5 281 L 744.5 280 L 746.5 281 L 747.5 280 L 757.5 280 L 758.5 279 Z " />
</svg>