
<svg width="830" height="1660" version="1.1" xmlns="http://www.w3.org/2000/svg" desc="Created with imagetracer.js version 1.2.6" >
<path stroke="rgb(1,1,1)" stroke-width="1" opacity="1" d="M 819.5 281 L 830 281 L 830 299 L 820.5 299 L 819.5 300 Q 817.8 297.2 811.5 299 L 802.5 302 L 801.5 301 L 790.5 301 L 781.5 299 L 771.5 299 Q 770.2 301.2 765.5 300 L 764.5 299 L 747.5 299 L 746.5 300 L 734.5 300 L 709.5 307 L 691.5 309 L 674.5 314 L 669.5 314 Q 661.5 317.5 650.5 318 L 643.5 321 L 628.5 324 L 595.5 337 L 575.5 343 Q 569.5 347.5 560.5 349 L 557.5 352 L 542.5 358 L 530.5 364 L 527.5 367 L 519.5 370 L 479 400 Q 480.1 402.7 477.5 402 L 462.5 416 L 461 416 L 458.5 420 L 456 421.5 L 454.5 424 Q 452.3 423.3 453 425.5 L 436 442.5 L 436 444 Q 433.3 442.9 434 445.5 L 416 468.5 L 415 472.5 L 404 488.5 L 396 502.5 L 389 521.5 L 389 524.5 L 378 554.5 L 376 575.5 L 373 587.5 L 372 623.5 L 371 624.5 L 372 626.5 L 372 628.5 L 371 631.5 L 371 648.5 L 369 657.5 L 369 679.5 L 368 680.5 L 369 685.5 L 370 689.5 L 370 691.5 L 370 699.5 L 371 700.5 L 371 702.5 L 372 729.5 L 373 730.5 L 372 733.5 L 373 736.5 L 374 753.5 L 379 771.5 L 381 809.5 L 383 816.5 L 384 835.5 L 386 837.5 L 386 846.5 L 387 847.5 L 387 862.5 L 388 863.5 L 389 881.5 L 390 882.5 L 390 917.5 L 391 918.5 L 390 920.5 L 391 921.5 L 391.5 944 L 396 941 L 398.5 937 Q 400.8 937.8 400 935.5 L 417.5 916 L 424.5 916 L 431 922.5 L 435 930 Q 437.7 928.9 437 931.5 Q 445.7 938.7 449 950 Q 451.7 951.1 451 948.5 L 473.5 928 L 481.5 922 L 487.5 920 L 491.5 922 Q 493 919.5 494.5 923 Q 496.8 922.3 496 924.5 L 509 944.5 L 511 953 L 514 951.5 L 543.5 920 L 550.5 918 L 555 921 L 556.5 924 Q 558.8 923.3 558 925.5 L 560 929 Q 563 927.8 562 931.5 L 570 943 Q 572.7 941.9 572 944.5 L 575.5 949 L 588 939 L 588 937 Q 590.7 938.1 590 935.5 L 595 930.5 L 601.5 918 L 611 917 Q 614.1 920.6 613 929.5 L 617 936.5 L 621 953 L 626 951 L 629 945 L 633 942.5 L 634 939 Q 636.7 940.1 636 937.5 L 637 935 Q 639.7 936.1 639 933.5 L 648.5 921 L 654.5 920 L 661 929.5 L 669 951 Q 671.7 952.1 671 949.5 L 689 921 L 691 920.5 L 691 918.5 L 691.5 917 L 694 918 Q 693 914.2 695.5 913 Q 701.8 912.2 704.5 915 L 711.5 915 L 713.5 915 L 738.5 916 L 739.5 915 L 755.5 915 L 766.5 918 L 796.5 920 L 798.5 920 L 804.5 921 L 809.5 920 L 816.5 918 L 830 918 L 830 938 L 819.5 938 L 815.5 939 L 809.5 937 L 804.5 937 Q 803.2 939.3 798.5 938 L 797.5 937 L 786.5 937 L 785.5 936 Q 784 938.5 778.5 937 L 777.5 936 L 764.5 936 L 763.5 935 L 761.5 935 L 740.5 933 L 734.5 930 L 717.5 930 L 712.5 929 Q 710.8 931.7 704.5 930 L 698 929 L 698 933.5 Q 686.7 948.4 680 967 L 676.5 967 L 673 969 L 672.5 967 L 672 970 Q 668.7 971.1 670 967 L 667.5 967 Q 666 963.5 664.5 966 Q 659.5 966.5 659 962.5 L 652 945.5 L 652 942 L 650 942 L 650 944 Q 647.3 942.9 648 945.5 L 644 952 Q 641.3 950.9 642 953.5 L 629 965.5 Q 629.8 967.8 627.5 967 L 625 971 L 619.5 974 L 617 973 L 616.5 970 L 616 972 L 614 971.5 Q 616.5 970 613 968.5 L 605 942 L 602 943.5 L 589.5 959 L 581.5 966 L 571.5 966 L 567.5 960 L 562 956.5 L 560 953.5 L 547.5 935 L 530 960 L 528 960 Q 529.1 962.7 526.5 962 L 521 970 L 518.5 971 L 508 968 L 506 961 L 500 956.5 L 486.5 933 L 486 935.5 L 474 950 Q 471.3 948.9 472 951.5 L 463 960.5 L 463 962 Q 460.3 960.9 461 963.5 L 455.5 970 L 448.5 969 L 440 961.5 Q 433.3 945.3 421.5 934 Q 411.9 949.4 398.5 961 L 395.5 963 L 394 967 L 392 967.5 L 393 969.5 L 391 969.5 L 389 975 L 385.5 977 L 383.5 976 L 381.5 976 L 379 974.5 Q 379.8 972.3 377.5 973 Q 376.3 969.3 372 970 L 370 957.5 L 370 927.5 L 368 916.5 L 368 880.5 L 366 872.5 L 365 847.5 L 361 829.5 L 361 819.5 L 357 796.5 L 357 774.5 L 351 749.5 L 351 737.5 L 350 735.5 L 350 733.5 L 349 703.5 L 348 702.5 L 348 694.5 L 346 684.5 L 346 660.5 L 348 650.5 L 349 615.5 L 350 614.5 L 350 610.5 L 350 586.5 L 354 570.5 L 354 561.5 L 355 560.5 L 355 558.5 L 356 547.5 L 360 539.5 L 363 525.5 L 369 512.5 L 371 502.5 L 383 479.5 L 389 471.5 L 389 469 Q 391.7 470.1 391 467.5 L 414.5 434 Q 416.8 434.8 416 432.5 L 417 430 L 418.5 430 L 427 421.5 L 452.5 395 L 466 383.5 Q 465.3 381.3 467.5 382 L 473.5 376 L 503.5 355 Q 515.5 350.5 524.5 343 L 542.5 334 L 555.5 330 L 563.5 325 L 593.5 317 L 610.5 310 L 653.5 297 L 658.5 297 L 672.5 293 L 677.5 293 L 686.5 290 L 704.5 289 L 709.5 288 L 711.5 286 L 738.5 282 L 742.5 283 L 743.5 282 L 786.5 282 L 787.5 283 L 805.5 283 L 807.5 282 L 809.5 282 L 818.5 282 L 819.5 281 Z " />
</svg>