
<svg width="830" height="1660" version="1.1" xmlns="http://www.w3.org/2000/svg" desc="Created with imagetracer.js version 1.2.6" >
<path fill="rgb(0,0,0)" stroke="rgb(0,0,0)" stroke-width="1" opacity="1" d="M 619.5 53 L 626 55 Q 624.9 57.7 627.5 57 L 627.5 59 L 629 59.5 L 623.5 67 L 614 73 Q 610.3 82 603 88.5 L 602 92.5 L 593 106.5 L 583 126.5 L 577 143.5 L 575 154.5 L 571 162.5 L 571 167.5 L 572 168.5 L 572 180.5 L 571 181.5 L 571 192.5 L 572 194.5 L 571 197.5 L 571 199.5 L 572 213.5 L 571 214.5 L 571 223.5 L 572 226.5 L 572 228.5 L 575 241.5 L 575 246.5 L 586 272.5 L 606.5 302 L 617 300 L 620.5 295 L 632.5 291 L 636.5 291 L 639.5 289 L 643.5 289 L 659.5 283 L 674.5 280 L 676.5 280 L 692.5 279 L 693.5 278 L 695.5 278 Q 700.3 279.3 701.5 277 L 735.5 277 L 737.5 275 L 749.5 275 L 751.5 275 Q 755 277.5 762.5 276 L 766.5 278 L 776.5 278 L 777.5 279 L 823.5 279 L 830 280 L 830 300.5 L 828.5 302 L 794.5 301 L 793.5 300 L 781.5 300 L 780.5 299 L 779.5 300 L 767.5 300 L 752.5 296 L 741.5 295 L 739.5 295 L 736.5 297 L 715.5 297 L 710.5 299 L 701.5 299 L 700.5 300 L 669.5 303 L 645.5 311 L 637.5 312 L 619 319 Q 620.3 322 616.5 321 L 608.5 324 L 603 319.5 L 601.5 317 L 597.5 316 L 586 307 L 586 305 Q 583.3 306.1 584 303.5 L 573 285.5 L 565 275.5 Q 558.9 265.6 556 252.5 L 556 250.5 L 553 234.5 L 553 205.5 L 554 201.5 L 554 199.5 L 554 186.5 L 556 180.5 L 557 169.5 L 556 165.5 L 559 155.5 L 559 148.5 L 563 138.5 L 563 133.5 Q 565.6 132.1 565 127.5 Q 571.3 119.3 573 106.5 L 583 93.5 L 581.5 93 L 577 99 Q 574.3 97.9 575 100.5 L 569.5 107 L 559 114.5 L 547 129.5 L 540 144.5 Q 537.7 158.2 532 168.5 L 532 170.5 L 526 185.5 L 521 209.5 L 521 218.5 L 519 226.5 L 519 237.5 L 518 238.5 L 518 259.5 L 517 264.5 L 518 266.5 L 518 268.5 L 518 280.5 L 523 309.5 Q 526.8 323.3 534 333 L 537 334.5 L 540 338.5 L 541 343.5 L 539 350.5 L 535.5 354 L 515.5 352 L 502 340.5 L 496.5 334 L 490 328.5 L 488 325.5 L 464 293.5 L 454 273.5 Q 451.7 261.3 446 252.5 L 440 229.5 L 440 223.5 L 438 216.5 L 437 196.5 L 436 195.5 L 436 185.5 L 435 184.5 L 434 169.5 L 432 163.5 L 433 160 Q 430.3 158.9 431 161.5 L 429 168.5 L 430 170.5 L 425 189.5 L 424 212.5 L 423 213.5 L 423 223.5 L 422 224.5 L 422 241.5 L 421 242.5 L 423 253.5 L 424 275.5 L 426 282.5 L 426 284.5 L 428 291.5 L 428 293.5 L 434 314.5 L 436 316.5 L 437 321.5 L 442 329.5 L 443 334 Q 445.7 332.9 445 335.5 Q 454.7 353.8 468 368.5 L 470 375 L 473 375.5 L 472 378.5 L 473 382.5 Q 466.4 395.4 455.5 404 Q 453.3 403.3 454 405.5 L 433 434.5 L 426 449.5 L 419 457.5 L 413 474.5 L 409 480.5 L 402 498.5 Q 404.5 500 401 501.5 L 387 539.5 L 387 543.5 L 381 566.5 L 381 568.5 L 380 586.5 L 378 594.5 L 378 596.5 L 378 619.5 L 379 621.5 L 379 623.5 L 378 626.5 L 379 627.5 L 379 637.5 L 380 638.5 L 379 642.5 L 380 643.5 L 380 658.5 L 382 664.5 L 383 682.5 L 389 705.5 L 389 709.5 L 393 723.5 L 400 740.5 L 401 746.5 L 407 758.5 L 410 761.5 L 410 763.5 L 410 766 Q 413 764.8 412 768.5 L 414.5 773 L 416 772.5 L 415 775 L 417 775.5 L 417 777.5 L 419 780.5 L 428 794.5 L 442.5 810 L 456 822.5 L 457.5 825 L 478 840.5 Q 477.3 842.8 479.5 842 L 497.5 856 L 515.5 864 L 543.5 882 L 563.5 890 L 566.5 890 L 571.5 893 L 577.5 893 L 580.5 895 L 601.5 900 L 610.5 904 L 617.5 904 Q 622.9 907.1 631.5 907 L 642.5 911 L 673.5 915 L 689.5 919 L 700.5 919 L 701.5 920 L 706.5 919 L 709.5 920 L 731.5 920 Q 733 922.5 738.5 921 L 739.5 920 L 758.5 920 L 761.5 919 L 762.5 920 L 776.5 920 L 778.5 920 L 788.5 920 L 789.5 919 L 792.5 920 L 794.5 920 L 798.5 919 L 817.5 919 L 825.5 917 L 830 918 L 830 937.5 L 828.5 938 L 826.5 938 L 815.5 938 L 813.5 939 L 812.5 938 L 796.5 938 L 794.5 937 L 792.5 937 Q 789 939.5 781.5 938 L 778.5 937 L 777.5 938 L 739.5 938 Q 737.8 940.8 731.5 939 L 730.5 938 Q 723 939.5 719.5 937 L 716.5 938 L 715.5 937 L 690.5 937 L 662.5 931 L 645.5 930 L 614.5 921 L 600.5 919 L 592.5 915 L 581.5 913 L 574.5 910 L 572.5 910 Q 549.5 904 530.5 894 L 504.5 878 L 491.5 872 L 479.5 862 L 464 852 Q 465.1 849.3 462.5 850 L 444 832.5 L 440.5 828 L 437.5 827 L 427 817.5 Q 427.8 815.3 425.5 816 L 408.5 793 Q 406.3 793.8 407 791.5 L 403 787.5 Q 396.9 770.6 387 757.5 L 381 740.5 L 379 738.5 L 379 734.5 L 369 706.5 L 365 687.5 L 365 677.5 L 363 669.5 L 363 667.5 L 361 646.5 L 360 645.5 L 361 643.5 L 360 642.5 L 360 622.5 L 359 621.5 L 359 597.5 L 360 596.5 L 360 584.5 L 361 583.5 L 360 581.5 L 361 580.5 L 362 565.5 L 364 560.5 L 364 555.5 L 366 550.5 L 368 537.5 L 379 510.5 L 379 507.5 L 382 501.5 L 382 497.5 L 387 487.5 L 388 482.5 Q 394.8 474.2 397 461.5 L 406 447.5 L 407 442.5 L 417 423.5 L 440.5 392 L 443 390.5 L 445 387.5 L 450 381.5 L 450 379.5 Q 432 360.3 422 334 Q 419.3 335.1 420 332.5 L 414 319.5 L 408 297.5 L 408 293.5 L 406 290.5 L 406 288.5 Q 406.9 280.1 404 275.5 L 404 264.5 L 403 263.5 L 403 261.5 L 403 251.5 L 402 250.5 L 402 248.5 L 402 240.5 L 403 239.5 L 402 237.5 L 404 227.5 L 404 215.5 L 405 214.5 L 406 197.5 L 412 169.5 L 411 167.5 L 425 120.5 L 435 99.5 L 438.5 96 Q 441.1 96.7 440 94 L 443.5 94 L 446 93 L 446.5 91 L 448.5 92 L 453 91 Q 451.9 93.7 454.5 93 L 457 92 L 456 94.5 L 458 98.5 L 455 105.5 L 455 113.5 L 452 127.5 L 453 130.5 L 452 131.5 L 452 163.5 L 454 169.5 L 455 185.5 L 456 186.5 L 456 198.5 L 458 205.5 L 458 207.5 L 460 226.5 L 463 238.5 L 475 272.5 L 484 287.5 L 485 291.5 L 499 312 Q 501.7 310.9 501 313.5 L 506 317.5 L 504 311.5 L 504 305.5 L 501 291.5 L 501 282.5 L 500 281.5 L 500 250.5 L 501 249.5 L 501 232.5 L 502 231.5 L 503 208.5 L 508 190.5 L 508 186.5 L 515 169.5 L 515 167.5 L 521 146.5 L 531 124.5 Q 538.3 118.3 542 108.5 L 548.5 102 Q 555 100.5 558 95.5 L 566.5 85 L 588.5 66 Q 591.8 63.3 598.5 64 L 613.5 55 Q 618.1 55.6 619.5 53 Z " />
</svg>