
<svg width="830" height="1660" version="1.1" xmlns="http://www.w3.org/2000/svg" desc="Created with imagetracer.js version 1.2.6" >
<path stroke="rgb(1,1,1)" stroke-width="1" opacity="1" d="M 618.5 24 L 644.5 24 L 649 28.5 L 650.5 31 L 653.5 33 L 657 35 Q 655.9 37.7 658.5 37 L 678.5 49 L 688 52 L 690 55.5 L 689 58.5 L 689 60.5 Q 689.8 63.1 686.5 62 L 684 63 L 685 65.5 L 683 66 L 681 71.5 L 672 80.5 L 666 91.5 L 658 100.5 L 648 121.5 L 640 150.5 L 640 152.5 L 639 178.5 L 640 179.5 L 640 198.5 L 642 206.5 L 641 209.5 L 644 218.5 L 644 222.5 L 646 225.5 L 648 244.5 L 652 258.5 L 652 262.5 L 656 270.5 L 658 278.5 L 663 286.5 L 663.5 291 L 679.5 285 L 702.5 282 L 704.5 283 L 706.5 283 L 720.5 282 Q 722 284.5 727.5 283 L 728.5 282 L 759.5 282 L 760.5 281 L 768.5 281 L 769.5 282 L 788.5 282 L 789.5 283 L 794.5 282 L 796.5 282 L 800.5 283 L 817 283 L 818.5 280 L 820.5 279 L 821.5 280 L 830 280 L 830 299.5 L 828.5 301 L 826.5 300 L 824.5 300 Q 816.2 303.7 802.5 302 L 796.5 300 L 794.5 301 L 792.5 301 L 779.5 299 Q 778.2 301.2 773.5 300 L 772.5 299 L 733.5 299 L 731.5 299 L 729.5 300 L 718.5 300 L 716.5 300 L 705.5 301 Q 703.8 298.3 697.5 300 L 669.5 307 L 667.5 307 Q 664.3 309.3 657.5 308 L 654 307 L 654 305 Q 651.3 306.1 652 303.5 L 652 299.5 L 652 297.5 L 645 287.5 L 636 264.5 L 636 262.5 L 634 247.5 L 632 241.5 L 632 233.5 L 630 230.5 L 626 211.5 L 624 181.5 Q 626.5 180 623 178.5 L 623 156.5 L 624 155.5 L 624 147.5 L 627 140.5 L 627 138.5 L 631 117.5 L 638 100.5 L 645 86.5 L 661.5 65 Q 663.8 65.8 663 63.5 L 663.5 62 Q 647.8 55.2 635.5 45 L 629.5 52 L 615 63.5 L 601 84.5 Q 596.2 98.7 588 109.5 L 585 120.5 L 578.5 128 L 570.5 130 L 569.5 129 L 557.5 129 L 553 124.5 L 545 111 L 543 111 Q 544.1 108.3 541.5 109 L 537 107 Q 538.3 104 534.5 105 L 517.5 94 L 494.5 88 L 475.5 95 L 473.5 97 L 465 98 L 464 101.5 L 465 103.5 L 463 111.5 L 463 113.5 L 462 143.5 L 461 149 L 473.5 147 L 475.5 148 L 476.5 147 L 492.5 147 L 500.5 149 L 502.5 149 L 511.5 149 L 521.5 151 L 535.5 159 L 537.5 159 Q 540.8 157.9 540 160.5 L 547 169 L 551 171.5 L 562 187.5 L 567 201.5 L 570 205.5 Q 569.3 211.2 572 213.5 L 572 218.5 L 576 237.5 L 576 278.5 L 577 279.5 Q 574.2 281.3 576 287.5 L 577 290.5 L 576 292.5 L 576 294.5 L 576 302.5 L 577 303.5 L 577 305.5 L 577 309 Q 579.7 307.9 579 310.5 Q 581.5 312 580 317.5 L 579 320.5 L 570.5 329 L 561.5 333 L 558.5 333 L 531 350 Q 532.1 352.7 529.5 352 L 518.5 360 L 510.5 363 L 497.5 364 L 494.5 363 L 487 355.5 L 475 336.5 L 469 322.5 L 464 297.5 L 463 260.5 L 470 225.5 L 470 219.5 L 473 212.5 L 468 208.5 L 465.5 205 L 454 197 Q 455.1 194.3 452.5 195 L 440.5 184 L 435 198.5 L 434 207.5 L 432 211.5 L 432 213.5 L 432 224.5 L 431 225.5 L 432 228.5 L 431 229.5 L 431 244.5 L 425.5 253 L 417.5 256 L 409.5 256 L 405.5 254 L 374.5 239 L 370.5 239 L 359.5 235 Q 352.1 235.9 348.5 233 L 346.5 233 L 339.5 233 L 334.5 235 L 321.5 237 L 313 244.5 L 313 246.5 L 317 262.5 L 319 265.5 L 321 276.5 L 325 284.5 L 326 293 L 349.5 289 L 351.5 289 L 367.5 288 L 369.5 289 L 371.5 289 Q 394.3 291.7 406 305.5 Q 405.3 307.8 407.5 307 L 409 310 L 413 312.5 L 430 337.5 L 439 357.5 L 439 360.5 L 441 362.5 L 444 375.5 L 448 385.5 L 449 404.5 L 451.5 410 Q 453.8 409.3 453 411.5 L 454 416.5 L 443 434.5 L 439 438.5 L 442 444.5 L 437 454 L 432 457.5 L 423 470 L 411 479.5 L 397 507.5 L 389 533.5 L 382 568.5 L 383 573.5 L 382 576.5 L 381 587.5 L 381 589.5 L 381 639.5 L 382 644.5 L 382 646.5 L 382 656.5 L 384 662.5 L 387 686.5 L 389 690.5 L 390 698 Q 393.3 696.7 392 701.5 Q 400.2 718.3 405 738.5 L 431 784 Q 433.7 782.9 433 785.5 L 453.5 809 L 461 814 L 463.5 818 L 468 821.5 L 469.5 824 L 488.5 838 L 496.5 841 L 511.5 851 L 557.5 874 L 560.5 874 L 576.5 881 L 580.5 881 L 596.5 887 L 600.5 887 L 602.5 889 L 609.5 891 L 617.5 892 L 631.5 897 L 653.5 901 L 665.5 905 L 671.5 905 L 678.5 908 L 680.5 908 L 700.5 913 L 710.5 915 L 718.5 915 L 719.5 916 L 721.5 916 L 738.5 917 L 739.5 918 L 743.5 917 Q 745.3 919.7 751.5 918 L 753.5 918 L 756.5 917 L 757.5 918 L 773.5 918 L 780.5 920 L 791.5 920 L 793.5 920 L 795.5 919 L 797.5 920 Q 798.8 917.7 803.5 919 Q 808.5 922 817.5 921 L 818.5 920 L 830 920 L 830 940 L 805.5 940 L 804.5 939 L 798 939 L 797.5 941 L 789.5 941 L 784.5 942 L 782.5 942 L 780.5 941 L 767.5 941 L 766.5 940 L 734.5 940 L 733.5 939 L 717.5 938 L 716.5 937 L 706.5 937 L 669.5 928 L 667.5 929 L 652.5 923 L 631.5 919 L 611.5 913 L 607.5 913 L 604.5 911 L 597.5 910 L 583.5 904 L 569.5 901 L 553.5 895 L 525.5 882 L 503.5 870 L 495.5 864 L 481.5 858 L 452 836 Q 453.1 833.3 450.5 834 L 438 822.5 L 417 798.5 L 410 784 Q 407.3 785.1 408 782.5 L 392 751.5 L 388 736.5 L 384 728.5 L 378 708.5 L 376 706.5 L 375 699.5 L 373 697.5 L 371 687.5 L 371 679.5 L 366 660.5 Q 367.8 654.3 365 652.5 L 365 629.5 L 364 628.5 L 365 627.5 L 365 608.5 L 365 606.5 L 365 586.5 L 366 585.5 L 366 581.5 L 367 569.5 L 366 564.5 L 371 541.5 L 371 534.5 L 376 521.5 L 380 503.5 L 383 495.5 L 388 488.5 L 392 477.5 L 400.5 468 L 405 466 L 404 462.5 L 404 460.5 Q 407.2 447.7 415 439.5 L 415 437.5 L 432 415.5 L 432 412.5 L 431 411.5 L 430 393.5 L 425 375.5 Q 420.5 369 419 359.5 L 409 340 L 406 338.5 Q 399.4 325.1 388.5 316 L 378.5 311 L 374.5 311 L 365.5 308 L 357.5 308 L 351.5 308 L 348.5 309 L 346.5 309 L 344.5 308 L 343.5 309 L 328.5 309 L 321.5 312 L 315.5 312 L 310 307.5 L 308 296.5 L 300 275.5 L 298 263.5 L 296 259.5 Q 296.6 253.4 294 250.5 L 294 236.5 L 299.5 230 L 312.5 221 L 321.5 217 L 328.5 217 L 344.5 213 L 353.5 213 L 372.5 217 L 391.5 223 L 406.5 231 L 408.5 231 L 410 230.5 L 410 217.5 L 412 211.5 L 412 209.5 L 414 197.5 L 418 185.5 L 420 183.5 L 420 180.5 L 420 178.5 Q 421 170.4 425 166 L 427 166 L 429 162 L 431.5 162 L 435.5 160 L 439.5 160 L 444 163.5 Q 443.3 165.8 445.5 165 L 448 166 Q 449.1 163.3 446.5 164 L 441 158.5 L 440 143.5 L 441 140.5 L 442 119.5 L 443 118.5 L 443 109.5 L 445 99.5 L 445 97.5 Q 443.7 92.7 446 91.5 L 446 89.5 Q 446.3 82.3 451.5 80 L 463.5 76 L 473.5 75 L 487.5 70 L 505.5 70 L 527.5 75 L 541.5 81 Q 554.7 89.3 565 100.5 L 566.5 103 L 579 79.5 L 605.5 44 L 614 38.5 L 617 25.5 L 618.5 24 Z M 474 163 L 462 166 L 449 167 L 461 176 Q 463 175 462 178 L 485 198 Q 487 197 486 200 L 496 208 L 495 213 L 488 226 L 488 232 L 482 259 L 482 285 L 483 286 L 483 296 L 485 306 L 485 308 L 487 310 L 491 325 Q 496 337 504 346 L 519 335 Q 529 332 536 326 Q 538 327 537 325 Q 546 316 559 314 L 558 307 L 558 305 L 557 302 L 558 300 L 557 299 L 557 277 L 557 275 L 556 274 L 556 241 L 554 241 L 555 238 L 555 236 L 553 227 L 551 227 L 552 224 L 550 224 L 552 223 L 551 217 L 548 216 L 550 216 L 547 206 L 538 191 L 538 189 L 536 189 Q 537 186 535 187 L 524 174 L 514 168 L 506 166 L 496 166 L 492 164 L 486 164 L 484 164 L 483 163 L 474 163 Z " />
<path stroke="rgb(1,1,1)" stroke-width="1" opacity="1" d="M 691 399 L 695 400.5 L 691 401 L 691 399 Z " />
</svg>