
<svg width="830" height="1660" version="1.1" xmlns="http://www.w3.org/2000/svg" desc="Created with imagetracer.js version 1.2.6" >
<path fill="rgb(0,0,0)" stroke="rgb(0,0,0)" stroke-width="1" opacity="1" d="M 767.5 282 Q 772.2 280.8 773.5 283 L 776.5 282 L 777.5 283 L 808.5 283 L 809.5 282 L 830 282 L 830 301 L 793.5 301 L 792.5 300 L 777.5 300 L 776.5 299 L 773.5 300 L 771.5 299 L 770.5 300 L 763.5 300 L 757.5 302 L 746.5 303 L 726.5 308 L 717.5 308 L 711.5 310 L 709.5 309 L 694.5 312 L 692.5 312 L 686.5 312 L 671.5 316 L 661.5 317 L 652.5 320 L 642.5 321 L 625.5 326 L 604.5 329 L 574.5 339 L 568.5 343 L 560.5 345 L 537.5 355 L 528.5 361 L 510.5 369 L 499.5 376 L 471 399.5 L 466.5 405 L 463 407.5 L 462 411.5 L 454.5 421 L 451 422.5 Q 444.3 431.3 441 443.5 L 432 456.5 L 412 498.5 L 412 502.5 L 407 514.5 L 395 557.5 L 394 569.5 L 389 588.5 L 387 621.5 L 388 626.5 L 386 630.5 L 386.5 632 L 384 633.5 L 384.5 636 L 386 636.5 L 379.5 641 L 366.5 649 L 362.5 649 L 341 660 Q 342.1 662.7 339.5 662 L 324 672.5 Q 324.7 675.1 322 674 L 322 676 L 320.5 676 L 317.5 680 L 310 685.5 L 300 698.5 L 285 725.5 L 278 746.5 L 276 757.5 L 276 765.5 L 275 766.5 L 275 768.5 L 276 783.5 L 280 794.5 L 283 809.5 L 294 828 L 313 842.5 Q 312.3 844.8 314.5 844 L 328 853 Q 329.1 850.3 326.5 851 L 310 824.5 L 304 804.5 L 304 802.5 L 304 790.5 L 305 789.5 L 304 787.5 L 305 784.5 L 305 767.5 L 312 744.5 L 318 732.5 L 336.5 712 L 339.5 710 L 347.5 702 L 357.5 698 L 370.5 689 L 376.5 688 L 383 690.5 L 384 695 Q 387.8 694.3 389 697.5 L 424 754.5 L 434 768 Q 436.7 766.9 436 769.5 L 449.5 784 Q 465.8 794.2 478.5 808 L 488 813 L 489.5 816 L 497 821 L 497 823 L 499 823 Q 497.9 825.7 500.5 825 L 502 828 L 509.5 833 L 512.5 833 L 532.5 847 L 543.5 852 L 563.5 865 L 572.5 868 L 574.5 868 Q 587.5 876 604.5 880 L 619.5 888 L 639.5 894 L 642.5 897 L 662.5 901 L 676.5 907 L 683.5 908 L 709.5 916 L 711.5 916 L 738.5 919 L 742.5 919 L 757.5 921 L 761.5 923 L 772.5 925 L 774.5 925 L 778.5 926 L 779.5 925 L 789.5 925 L 790.5 924 L 801.5 923 L 803.5 923 L 807.5 922 L 830 922 L 830 942 L 818.5 942 L 808.5 944 L 797.5 944 L 796.5 943 L 786.5 943 L 785.5 944 L 770.5 944 L 752.5 939 L 743.5 933 L 741.5 933 L 737.5 934 L 731.5 932 L 716.5 932 L 710.5 930 L 699.5 929 L 669.5 921 L 648.5 918 L 622.5 910 L 600.5 899 L 573.5 889 L 571.5 889 L 526.5 865 L 508.5 852 L 491 842 L 489.5 839 L 484.5 835 L 476.5 829 L 475 829.5 Q 477.3 828.2 474.5 827 L 472.5 826 L 471 826.5 L 472 824.5 L 470 823.5 L 469.5 825 L 466.5 820 L 463 819 Q 464.1 816.3 461.5 817 L 453 810 L 451.5 807 L 425 783.5 L 405.5 757 L 404 757.5 L 405 755.5 L 379 714.5 L 379 711.5 L 377 709.5 L 375.5 704 L 367.5 711 L 356 716 L 356 718 L 354 718 L 354 720 L 352 720 L 352 722 Q 349.3 720.9 350 723.5 L 346 726 L 335 739.5 L 329 752.5 L 324 769.5 L 324 781.5 L 322 791.5 L 323 792.5 L 323 805.5 L 324 806.5 L 324 808.5 L 325 819.5 L 331 834 Q 333.7 832.9 333 835.5 L 341 848 L 343 848 Q 341.9 850.7 344.5 850 L 347 854 Q 349.7 852.9 349 855.5 L 350 859.5 L 344.5 868 L 335.5 868 L 334.5 869 L 332.5 869 L 318.5 866 L 314.5 862 L 310.5 861 L 297.5 852 L 281 837.5 L 280 834 L 276 831.5 L 269 820.5 L 261 795.5 Q 261.6 789.4 259 786.5 L 259 755.5 L 261 749.5 L 261 744.5 L 265 734.5 L 265 730.5 L 275 707.5 Q 286.8 686.8 302.5 670 L 305 668.5 L 304 667.5 L 311.5 660 L 349.5 635 L 355.5 632 Q 364 631.7 369 629 L 367.5 626 L 366 625.5 L 366 616.5 L 367 615.5 Q 365.6 606.6 368 601.5 L 368 599.5 L 369 582.5 L 374 563.5 L 376 545.5 Q 378.6 542.6 378 536.5 L 382 528.5 L 382 526.5 L 390 501.5 L 390 499.5 L 397 482.5 L 405 469.5 L 405 466.5 L 416 444.5 L 419 441.5 L 419 439 Q 422 440.3 421 436.5 L 427 428.5 L 429 421.5 L 452.5 387 L 459 383 L 459 381 L 461 381 Q 459.9 378.3 462.5 379 L 490.5 357 L 492.5 357 L 507.5 347 L 527.5 337 L 532.5 336 L 540.5 331 L 543.5 331 Q 554.5 324 569.5 321 L 573.5 318 L 576.5 318 L 591.5 312 L 606.5 310 L 610.5 308 L 619.5 307 L 645.5 300 L 652.5 300 L 677.5 294 L 701.5 292 L 705.5 290 L 709.5 291 L 710.5 290 L 717.5 290 L 718.5 289 L 725.5 289 L 737 287 L 737.5 285 L 744.5 285 L 745.5 284 L 759.5 284 L 767.5 282 Z " />
<path fill="rgb(0,0,0)" stroke="rgb(0,0,0)" stroke-width="1" opacity="1" d="M 201.5 821 L 206 821.5 L 202.5 823 L 200 824.5 Q 200.8 826.8 198.5 826 L 196.5 827 L 197.5 825 Q 199.8 825.8 199 823.5 L 201.5 821 Z " />
</svg>