
<svg width="830" height="1660" version="1.1" xmlns="http://www.w3.org/2000/svg" desc="Created with imagetracer.js version 1.2.6" >
<path fill="rgb(2,2,2)" stroke="rgb(2,2,2)" stroke-width="1" opacity="1" d="M 756.5 281 L 759.5 282 L 761.5 282 L 763.5 281 L 765.5 282 L 770.5 281 L 772.5 282 L 774.5 282 L 776.5 281 L 801.5 281 L 802.5 282 L 830 282 L 830 301.5 Q 829.9 302.6 824.5 302 L 822.5 302 L 793.5 302 L 791.5 301 L 789.5 301 L 769.5 299 L 765.5 296 L 764.5 297 L 750.5 297 L 748.5 298 L 746.5 298 L 743.5 297 L 741.5 298 L 740.5 297 L 729 297 Q 730.4 293 723.5 295 L 719.5 297 L 698.5 300 L 689.5 303 L 683.5 303 L 660.5 309 L 644.5 311 L 637.5 313 L 634.5 316 L 617.5 320 L 575.5 337 L 552.5 344 L 534.5 354 L 531.5 354 L 519.5 362 L 516.5 362 L 498 374 Q 499.1 376.7 496.5 376 L 468 396 L 465.5 400 Q 463.3 399.3 464 401.5 L 449 417.5 L 430 444.5 Q 426.5 456.5 419 464.5 L 414 476.5 L 414 479.5 L 407 492.5 L 405 502.5 L 398 519.5 L 397 528.5 L 397 530.5 L 396 537 L 392.5 536 L 389.5 540 Q 384 544.5 372.5 543 L 371.5 542 L 363.5 542 Q 342.5 547 331 561.5 L 329 564.5 L 318 583.5 L 318 585.5 L 316 589.5 L 314 601.5 L 315 602.5 L 315 615.5 L 314 616.5 L 314 632.5 L 316 639.5 L 316 641.5 Q 319 665.5 335.5 676 L 359.5 689 L 366.5 690 L 369.5 692 L 381.5 692 L 385.5 691 L 387 691.5 L 390.5 686 Q 394.9 687.5 394 684.5 L 396 684.5 Q 395.3 682.3 397.5 683 L 399 682.5 Q 398.3 684.8 400.5 684 L 402.5 683 L 405 684 L 409 696.5 L 409 704.5 L 412 711.5 L 415 725.5 L 426 746.5 L 430 760.5 L 432 762.5 L 436 773.5 L 447 793.5 L 464 816.5 L 471.5 824 L 474.5 826 L 477 830 L 479 830 Q 477.9 832.7 480.5 832 L 510.5 859 L 512 859 Q 510.9 861.7 513.5 861 L 534.5 876 L 576.5 897 L 593.5 902 L 600.5 902 L 637.5 909 L 638.5 908 L 648.5 908 L 684.5 916 L 699.5 917 L 708.5 920 L 717.5 920 L 757.5 927 L 775.5 927 L 778.5 928 L 780.5 927 L 784.5 927 L 797.5 926 L 800.5 924 L 819 921 L 819 919 L 824 919 L 824.5 921 L 827.5 920 L 830 922.5 L 830 941 L 811.5 940 Q 809.7 942.7 803.5 941 L 799.5 940 L 798.5 941 L 772.5 942 L 771.5 941 L 763.5 941 L 761.5 941 L 736.5 939 L 715.5 935 L 711.5 935 L 687.5 934 L 641.5 925 L 639.5 925 Q 636.3 927.3 629.5 926 L 623.5 924 L 612.5 923 L 601.5 919 L 580.5 916 L 540.5 900 L 524 891 Q 525.1 888.3 522.5 889 L 454 840 Q 455.1 837.3 452.5 838 L 450 834 L 444 829.5 L 439 821.5 L 439 816.5 L 433 808.5 L 421 786.5 L 417 775.5 L 415 773.5 L 409 754.5 L 403 746.5 L 399 733.5 L 399 731.5 L 398.5 727 L 397 727.5 L 398 725 L 394 722.5 L 390 705 L 375.5 710 L 368.5 710 L 353.5 707 L 337.5 699 L 324.5 691 L 315 681.5 L 309 673 Q 306.3 674.1 307 671.5 L 301 660.5 L 301 655.5 L 296 637.5 L 296 609.5 Q 298.5 608 297 602.5 L 296 598.5 L 298 592.5 L 298 587.5 L 302 578.5 L 302 575.5 L 304 573.5 L 304 570.5 L 311 560.5 L 315 551.5 L 321.5 545 L 331 538.5 Q 330.3 536.3 332.5 537 L 336.5 533 L 344.5 530 L 357.5 522 L 376.5 522 L 379.5 523 Q 382.1 523.8 381 520.5 L 386 502.5 L 392 488.5 L 392 485.5 L 398 474.5 L 398 471.5 Q 403.5 463.5 406 452.5 L 413 442.5 L 421 426.5 L 444 396 Q 446.7 397.1 446 394.5 L 456.5 384 L 476.5 368 L 484.5 364 L 500.5 352 L 530.5 336 L 583.5 314 L 592.5 312 L 620.5 301 L 627.5 300 L 638.5 294 L 681.5 286 L 683.5 286 L 708.5 284 L 709.5 283 L 722.5 283 L 724.5 284 L 726.5 283 L 728.5 283 L 744.5 283 L 745.5 282 L 755.5 282 L 756.5 281 Z " />
</svg>