
<svg width="830" height="1660" version="1.1" xmlns="http://www.w3.org/2000/svg" desc="Created with imagetracer.js version 1.2.6" >
<path stroke="rgb(1,1,1)" stroke-width="1" opacity="1" d="M 686.5 174 L 699.5 174 L 700.5 175 L 713.5 175 L 714.5 176 L 717.5 175 L 720.5 174 L 720.5 176 L 724.5 175 L 726.5 176 L 728.5 176 L 730.5 175 L 734.5 177 L 736.5 178 L 739 177 L 739.5 179 L 741.5 179 L 744.5 179 L 749.5 183 L 752 182 L 753.5 185 Q 770 190 780 201.5 L 790 219.5 Q 789.4 225.6 792 228.5 L 792 242.5 L 790 251.5 L 790 259.5 L 787 263.5 Q 786.6 274.1 781 279.5 L 782 280.5 L 779 283.5 L 778 285.5 L 780.5 286 L 790.5 283 L 796.5 283 L 798.5 281 Q 807.5 282 812.5 279 L 830 279 L 830 299 L 802.5 299 L 782.5 307 L 765.5 307 L 760 305 L 758 301.5 L 757 291 L 759 291 Q 757.9 288.3 760.5 289 L 764 285.5 L 763 284.5 L 762 281.5 L 771 257.5 L 773 230.5 L 769 217.5 L 760.5 208 L 743.5 198 L 735.5 195 L 713.5 194 L 702.5 192 L 689.5 192 L 669.5 196 L 659.5 202 L 644 216.5 L 642 219.5 L 630 238.5 L 628 245.5 L 628 265.5 L 632 283.5 L 641 301.5 Q 637.8 304.8 639 312.5 L 636.5 317 Q 626.6 315.6 621.5 319 L 617.5 318 L 606.5 320 L 598.5 326 L 594 327 L 593 329.5 L 594 330.5 L 588.5 336 L 578.5 338 L 575 337 Q 576 334 573 335 L 573 331.5 L 568 321.5 L 568 317.5 L 573 309.5 L 572 306.5 L 578 294.5 L 580 286.5 L 580 281.5 L 582 275.5 L 583 249.5 Q 580.8 248.2 582 243.5 L 573.5 233 L 551.5 223 L 538.5 221 L 521.5 229 L 507.5 233 L 479.5 246 L 459 263.5 L 457 266.5 L 456 269 Q 453 267.8 454 271.5 Q 439.7 286.2 434 309.5 L 435 311.5 L 431 323.5 L 431 334.5 L 437 353.5 L 445 366.5 L 451.5 373 L 461.5 380 L 462.5 379 L 469 385.5 Q 468.7 392 466 395 L 462 396 L 456 405 Q 453.3 403.9 454 406.5 L 451 411 Q 448.3 409.9 449 412.5 L 438 428 L 434 429 Q 435.1 431.7 432.5 431 L 428 435.5 L 424 445.5 L 411 463.5 Q 405.9 479.9 397 492.5 L 397 495.5 L 385 524.5 L 376 568.5 L 377 571.5 L 376 574.5 L 374 591.5 L 373 592.5 L 373 599.5 L 372 600.5 L 372 621.5 L 373 622.5 L 373 646.5 Q 375.5 648 374 653.5 L 377 660.5 L 378 669.5 L 382 680.5 L 385 697.5 L 387 699.5 L 389 707.5 L 393 714.5 L 393 717.5 L 398 725.5 L 401 737.5 L 410 753 Q 412.7 751.9 412 754.5 L 415 761 Q 417.7 759.9 417 762.5 L 435 787.5 L 451.5 806 L 454 807.5 L 455.5 810 L 460 813.5 L 464.5 820 L 470 823 Q 468.9 825.7 471.5 825 Q 472 828.5 476.5 828 L 497.5 848 L 502.5 850 L 516.5 861 L 518.5 861 L 539.5 874 L 542.5 874 L 549.5 878 L 573.5 886 L 589.5 890 L 601.5 896 L 616.5 900 L 625.5 901 L 633.5 904 L 635.5 904 L 669.5 911 L 671.5 911 L 682.5 912 L 695.5 915 L 702.5 915 L 711.5 918 L 721.5 919 L 723.5 919 L 727.5 920 L 729.5 920 L 731.5 921 L 733.5 921 L 743.5 921 L 744.5 922 Q 746 919.5 751.5 921 L 753.5 922 L 755.5 921 L 757.5 922 L 759.5 921 L 762.5 922 L 767.5 921 L 790.5 921 L 791.5 922 L 799.5 922 Q 805.3 918.8 815.5 920 L 820.5 918 L 823.5 919 L 830 919 L 830 939 L 822.5 942 L 762.5 943 L 761.5 942 L 744.5 942 L 743.5 941 L 740.5 942 L 739.5 941 L 730.5 941 L 723.5 939 L 708.5 938 L 695.5 935 L 688.5 935 L 674.5 932 L 664.5 932 L 646.5 927 L 644.5 927 L 603.5 919 L 561.5 902 L 558.5 902 L 554.5 899 L 541.5 894 L 539.5 895 L 508.5 880 L 481.5 861 L 476 855.5 L 474.5 853 Q 472.3 853.8 473 851.5 L 457.5 840 L 449 831.5 L 439.5 821 Q 437.3 821.8 438 819.5 L 425 805.5 L 422 799 Q 419.3 800.1 420 797.5 L 411.5 786 Q 409.3 786.8 410 784.5 L 402 775.5 L 394 756 Q 391.3 757.1 392 754.5 L 384 741.5 L 384 736.5 L 375 715.5 L 372 711.5 L 373 709.5 L 362 675.5 L 362 673.5 L 357 659.5 L 357 655.5 L 357 653.5 L 357 630.5 L 356 629.5 L 357 626.5 L 355 616.5 L 355 614.5 L 356 612.5 L 356 608.5 L 357 591.5 L 359 586.5 L 359 579.5 L 361 569.5 L 360 567.5 L 366 536.5 L 372 513.5 L 382 489.5 L 382 486.5 L 386 481.5 L 391 467.5 L 405 441.5 L 405 438.5 L 411 427 L 416 423.5 L 417.5 421 L 421 418.5 L 439 391 Q 441.7 392.1 441 389.5 L 431 382 L 417 359.5 L 411 337.5 L 411 325.5 L 414 310.5 L 414 308.5 Q 413.9 299.9 417 294.5 L 424 280.5 L 430 273.5 L 434 263.5 L 439.5 257 L 443 254.5 Q 442.3 252.3 444.5 253 L 446 250 L 449 248.5 Q 448.3 246.3 450.5 247 Q 458.3 237.8 469.5 232 L 481.5 227 L 494.5 219 L 503 217 Q 501.7 213.7 506.5 215 L 527.5 206 L 544.5 202 Q 546 204.5 551.5 203 L 573.5 211 L 589.5 219 L 594 223.5 Q 593.3 226.1 596 225 L 596 227.5 L 602 235.5 Q 601.2 240.8 604 242.5 L 604 255.5 L 605 256.5 L 604 257.5 L 604 275.5 L 602 282.5 L 602 288.5 Q 599.8 300 595 308 L 604.5 307 L 620.5 302 L 622 302.5 L 615 287.5 L 611 269.5 L 611 267.5 L 610 247.5 L 612 239.5 L 615 235.5 L 616 229.5 L 622 217.5 L 631 204.5 L 639.5 196 L 668.5 178 L 686.5 174 Z " />
</svg>