
<svg width="830" height="1660" version="1.1" xmlns="http://www.w3.org/2000/svg" desc="Created with imagetracer.js version 1.2.6" >
<path fill="rgb(0,0,0)" stroke="rgb(0,0,0)" stroke-width="1" opacity="0.9764705882352941" d="M 787.5 279 L 830 279 L 830 299 L 794 298.5 L 794.5 297 L 791.5 298 L 788.5 297 L 784.5 299 Q 783 296.5 777.5 298 L 776.5 299 L 765.5 299 L 764.5 300 Q 762.7 297.2 756.5 299 L 753.5 300 L 740.5 304 L 731.5 305 L 728.5 304 L 709.5 305 L 708.5 304 L 700.5 304 L 699.5 305 L 675.5 305 L 674.5 304 L 662.5 304 L 661.5 305 L 651.5 305 L 649.5 304 L 648.5 305 L 587.5 305 L 585.5 306 L 583.5 306 L 574.5 306 L 573.5 307 L 544.5 307 L 528.5 310 L 514.5 310 L 513.5 311 L 503.5 311 L 502.5 312 L 483.5 312 L 482.5 313 L 480.5 312 L 479.5 313 L 461.5 314 L 453.5 316 L 445.5 316 L 444.5 317 L 417.5 320 L 396.5 325 L 394.5 325 L 383.5 326 L 355.5 333 L 346.5 334 L 307.5 345 L 285.5 353 L 261.5 367 L 257.5 367 L 251 373.5 Q 251.9 376.5 247.5 375 L 245.5 375 L 242.5 372 L 241.5 373 L 238.5 370 L 237 369.5 L 239 366 L 237 365.5 L 237 358.5 L 238 357.5 L 239 343.5 L 238 340.5 L 239 337.5 L 235 328 L 228 324 Q 229.1 321.3 226.5 322 L 216.5 315 L 200.5 308 L 168.5 305 L 148.5 314 L 138 322 Q 139.1 324.7 136.5 324 L 131.5 330 Q 129.3 329.3 130 331.5 L 122 341.5 L 118 351.5 Q 114.7 357.3 116 367.5 Q 118.7 370.8 118 377.5 L 122 385.5 L 126 401.5 L 135 414 L 137.5 414 L 145.5 420 L 152.5 424 L 155.5 424 L 165 430.5 Q 164.3 432.8 166.5 432 L 170 437.5 L 168 441.5 L 149.5 461 Q 147.3 460.3 148 462.5 Q 142.8 473.3 134 480.5 L 128 492.5 L 128 495.5 L 123 508.5 L 117 519.5 L 117 522.5 L 101 567.5 L 101 569.5 Q 101.6 575.6 99 578.5 L 99 587.5 L 98 588.5 L 98 603.5 L 99 606.5 L 98 608.5 Q 100.3 609.7 99 614.5 L 99 616.5 L 98 619.5 L 99 620.5 L 99 629.5 L 101 635.5 L 101 644.5 Q 104 651 104 660.5 L 110 676.5 L 110 681.5 L 122 721.5 Q 127.5 729.5 130 740.5 L 132 742.5 L 138 759.5 L 146 772.5 L 151 787.5 L 160 801 L 164 803.5 L 180.5 824 L 183.5 826 L 204.5 844 L 238.5 861 L 242.5 861 L 247.5 864 L 277.5 873 L 299.5 873 L 301.5 872 L 303.5 873 L 305.5 873 L 327.5 873 L 328.5 874 L 341.5 875 L 343.5 875 L 350.5 874 L 352.5 875 L 353.5 874 L 369.5 873 L 373.5 871 L 380.5 871 L 383.5 869 L 399.5 867 L 409.5 862 L 412.5 862 L 414.5 860 L 425.5 857 L 432.5 852 L 438.5 850 L 441.5 851 L 449.5 849 L 450.5 850 L 461.5 850 L 469.5 852 L 476.5 852 L 493.5 857 L 495.5 857 L 510.5 859 L 515.5 861 L 534.5 864 L 552.5 869 L 563.5 870 Q 567.5 873 574.5 873 L 576.5 873 L 581.5 873 L 598.5 877 L 606.5 877 L 631.5 883 L 650.5 885 L 655.5 888 L 657.5 887 L 663.5 890 L 668.5 890 L 677.5 893 L 683.5 893 L 689.5 896 L 692.5 895 L 695.5 896 L 702.5 898 L 707.5 897 L 707.5 898 L 706 898.5 L 708.5 900 L 713.5 900 Q 717.5 903 724.5 903 L 733.5 907 L 742.5 908 L 745.5 907 L 767.5 911 L 772.5 913 L 777.5 913 L 785.5 916 L 795.5 916 L 803.5 918 L 805.5 918 L 810.5 919 L 812.5 918 L 817.5 919 L 818.5 918 L 830 918 L 830 938 L 820.5 938 L 816.5 940 L 799.5 936 L 797.5 936 L 790.5 934 L 778.5 933 L 774.5 931 L 772.5 932 Q 768.5 929 760.5 930 L 757.5 928 L 755.5 928 L 743.5 926 L 739.5 927 L 714.5 922 L 702.5 917 L 694.5 916 L 677.5 910 L 663.5 910 L 649.5 906 L 642.5 906 L 608.5 899 L 592.5 898 L 579.5 895 L 562.5 894 L 558.5 892 L 543.5 890 L 527.5 885 L 517.5 884 L 494.5 878 L 489.5 878 L 477.5 874 L 473.5 874 L 469.5 872 L 465.5 872 L 446.5 867 L 437.5 874 L 396.5 890 L 378.5 892 L 377.5 893 L 369.5 893 L 364.5 895 L 333.5 895 L 332.5 894 L 320.5 894 L 318.5 893 L 316.5 894 L 315.5 893 L 289.5 893 L 286.5 894 L 273.5 893 L 252.5 885 L 248.5 885 Q 245.5 882 239.5 882 L 194.5 859 Q 181.6 850.9 172 839.5 Q 172.8 837.3 170.5 838 L 158.5 825 L 147 814.5 L 145.5 812 L 143 810.5 Q 140.3 801.2 134 795.5 L 127 777.5 L 120 767.5 L 111 745.5 L 109 743.5 L 109 741.5 L 101 721.5 L 99 709.5 L 93 690.5 L 93 686.5 L 91 683.5 L 89 672.5 L 84 659.5 L 80 637.5 L 79 608.5 L 79 606.5 L 80 604.5 L 80 583.5 L 85 556.5 L 89 545.5 L 90 538.5 L 92 535.5 L 98 514.5 L 106 496.5 L 106 492.5 L 119 469 Q 121.7 470.1 121 467.5 Q 126 464.5 127 457.5 L 135.5 449 L 138 447.5 L 142 439 Q 145 440 144 437 L 129.5 431 L 118.5 420 L 117 420 L 109 405.5 Q 106.9 393.6 101 385.5 L 99 374.5 L 99 356.5 L 105 335.5 L 109 328.5 L 108 327.5 L 111 324.5 L 120.5 312 L 123 310.5 L 128.5 304 L 131.5 302 L 141.5 294 L 150.5 291 L 152.5 289 L 164.5 285 L 173.5 284 L 174.5 285 L 186.5 285 L 198.5 288 L 200.5 287 L 212.5 290 Q 215.3 293.7 221.5 294 L 227.5 299 L 231.5 300 Q 235.9 305.4 243 307 Q 241.9 309.7 244.5 309 L 250 317 L 253 318.5 L 252 320.5 L 255 328 Q 258 326.8 257 330.5 L 258 331.5 L 258.5 344 L 271.5 335 L 303.5 324 L 320.5 321 L 331.5 317 L 367.5 308 L 397.5 304 L 398.5 303 L 405.5 303 L 416.5 300 L 418.5 300 L 438.5 298 L 445.5 296 L 455.5 296 L 470.5 293 L 506.5 292 L 507.5 291 L 530.5 290 L 546.5 287 L 557.5 287 L 559.5 288 L 562.5 287 L 567.5 288 L 574.5 286 L 588.5 286 L 589.5 285 L 591.5 285 L 605.5 285 L 606.5 284 Q 608.3 286.7 614.5 285 L 616.5 285 L 620.5 284 Q 621.8 286.3 626.5 285 L 628.5 285 Q 634 286.5 635.5 284 L 636.5 285 L 644.5 285 L 646.5 285 L 652.5 284 L 654.5 285 L 656.5 285 Q 661.3 286.3 662.5 284 L 664.5 284 L 668.5 285 L 672.5 284 L 674.5 284 L 678.5 285 L 680.5 284 L 681.5 285 L 719.5 285 L 721.5 285 L 725.5 284 L 734.5 286 L 749.5 283 L 751.5 284 L 753.5 283 L 755.5 283 L 762.5 281 L 774.5 280 L 776.5 280 L 786.5 280 L 787.5 279 Z " />
<path fill="rgb(0,0,0)" stroke="rgb(0,0,0)" stroke-width="1" opacity="0.9764705882352941" d="M 718.5 423 L 717.5 425 L 718.5 423 Z " />
<path fill="rgb(0,0,0)" stroke="rgb(0,0,0)" stroke-width="1" opacity="0.9764705882352941" d="M 821.5 619 Q 824.8 617.9 824 620.5 L 822.5 620 L 821.5 619 Z " />
</svg>