
<svg width="830" height="1660" version="1.1" xmlns="http://www.w3.org/2000/svg" desc="Created with imagetracer.js version 1.2.6" >
<path stroke="rgb(1,1,1)" stroke-width="1" opacity="0.9607843137254902" d="M 39.5 278 L 59.5 278 L 72.5 281 L 80.5 281 L 86.5 283 L 115.5 299 L 130 311.5 L 134 318 Q 136.7 316.9 136 319.5 L 139.5 324 L 141.5 321 L 143 321.5 Q 142.3 319.3 144.5 320 L 159.5 309 L 162.5 309 L 182.5 299 L 184.5 299 L 192.5 298 L 195.5 296 L 204.5 296 L 215.5 294 L 218.5 295 L 222.5 294 L 224.5 294 L 234.5 295 L 236.5 295 L 256.5 294 L 258.5 294 L 266.5 294 L 274.5 296 L 276.5 296 L 280.5 295 L 284.5 296 L 286.5 296 L 306.5 298 L 309.5 300 L 319.5 300 L 338 304 Q 336.8 307 340.5 306 Q 341.6 308.8 345 308 L 345.5 310 Q 346.8 307.8 348 310.5 L 348.5 312 L 350.5 311 L 355 313 Q 353.5 316.7 356.5 316 L 358.5 315 L 364 318 L 364.5 321 L 365.5 319 L 366 321 L 371 322.5 Q 368.8 323.8 371.5 325 L 373.5 324 L 375 327 L 379.5 329 L 382.5 328 L 391 334 L 392.5 337 L 394 336.5 Q 391.8 337.8 394.5 339 Q 396.8 338.3 396 340.5 L 397.5 343 L 398 341 L 404 344.5 L 401 343.5 L 402.5 346 L 405.5 348 L 407 347.5 L 406 349.5 L 411 353 Q 409.9 355.7 412.5 355 L 415 359 L 430 371 L 430 373 Q 432.7 371.9 432 374.5 L 435 376 Q 433.9 378.7 436.5 378 L 436.5 376 L 441 379 L 443 384 L 445 384 Q 443.5 387.7 446.5 387 L 454 395.5 L 453.5 397 L 457 399.5 L 457 402 Q 459.7 400.9 459 403.5 L 468 418.5 L 469 426.5 L 468.5 428 L 471 429.5 L 470 432 L 472 432.5 L 470 433.5 L 473 435.5 Q 472.4 440.1 475 441.5 L 474.5 443 L 476 443.5 L 475 445.5 L 477 448.5 L 476 452 Q 478.7 450.9 478 453.5 L 478 455.5 Q 477.3 462.2 480 465.5 L 480 467.5 L 486 490.5 L 485 492.5 L 487 494.5 L 489 502.5 L 489 504.5 L 490 507.5 L 489 509.5 L 490 510.5 L 490 520.5 L 491 521.5 L 490 523.5 L 491 524.5 L 491 539.5 L 490 542.5 Q 491.3 549.3 489 552.5 L 490 554.5 L 488 559 L 490 559.5 L 488 562.5 L 490 562.5 Q 490.8 564.8 488.5 564 L 488 566.5 L 487 569.5 L 488.5 572 Q 486.3 571.3 487 573.5 L 489 573.5 L 489 577.5 L 488 579.5 L 488 590.5 L 489 594.5 L 488 594.5 L 487.5 593 L 487 596.5 Q 489.3 597.8 488 602.5 L 487 605 L 485 605.5 L 487 606 Q 485.3 609.5 486 616.5 L 484 621.5 L 484 627.5 L 481 636.5 L 471 654.5 L 469 662.5 L 466 666.5 L 463 676.5 L 455 692.5 L 447 703 Q 443.2 701.5 444 704.5 L 439 707 L 435.5 713 L 434 713.5 L 434.5 715 L 432.5 715 L 425 721.5 L 423 724.5 L 421 724.5 L 417.5 729 Q 415.3 728.3 416 730.5 Q 418.3 731.7 415.5 733 L 413 734.5 Q 413.8 736.8 411.5 736 L 405.5 740 L 398 744.5 L 399.5 745 L 401 744.5 L 398.5 746 L 396.5 745 L 395.5 748 L 395.5 746 L 385 752.5 L 386.5 753 L 388 752.5 L 385.5 754 L 383.5 753 L 378 756.5 L 378.5 758 L 376.5 757 L 376 759 L 362.5 762 L 355.5 766 L 332.5 774 L 317.5 777 Q 316 774.5 314.5 778 L 287.5 778 Q 285.8 775.3 279.5 777 L 276.5 775 L 271.5 775 L 244.5 765 L 230 755 L 230 753 L 228 753 Q 229.1 750.3 226.5 751 L 221 747 Q 222.1 744.3 219.5 745 L 210 735.5 L 198 717.5 L 191 700.5 L 191 698.5 Q 191.8 696.3 189.5 697 L 189 694.5 L 186 682 L 184 681.5 L 184 679.5 L 181 663.5 L 179 661.5 L 177 648.5 L 178 646.5 L 175 642.5 L 176 637.5 L 175 636.5 L 175 625.5 L 174 624.5 L 174 610.5 L 175 608.5 Q 172.2 606.7 174 600.5 L 175 597.5 L 176 592.5 L 175 589.5 Q 175.6 581.6 180 577.5 L 182 561.5 L 182 559.5 L 183 556.5 L 183 554.5 L 186 533.5 Q 191 526.3 192 516 L 194 515.5 L 193 514.5 L 197 510.5 Q 199.3 501.3 205 495.5 L 204 493 L 209 491 L 216 482.5 L 217 479 Q 219.7 480.1 219 477.5 L 228 467.5 L 230 462 L 232.5 461 L 233.5 462 L 236.5 459 L 245 455.5 Q 244.3 453.3 246.5 454 Q 253.8 447.5 264 445 Q 262.9 442.3 265.5 443 L 277.5 438 L 288.5 436 L 298.5 436 L 323 446 Q 321.9 448.7 324.5 448 L 337 457 L 338.5 460 L 341 461.5 L 346.5 468 L 348 468 L 348 470 Q 350.7 468.9 350 471.5 L 348.5 471 L 347 471.5 L 351 473.5 L 351 475.5 L 351.5 477 Q 352.8 474.8 354 477.5 L 353 479.5 L 355 480 L 359 489 L 361 489.5 Q 358.5 491 362 492.5 L 369 506.5 L 369 508.5 L 372 516.5 L 371.5 518 L 373 518.5 L 373 522.5 L 373.5 524 L 375 523.5 L 376 526.5 L 374.5 526 L 373 526.5 L 373.5 529 Q 375.8 528.3 375 530.5 L 377 534.5 L 376 537.5 L 378 542.5 L 378 544.5 L 377 548.5 L 378 549.5 L 378 570.5 L 379 571.5 L 377 575.5 L 378 577.5 Q 375 580.5 375 586.5 L 376 589 Q 372.3 587.5 373 590.5 L 374 593.5 L 370 599.5 L 369 604.5 L 371 604.5 L 369.5 607 Q 366.9 606.2 368 609.5 L 368.5 611 L 365 613.5 L 364 616.5 L 366 617.5 L 363 619.5 L 363 622.5 L 358 631.5 L 358 634 L 342 645 Q 343.1 647.7 340.5 647 L 315.5 661 L 304 664 Q 305.3 667.3 300.5 666 L 298.5 666 L 291.5 666 L 282.5 662 L 279.5 662 L 266 652.5 L 253 630.5 Q 255.5 629 252 627.5 L 251 622.5 L 251 603.5 L 250 602.5 L 250 600.5 L 251 585.5 Q 253.6 584.1 253 579.5 Q 257.3 569.8 265.5 564 Q 267.8 564.8 267 562.5 L 290.5 550 L 307.5 537 L 313.5 534 L 317 534 L 319 530.5 L 319 524.5 L 318 521.5 Q 318.1 512.9 315 507.5 L 306.5 496 L 301.5 494 L 299.5 495 L 297.5 495 Q 289.2 495.2 284.5 499 L 264 514.5 L 245 547.5 L 240 569.5 L 240 574.5 L 238 579.5 L 238 583.5 Q 238.7 590.2 236 593.5 L 236 607.5 L 237 609.5 L 236 612 L 233 612.5 L 233 623.5 L 234 624.5 L 234 632.5 L 239 643 Q 241.7 641.9 241 644.5 L 244 650.5 L 253.5 662 Q 255.8 661.3 255 663.5 L 260.5 668 L 274.5 674 L 303.5 677 L 314.5 674 L 325.5 666 L 336.5 663 L 339.5 660 L 349.5 655 L 359 646.5 Q 358.3 644.3 360.5 645 L 372 635.5 L 391 607.5 L 401 584.5 L 403 578.5 L 403 542.5 L 403 540.5 L 403 529.5 L 402 527.5 L 402 525.5 L 402 519.5 L 396 499.5 L 392 493.5 L 384 472.5 L 373.5 460 L 370.5 458 L 362 452 L 359.5 448 L 339.5 434 L 331.5 430 L 328 430 Q 329.3 427 325.5 428 L 321.5 425 L 287.5 412 L 279.5 410 L 272.5 410 L 255.5 405 L 245.5 405 L 239.5 407 Q 230.6 405.6 225.5 408 L 223.5 408 L 202.5 410 L 198.5 412 L 187.5 414 L 165 429.5 L 164 431.5 L 165 433.5 L 164 433.5 L 163.5 432 L 163 436.5 L 166 438 L 165 440.5 Q 168 442.5 167 448.5 Q 164.5 450 168 451.5 L 170 471.5 L 169 473.5 L 171 476.5 L 171 478.5 L 171 494.5 L 172.5 495 L 172.5 496 L 171 496.5 L 173 497.5 L 171 498.5 L 173 499.5 L 173 501.5 L 172 507.5 L 173 508.5 L 173 518.5 L 173 520.5 L 172 524.5 L 174 527.5 L 172 534.5 L 174 537.5 L 173 540.5 L 174 541.5 L 174 548 L 172 548.5 L 173 549.5 L 173 559.5 L 173 561.5 L 172.5 564 L 171.5 562 L 171 566 Q 173.7 564.9 173 567.5 L 172 568.5 L 172 580.5 L 171 581.5 L 172.5 584 L 173.5 581 L 174 587 L 172 587.5 L 173.5 592 L 172 591.5 L 171 594.5 L 173 597.5 L 172 597.5 L 171.5 596 L 171 600.5 L 173 606.5 L 172 607.5 L 172 617.5 L 170 619.5 L 171 621.5 L 170 621.5 L 169.5 620 L 169 624.5 L 170 629.5 L 168.5 632 Q 170.8 631.3 170 633.5 L 167 634.5 Q 166.3 637.1 169 636 L 169 640.5 L 166 654.5 L 166 661.5 L 166 663.5 L 165 676.5 L 163 680.5 L 163 687.5 L 159 703.5 L 157 720.5 Q 152.2 728.2 151 739.5 L 148 743.5 L 149 744.5 L 146 749.5 L 145 756.5 L 139 772.5 L 140 772.5 L 140.5 771 L 141 772.5 L 138 774 L 139 778.5 L 135.5 786 Q 133.3 785.3 134 787.5 L 133 789.5 L 135 789.5 L 134 796 L 132 796.5 Q 135.5 798 133 799.5 Q 128.5 807 127 817.5 L 123 824.5 L 121 833.5 L 118 837.5 L 118 841 Q 115.3 839.9 116 842.5 L 108 858.5 L 92.5 882 L 82 891.5 Q 82.8 893.8 80.5 893 L 77.5 897 Q 75.3 896.3 76 898.5 L 67.5 906 L 64 907 Q 65.1 909.7 62.5 909 L 39.5 929 L 28.5 935 L 17.5 938 L 12.5 938 Q 11 935.5 9.5 939 L 0 939 L 0 917.5 L 2.5 917 L 15.5 919 L 26.5 914 L 30.5 910 L 40.5 905 L 47 900 L 47 898 Q 49.7 899.1 49 896.5 L 62 888 L 63.5 885 L 66 883.5 Q 65.3 881.3 67.5 882 L 77 872.5 L 80 865.5 L 86 858.5 Q 89.7 847.7 97 840.5 L 101 831.5 L 101 827.5 L 106 818.5 L 106 815.5 L 109 809.5 L 109 805.5 L 115 794.5 L 116 786.5 L 118 783.5 L 121 770.5 L 126 759.5 L 130 741.5 L 132 738.5 L 133 728.5 L 138 716.5 L 138 709.5 L 140 703.5 L 146 662.5 L 145 659.5 L 147 653.5 L 147 651.5 L 149 640.5 L 149 638.5 L 150 623.5 L 152 615.5 L 152 604.5 L 153 603.5 L 154 543.5 L 155 542.5 L 154 539.5 L 154 499.5 L 152 494.5 L 152 492.5 L 152 475.5 L 150 466.5 L 150 454.5 L 147 441 Q 143.3 442.4 145 436.5 L 144 434.5 L 148 423 Q 150.7 424.1 150 421.5 L 158.5 412 L 178.5 398 Q 184.5 393.2 194 393 Q 192.7 389.3 198.5 391 L 201.5 389 L 209.5 389 L 223.5 386 L 225.5 386 L 242.5 386 L 243.5 385 L 245 385.5 L 245.5 384 L 255.5 384 L 257.5 385 L 259.5 385 L 264.5 385 L 294.5 391 L 315.5 399 L 317.5 401 L 331.5 405 Q 338.9 412.1 350.5 415 L 383 438 Q 381.9 440.7 384.5 440 L 393 447.5 Q 399.7 455.6 403 466 Q 406.3 464.7 405 469.5 L 409 476.5 L 409 478.5 L 409.5 480 L 411 479.5 L 410.5 481 L 412 481.5 L 410 482.5 L 410.5 485 L 412.5 484 L 413 485.5 L 412 488.5 L 414.5 492 L 413 491.5 L 414.5 494 Q 416.8 493.3 416 495.5 L 417 498.5 L 416 499.5 Q 419.1 501.3 417.5 503 L 419 503.5 L 418 506.5 L 420 510.5 L 420 524.5 L 421 526.5 L 420 527.5 L 420 566.5 L 419 567.5 L 419 577.5 L 410 602.5 L 410 605.5 L 401 620.5 L 400 625.5 L 395 635.5 L 376.5 658 L 374 657 L 374 659.5 L 368.5 665 Q 366.3 664.3 367 666.5 Q 362.2 674 353 676 Q 354.1 678.7 351.5 678 L 345.5 682 L 328 688 L 326.5 691 L 325 690.5 Q 325.9 693.5 321.5 692 L 319.5 694 L 309.5 697 L 288.5 698 L 284.5 696 L 275.5 696 L 259 692.5 L 259.5 691 L 256.5 692 L 256.5 691 L 258 690.5 L 254.5 689 L 254.5 691 L 249 688.5 L 251 687.5 L 248.5 686 L 246 686.5 L 245.5 688 L 244 685 L 238 681.5 Q 238.7 678.9 236 680 L 236 677.5 L 226.5 662 Q 224.3 662.8 225 660.5 L 225 658.5 L 224.5 656 L 223.5 658 L 217 646.5 L 217 644.5 L 216.5 642 L 215 642.5 L 214 640.5 L 214 638.5 L 212 624.5 L 213 622.5 Q 210.3 620.8 212 614.5 L 224 545.5 L 236 521.5 L 252.5 498 Q 254.8 498.8 254 496.5 L 260.5 490 L 279.5 479 L 291.5 476 L 303.5 476 L 307.5 478 L 309.5 477 L 313.5 480 L 315 479.5 L 314 480.5 L 317.5 484 L 319 484.5 L 318.5 486 L 321.5 488 Q 322.8 485.7 324 488.5 L 331 499.5 L 329 498.5 L 327.5 495 L 327 497.5 L 327 499.5 L 328.5 502 L 332 501.5 L 331 504.5 L 332 504.5 L 332.5 503 L 335 508.5 Q 333.7 516.8 337 520.5 L 337 522.5 L 335 531.5 L 324.5 548 L 310 555.5 Q 312.3 556.8 309.5 558 L 307 558 Q 308.1 560.7 305.5 560 L 297.5 567 L 294.5 567 L 281.5 574 L 276 579.5 L 270 589.5 L 270 601.5 L 269 603.5 L 269 607.5 Q 271.7 611.3 270 619.5 L 276 630.5 L 276 632.5 L 278 635.5 L 286.5 643 L 301.5 647 Q 326.1 639.6 343 624.5 L 356 597.5 L 357 590.5 L 363 575.5 L 363 543.5 L 361 533.5 L 357 524.5 L 353 509.5 L 351 507.5 L 351 504.5 L 347 496.5 L 344.5 494 Q 342.3 494.8 343 492.5 L 337 482.5 L 331.5 477 Q 329.3 477.8 330 475.5 L 326 470 L 320 466.5 Q 320.8 464.3 318.5 465 L 304.5 455 L 302.5 456 Q 299 452 290.5 453 Q 289 455.5 283.5 454 L 279.5 457 L 276.5 457 L 273.5 460 Q 264.3 462.3 258.5 468 L 249.5 471 L 245 474.5 L 237 485 Q 234.3 483.9 235 486.5 L 229 492.5 L 229 494.5 L 222.5 503 L 220 504.5 L 214 517 L 209 520.5 L 202 544.5 L 202 549.5 L 200 554.5 L 200 560.5 L 198 568.5 L 198 576.5 L 197 577.5 L 198 580.5 L 197 583.5 L 197 599.5 L 196 602.5 L 196 604.5 L 196 615.5 L 195 617.5 L 195 619.5 L 196 624.5 L 194 628.5 L 197 641.5 L 196 643.5 L 199 658.5 L 202 665.5 L 205 682.5 L 211 700.5 L 217 712.5 L 229 729 L 230.5 729 L 245.5 743 Q 247 740.5 248.5 744 L 251.5 746 L 261.5 753 L 268.5 755 L 270.5 757 L 280.5 758 L 290.5 761 L 303.5 762 L 323.5 758 L 336.5 754 L 348.5 748 L 366.5 743 L 388 731 Q 386.9 728.3 389.5 729 L 394 726 Q 392.9 723.3 395.5 724 L 408 715 L 409.5 712 L 412 710.5 L 422.5 699 L 430 692.5 Q 437.1 684.4 440 673 Q 443.3 674.3 442 669.5 L 456 639.5 L 461 632.5 L 468 602.5 L 468 600.5 L 469 586.5 L 468 583.5 L 469 582.5 L 469 566.5 L 470 564.5 L 470 562.5 L 471 556.5 L 471 554.5 L 472 542.5 L 471 540.5 Q 474.5 539 472 537.5 L 473 525.5 L 472 521.5 L 472 519.5 L 472 508.5 L 469 501.5 L 471 501.5 L 468 493.5 L 468 488.5 L 466 484.5 L 461 460.5 L 461 458.5 L 458.5 448 L 457 448.5 L 458 447.5 L 456.5 445 L 458 445.5 L 453 432.5 L 453 429 L 451 428.5 L 451 426.5 L 444 416.5 L 444.5 415 Q 442.3 415.8 443 413.5 L 415 380.5 Q 417.2 379.3 414.5 378 L 413 378.5 L 413.5 380 L 408 375.5 L 407 373.5 Q 409.3 372.2 406.5 371 Q 405 373.5 403.5 370 L 395 364 L 392.5 360 L 389 357.5 L 391 356.5 L 387 353.5 L 388 355.5 L 386 354.5 L 387 352.5 L 385 351.5 L 384.5 353 L 383.5 350 L 382 350.5 L 382 349 L 379 349 Q 380.1 346.3 377.5 347 L 353.5 333 L 349.5 329 L 339.5 326 L 322.5 318 L 301.5 316 L 291.5 313 L 263.5 312 L 262.5 311 L 245.5 311 L 242.5 312 L 235.5 311 Q 234 313.5 228.5 312 L 226.5 311 L 224.5 312 L 223.5 311 L 214.5 311 L 209.5 313 L 194.5 315 L 169.5 325 L 157 335.5 L 155.5 339 L 153 340.5 Q 153.8 342.8 151.5 342 Q 150 344.5 144.5 343 L 139 345.5 L 139.5 347 L 136.5 348 L 133.5 346 L 131 347 L 131 345 Q 128.3 346.1 129 343.5 L 120.5 331 Q 118.3 331.8 119 329.5 L 99.5 315 L 95.5 314 L 84.5 307 L 65.5 301 L 43.5 298 L 38.5 300 L 6.5 302 L 0 300 L 0 280 L 7.5 280 Q 8.8 282.3 13.5 281 L 15.5 281 L 18.5 280 L 20.5 280 L 31.5 280 L 32.5 279 L 34.5 280 L 39.5 278 Z M 159 325 L 156 326 L 157 328 L 159 327 L 159 325 Z M 392 357 L 391 359 L 394 360 L 394 358 L 392 357 Z M 395 360 L 400 366 L 400 365 L 395 360 Z M 401 366 L 402 368 L 403 368 L 401 366 Z M 405 369 L 406 371 Q 407 368 405 369 Z M 410 374 L 409 376 L 412 377 L 410 374 Z M 450 392 L 451 394 Q 452 391 450 392 Z M 227 546 L 224 552 L 225 553 L 227 549 L 227 546 Z M 225 554 L 223 557 L 223 562 L 219 579 Q 218 581 221 580 Q 220 573 223 570 L 223 564 L 225 558 L 225 554 Z M 297 564 L 296 566 L 298 565 L 297 564 Z M 291 567 L 290 569 L 292 568 L 291 567 Z M 220 581 L 217 593 L 218 597 L 220 587 L 220 581 Z M 217 597 L 215 603 L 216 607 L 217 603 L 217 597 Z M 171 611 L 170 615 L 171 615 L 171 611 Z M 215 611 L 214 618 L 215 618 L 215 611 Z M 252 688 L 252 689 L 254 689 L 252 688 Z " />
<path stroke="rgb(1,1,1)" stroke-width="1" opacity="0.9607843137254902" d="M 427.5 367 L 429.5 370 L 427.5 367 Z " />
<path stroke="rgb(1,1,1)" stroke-width="1" opacity="0.9607843137254902" d="M 433.5 373 L 434.5 375 L 433.5 373 Z " />
<path stroke="rgb(1,1,1)" stroke-width="1" opacity="0.9607843137254902" d="M 318.5 481 L 320.5 484 L 318.5 481 Z " />
<path stroke="rgb(1,1,1)" stroke-width="1" opacity="0.9607843137254902" d="M 379.5 543 L 380 545.5 L 379 545.5 L 379.5 543 Z " />
<path stroke="rgb(1,1,1)" stroke-width="1" opacity="0.9607843137254902" d="M 173.5 571 L 174 578.5 L 173 578.5 L 173.5 571 Z " />
<path stroke="rgb(1,1,1)" stroke-width="1" opacity="0.9607843137254902" d="M 247.5 767 L 250 768.5 L 248.5 769 L 247.5 767 Z " />
</svg>