
<svg width="830" height="1660" version="1.1" xmlns="http://www.w3.org/2000/svg" desc="Created with imagetracer.js version 1.2.6" >
<path stroke="rgb(1,1,1)" stroke-width="1" opacity="1" d="M 9.5 277 L 20.5 277 L 59.5 285 L 73.5 285 L 109.5 293 L 122.5 298 L 151.5 313 L 158.5 318 L 162.5 319 L 183 335 L 193 349 Q 195.7 347.9 195 350.5 L 199 353 L 199 355 Q 201.7 353.9 201 356.5 L 215 373.5 L 218 380.5 L 233 399.5 L 234 403 Q 236.7 401.9 236 404.5 L 237 407 Q 239.7 405.9 239 408.5 L 241 413 L 245 415.5 L 261 439 Q 264 437.8 263 441.5 L 274 456 Q 276.7 454.9 276 457.5 L 279 459 L 281 463.5 L 303.5 487 L 305 487 L 305 489 Q 307.7 487.9 307 490.5 L 317 499.5 Q 316.3 501.8 318.5 501 L 320 504 L 328.5 509 L 331 509 Q 329.9 511.7 332.5 511 L 337 513.5 Q 336.2 516.1 339.5 515 L 342 516 Q 340.9 518.7 343.5 518 L 345.5 517 L 350 520.5 L 350.5 522 L 352 521.5 Q 351.3 523.8 353.5 523 Q 355 520.5 356.5 524 L 358.5 525 L 360 524.5 L 359.5 526 L 361.5 527 L 365.5 527 Q 368.1 526.3 367 529 L 369.5 529 L 371.5 529 L 374 529.5 L 373.5 531 L 377.5 530 L 381 532.5 Q 378.8 533.8 381.5 535 L 393.5 538 L 395.5 537 L 399.5 539 L 401.5 539 L 407.5 540 L 409.5 542 L 412.5 541 L 412.5 542 L 411 542.5 L 413.5 543 L 416.5 542 Q 418.2 545.1 420 543.5 L 421.5 546 L 424.5 545 L 426.5 546 L 428.5 546 L 433.5 545 L 436.5 546 L 444.5 547 L 450.5 550 L 452.5 550 L 456.5 549 L 456.5 551 L 459.5 552 L 462.5 551 L 468.5 553 L 473.5 553 L 475.5 555 L 482.5 557 L 485.5 556 L 486.5 557 L 501.5 558 L 505.5 560 L 507.5 560 L 514.5 560 L 515 561.5 L 516.5 561 Q 522 559.5 523.5 562 L 527 561.5 L 526.5 563 L 529.5 562 L 533.5 564 L 537.5 563 L 540.5 564 Q 548.7 562.3 552.5 565 L 554.5 565 L 560 563 L 561.5 567 L 583.5 571 Q 584.7 568.8 586 571.5 L 586 573 L 592.5 573 L 593 574.5 L 593.5 576 L 590.5 578 L 585.5 581 L 583.5 581 L 581.5 582 L 579.5 582 Q 572.8 581.3 569.5 584 L 567.5 584 L 565 584.5 L 570 585 L 569.5 587 L 564.5 586 L 564.5 587 L 566 587.5 Q 562.3 589.8 555.5 589 L 554 588.5 Q 554.8 591.1 551.5 590 L 549.5 589 L 546.5 591 L 544 589.5 L 549 588.5 L 545.5 587 L 527.5 591 L 521.5 591 L 477.5 599 L 471.5 599 L 448.5 604 L 435.5 605 L 405.5 614 L 387.5 622 L 374.5 631 L 372 631 Q 373.1 633.7 370.5 633 L 348.5 653 L 347 653 L 342.5 659 Q 340.3 658.3 341 660.5 L 334 667.5 L 317 691.5 L 275 762.5 L 248 796.5 L 245 802.5 L 225.5 825 Q 223.3 824.3 224 826.5 L 215.5 836 Q 213.3 835.3 214 837.5 L 205.5 846 L 204 846 Q 205.1 848.7 202.5 848 L 195 854.5 Q 195.8 856.8 193.5 856 L 187 861.5 Q 187.8 863.8 185.5 863 L 181 866 Q 182.1 868.7 179.5 868 Q 170.9 877.7 159 883 Q 160.1 885.7 157.5 885 L 139 896 Q 140.1 898.7 137.5 898 L 125 905 Q 126.1 907.7 123.5 907 L 114.5 913 L 81.5 929 L 70.5 933 L 49.5 937 L 45.5 939 L 40.5 938 L 39.5 939 L 24.5 939 L 23.5 938 L 0 937 L 0 916 L 8.5 916 Q 10 912.5 11.5 915 L 15.5 914 L 17.5 915 L 20.5 914 L 22.5 915 L 42.5 915 L 68.5 909 L 89.5 900 L 113.5 887 L 121.5 881 L 123.5 881 L 145.5 867 L 156.5 858 L 163 855 L 164.5 852 L 180 841 Q 178.9 838.3 181.5 839 L 192.5 828 L 194 828 L 198.5 822 L 201 820.5 Q 200.3 818.3 202.5 819 L 214 806.5 L 220 798.5 L 220 796.5 L 236 777 Q 238.7 778.1 238 775.5 L 251 760.5 L 252 756 Q 255 757.3 254 753.5 L 265 740.5 L 265 738.5 L 276 722.5 L 291 695.5 L 292 691.5 L 304 675.5 L 308 666.5 L 320 649 L 323 647.5 L 326.5 643 L 328 643 L 328 641 L 330 641 L 330 639 Q 332.7 640.1 332 637.5 L 342 628.5 Q 341.3 626.3 343.5 627 L 359.5 614 L 378.5 603 L 405.5 592 L 409.5 592 L 425.5 586 L 427.5 586 L 434.5 584 L 449.5 583 L 453.5 581 L 458.5 581 L 464.5 579 L 466.5 580 L 468.5 578 L 478.5 577 L 480 575.5 L 451.5 568 Q 450 570.5 448.5 567 Q 442.4 568.3 443 565.5 L 441.5 566 L 432.5 564 L 425.5 564 L 418.5 561 L 412.5 561 L 407.5 559 L 402.5 559 L 389.5 556 Q 388.1 553.4 383.5 554 L 380.5 551 L 361.5 545 L 360 545.5 Q 361.3 541.8 357.5 543 L 356 543.5 Q 358.2 542.3 355.5 541 L 352.5 541 L 341 536 L 340.5 534 Q 339 536.5 337.5 533 L 333 532 Q 334.3 529 330.5 530 L 327 529 Q 328.1 526.3 325.5 527 L 320 525 Q 321.1 522.3 318.5 523 L 315.5 520 L 312.5 520 L 305 515 Q 306.1 512.3 303.5 513 L 302 510 L 296 505.5 L 296 504 L 294 504 Q 295.1 501.3 292.5 502 L 290 497 L 288 497 L 288 495 L 286 495 L 286 493 Q 283.3 494.1 284 491.5 L 278 484 L 272 479.5 Q 272.8 477.3 270.5 478 L 246 449.5 L 238 436 Q 235.3 437.1 236 434.5 L 214 406.5 L 210 398.5 L 192 373.5 L 167.5 346 L 153.5 334 L 136.5 325 L 134 325 Q 135.3 322 131.5 323 L 127.5 320 L 123.5 320 L 111.5 314 L 98.5 311 L 92.5 308 L 90.5 309 L 84.5 306 L 82 307 L 81.5 305 L 79.5 305 L 78 305.5 L 78.5 307 L 61 304.5 L 69.5 304 Q 70.7 306.3 72 303.5 L 56.5 302 L 45.5 299 L 35.5 298 L 35.5 299 L 39 299.5 L 35.5 300 L 28.5 298 L 23.5 299 L 22.5 298 L 0 298 L 0 278 L 8.5 278 L 9.5 277 Z M 74 304 L 74 305 L 78 305 L 74 304 Z M 378 531 L 377 533 L 380 533 L 378 531 Z M 561 585 L 561 586 L 564 586 L 561 585 Z " />
<path stroke="rgb(1,1,1)" stroke-width="1" opacity="1" d="M 40.5 300 L 43 300.5 L 40.5 301 L 40.5 300 Z " />
<path stroke="rgb(1,1,1)" stroke-width="1" opacity="1" d="M 46.5 301 L 49 301.5 L 46.5 302 L 46.5 301 Z " />
<path stroke="rgb(1,1,1)" stroke-width="1" opacity="1" d="M 50.5 302 L 54 302.5 L 50.5 303 L 50.5 302 Z " />
<path stroke="rgb(1,1,1)" stroke-width="1" opacity="1" d="M 55.5 303 L 60 303.5 L 55.5 304 L 55.5 303 Z " />
</svg>