
<svg width="830" height="1660" version="1.1" xmlns="http://www.w3.org/2000/svg" desc="Created with imagetracer.js version 1.2.6" >
<path fill="rgb(2,2,2)" stroke="rgb(2,2,2)" stroke-width="1" opacity="1" d="M 166.5 65 L 171 66.5 L 168.5 67 L 166.5 65 Z " />
<path fill="rgb(2,2,2)" stroke="rgb(2,2,2)" stroke-width="1" opacity="1" d="M 416.5 196 L 443.5 196 Q 446.2 198.8 452.5 198 L 454.5 200 L 456.5 200 Q 459.1 199.3 458 202 L 461.5 202 L 465 204.5 L 465.5 206 L 467.5 206 L 477 213.5 L 479 216.5 L 478.5 218 Q 481.8 216.9 481 219.5 L 487 230.5 L 488 246 Q 485.3 244.9 486 247.5 L 483 252.5 L 484 255 L 481 256.5 L 483 257 Q 484.1 259.7 481.5 259 L 482 260.5 L 481 266 L 478 266.5 L 480 267.5 L 477 274.5 L 483.5 275 L 497.5 272 L 498.5 273 L 522.5 275 L 537.5 281 L 539.5 280 L 540.5 282 L 539 282.5 L 541.5 284 L 543.5 283 L 549 287 L 549 289 Q 551.7 287.9 551 290.5 L 554 292 L 553 294.5 L 556 296.5 L 562 308.5 L 562 312.5 L 566 326.5 L 566 328.5 L 565 331.5 Q 567.3 332.8 566 337.5 L 565 337.5 Q 566.1 334.2 563.5 335 L 564 336.5 L 564.5 342 L 565.5 339 L 567 342.5 L 559 361.5 L 537.5 386 L 535 387.5 Q 535.8 390.1 532.5 389 L 528 391 Q 526.9 393.7 529.5 393 L 538.5 396 L 547 402 L 549 407 Q 551.7 405.9 551 408.5 L 555 413.5 L 554 415.5 L 556.5 416 Q 558.8 415.3 558 417.5 L 557 420 L 559.5 421 L 561 420.5 Q 558.8 421.8 561.5 423 Q 563.8 422.3 563 424.5 L 569 428 L 569 429.5 L 579 439.5 L 580 443.5 L 587 454.5 L 587 456.5 L 588 460.5 L 587 463.5 L 588 467.5 L 587 471.5 L 587 473.5 L 585 484.5 L 577.5 495 L 574.5 497 L 570.5 502 L 567.5 504 L 551.5 516 L 544.5 519 L 534.5 521 L 517.5 521 L 513.5 520 L 514 521.5 L 516 532.5 L 516 550.5 Q 513 567.5 507 581.5 Q 500.7 595.7 490.5 606 L 487.5 608 L 480.5 616 L 475.5 619 L 460.5 624 L 458.5 624 L 441.5 625 L 425.5 619 L 415 609.5 L 411 602 Q 408.3 603.1 409 600.5 L 403.5 591 L 401 598 L 399 598.5 L 400 599.5 L 397 602.5 L 393 612 L 390 613.5 L 390.5 615 L 393 613.5 L 392 616 L 385 621.5 L 383.5 624 Q 376.4 631.4 365.5 635 L 342.5 640 L 337.5 638 L 335.5 638 L 328.5 637 L 321 631.5 Q 321.9 628.5 317.5 630 L 316.5 627 Q 314.3 627.8 315 625.5 L 307 615.5 L 307 609.5 L 305 602.5 L 305 600.5 L 306 596.5 L 304 596.5 L 306 593.5 L 304 588.5 L 305 583.5 L 305 581.5 L 304.5 578 L 299.5 581 L 282.5 584 L 279.5 583 L 272.5 582 L 262 577 L 258 570.5 L 258 566.5 L 259 563.5 L 256 557.5 L 257 555.5 L 255.5 553 L 254 553.5 L 255.5 551 L 254 550.5 Q 256.5 549 253 547.5 L 252 537.5 L 252 535.5 L 253 519.5 L 256 511.5 L 255 509.5 L 256 506.5 L 256 503.5 Q 260.7 498.4 262 491 L 250.5 492 L 244 491 L 245 506.5 L 247 513.5 L 248 533.5 L 249 534.5 L 248 537.5 L 248 539.5 L 249 541.5 L 249 568.5 L 250 569.5 L 249 571.5 L 250 574.5 Q 251.3 586.3 248 593.5 Q 250.2 594.8 249 599.5 L 248 603.5 L 248 607.5 L 248 612.5 L 246 619.5 L 246 621.5 Q 246.5 629 243 632.5 L 243 638.5 L 245 642.5 L 242 649.5 L 241 659.5 L 235 681.5 L 233 684.5 L 226 708.5 L 219 722.5 L 219 726.5 L 214 734.5 L 212 742.5 L 205 756.5 L 205 759.5 L 200 767.5 Q 202.3 768.8 199.5 770 L 198 770.5 L 198 772.5 L 197 778 Q 193.7 776.7 195 781.5 L 191 789 Q 188 787.8 189 791.5 L 170 818.5 L 144.5 847 L 143 847 L 143 849 Q 140.3 847.9 141 850.5 L 137 856 L 131 860.5 Q 131.8 862.8 129.5 862 L 115 875.5 L 106.5 885 L 79.5 904 L 60.5 920 L 40.5 932 L 23.5 940 L 0 940 L 0.5 919 L 5.5 920 L 7.5 918 L 22.5 918 L 24.5 918 L 40 910 Q 38.9 907.3 41.5 908 L 74 886 Q 72.9 883.3 75.5 884 L 86 874.5 Q 85.3 872.3 87.5 873 L 104 860 Q 102.9 857.3 105.5 858 L 122.5 841 L 124 841 L 134 828 L 137 826.5 Q 135.9 823.2 138.5 824 L 141.5 820 L 143 820 L 143 818 Q 145.7 819.1 145 816.5 L 149 813.5 L 155 802.5 L 166 789.5 L 166 787.5 L 178 768.5 L 186 749.5 L 188 747.5 L 189 741.5 L 194 732.5 L 202.5 709 L 204 709.5 Q 203.5 703.5 207 701.5 L 206 698.5 L 208 696.5 L 208 693.5 L 212 684.5 L 214 674 Q 216.7 675.1 216 672.5 L 215.5 671 L 217 671.5 L 216 668.5 L 219 659.5 L 219 653.5 L 221 649.5 L 220 647.5 L 223 639.5 Q 220.5 638 224 636.5 L 224 631.5 L 226 631 L 226 628.5 L 228 625.5 L 229 610.5 Q 226.5 609 230 607.5 L 231 597.5 L 230 594.5 L 231 593.5 L 232 580.5 L 232 576.5 L 231 573.5 L 232 570.5 L 230 565.5 L 231 564.5 L 231 543.5 L 229 532.5 L 230 530.5 L 228 521.5 L 229 519.5 L 225 501.5 L 226 499.5 L 224 494.5 L 224 492.5 L 223 481.5 L 224 479.5 L 222 473.5 L 223 468.5 L 219 449.5 L 217 426.5 L 215.5 425 L 214 425.5 L 215 420 Q 218 421.3 217 417.5 L 218.5 416 L 226.5 415 L 244.5 406 L 252.5 404 L 256.5 401 L 264.5 400 Q 266 403.5 267.5 401 Q 269.8 400.3 269 402.5 Q 272 403.8 271 408 L 274 409.5 L 273 415 Q 270.3 413.9 271 416.5 L 270 421.5 L 266.5 426 L 258 433.5 Q 250 444 251 463.5 L 254 473 L 256.5 474 L 267.5 472 L 266.5 474 L 261 475.5 L 265.5 476 L 269.5 474 Q 275 475.5 276.5 473 L 278 475.5 L 277.5 477 L 279.5 476 L 281.5 476 L 285.5 478 L 287.5 478 Q 290.5 477.1 289 481.5 Q 286.7 482.7 288 487.5 L 281 501.5 L 281 504.5 L 274 523.5 L 272 534.5 L 272 547.5 L 274 555.5 L 277.5 561 L 285.5 564 L 286.5 563 L 298.5 562 L 302.5 560 L 305 561 L 306.5 557 L 309.5 556 Q 311.3 558.8 313 554.5 L 312.5 553 L 314.5 553 L 318 552 Q 316.6 548.3 322.5 550 L 327 553.5 L 326 561.5 L 328 560.5 L 329.5 558 L 330 559.5 L 329 562.5 L 330 565.5 L 329 567.5 L 329 569.5 L 326 578.5 L 325 599.5 L 329 613.5 L 334.5 621 L 337.5 623 Q 340.1 626.9 347.5 626 Q 359.9 623.1 368 617 Q 366.9 614.3 369.5 615 L 372 611 Q 374.7 612.1 374 609.5 L 376 606 L 380 603.5 Q 379.2 600.9 382.5 602 L 388 594 Q 390.7 595.1 390 592.5 Q 397.2 583.7 401 571.5 Q 398.5 570 402 568.5 L 404.5 564 L 407 565.5 L 407.5 564 L 409.5 564 L 413 564 L 413 566 Q 416.8 564.5 416 567.5 L 419 568.5 L 419.5 570 L 420.5 568 L 425 589.5 L 434.5 600 L 437.5 602 L 449.5 605 L 450.5 604 L 459.5 604 L 465.5 602 L 478 592.5 L 480 589.5 L 482 586 Q 485 587.3 484 583.5 L 493 565.5 L 494 554.5 L 495 553.5 L 495 536.5 L 494 533.5 L 494 524.5 Q 491.3 522.2 492 516.5 L 490 514.5 L 489 508.5 Q 485.4 506.6 486 502 L 483 500.5 L 484.5 500 L 487 501 L 488 498.5 L 487.5 497 L 490.5 496 L 492.5 497 Q 493.8 494.8 498.5 496 L 500.5 496 L 503 497.5 Q 502.2 500.1 505.5 499 L 514.5 502 L 530.5 503 Q 532 500.5 537.5 502 L 544.5 499 Q 555.7 493.2 563 483.5 L 569 464.5 L 569 453.5 L 567 447.5 L 559.5 439 L 543 425.5 L 536 416 L 527.5 409 L 515.5 404 L 505.5 402 L 491.5 402 L 488 400 L 488 398 Q 484.3 399.5 485 396.5 L 485 394.5 L 486 391.5 L 484 388 Q 488.2 388.7 489.5 385 Q 490.8 387.3 492 384.5 L 490 384 Q 488.9 381.3 491.5 382 L 492.5 383 L 495.5 380 L 496.5 381 L 498.5 380 L 509.5 380 L 515.5 378 L 526 369.5 Q 537.5 358 544 341.5 L 545 329.5 L 544 328.5 L 544 319.5 L 537 303 Q 534.3 304.1 535 301.5 Q 526.7 293.3 513.5 290 L 511.5 290 L 499.5 289 L 497.5 289 L 476.5 292 L 473.5 294 L 461.5 297 L 452.5 302 L 445 302 L 444.5 300 Q 443.3 302.3 442 299.5 L 442 297 Q 439.3 298.1 440 295.5 L 439 292 L 442 290.5 L 441 288.5 L 452 282 L 453 278.5 L 452 277.5 L 457 272.5 L 466 244.5 L 466 233.5 L 465 230.5 L 455.5 221 Q 449.1 215.9 439.5 214 L 422.5 214 Q 420.8 216.8 414.5 215 L 400.5 220 L 388.5 228 L 378 238.5 L 370 250.5 L 368.5 258 L 367.5 256 L 366 260.5 L 366 264.5 Q 366.8 266.8 364.5 266 L 359 270.5 L 357.5 273 L 354 272 L 353.5 274 L 353 272 L 348.5 273 L 346 268.5 L 347 264.5 L 346 260.5 Q 349.7 256.2 348 246.5 L 340 236.5 L 340 234.5 L 329.5 224 L 324.5 221 L 311.5 221 L 310.5 222 L 299.5 222 Q 288 226.5 281 235.5 L 271 254.5 L 268 271.5 L 268 286.5 Q 270.8 297.7 277 305.5 L 277 308.5 L 277 310.5 L 273.5 314 L 270.5 316 L 267.5 314 L 265.5 316 L 257.5 317 L 247.5 312 L 239.5 311 L 237.5 311 L 232.5 312 L 224 318.5 L 220 328.5 L 220 337.5 L 222 342.5 L 223 351.5 L 230.5 362 L 233 362.5 L 231 363.5 L 240 367 L 239 371.5 L 240 373.5 L 238.5 377 L 237 377 Q 238.5 380.8 235.5 380 Q 232.4 384.9 224.5 385 L 222.5 384 L 220 385 Q 221.4 381 214.5 383 L 211 382 L 204 364 Q 201.3 365.1 202 362.5 L 194 352 L 190 349.5 Q 190.8 347.3 188.5 348 L 179.5 340 L 171.5 336 L 154.5 323 L 133.5 313 L 121.5 309 L 108.5 302 L 87.5 296 L 52.5 296 L 49.5 297 L 46.5 296 L 45.5 297 L 28.5 298 L 27.5 299 L 16.5 299 L 15.5 300 L 12.5 299 L 8.5 301 L 6.5 300 L 0 301 L 0 280 L 10.5 280 L 11.5 279 L 29.5 279 L 31.5 280 L 35.5 280 L 49.5 279 L 50.5 278 L 92.5 278 L 102.5 281 Q 104 278.5 105.5 282 L 119.5 286 L 121.5 288 L 160.5 304 L 188.5 322 L 200.5 333 L 201 323.5 Q 204.9 312.4 212.5 305 L 226.5 297 L 245.5 296 L 247.5 295 L 255.5 297 L 255 295.5 L 252 289.5 L 252 287.5 L 250 277.5 L 250 275.5 L 251 271.5 L 250 268.5 L 251 267.5 L 252 253.5 L 256 242.5 L 256 238.5 L 264 225 Q 266.7 226.1 266 223.5 Q 274.5 213.5 287.5 208 L 308.5 206 L 309.5 205 L 321.5 205 L 322.5 204 L 325.5 206 L 337 208 Q 335.7 211.3 340.5 210 L 344.5 213 L 345.5 212 L 351 217.5 L 350.5 219 L 354 221.5 Q 353.3 224.1 356 223 L 356 226 L 357.5 226 L 359.5 230 L 361.5 230 L 366 226.5 L 375.5 216 L 390.5 206 L 401.5 201 L 404.5 201 L 409.5 197 L 413.5 197 Q 415 199.5 416.5 196 Z M 468 207 L 470 210 L 471 210 L 468 207 Z M 351 222 L 351 225 L 353 226 L 352 224 Q 353 221 351 222 Z M 486 232 L 484 235 L 486 238 L 487 235 L 486 232 Z M 487 238 L 485 242 L 487 245 L 487 244 L 487 242 L 487 238 Z M 543 284 L 545 287 L 545 286 L 543 284 Z M 546 287 L 549 291 L 550 291 L 546 287 Z M 271 312 Q 269 315 272 314 L 271 312 Z M 564 331 L 563 334 L 564 334 L 564 331 Z M 268 402 L 268 405 Q 271 404 268 402 Z M 237 429 L 238 434 Q 240 433 238 432 L 240 431 Q 241 428 237 429 Z M 260 568 L 260 570 L 263 570 Q 264 567 260 568 Z M 262 570 L 261 573 L 264 575 Q 264 570 262 570 Z " />
<path fill="rgb(2,2,2)" stroke="rgb(2,2,2)" stroke-width="1" opacity="1" d="M 275.5 470 L 274.5 472 L 275.5 470 Z " />
<path fill="rgb(2,2,2)" stroke="rgb(2,2,2)" stroke-width="1" opacity="1" d="M 270.5 471 L 269.5 473 L 270.5 471 Z " />
<path fill="rgb(2,2,2)" stroke="rgb(2,2,2)" stroke-width="1" opacity="1" d="M 332.5 564 L 333 565.5 L 331.5 568 L 331 566.5 L 332.5 564 Z " />
</svg>