
<svg width="830" height="1660" version="1.1" xmlns="http://www.w3.org/2000/svg" desc="Created with imagetracer.js version 1.2.6" >
<path stroke="rgb(1,1,1)" stroke-width="1" opacity="0.8627450980392157" d="M 344.5 110 L 360.5 111 L 362.5 111 L 381.5 112 L 418 121 Q 416.7 124.3 421.5 123 L 472.5 141 Q 478.5 145.5 487.5 147 L 493.5 151 L 495 150.5 L 494.5 152 L 499.5 155 L 501 154.5 Q 498.5 156 502 157.5 L 502.5 160 L 505 158.5 L 504.5 157 L 507.5 162 L 508.5 160 L 534 184.5 L 536 187.5 L 540 191.5 L 554 214.5 L 558 228 Q 561 226.8 560 230.5 L 568 250.5 L 570 257.5 L 570 263.5 L 572 265.5 L 572 269.5 L 575 278.5 Q 573.7 283.3 576 284.5 L 576 302.5 L 577 303.5 L 577 326.5 L 578 328.5 L 577 331.5 L 578 335.5 L 577 338.5 L 576 350.5 L 576 352.5 L 575 364.5 Q 577.3 365.8 574.5 367 L 573 367.5 Q 575.6 368.9 575 373.5 L 574 376.5 L 572 380.5 L 573 382.5 L 570 390.5 L 570 396.5 L 567 402.5 L 567 404.5 L 564 416.5 L 555 436 Q 552.3 434.9 553 437.5 L 542 453.5 L 543 454.5 L 540 457.5 L 538 460.5 L 533.5 466 L 520 475 Q 521.1 477.7 518.5 477 L 510.5 484 L 507.5 484 L 506 483.5 Q 505.3 485.8 507.5 485 L 505.5 488 L 503.5 489 L 501.5 489 L 500 489.5 L 501 492 L 484.5 502 L 481.5 502 L 472.5 506 L 442.5 515 L 440.5 515 L 426.5 518 L 424.5 518 L 412.5 517 L 405.5 518 L 400.5 517 L 398.5 517 L 395.5 518 L 394.5 517 L 384.5 517 L 382.5 517 L 373.5 517 L 372.5 518 L 368.5 517 L 366.5 517 L 358.5 517 L 357.5 518 L 355.5 517 L 354.5 518 L 338.5 518 L 336.5 517 L 334.5 518 L 333.5 517 L 318.5 516 L 306.5 512 L 292.5 504 L 271 495.5 L 270.5 494 L 266.5 495 L 255 487.5 L 253 484.5 L 248 481.5 L 237 464.5 L 237.5 463 L 236 463 L 236 459 Q 233.3 460.1 234 457.5 L 229 443.5 L 229.5 442 Q 226.9 442.8 228 439.5 L 224 429.5 L 224 425.5 L 220 412.5 L 219 401.5 L 215 391.5 L 212.5 389 L 210 389 Q 211.3 386 207.5 387 Q 203.2 382.8 194.5 383 L 186.5 386 L 175.5 388 L 163 394 L 164 398.5 L 178 420.5 L 190 447.5 L 196 468.5 L 200 487.5 L 200 494.5 L 202 498.5 L 202 500.5 L 202 504.5 L 206 518.5 L 205 523.5 L 208 535.5 Q 206.5 543 209 546.5 L 208 548.5 L 210 553.5 L 209 555.5 L 210.5 561 L 212 560.5 L 210 564.5 L 211 565.5 L 211 575.5 L 212.5 576 L 212.5 577 Q 209.9 576.2 211 579.5 Q 214.8 581.3 213 588.5 L 212 589.5 L 212 602.5 L 212 604.5 L 213 608.5 L 212 610.5 L 212.5 612 L 211 612.5 Q 214.5 614 212 615.5 L 213 619.5 L 213 623.5 L 212 625.5 L 213 626.5 L 213 635.5 L 211 638.5 L 212 645 L 210 645.5 L 212 648.5 L 209 652.5 L 211 652.5 L 211 660.5 L 210 661.5 Q 212.3 662.8 209.5 664 Q 206.9 663.2 208 666.5 L 209 666.5 L 209.5 665 L 210 671 L 208 671.5 L 209 672.5 L 209 680.5 L 199 730.5 L 191 748.5 L 191 750.5 L 191 753 Q 188.3 751.9 189 754.5 L 185 762.5 L 184 768.5 Q 178.9 774.9 178 784 L 176 784.5 Q 178.5 786 175 787.5 L 174 789.5 L 174 791.5 L 173 795 L 171 795.5 L 171 797.5 L 160.5 817 L 159 817.5 Q 161.3 818.8 158.5 820 L 157 820.5 L 157.5 822 L 155 823.5 L 153 830.5 L 148 836.5 L 145 843.5 L 130.5 866 Q 127.9 865.2 129 868.5 L 126 873 L 123 874.5 L 121.5 877 Q 119.3 876.3 120 878.5 L 118 883 L 114 884 L 112.5 888 L 109.5 890 L 106.5 894 Q 104.3 893.3 105 895.5 L 98 900 Q 99.1 902.7 96.5 902 Q 84.8 907.3 76.5 916 L 65.5 922 L 56.5 925 L 43.5 928 L 38.5 928 L 20.5 933 L 0 934 L 0 914 L 11.5 914 L 12.5 913 L 24.5 912 L 37.5 908 L 39.5 908 L 59 903 Q 57.8 900 61.5 901 L 63.5 900 L 65.5 901 L 68 899.5 Q 65.7 898.3 68.5 897 L 71.5 896 L 73.5 896 L 76 894.5 L 75.5 893 L 77.5 893 Q 79.8 893.8 79 891.5 L 91 882.5 L 94.5 878 L 96 877.5 L 95.5 876 Q 98.8 877.1 98 874.5 L 103 866 Q 105.7 867.1 105 864.5 L 109 862 L 110 858.5 L 116.5 851 L 118 850.5 Q 115.5 849 119 847.5 L 129.5 826 L 130.5 828 L 132 825.5 L 131 822.5 L 135 820 L 136 815.5 L 135 813.5 L 138 807 Q 140.7 808.1 140 805.5 L 152 787.5 L 154 777.5 L 160 768.5 L 160 765 Q 162.7 766.1 162 763.5 L 166 756.5 Q 163.5 755 167 753.5 L 169.5 743 L 170.5 746 L 172 742.5 Q 169.3 741.8 170 737.5 Q 173.8 736.3 173 732 L 175 731.5 Q 171.5 730 174 728.5 L 179 713.5 L 182 709.5 L 184 700 Q 187 701.3 186 697.5 L 188 694.5 L 185 695.5 Q 187.5 694 186 688.5 L 188 685.5 L 188 677.5 L 190 672.5 Q 189.1 664.1 192 659.5 L 194 627.5 L 193.5 625 L 192 624.5 Q 195.5 623 194 616.5 L 193 612.5 L 194 609.5 L 193.5 599 L 192 599.5 Q 191.3 596.9 194 598 L 194 595.5 L 194 593.5 L 192 583.5 L 193 580.5 L 192 577.5 L 192 560.5 L 193 559.5 L 191 555.5 L 192 550.5 L 191.5 548 L 190.5 550 L 190 548.5 L 190 546.5 L 191 543.5 L 191 541.5 Q 188.7 538.3 190 531.5 Q 187.2 529.8 188 524.5 L 186 522.5 L 188 518.5 L 185 510.5 L 185 508.5 L 183 503.5 L 183 501.5 L 180 482.5 L 176 470.5 L 175 462.5 L 167 441.5 L 149 407.5 L 149 405.5 L 149 403 L 147 403 L 147 401 Q 144.3 402.1 145 399.5 L 143 388.5 L 145.5 383 Q 148.1 383.8 147 380.5 L 150.5 379 L 155.5 380 L 176.5 369 L 199.5 365 L 200.5 366 L 211.5 367 L 219.5 372 L 221 371.5 Q 220.3 373.8 222.5 373 L 225.5 375 L 227 374.5 Q 224.8 375.8 227.5 377 Q 229.8 376.3 229 378.5 L 233 380.5 L 234 385.5 L 233 387.5 L 235.5 394 Q 236.7 391.8 238 394.5 L 237 401.5 L 238.5 404 L 239.5 401 L 240 405 Q 236.7 403.9 238 408 L 241 409.5 Q 242.9 414.9 239.5 414 L 240 415.5 L 241.5 423 L 242.5 421 L 245 428.5 L 244 429.5 L 246 433.5 L 250.5 448 L 252 447.5 L 251 449.5 L 253 451.5 L 254 457 L 256.5 456 L 258 458.5 L 257 461.5 L 258 465 Q 260.7 463.9 260 466.5 L 263 471 L 265 471.5 Q 262.8 472.8 265.5 474 Q 266.8 471.8 268 474.5 Q 266.8 478.3 270.5 477 L 272.5 477 L 281.5 482 L 287 480 L 286.5 482 L 285 481.5 L 285.5 484 L 290 482.5 L 289.5 481 L 305.5 487 Q 311.6 493.4 321.5 496 L 345.5 499 L 347.5 499 L 351.5 498 L 352.5 499 L 392.5 499 L 394.5 499 L 396.5 498 L 416.5 498 Q 417.8 500.3 422.5 499 L 423.5 498 L 440.5 496 L 476.5 483 L 495 470.5 Q 494.3 468.3 496.5 469 L 513 456 L 532 429.5 L 544 404.5 L 547 393.5 L 547 388.5 L 549 384.5 L 549 379.5 L 552 371.5 L 553 358.5 L 554 357.5 L 554 345.5 L 555 343.5 L 555 341.5 L 555 308.5 L 554 307.5 L 555 305.5 L 553 297.5 Q 555.8 295.8 554 289.5 L 553 287.5 L 553 285.5 L 553 280.5 Q 548.5 272 548 259.5 L 539 233.5 L 526 210.5 L 510.5 192 L 507.5 190 Q 502.1 182.4 494 179 Q 495.1 176.3 492.5 177 L 483.5 169 L 452.5 153 L 420.5 143 L 416.5 140 L 401.5 135 L 374.5 129 L 372.5 129 L 338.5 129 L 315.5 134 L 283.5 146 L 261.5 160 L 252 168.5 L 250 171.5 L 235 191.5 L 222 217 Q 219 215.8 220 219.5 L 215 231.5 L 215 238.5 L 213 246.5 L 214 248.5 L 212 256.5 L 212 258.5 L 213 260.5 L 212 261.5 L 212 276.5 L 211 277.5 L 211 281.5 Q 210.5 322 186.5 339 L 159.5 355 L 142.5 358 L 140.5 358 L 137.5 359 L 131 355.5 L 121 341 Q 118.3 342.1 119 339.5 L 116 335 Q 113.3 336.1 114 333.5 L 87.5 311 L 72.5 302 L 58.5 295 L 43.5 290 L 29.5 290 L 22.5 292 L 10 293 L 9.5 295 L 0 295 L 0 275.5 Q 0 274.5 4.5 275 L 8.5 273 L 19.5 271 L 32.5 271 L 33.5 272 L 47.5 272 L 52.5 274 L 57.5 274 L 66.5 277 L 70.5 277 L 92.5 287 L 102 294.5 Q 99.3 296.3 103.5 298 L 116 307.5 Q 115.3 309.8 117.5 309 L 131 321.5 Q 129.9 324.8 132.5 324 L 136 330 L 139 331.5 L 141 334.5 Q 141.8 338.8 147.5 338 L 173 323 L 185 304.5 L 188 297.5 L 188 291.5 L 190 284.5 L 189 279.5 L 191 270.5 L 190 267 L 192 266.5 L 192 254.5 L 191 251 Q 194.5 252.1 193 244.5 Q 195.7 242.7 194 236.5 Q 191.5 235 193 229.5 L 195 229.5 L 197 220.5 L 208 200.5 L 206 199.5 L 209 198 L 208 195.5 L 210 195.5 L 209 193.5 L 212 190.5 L 212 187.5 Q 218.8 181.3 222 171.5 L 240.5 150 L 267.5 132 L 282.5 125 L 317.5 114 L 322.5 114 L 332.5 111 L 343.5 111 L 344.5 110 Z M 510 162 Q 508 165 511 164 L 510 162 Z M 512 164 L 511 166 L 514 167 L 515 167 L 512 164 Z M 572 381 L 570 383 L 571 386 L 572 383 L 572 381 Z M 237 394 L 236 397 L 237 397 L 237 394 Z M 240 409 L 239 413 L 240 413 L 240 409 Z M 247 476 L 246 478 L 248 479 L 247 476 Z M 291 483 L 293 485 L 294 485 L 291 483 Z M 294 485 L 294 487 L 296 486 L 294 485 Z M 298 485 Q 296 488 299 487 L 298 485 Z M 212 582 L 211 585 L 212 585 L 212 582 Z M 207 679 Q 205 682 208 681 L 207 679 Z M 207 684 L 205 686 L 207 686 L 207 684 Z M 132 828 L 129 832 L 131 832 L 132 830 L 132 828 Z M 127 839 L 125 841 L 126 843 L 127 841 L 127 839 Z M 118 852 L 118 854 L 120 853 L 118 852 Z M 113 858 L 113 860 L 115 859 L 113 858 Z M 100 874 L 100 876 L 102 875 L 100 874 Z " />
<path stroke="rgb(1,1,1)" stroke-width="1" opacity="0.8627450980392157" d="M 262.5 466 L 263.5 468 L 262.5 466 Z " />
<path stroke="rgb(1,1,1)" stroke-width="1" opacity="0.8627450980392157" d="M 210.5 546 L 211 550.5 L 210 550.5 L 210.5 546 Z " />
<path stroke="rgb(1,1,1)" stroke-width="1" opacity="0.8627450980392157" d="M 212.5 565 L 213 570.5 L 212 570.5 L 212.5 565 Z " />
</svg>