
<svg width="830" height="1660" version="1.1" xmlns="http://www.w3.org/2000/svg" desc="Created with imagetracer.js version 1.2.6" >
<path stroke="rgb(1,1,1)" stroke-width="1" opacity="0.9215686274509803" d="M 442.5 25 L 457.5 25 L 466.5 27 L 468.5 27 L 485.5 29 L 500.5 33 L 502.5 33 L 511.5 37 L 513.5 37 L 527.5 38 L 555 47.5 L 553.5 48 L 551.5 47 L 552.5 49 L 554.5 50 Q 556 47.5 557.5 51 L 561 52.5 Q 560.3 56.3 562.5 57 L 566.5 60 L 569 60 Q 567.9 62.7 570.5 62 L 582 70 Q 580.9 72.7 583.5 72 L 588 75 Q 586.9 77.7 589.5 77 L 592.5 81 L 599 85 L 600.5 88 Q 602.8 87.3 602 89.5 L 610 96.5 L 624 114.5 L 635 136.5 L 636 141.5 L 640 147.5 L 639.5 149 L 641 149.5 L 641 151.5 L 644 162.5 L 644 169.5 L 646 174.5 L 646 176.5 L 647 185.5 L 646 190.5 L 647 193.5 Q 644.5 195 648 196.5 Q 646.3 202.7 649 204.5 L 648 206.5 L 649 207.5 L 649 215.5 L 651 224.5 L 651 228.5 L 652 239.5 L 652 241.5 L 652 270.5 L 651 271.5 L 652 273.5 L 649 283.5 L 649 285.5 L 650 287.5 L 647 295.5 L 641 325.5 L 636 339.5 L 636 346.5 L 634 353.5 L 631 357.5 L 625 373.5 L 606 401 L 604 401 L 604 403 L 602 403 L 602 405 L 600 405 L 600 407 Q 597.3 405.9 598 408.5 L 574.5 429 L 572.5 429 L 552.5 443 L 532.5 451 L 526.5 455 L 516.5 459 L 487.5 467 L 483.5 467 L 479.5 469 L 465.5 472 L 450.5 473 L 449.5 474 L 447.5 473 L 446.5 474 L 413.5 474 L 410.5 473 Q 405 474.5 403.5 472 L 401.5 472 L 376.5 469 L 364.5 466 L 358.5 466 L 338.5 462 L 314.5 455 L 306.5 451 L 280.5 443 L 274.5 439 L 250.5 430 L 214.5 413 L 211.5 410 L 201.5 405 L 173.5 395 L 160.5 388 L 142.5 383 Q 141 385.5 135.5 384 L 134 385.5 L 135 395.5 L 141 414.5 L 141 420.5 L 143 428.5 L 142 430.5 L 143 431.5 L 143 459.5 L 144 461.5 Q 141.7 462.7 143 467.5 L 144 469.5 L 143 471.5 L 144 473.5 L 143 475.5 L 144 477.5 L 143 480.5 L 143 482.5 L 143 496.5 L 144 497.5 L 143 499.5 L 144 501.5 L 143 503.5 L 144 505.5 L 143 508.5 L 144 510.5 L 143 515.5 L 143 517.5 L 143 531.5 L 142 532.5 L 142 546.5 L 141 547.5 L 142 548.5 L 142 567.5 L 139 572.5 L 141 572.5 L 141 574.5 Q 141.8 578.3 139.5 579 L 138 579.5 L 138 581.5 L 139 585.5 L 137 586 L 137.5 591 L 138 589 L 140 588.5 Q 137.8 587.3 140.5 586 L 141 588.5 L 140 592 Q 135.1 590.2 137 596.5 L 136 598.5 L 139 599.5 L 136 601 L 136 605 L 137.5 605 L 137.5 606 Q 135.3 605.3 136 607.5 L 138 610.5 L 136 611.5 L 135.5 610 L 135 612.5 L 137 616.5 L 135.5 619 Q 138.5 618.1 137 622.5 Q 133.5 624 136 625.5 L 135 627.5 L 136 628.5 L 134 632.5 L 135 637.5 L 134 638.5 L 133 662.5 L 132 663.5 L 131 683.5 L 130 685.5 L 130 687.5 L 129 703.5 L 127 711.5 L 127 720.5 L 125 727.5 L 125 733.5 L 123 740.5 L 123 747.5 L 116 771.5 L 116 780.5 L 114 787.5 L 113 804.5 L 111 808.5 L 111 813.5 L 109 819.5 L 107 839.5 L 104 847.5 L 104 865.5 L 99 888.5 L 91 903 Q 88 901.8 89 905.5 L 81.5 914 L 73.5 920 L 53.5 928 L 48.5 928 L 35.5 931 L 26.5 931 L 16.5 937 L 10.5 937 Q 7.4 933.4 0 935 L 0 915 L 10.5 915 L 13.5 916 L 15.5 916 L 29.5 913 L 31.5 913 L 47.5 911 L 63.5 903 L 70 897.5 L 73.5 893 Q 75.8 893.8 75 891.5 L 80 884.5 L 84 864.5 L 83 862.5 L 84 860.5 L 84 858.5 L 83 854.5 L 84 853.5 L 84 845.5 L 88 835.5 L 88 823.5 L 90 818.5 L 92 804.5 L 94 800.5 L 95 791.5 L 95 789.5 L 96 769.5 L 102 752.5 L 104 733.5 L 107 721.5 L 108 704.5 L 110 697.5 L 110 687.5 L 111 686.5 L 111 684.5 Q 109.3 678.2 112 676.5 L 112 674.5 Q 110.3 668.2 113 666.5 L 113 664.5 L 114 644.5 L 115 643.5 L 115 625.5 L 116 623.5 L 115 619.5 L 116 618.5 L 116 602.5 L 117 601.5 L 117 588.5 L 118 587.5 L 118 581.5 L 118 572.5 L 120 563.5 L 120 561.5 L 120 547.5 L 121 546.5 L 121 544.5 L 122 513.5 L 123 512.5 L 123 508.5 L 123 466.5 L 124 465.5 L 123 464.5 Q 124.6 454.4 122 448.5 L 123 445.5 L 122 441.5 L 123 437.5 L 122 434.5 L 122 432.5 L 122 423.5 L 118 405.5 L 116 401.5 L 113 378.5 L 116.5 373 L 125.5 369 L 141.5 366 L 146.5 367 L 152.5 367 Q 156.5 370 163.5 370 L 182.5 377 Q 195.7 385.3 212.5 390 L 223.5 397 L 226.5 397 L 244 405 Q 242.7 408.3 247.5 407 L 257.5 413 Q 273.7 417.3 286.5 425 L 289.5 425 L 291.5 427 L 318.5 435 L 329.5 440 L 366.5 449 L 372.5 449 L 410.5 456 L 412.5 456 L 430.5 457 L 431.5 456 L 449.5 456 L 450.5 455 L 464.5 454 L 481.5 449 L 485.5 449 L 488.5 447 L 506.5 442 L 519.5 435 L 531.5 431 L 533.5 429 L 536.5 429 L 568 408.5 Q 567.3 406.3 569.5 407 L 574 404 Q 572.9 401.3 575.5 402 L 580 399 L 580 397 L 582 397 Q 580.9 394.3 583.5 395 L 599 376.5 L 612 353.5 L 615 343.5 L 616 334.5 L 620 324.5 L 620 320.5 L 629 290.5 L 630 277.5 L 632 273.5 Q 630.5 266 633 262.5 L 633 260.5 L 632 256.5 L 633 255.5 L 633 233.5 L 632 232.5 L 632 222.5 L 630 214.5 L 630 204.5 L 628 196.5 L 629 192.5 L 627 181.5 L 627 179.5 Q 627.8 175.3 625 174.5 L 627 174.5 L 625 170.5 L 626 168.5 L 624 168.5 L 625 166.5 L 623 162.5 L 624 160.5 L 622 160 L 622.5 158 L 624 158.5 Q 624.8 156.3 622.5 157 L 621 154.5 L 621.5 153 Q 618.9 153.8 620 150.5 L 621 149.5 L 618 146.5 Q 619.1 143.2 616.5 144 L 617 142.5 L 616.5 141 L 615 141.5 L 611 133.5 L 612 131 L 610 130.5 L 611 129.5 L 608.5 125 L 607 125.5 L 602 114 Q 599.3 115.1 600 112.5 Q 595.8 110.2 597.5 108 L 593 104.5 L 591.5 102 L 588 99.5 Q 588.8 97.3 586.5 98 Q 566.9 77.1 541.5 62 L 519.5 55 L 501.5 53 L 479.5 45 L 448.5 41 L 412.5 48 L 404.5 51 L 395.5 52 L 356.5 63 L 335.5 74 L 287.5 93 L 259 110 Q 260.1 112.7 257.5 112 L 249 119 Q 250.1 121.7 247.5 121 L 245 125 L 238 129 L 234.5 134 L 230 136 L 230 138.5 L 221 147.5 L 213 161.5 L 213.5 163 L 212 163.5 L 212 165.5 L 206 177.5 L 206 179.5 L 204 182.5 L 205 185 L 203 185.5 L 203.5 189 L 201 190.5 L 202 193.5 L 200 196.5 L 200.5 200 L 199 200.5 L 199 208.5 L 198 210.5 L 198 212.5 L 197 216.5 L 199 216.5 L 197 220.5 L 198 221.5 L 197 223.5 L 198 227.5 L 198 231.5 L 199 233.5 L 198.5 235 L 202 232.5 Q 201.3 230.3 203.5 231 L 209 226.5 Q 208.3 224.3 210.5 225 Q 212.5 221.8 217 222 Q 215.9 219.3 218.5 220 L 234 209.5 L 233 208.5 L 236.5 205 L 238 205.5 L 237.5 207 L 240 206.5 L 239 204 L 244 203.5 L 241 202.5 L 265.5 192 L 277.5 190 L 279.5 190 L 294.5 190 L 297.5 189 L 299.5 189 L 306.5 188 L 308.5 188 L 319.5 188 L 320.5 187 L 321 189 L 324.5 189 L 326.5 191 L 333.5 193 L 341 200.5 L 344 207 L 346 207.5 L 345.5 209 Q 347.8 208.3 347 210.5 L 349 214 L 351 214.5 L 350 216.5 Q 352.8 217.6 352 221 L 355 222.5 L 357 229.5 L 357 237.5 Q 359.6 238.9 359 243.5 L 357 250.5 L 358 253.5 L 357 256.5 L 357 258.5 L 356 262.5 L 358 263 L 358.5 259 L 359 262.5 Q 355.3 264.3 355 269.5 L 355 271.5 L 354 277.5 L 356 277.5 L 349 293.5 L 327.5 315 L 325 315.5 Q 327.3 316.8 324.5 318 L 323 317.5 Q 323.8 320.1 320.5 319 L 318 319.5 L 317.5 322 L 315.5 321 L 312.5 325 L 292.5 335 L 288.5 335 L 268.5 341 L 262.5 341 L 255.5 343 L 253.5 343 L 225.5 343 L 224.5 342 L 222.5 343 L 216.5 341 L 214.5 342 L 181.5 336 L 149.5 336 L 129.5 342 L 113.5 344 L 113.5 343 L 115 342.5 L 105 336.5 L 102 331.5 L 102 325.5 L 97 308.5 L 88.5 298 L 77.5 292 L 62.5 290 L 61.5 291 L 53.5 291 L 51.5 290 L 49.5 290 Q 44.4 292.4 35.5 291 L 14.5 299 L 5.5 299 L 4.5 300 Q 3.4 297.3 0 298 L 0 278 L 9.5 278 L 11.5 278 L 25.5 273 L 42.5 270 L 44.5 271 L 46.5 271 L 56.5 271 L 57.5 270 L 58.5 271 L 72.5 272 L 90.5 277 L 101.5 283 L 111 292.5 L 113 297 Q 115.7 295.9 115 298.5 L 118 302.5 L 124 323 L 140.5 318 L 155.5 315 L 158.5 316 L 160.5 315 Q 161.8 317.3 166.5 316 L 168.5 316 L 176.5 316 L 177.5 315 L 178.5 316 L 186.5 316 L 193.5 318 L 208.5 319 L 209.5 320 L 226.5 322 L 228.5 322 L 233.5 321 L 237.5 322 L 241.5 322 L 260.5 321 L 284.5 315 L 311.5 300 L 330 282.5 L 336 272.5 Q 335.3 266.8 338 264.5 L 339 248.5 L 340 247.5 L 340 235.5 L 334 220.5 L 324.5 209 L 317.5 208 L 315.5 209 L 313.5 209 L 287.5 209 L 286.5 210 L 283.5 209 L 276.5 212 L 269.5 213 L 258.5 218 L 254.5 218 L 246.5 223 L 246.5 221 L 242 223 L 242.5 225 L 244 224.5 L 242.5 227 L 241.5 225 L 241 227 L 216 245 L 215.5 247 L 214 246.5 L 207.5 254 L 206 254.5 Q 208.5 256 205 257.5 L 202 265 Q 198.3 263.6 200 269.5 Q 198.8 272.2 197.5 270 L 196 270.5 L 196.5 272 L 193 271 L 192.5 273 L 191 272.5 Q 191.8 274.8 189.5 274 L 185.5 272 L 184.5 274 L 182 273 L 180 265 Q 177 266 178 263 L 180 262.5 L 179 259.5 L 181 256.5 Q 179.8 251.8 182 250.5 Q 178.5 249 181 247.5 L 180 244.5 L 180 240.5 Q 178.6 231.6 181 226.5 L 180 222 Q 182.7 223.1 182 220.5 L 181 217.5 L 183 213.5 Q 181.5 208 184 206.5 L 182 206 L 183 194.5 L 189 175 L 191 174.5 Q 188.5 173 192 171.5 L 196 158.5 L 199 154.5 Q 196.5 153 200 151.5 L 200 148.5 L 203.5 143 Q 205.8 143.8 205 141.5 L 236.5 107 L 257 90.5 L 256.5 89 L 258.5 89 Q 261.1 89.7 260 87 L 262.5 87 L 281.5 76 L 283 76.5 Q 282.2 73.9 285.5 75 Q 295.8 68.3 309.5 65 L 311.5 63 L 322.5 60 L 331.5 55 L 333 55.5 Q 332.3 53.3 334.5 54 L 338 52.5 L 337.5 51 L 339.5 52 L 342 51 L 343.5 48 L 343.5 50 L 346 48.5 L 347.5 46 L 371.5 39 L 382.5 38 L 391.5 35 L 396.5 35 L 410.5 31 L 415.5 31 L 419.5 29 L 425.5 29 L 442.5 25 Z M 236 207 L 235 209 L 237 208 L 236 207 Z M 235 228 L 232 230 L 235 230 L 235 228 Z M 182 232 L 181 236 L 182 236 L 182 232 Z M 220 237 L 220 239 L 222 238 L 220 237 Z M 218 241 Q 215 243 218 244 Q 221 243 218 241 Z M 214 243 L 212 245 L 214 245 L 214 243 Z M 209 249 L 206 253 L 209 251 L 209 249 Z M 348 291 L 346 294 L 348 293 L 348 291 Z " />
<path stroke="rgb(1,1,1)" stroke-width="1" opacity="0.9215686274509803" d="M 562.5 54 L 563.5 56 L 562.5 54 Z " />
<path stroke="rgb(1,1,1)" stroke-width="1" opacity="0.9215686274509803" d="M 356.5 273 L 357 275.5 L 356 275.5 L 356.5 273 Z " />
</svg>