
<svg width="830" height="1660" version="1.1" xmlns="http://www.w3.org/2000/svg" desc="Created with imagetracer.js version 1.2.6" >
<path fill="rgb(3,3,3)" stroke="rgb(3,3,3)" stroke-width="1" opacity="0.996078431372549" d="M 85.5 274 L 137.5 274 L 138.5 275 L 146.5 275 L 155.5 277 L 187.5 280 L 192.5 282 L 210.5 283 L 212.5 283 L 229.5 284 L 258 294 L 258.5 296 Q 260 293.5 261.5 297 L 264 298.5 L 263 299.5 L 268.5 305 L 273.5 308 L 274 306 L 265 299.5 L 267.5 301 Q 289.6 316.4 307 336.5 L 310 341.5 L 309 341.5 L 303.5 334 L 299 330.5 L 296.5 327 Q 294.3 326.3 295 328.5 L 300.5 335 L 305 338.5 L 307 341.5 L 315.5 351 L 318.5 350 L 317 352.5 L 321 356.5 L 341.5 383 L 342 381.5 L 339 376 Q 336.3 377.1 337 374.5 L 329 363 L 326 361.5 L 324 358.5 L 326 358 L 345 382.5 L 346 386 L 344 386.5 L 349 388.5 L 351 392.5 L 347 389.5 L 347.5 388 L 345 389.5 L 349 394.5 L 349.5 398 L 351 397.5 L 350 398.5 L 353.5 402 L 354.5 400 Q 352.3 400.8 353 398.5 L 350 394.5 L 353 394 L 353 396.5 L 365 418.5 L 363.5 419 Q 359.8 417 361.5 415 L 360 414.5 L 361 413.5 L 358 410.5 L 356.5 408 L 356 409.5 L 365 425.5 L 365 428 L 367.5 429 L 368 427 L 371 428.5 L 373 436.5 L 376 442 L 372.5 440 L 372 441.5 L 372.5 444 Q 374.8 443.3 374 445.5 L 376.5 444 L 378 445.5 L 379 449.5 L 378.5 451 Q 381.5 450.1 380 454.5 L 385 466.5 L 383.5 466 L 382 466.5 L 382 468.5 L 383 476 L 385 475.5 L 384 473.5 L 384.5 472 L 383 471.5 L 385.5 470 L 386 473.5 Q 383.5 475 387 476.5 L 388 481.5 L 390 483.5 Q 388.5 486.5 387 483.5 L 387 481.5 L 385.5 478 Q 382.9 477.3 384 480 L 386 480.5 L 385 483.5 L 387 487.5 L 386 489.5 L 387.5 492 L 388 490 L 390.5 489 L 391 491 L 389 491.5 L 392 492 L 393 498.5 L 391 498.5 Q 390.3 500.8 392.5 500 Q 395.8 501.8 392 503.5 L 394.5 509 L 395 506.5 L 394 504.5 L 395 504.5 L 398 515.5 L 396 514.5 L 395.5 512 Q 392.8 513.3 395 514.5 L 396 516.5 L 396 518.5 L 396.5 520 L 398.5 517 L 403 542.5 L 403 544.5 L 406 580.5 L 405 580.5 L 403.5 577 L 403 579.5 L 404 584.5 L 404.5 586 L 405.5 582 L 406 595.5 L 405 597.5 L 406 600.5 L 406 602.5 L 405 609.5 L 405 611.5 L 403 617.5 L 404 621.5 L 404 625.5 L 403 627.5 Q 405.3 628.7 404 633.5 L 401.5 639 Q 404.3 638.4 403 644.5 L 401 652.5 L 401 654.5 L 397 679.5 L 395 683.5 L 393 695 L 391 695.5 L 392 700.5 Q 388.5 702 391 703.5 L 385 721.5 L 384 728.5 Q 378.8 735.8 377 746.5 L 375 748.5 L 369 764.5 L 364 770.5 L 363 775.5 L 355 787.5 L 353 794 Q 350 792.8 351 796.5 L 348 800.5 Q 350.5 802 347 803.5 L 335 825 L 333 825.5 Q 335.5 827 332 828.5 L 327 836 L 324 837.5 L 322.5 840 L 321 840.5 L 322 841.5 L 317.5 846 L 315.5 845 L 316 846.5 L 307.5 858 L 302.5 862 L 300 866 L 298 866 L 298 868 Q 295.3 866.9 296 869.5 L 290 874 L 290 876 Q 287 875 288 878 L 285 878 L 285 879.5 L 282 881 L 278.5 886 L 275 888.5 L 275.5 890 L 273.5 889 L 260.5 900 L 240.5 913 L 239 912.5 L 236.5 916 L 225.5 924 L 214.5 929 L 210.5 933 L 196.5 939 L 191.5 939 L 168.5 945 L 151.5 948 L 144.5 948 L 143.5 949 L 92.5 950 L 69.5 945 L 53.5 944 L 45.5 941 L 34.5 940 L 32.5 940 L 30.5 939 L 29.5 940 L 15 940 Q 16.3 943.3 11.5 942 L 9.5 943 L 0 941 L 0 922 L 10.5 922 L 12.5 921 L 14.5 924 L 23.5 922 L 24.5 923 L 46.5 924 L 50.5 923 L 66.5 928 L 74.5 928 L 83.5 930 L 91.5 930 L 92.5 931 L 108.5 931 L 109.5 930 L 129.5 930 L 130.5 929 L 166.5 929 Q 173.5 925.5 183.5 925 L 205.5 916 L 239 894 L 241.5 890 L 247.5 887 L 268 870 L 277.5 858 L 279 858.5 Q 278.5 854.5 281.5 854 Q 284.1 854.7 283 852 L 285.5 852 L 286.5 849 L 288 849.5 L 289.5 847 L 291.5 848 L 290.5 846 L 289 845.5 L 291 845 Q 289.9 842.3 292.5 843 L 296 838 L 298 838 L 298 836 Q 300.7 837.1 300 834.5 L 303 833 Q 301.8 830 305.5 831 L 306.5 828 Q 308.8 828.8 308 826.5 L 307.5 825 L 310 823.5 L 322 807.5 L 342 770.5 L 345 767.5 L 356 742.5 L 357 736.5 L 364 722.5 L 371 699.5 L 372 690.5 L 374 686.5 L 374 680.5 L 376 676.5 L 378 662.5 L 380 657.5 L 380 648.5 L 382 641.5 L 383 625.5 Q 380.5 624 382 618.5 L 383 617.5 L 383 598.5 L 384 594.5 L 384 592.5 L 383 561.5 L 381 553.5 L 379 530.5 L 376 522.5 L 376 517.5 L 373 511.5 L 367 485.5 L 362 472.5 L 361 465.5 Q 354.6 453.9 351 439.5 L 336 411.5 L 332 406.5 L 330 400.5 L 306 368 Q 303.3 369.1 304 366.5 L 303 364 Q 300.3 365.1 301 362.5 L 298 358 L 294 355.5 L 285 344 L 283.5 344 Q 267.4 326.1 247.5 312 L 225.5 300 L 211.5 299 L 209.5 300 L 208.5 299 L 176.5 299 L 153.5 295 L 129.5 295 L 128.5 294 L 115.5 294 L 114.5 293 L 67.5 293 L 66.5 294 L 56.5 294 L 55.5 295 L 44.5 295 L 43.5 296 L 27.5 297 L 19.5 300 L 14.5 300 L 9.5 303 L 0 303 L 0 283 L 9.5 283 L 11.5 282 L 13.5 283 L 20.5 280 L 41.5 279 L 42.5 278 L 51.5 278 L 59.5 276 L 73.5 276 L 74.5 275 L 84.5 275 L 85.5 274 Z M 276 308 L 275 310 L 279 312 L 276 308 Z M 280 312 L 287 320 L 288 320 L 280 312 Z M 289 320 Q 287 323 290 322 L 289 320 Z M 292 323 L 293 326 Q 295 327 294 324 L 292 323 Z M 343 383 L 343 386 L 344 386 Q 345 382 343 383 Z M 355 404 L 356 408 L 357 406 L 355 404 Z M 369 429 L 368 432 L 369 432 L 369 429 Z M 370 433 L 369 436 Q 373 437 372 434 L 370 433 Z M 370 437 L 370 439 Q 372 442 373 439 L 370 437 Z M 376 446 L 375 450 L 375 452 L 381 465 L 382 464 L 381 461 L 379 458 L 379 454 L 376 446 Z M 389 494 L 390 498 L 391 495 L 389 494 Z M 398 520 L 396 524 L 398 523 L 397 525 L 399 525 Q 400 521 398 520 Z M 396 526 L 396 528 L 398 528 L 397 532 L 400 532 L 400 530 L 399 528 Q 400 524 396 526 Z M 400 534 L 398 536 Q 397 538 400 537 L 399 539 L 400 542 L 399 546 Q 402 548 401 556 L 403 557 L 401 537 L 401 535 L 400 534 Z M 403 560 L 402 563 L 403 563 L 403 560 Z M 402 564 L 402 566 L 404 567 Q 405 563 402 564 Z M 404 600 L 403 603 L 404 603 L 404 600 Z M 399 657 L 398 660 L 399 660 L 399 657 Z M 293 843 L 293 845 L 296 845 L 293 843 Z M 292 845 L 293 847 Q 294 844 292 845 Z " />
<path fill="rgb(3,3,3)" stroke="rgb(3,3,3)" stroke-width="1" opacity="0.996078431372549" d="M 312.5 344 L 318 348.5 L 316 349 L 314.5 346 L 312.5 344 Z " />
<path fill="rgb(3,3,3)" stroke="rgb(3,3,3)" stroke-width="1" opacity="0.996078431372549" d="M 319.5 352 L 323 354.5 Q 322.3 356.8 324.5 356 L 324.5 357 L 322 355.5 Q 322.8 353.3 320.5 354 L 319.5 352 Z " />
<path fill="rgb(3,3,3)" stroke="rgb(3,3,3)" stroke-width="1" opacity="0.996078431372549" d="M 364 420 Q 366.7 418.9 366 421.5 L 366.5 423 L 364 422 L 364 420 Z " />
<path fill="rgb(3,3,3)" stroke="rgb(3,3,3)" stroke-width="1" opacity="0.996078431372549" d="M 367 424 Q 370 423 369 426 Q 366 427 367 424 Z " />
<path fill="rgb(3,3,3)" stroke="rgb(3,3,3)" stroke-width="1" opacity="0.996078431372549" d="M 388 486 Q 390.7 484.9 390 487.5 L 388 488.5 L 388 486 Z " />
<path fill="rgb(0,0,0)" stroke="rgb(0,0,0)" stroke-width="1" opacity="0.1803921568627451" d="M 191.5 939 L 195 939.5 L 191.5 940 L 191.5 939 Z " />
<path fill="rgb(0,0,0)" stroke="rgb(0,0,0)" stroke-width="1" opacity="0.1803921568627451" d="M 186.5 940 L 189 940.5 L 178.5 943 L 178.5 942 L 186.5 940 Z " />
<path fill="rgb(0,0,0)" stroke="rgb(0,0,0)" stroke-width="1" opacity="0.1803921568627451" d="M 173.5 943 L 177 943.5 L 169.5 945 L 169.5 944 L 173.5 943 Z " />
<path fill="rgb(0,0,0)" stroke="rgb(0,0,0)" stroke-width="1" opacity="0.1803921568627451" d="M 54.5 944 L 63 944.5 L 54.5 945 L 54.5 944 Z " />
<path fill="rgb(0,0,0)" stroke="rgb(0,0,0)" stroke-width="1" opacity="0.1803921568627451" d="M 66.5 945 L 75 946.5 L 70.5 947 L 66.5 946 L 66.5 945 Z " />
<path fill="rgb(0,0,0)" stroke="rgb(0,0,0)" stroke-width="1" opacity="0.1803921568627451" d="M 165.5 945 L 168 945.5 L 165.5 946 L 165.5 945 Z " />
<path fill="rgb(0,0,0)" stroke="rgb(0,0,0)" stroke-width="1" opacity="0.1803921568627451" d="M 159.5 946 L 164 946.5 L 159.5 947 L 159.5 946 Z " />
<path fill="rgb(0,0,0)" stroke="rgb(0,0,0)" stroke-width="1" opacity="0.1803921568627451" d="M 77.5 947 L 86 948.5 L 81.5 949 L 77.5 948 L 77.5 947 Z " />
<path fill="rgb(0,0,0)" stroke="rgb(0,0,0)" stroke-width="1" opacity="0.1803921568627451" d="M 152.5 947 L 157 947.5 L 152.5 948 L 152.5 947 Z " />
<path fill="rgb(0,0,0)" stroke="rgb(0,0,0)" stroke-width="1" opacity="0.1803921568627451" d="M 145.5 948 L 151 948.5 L 145.5 949 L 145.5 948 Z " />
<path fill="rgb(0,0,0)" stroke="rgb(0,0,0)" stroke-width="1" opacity="0.1803921568627451" d="M 89.5 949 L 92 949.5 L 89.5 950 L 89.5 949 Z " />
<path fill="rgb(0,0,0)" stroke="rgb(0,0,0)" stroke-width="1" opacity="0.1803921568627451" d="M 119.5 949 L 141 949.5 L 119.5 950 L 119.5 949 Z " />
</svg>