
<svg width="830" height="1660" version="1.1" xmlns="http://www.w3.org/2000/svg" desc="Created with imagetracer.js version 1.2.6" >
<path fill="rgb(3,3,3)" stroke="rgb(3,3,3)" stroke-width="1" opacity="1" d="M 178.5 221 L 179.5 223 L 178.5 221 Z " />
<path fill="rgb(3,3,3)" stroke="rgb(3,3,3)" stroke-width="1" opacity="1" d="M 196.5 255 L 199.5 256 L 200.5 255 L 213.5 255 L 224.5 257 L 232.5 260 L 245 269.5 L 247.5 273 L 259 281.5 L 263 286.5 L 275 298.5 L 289 317.5 L 291 325.5 L 300 338.5 L 306 351.5 L 313 372.5 L 314 385.5 L 315 386.5 L 315 400.5 L 313 405.5 L 313 407.5 L 301 436 Q 298.3 434.9 299 437.5 L 299.5 439 L 297 439.5 L 298 440.5 L 292 446.5 L 285.5 455 L 278 459 Q 279.1 461.7 276.5 461 L 267.5 466 L 266 465.5 L 265.5 467 L 263.5 467 L 253.5 472 Q 247.8 471.3 245.5 474 L 244.5 473 L 232.5 473 L 230.5 473 L 216.5 471 L 195 459 L 204 490.5 L 204 492.5 Q 205.5 502 210 508.5 L 209 511 L 211 511.5 L 211 515.5 L 215 534 L 217 534.5 L 215 535.5 L 217.5 541 L 219 540.5 L 218 545.5 L 219.5 550 L 220.5 548 L 221 550.5 L 220 552.5 L 222 555.5 L 221.5 557 L 223 557.5 L 223 559.5 L 224 562.5 L 224 564.5 L 225 567.5 L 224 568.5 Q 227.1 570.3 225.5 572 Q 227.8 571.3 227 573.5 L 226 578 Q 229 576.8 228 580.5 L 230 585.5 L 229.5 587 L 231 587.5 L 231 589.5 L 231 592.5 Q 234 591.5 233 596.5 L 233.5 599 L 235 599.5 L 234 603.5 L 239 620.5 L 239 627.5 L 241 630.5 L 241 632.5 Q 239.8 637.2 242 638.5 L 242 640.5 L 245 657.5 L 243 662.5 L 244 663.5 L 244 679.5 L 245 680.5 L 244 683.5 L 246 687.5 L 246 689.5 L 245 692.5 L 246 694.5 L 245 696.5 L 246 698.5 L 245 699.5 L 245 707.5 Q 247.5 709 244 710.5 L 246 717.5 L 245 720.5 L 245 724.5 Q 247.3 727.7 246 734.5 L 244 736.5 L 240 750.5 L 240 754.5 L 238 757.5 L 237 769 Q 234.3 767.9 235 770.5 L 228 788.5 L 228.5 790 Q 226.3 789.3 227 791.5 L 227 793.5 L 227 796 Q 224 794.8 225 798.5 L 224 802 L 222 802.5 L 222.5 804 Q 220.3 803.3 221 805.5 L 222 809.5 L 214.5 825 Q 213.2 822.8 212 825.5 L 213 827.5 L 211 827.5 L 212 830.5 L 209 831.5 L 210 833.5 L 207 837.5 L 207.5 839 Q 205.3 838.3 206 840.5 L 195 860 Q 192.3 858.9 193 861.5 L 187 866 L 184.5 870 L 169.5 882 L 161.5 885 L 146.5 896 L 124.5 908 L 110.5 911 L 76.5 923 L 74.5 922 L 61.5 927 L 42.5 930 L 38.5 932 L 36.5 931 L 23.5 936 L 0 937 L 0 917 L 10.5 917 L 11.5 916 L 23.5 916 L 28.5 914 L 35.5 914 Q 43.8 910.3 55.5 910 L 75.5 903 L 77.5 904 L 98.5 896 L 111.5 892 L 115.5 892 L 131.5 884 L 161.5 865 L 172 856.5 Q 171.3 854.3 173.5 855 L 192 830.5 L 193 825 Q 195.7 826.1 195 823.5 L 199 818.5 L 201 809.5 L 207 798.5 L 217 771.5 L 217 769.5 L 217 763.5 L 219 759.5 Q 218.2 751.2 221.5 747 L 223 747.5 Q 224.1 744.2 221.5 745 L 222 743.5 L 222 734.5 L 223.5 728 Q 224.8 730.3 226 727.5 L 225 714 Q 227.7 715.1 227 712.5 L 226.5 711 L 228 710.5 L 226 710 L 228 683.5 L 227 681 Q 229.7 682.1 229 679.5 Q 225.5 678 228 676.5 L 227 660.5 L 227 658.5 L 228 654.5 L 226 649.5 L 225 638.5 L 222 626.5 L 222 624.5 L 221 618.5 L 221 616.5 L 220 608.5 L 215 599.5 L 215.5 598 L 214 597.5 Q 216.5 596 213 594.5 L 214 592.5 L 212 592 L 209 579.5 L 209 574.5 L 206 565.5 L 206 563.5 L 204 550.5 L 202 546.5 L 202 544.5 L 200.5 541 L 200 543.5 L 201 546.5 L 200 546.5 L 199 540.5 Q 201.5 539 198 537.5 L 199 534.5 Q 195.5 534 196 529.5 L 198 529.5 L 197.5 526 L 196.5 528 Q 193.2 526.3 194 520.5 L 194.5 519 L 192 517.5 L 193 514.5 L 188 505.5 L 188 501.5 L 183 485.5 L 184 483.5 L 182 481.5 L 179 468.5 L 179.5 467 Q 176.9 467.8 178 464.5 L 176 456.5 L 170 444.5 L 169 437.5 L 170 434 L 172.5 435 Q 171.7 428.7 175.5 427 Q 181.9 426.1 183.5 430 L 184 428.5 L 183.5 427 L 186 428.5 L 186.5 427 L 189 431 L 191.5 430 L 196 437 Q 198.7 435.9 198 438.5 L 199.5 438 L 204.5 443 L 221.5 452 L 231.5 454 L 244.5 454 L 245.5 455 L 263.5 448 L 274 440.5 L 281 431.5 L 290 412.5 L 293 398.5 L 293 389.5 L 292 388.5 L 291 374.5 L 285 357.5 L 266 324.5 L 266 322.5 Q 267.1 319.2 264.5 320 L 260 313 Q 257.3 314.1 258 311.5 L 254 309 L 253 305.5 L 239.5 291 L 236.5 289 Q 230.1 281.4 220.5 277 L 212.5 275 L 203.5 275 L 202.5 274 L 192.5 276 L 183.5 276 L 169 282 Q 170.1 284.7 167.5 284 L 160 290 L 155 296.5 L 149 308.5 L 147 322.5 L 145 325.5 L 143.5 333 L 142 332.5 Q 142.8 337.3 139.5 338 L 131.5 342 L 124.5 343 L 121 342 Q 122.1 339.3 119.5 340 L 117 336 Q 114.3 337.1 115 334.5 L 110 328 L 108 328 Q 109.1 325.3 106.5 326 L 104 322 L 76.5 308 L 64.5 305 L 55.5 301 L 36.5 297 L 34.5 297 L 23.5 297 L 15.5 300 L 12.5 299 L 11.5 300 L 0 300 L 0 280 L 31.5 280 L 32.5 279 L 41.5 279 L 67.5 284 L 76.5 287 L 80.5 290 L 99.5 296 L 117.5 307 L 119.5 307 L 126.5 313 L 131 296.5 L 135 288.5 L 144.5 277 Q 154 272.5 160.5 265 L 182.5 257 L 189.5 257 L 196.5 255 Z M 196 520 L 195 524 L 197 523 L 196 520 Z M 200 535 L 199 538 L 200 538 L 200 535 Z M 236 615 L 235 618 L 236 618 L 236 615 Z M 237 620 L 236 623 L 237 623 L 237 620 Z M 237 625 L 237 631 L 238 631 Q 239 626 237 625 Z M 238 632 L 238 635 L 239 635 Q 240 631 238 632 Z M 245 730 L 244 735 L 245 735 L 245 730 Z " />
<path fill="rgb(3,3,3)" stroke="rgb(3,3,3)" stroke-width="1" opacity="1" d="M 245.5 666 L 246 669.5 L 245 669.5 L 245.5 666 Z " />
<path fill="rgb(3,3,3)" stroke="rgb(3,3,3)" stroke-width="1" opacity="1" d="M 224.5 724 L 225 726.5 L 224 726.5 L 224.5 724 Z " />
</svg>