
<svg width="830" height="1660" version="1.1" xmlns="http://www.w3.org/2000/svg" desc="Created with imagetracer.js version 1.2.6" >
<path stroke="rgb(1,1,1)" stroke-width="1" opacity="1" d="M 458.5 229 Q 461.1 228.2 460 231.5 L 461 231.5 Q 460.2 228.5 464 230 L 464 232 Q 467.8 230.5 467 233.5 L 466 236 L 468.5 237 L 470 236.5 L 470.5 240 L 472 239.5 L 470 242.5 L 472 243.5 L 470 246.5 L 471 247.5 L 472 260.5 L 474 262.5 L 475 279.5 L 477 281.5 L 475 285.5 L 473 299 Q 470 297.8 471 301.5 L 462 316.5 L 461 321 Q 458.3 319.9 459 322.5 L 458 325 L 469.5 323 L 478.5 318 L 481.5 318 L 488.5 314 L 492.5 314 L 504.5 308 L 504.5 310 L 506 310 Q 504.5 306.3 507.5 307 L 511 306.5 L 511.5 308 L 512.5 305 L 515 306 L 516.5 303 L 523.5 301 L 532.5 296 L 532.5 298 Q 534.8 298.8 534 296.5 Q 535.3 293.8 536.5 296 L 538 295.5 L 537 293 L 541.5 293 Q 543.8 289 549 289 Q 547.8 286 551.5 287 Q 558.1 279.8 569 278 L 570.5 275 L 573 275 L 573 277 Q 575.7 275.9 575 278.5 L 574.5 280 L 577 281.5 L 576 283.5 L 577.5 283 L 579.5 282 L 578.5 284 L 576 285.5 L 577 288.5 L 574.5 294 L 573 293.5 L 574 295.5 L 572 296 L 572 299.5 L 568 306.5 L 568 309.5 L 555 333.5 L 542.5 347 L 540 348.5 L 570.5 350 L 585.5 353 L 617.5 367 L 620.5 370 L 637.5 376 L 648 384.5 L 651 390.5 Q 648.5 392 652 393.5 L 651 395.5 L 652 398 Q 648.3 399.5 649 396.5 L 648 396.5 L 646 402 L 641 404.5 L 639.5 407 L 635.5 408 L 633.5 408 L 619.5 409 L 615.5 408 L 600.5 413 L 592 418.5 L 613 430.5 L 612.5 432 L 619 437.5 L 637 460.5 L 642 472.5 L 649 483.5 L 662 523.5 L 662 528.5 L 665 539.5 L 665 548 Q 662.3 546.9 663 549.5 L 661.5 549 L 659.5 550 L 649.5 545 L 645.5 541 L 640.5 540 L 636 535.5 L 628.5 523 L 616.5 515 L 605 511 L 614 541.5 L 614 546.5 L 617 558.5 L 617 565.5 L 619 572.5 L 619 574.5 L 622 588.5 L 622 608.5 L 621 609.5 L 621 618.5 L 619 624.5 L 619 629.5 L 617 632.5 Q 616.5 643.5 613 651.5 L 612 666.5 L 611 667.5 L 611 681.5 L 606 703.5 L 606 705.5 L 606.5 710 L 608 709.5 L 607.5 711 Q 610.1 710.2 609 713.5 L 612 718.5 L 608 719 L 608 721 Q 610.7 719.9 610 722.5 L 608.5 722 L 607 722.5 L 607.5 724 L 603.5 722 L 604 723.5 L 603.5 725 L 601.5 724 L 599.5 725 Q 597.4 720.6 591.5 720 L 585 713.5 L 578 701.5 L 578 696.5 L 574 685.5 L 573 671.5 L 571 664.5 L 571 662.5 L 569 654.5 L 569 648.5 L 566.5 642 L 565 663.5 L 564 664.5 L 564 666.5 L 563 722.5 L 563 724.5 L 563 745.5 L 562 746.5 L 561 761.5 L 559 767.5 L 559 776.5 L 556 787.5 L 555 797.5 L 553 801.5 L 553 807.5 L 548 820.5 L 548.5 822 Q 545.9 821.2 547 824.5 L 542 835.5 L 543 837.5 Q 540 839.5 541 845.5 L 538 849.5 L 539 851.5 L 530 869.5 L 530 874.5 L 526 878.5 L 524 886 Q 520.6 885.3 519.5 888 L 519 886 Q 515.3 887.5 516 884.5 L 514 885.5 L 514.5 887 Q 511.2 885.9 512 888.5 L 509 886.5 Q 507.7 878.2 511 874.5 L 511 858.5 L 514 845.5 L 513 844.5 L 513 833.5 L 514 829.5 L 504 798.5 L 500 789.5 L 494.5 782 L 493 784.5 L 490 804.5 L 483 833 Q 479.7 831.7 481 836.5 L 465 875.5 L 452 897 Q 449.3 895.9 450 898.5 L 433 921.5 L 425.5 935 L 424 934.5 L 424 937.5 L 418 944.5 L 411.5 959 L 411 957 Q 408.3 955.9 409 958.5 L 408 961 L 404.5 963 L 404 961 Q 400.3 959.5 401 962.5 L 398.5 961 Q 394.8 961.8 394 959.5 L 395 954.5 L 393 949.5 L 397 941 Q 400 942.3 399 938.5 L 401 936.5 L 403 931.5 L 403 927.5 L 405 924.5 L 405 922.5 L 405 917.5 Q 408.3 914.3 408 907.5 L 407.5 906 L 409 906.5 L 410 887.5 L 411 886.5 L 410 884.5 L 410 882.5 Q 408.3 876.2 411 874.5 L 410 871.5 L 410 869.5 L 411 863 L 409 862.5 L 410.5 860 L 409 859.5 L 411 858.5 L 409 847 L 406 846.5 L 409 846 L 405 832.5 L 405 830.5 L 403 823.5 Q 394.1 811.4 388.5 796 L 383 817.5 L 383 821.5 L 379 832 Q 376 830.8 377 834.5 L 370 850.5 L 335 908.5 Q 325.1 917.1 319 929.5 L 293.5 955 L 284 961 Q 285.1 963.7 282.5 963 L 269 975.5 Q 269.8 977.8 267.5 977 L 261 986 L 254 985 L 253.5 987 L 251.5 984 L 249.5 989 Q 247.8 985.9 246 987.5 L 244.5 985 L 244 987 L 238 983.5 L 234 977.5 L 234 975.5 L 234 971.5 L 238 966.5 L 243 952.5 L 247 932.5 L 247 924.5 L 247 922.5 L 249 895.5 L 248 894.5 L 248 876.5 L 250 866.5 L 251 842.5 L 249.5 837 L 249 843.5 L 247 845.5 L 247 847.5 L 247 850.5 L 238 867 Q 235.3 865.9 236 868.5 L 232.5 872 Q 231.3 869.8 230 872.5 L 230.5 874 L 232 873.5 L 228 875.5 L 230 876.5 L 219.5 891 L 219 889.5 L 219.5 888 Q 217.3 887.3 218 889.5 L 216 892.5 L 218 892.5 L 216 896 L 210.5 900 L 208 900 L 208.5 902 L 210 901.5 L 192 921.5 L 188 929 Q 185.6 927.3 179.5 928 L 176 925.5 L 171 918.5 L 170 914.5 Q 175.1 907.6 177 897.5 L 177 878.5 L 175 869.5 L 168.5 859 L 167 860.5 Q 167.2 868.5 164 872 Q 160.2 870.5 161 873.5 L 151 891.5 L 151 894.5 L 147 902 Q 144.3 900.9 145 903.5 L 142 908 Q 139.3 906.9 140 909.5 L 136 915 Q 133.3 913.9 134 916.5 L 129 920 L 123.5 928 L 116.5 929 L 108 923 Q 109 918.8 106 919.5 L 106 912.5 L 108 903.5 L 108 901.5 L 107 899.5 L 108 896 Q 105.3 894.9 106 897.5 L 86.5 919 L 80 923.5 Q 80.8 925.8 78.5 925 L 69.5 930 L 65.5 930 L 47.5 935 L 0 939 L 0 918.5 L 3.5 918 L 5.5 916 L 13.5 915 L 15.5 916 L 16.5 915 L 27.5 915 L 35.5 913 L 42.5 913 L 55.5 910 L 69.5 904 L 77 898 L 78.5 895 L 82 892.5 L 95 877.5 L 98 867.5 L 101 863 Q 103.7 864.1 103 861.5 L 104.5 862 L 107.5 861 L 124 880.5 L 127 886.5 L 127 890 L 133 885.5 L 143 867.5 L 142.5 866 L 144 866.5 Q 147.5 862 148 854.5 L 147.5 853 Q 150.5 853.9 149 849.5 L 151 843.5 L 150 841.5 L 152 837.5 L 151 832.5 L 151 830.5 L 151 826.5 Q 147.3 822.7 147 815.5 L 148 813.5 L 148 811.5 L 151 807.5 L 150.5 806 L 155.5 805 L 163 811.5 L 165 814.5 L 174 831.5 Q 171.5 833 175 834.5 L 176.5 837 L 178 836.5 L 178 841.5 L 194 868.5 L 194 872.5 L 197 880.5 L 196 882.5 L 203 876.5 L 228 843.5 L 230 833.5 L 236 821.5 L 238 801.5 L 237 797.5 L 243 785 L 245.5 786 L 249.5 785 L 255 789 Q 260.5 797.8 263 810.5 L 269 821.5 L 271 831.5 L 270 832.5 L 270 846.5 L 271 847.5 L 271 867.5 L 271 869.5 L 270 871.5 L 270 873.5 L 271 876.5 L 270 878.5 L 271 881 L 269 881.5 L 269 893.5 L 270 896.5 L 268 922.5 L 267 923.5 L 268 927.5 L 267 929.5 Q 269.8 931.2 268 937.5 L 266 941.5 L 266 946.5 L 264 954 L 271.5 948 L 275 947 L 276.5 944 L 287 936 L 293 927 Q 295.7 928.1 295 925.5 L 310 907 Q 312.7 908.1 312 905.5 L 324 890.5 L 331 875.5 L 335 871.5 Q 332.8 870.3 335.5 869 L 338 867.5 L 341 858.5 L 351 844.5 Q 353.8 834.3 360 827.5 L 366 810.5 L 374 774.5 L 373 771.5 L 375.5 766 L 377.5 767 L 379 764 L 386 765 L 387.5 768 L 393 771 L 395 776 Q 397.7 774.9 397 777.5 L 406 789.5 L 411 802.5 L 423 824.5 L 426 835.5 L 428 854.5 L 429 855.5 L 429 857.5 L 429.5 897 L 444 874.5 L 462.5 833 L 464 833 L 464 828 L 465.5 828 L 466 825.5 L 468 819.5 L 468 813.5 L 471 807.5 L 470.5 806 L 472 805.5 L 471 803.5 L 474 794.5 L 474 792.5 L 476 784.5 L 475 782.5 Q 478.5 781 476 779.5 L 477 777.5 L 477 775.5 L 478 770.5 L 477 767.5 L 479 757.5 L 478 754.5 Q 477.3 751.9 480 753 L 480 751 L 477 750.5 L 481 747.5 L 480.5 746 L 483.5 745 L 498 754 L 499 757.5 L 515 779.5 L 522 794.5 L 530.5 819 L 536 804.5 L 537 793.5 L 541 780.5 L 540 775.5 L 541 770.5 L 543 752.5 L 544 751.5 L 544 737.5 L 545 736.5 L 544 735.5 L 544 725.5 L 545 723.5 L 544 720.5 L 544 696.5 L 545 695.5 L 544 693.5 L 545 689.5 L 544 687.5 L 545 686.5 L 547 645.5 L 549 642.5 L 548 641.5 L 548 632 Q 551.3 633.3 550 628.5 L 555 611.5 L 559 604 L 563 602.5 L 562 600.5 L 563 598 Q 566 599.3 565 595.5 L 566.5 596 Q 568.8 596.8 568 594.5 L 569 594.5 L 570.5 597 L 574 598.5 Q 573 602.3 576 601 L 576 604.5 L 575 606.5 L 576 609.5 L 576 612.5 L 583 631.5 L 582 633.5 L 588 652.5 L 591 678.5 L 592.5 683 L 594 657.5 L 598 642.5 L 597 640.5 L 602 626.5 L 601 623.5 L 603 620.5 L 603 589.5 L 602 586.5 L 602 584.5 L 601 581 L 603 580.5 L 601 579.5 L 603 578.5 L 600 578 L 599 573.5 L 599 571.5 L 599 565.5 L 597 561.5 L 597 553.5 L 596 552.5 L 598 549 Q 595 550.3 596 546.5 L 597 545.5 L 595 541.5 L 596 537.5 L 594 537 L 592 526.5 L 590 524.5 L 587 513.5 L 586 503.5 L 590.5 495 Q 592 497.5 593.5 494 L 602.5 494 L 616.5 497 L 619.5 500 L 635.5 508 L 635 506.5 L 633 497.5 L 627 482 Q 624.3 483.1 625 480.5 L 614 460 Q 611.3 461.1 612 458.5 L 596.5 441 L 576 432 L 575.5 430 L 573 431 L 574 428.5 L 566 424.5 Q 564.3 419.7 568.5 421 L 568.5 420 L 565 417.5 L 569 415.5 L 569 413 Q 571.7 414.1 571 411.5 Q 586.3 397.8 610.5 393 L 613.5 394 L 618.5 392 L 622.5 393 L 622.5 392 L 604.5 384 L 593.5 377 L 572.5 368 L 532.5 367 L 527.5 366 L 523 368 Q 524.1 365.3 521.5 366 L 520 365.5 Q 520.8 367.8 518.5 367 L 513 365 L 511 361.5 Q 514.5 360 512 358.5 L 513.5 356 Q 515.8 356.8 515 354.5 L 514 351.5 L 516 347.5 L 517 344 Q 530.1 336.4 540 324.5 L 550 308 L 502 328 L 501.5 326 L 499.5 329 L 497.5 328 L 493 329.5 L 495 330.5 L 492.5 332 L 492.5 330 L 484 333.5 Q 486.3 334.7 483.5 336 L 479.5 335 L 479.5 337 L 476.5 336 L 469 338.5 L 469.5 340 L 465.5 339 L 465.5 341 L 462.5 340 L 456.5 344 L 451.5 345 L 449.5 345 L 445.5 344 L 443.5 344 L 438 343 Q 435.9 337.8 440.5 339 L 440.5 338 Q 436.8 338.8 436 336.5 L 440 332.5 L 440 328.5 L 444 318.5 L 457 295.5 L 460 283.5 L 460 281.5 L 460 266.5 L 457.5 261 L 451 269.5 L 447 278 L 445 278 Q 446.1 280.7 443.5 280 L 429.5 295 L 426 297.5 Q 426.8 299.8 424.5 299 L 420.5 304 Q 418.3 303.3 419 305.5 L 417.5 305 L 411 311.5 Q 411.8 313.8 409.5 313 L 391.5 325 L 362.5 339 L 348.5 343 L 338.5 344 L 333 340.5 L 331 336.5 L 335 334.5 L 332 332.5 L 335 329.5 L 334 328.5 L 334 303.5 L 333 302.5 L 332 285.5 L 330 278 L 328 278.5 L 328.5 280 L 326 278.5 L 329 276.5 L 326.5 272 L 322 281.5 L 321 289.5 L 322 294.5 L 320 295.5 L 321 291.5 L 320 291.5 L 319 297.5 L 317 299.5 L 318.5 300 L 321 298.5 L 316 301.5 L 318 302.5 L 315 309.5 L 315.5 311 L 313 311.5 Q 315.5 313 312 314.5 L 299 339.5 L 295 344.5 L 295 347 Q 292.3 345.9 293 348.5 L 282.5 360 L 279.5 362 Q 270.7 371.1 257 374 L 256.5 372 L 252 373 Q 253.1 370.3 250.5 371 L 248 370 L 249 367.5 L 248.5 366 L 250 365.5 L 247 364 L 246.5 362 L 244 363 L 241 355.5 L 241 353.5 L 240 347.5 L 231.5 336 L 230 340.5 L 229 368.5 L 227 373.5 L 225.5 385 L 224.5 383 L 224 385.5 L 224.5 387 L 223 387.5 L 223 389.5 L 222.5 391 L 220.5 391 L 217.5 392 L 215.5 392 L 213.5 391 L 212 391.5 L 212.5 390 L 209.5 389 L 208 389.5 L 206.5 387 Q 204.3 387.8 205 385.5 L 203 383.5 L 202 374.5 L 200 370.5 L 183 348.5 L 171.5 337 L 169 335.5 Q 169.8 333.3 167.5 334 L 164 332 Q 165.1 329.3 162.5 330 L 142.5 316 L 130.5 310 L 127.5 310 L 124.5 308 L 101.5 301 L 79 297.5 L 79.5 296 L 74.5 297 L 74.5 296 L 76 295.5 L 71.5 295 L 70.5 296 L 58.5 296 L 56.5 296 L 51.5 297 L 49.5 297 L 28.5 298 L 16.5 303 L 13.5 302 L 11.5 303 L 6.5 302 L 4.5 303 L 1 301 L 0 298.5 L 0 280 L 7.5 280 L 15.5 278 L 19.5 279 L 20.5 278 L 52.5 278 L 53.5 279 L 77.5 280 L 78.5 281 L 85.5 281 L 91.5 283 L 102.5 284 L 128.5 292 L 163.5 310 L 186 328 L 186 329.5 L 200 344.5 L 208 358 Q 210.7 356.9 210 359.5 L 213.5 364 L 215 359.5 L 215 339.5 L 217 329.5 L 217 314.5 L 216 313.5 L 216 305.5 L 216.5 303 Q 218.8 303.8 218 301.5 L 219 301.5 L 220.5 304 Q 222.3 300.3 224 303.5 L 224.5 305 L 225.5 302 L 232.5 306 L 234 305.5 L 237 312 Q 239.7 310.9 239 313.5 Q 244.7 326.3 254 335.5 Q 259.4 343.6 261.5 355 Q 272.5 348.5 280 338.5 Q 279.2 335.5 283 337 L 283 333.5 L 299 306.5 L 304 292.5 L 306 290.5 Q 305.3 283.8 308 280.5 L 308 278.5 L 311 269.5 L 311 267.5 Q 313.5 264 312 256.5 L 315 251 Q 317.7 249.9 317 252.5 L 320 251.5 L 320.5 254 Q 322.6 250.1 328 251 L 330 255 L 332.5 255 L 335 255.5 Q 334.3 257.8 336.5 257 L 341 260.5 L 344.5 265 Q 347.1 264.2 346 267.5 L 346 269.5 L 349 283.5 Q 346.5 285 350 286.5 L 349 289.5 L 350 292.5 L 349 294.5 L 350 297 Q 347.3 295.9 348 298.5 L 351 299.5 L 351 322.5 L 354.5 323 L 389.5 306 L 396.5 300 L 400 299 L 405.5 292 L 408.5 290 L 410 287 Q 412.7 288.1 412 285.5 L 413 285.5 L 413.5 287 L 415.5 283 L 415.5 285 Q 417.8 285.8 417 283.5 L 424.5 277 L 426 277.5 L 425 275.5 L 428.5 271 L 431 269.5 L 430 267.5 Q 431.3 263.2 436 264 L 436 260 L 437.5 260 L 439 260.5 L 438 258.5 L 441.5 254 L 443 254.5 L 442 252.5 L 445.5 250 L 447 250.5 L 446 247.5 L 450 243.5 L 458.5 229 Z M 324 275 L 322 277 L 324 277 L 324 275 Z M 346 276 L 345 279 L 346 279 L 346 276 Z M 553 287 L 551 288 L 551 289 L 554 288 L 553 287 Z M 309 291 L 308 294 L 309 294 L 309 291 Z M 521 302 L 521 303 L 523 303 L 521 302 Z M 315 303 L 316 305 Q 317 302 315 303 Z M 505 324 L 505 326 L 507 325 L 505 324 Z M 300 334 L 298 337 L 300 336 L 300 334 Z M 298 337 L 294 343 L 296 343 L 298 339 L 298 337 Z M 599 557 Q 596 561 600 560 L 599 557 Z M 601 567 L 600 571 L 601 571 L 601 567 Z M 595 674 L 594 677 L 595 677 L 595 674 Z M 583 706 L 582 708 L 587 712 L 583 706 Z M 588 712 Q 586 715 589 714 L 588 712 Z M 591 715 Q 589 718 592 717 L 591 715 Z M 235 864 L 235 867 L 237 866 Q 238 863 235 864 Z M 222 885 L 220 888 L 222 887 L 222 885 Z M 215 892 Q 213 895 216 894 L 215 892 Z " />
<path stroke="rgb(1,1,1)" stroke-width="1" opacity="1" d="M 326.5 280 L 327 282.5 L 326 282.5 L 326.5 280 Z " />
<path stroke="rgb(1,1,1)" stroke-width="1" opacity="1" d="M 324.5 285 L 325 286.5 L 323 287.5 L 324.5 285 Z " />
<path stroke="rgb(1,1,1)" stroke-width="1" opacity="1" d="M 293.5 538 L 294.5 540 L 293.5 538 Z " />
</svg>