
<svg width="830" height="1660" version="1.1" xmlns="http://www.w3.org/2000/svg" desc="Created with imagetracer.js version 1.2.6" >
<path stroke="rgb(1,1,1)" stroke-width="1" opacity="1" d="M 42.5 272 L 45.5 273 L 46.5 272 L 56.5 272 L 57.5 273 L 66.5 273 L 68.5 272 L 77.5 274 L 89.5 274 L 96.5 276 L 102.5 276 L 105.5 278 L 116.5 280 L 119.5 282 L 134.5 286 L 154.5 296 L 192 319 Q 190.9 321.7 193.5 321 Q 198.3 327.5 206 329 Q 204.9 331.7 207.5 331 L 213.5 336 L 215 335.5 L 217 338.5 L 221 340 Q 219.9 342.7 222.5 342 L 246 359 L 246 361 L 248 361 Q 246.9 363.7 249.5 363 Q 256.8 371.3 267 375 Q 265.9 377.7 268.5 377 Q 281.8 390 298 399 Q 296.9 401.7 299.5 401 L 314.5 412 L 340.5 424 L 357.5 435 L 406.5 460 L 439.5 473 L 452.5 475 L 463.5 479 L 476.5 480 L 483.5 482 L 491.5 482 L 495.5 481 L 507.5 473 L 512.5 472 L 515.5 469 L 518 469 Q 516.9 466.3 519.5 467 L 526 464 Q 524.9 466.7 527.5 466 L 530.5 465 Q 532.8 464.3 532 466.5 L 534 468.5 Q 530.3 470.3 533.5 472 L 535 472.5 L 534 474.5 L 535 475.5 L 531 479.5 L 531 481 Q 527.2 479.5 528 482.5 L 528.5 484 L 526.5 483 L 523 485.5 L 526 487.5 L 524.5 488 L 523 487.5 L 518.5 493 L 517 492.5 L 518.5 490 L 514 492.5 L 515 495 L 511.5 494 L 508 496.5 L 509.5 499 Q 498.7 503.7 491.5 512 L 468.5 523 L 466.5 523 L 438.5 536 L 436.5 536 L 426.5 538 L 420.5 541 L 418.5 541 L 405.5 543 L 400.5 545 L 394.5 545 L 378.5 550 L 373.5 550 L 370.5 552 L 356.5 553 L 355.5 554 L 316.5 559 Q 315.2 556.8 310.5 558 L 308.5 558 Q 303.8 556.8 302.5 559 L 301.5 558 L 288.5 558 L 277.5 555 L 266.5 555 L 251 550 L 251 602.5 L 249 612.5 L 249 614.5 L 249 619.5 L 245 638.5 L 245 640.5 L 241 663.5 L 223 711.5 L 223 714.5 L 221 716.5 L 213 738.5 L 211 747.5 L 206 754.5 L 199 770.5 L 195 775.5 L 194 779.5 L 176 811.5 L 167 823.5 L 167 825.5 L 155 839.5 L 151 847 Q 148.3 845.9 149 848.5 Q 142.5 853.5 140 861 Q 137.3 859.9 138 862.5 L 116.5 885 L 113.5 887 L 110 889 Q 111.1 891.7 108.5 891 L 76.5 913 L 64.5 919 L 50.5 923 L 30.5 933 L 22.5 934 L 19.5 936 L 16.5 935 L 10.5 937 L 8.5 937 L 5.5 936 L 0 937 L 0 916 L 15.5 916 L 28.5 912 L 43.5 904 L 53.5 902 L 72.5 893 L 107 864.5 L 118 851 Q 120.7 852.1 120 849.5 Q 138.2 829.9 152 807 Q 154.7 808.1 154 805.5 L 161 793 Q 163.7 794.1 163 791.5 L 182 757.5 L 183 753.5 L 186 750.5 L 190 742.5 L 192 734.5 L 194 732.5 Q 191.5 731 195 729.5 Q 194.4 723.4 198 721.5 L 198 717.5 L 202 710.5 L 206 696.5 L 220 660.5 L 224 645.5 L 226 628.5 L 228 623.5 L 228 621.5 L 231 598.5 L 231 596.5 L 231 572.5 L 232 569.5 L 231 566.5 L 232 563.5 L 232 561.5 L 231 559.5 L 232 558.5 L 232 535.5 L 235 531.5 L 234.5 530 Q 237.1 530.8 236 527.5 L 237.5 525 L 238 527 Q 241.3 528.1 240 524 L 244.5 524 L 260.5 534 L 265.5 534 L 272.5 536 L 274.5 536 L 286.5 537 L 287.5 538 L 296.5 538 L 297.5 539 L 299.5 539 L 301.5 538 L 305.5 539 L 307.5 539 L 309.5 538 L 331.5 537 L 350.5 533 L 359.5 533 L 374.5 530 L 378.5 528 L 388.5 527 L 392.5 525 L 407.5 523 L 435.5 515 L 459.5 503 L 467 501 Q 468.4 497.3 462.5 499 L 451.5 495 L 442.5 494 L 429.5 490 L 422.5 486 L 400.5 478 L 348.5 451 L 336.5 443 L 307.5 429 L 276.5 408 L 269.5 401 L 215.5 359 L 209.5 356 L 187.5 339 L 184 338 L 182.5 335 L 142.5 310 L 130.5 304 L 98.5 294 L 80.5 293 L 71.5 291 L 69.5 291 L 67.5 292 L 56.5 292 L 55.5 291 L 45.5 291 L 42.5 292 L 29.5 293 L 17.5 297 L 0 298 L 0 278 L 12.5 278 L 25.5 274 L 33.5 274 L 42.5 272 Z M 504 499 L 503 501 L 505 500 L 504 499 Z M 490 510 L 488 512 L 490 512 L 490 510 Z " />
<path stroke="rgb(1,1,1)" stroke-width="1" opacity="1" d="M 528.5 462 L 527.5 464 L 528.5 462 Z " />
</svg>