
<svg width="830" height="1660" version="1.1" xmlns="http://www.w3.org/2000/svg" desc="Created with imagetracer.js version 1.2.6" >
<path fill="rgb(2,2,2)" stroke="rgb(2,2,2)" stroke-width="1" opacity="1" d="M 10.5 282 L 25.5 282 L 27.5 283 L 28.5 282 L 39.5 282 L 40.5 283 L 62.5 285 L 73.5 289 L 78.5 289 L 94.5 295 L 97.5 295 L 123.5 307 L 171.5 339 L 196.5 363 L 198 363 L 199 366.5 L 209.5 377 Q 211.8 376.3 211 378.5 L 221.5 390 Q 223.8 389.3 223 391.5 L 231 400.5 L 248 427.5 L 257 444.5 L 259 452.5 L 267 469.5 L 267 471.5 L 272 486.5 L 272 491.5 L 274 497.5 L 273 499.5 L 278 527.5 L 277.5 529 L 279 529.5 L 278 531.5 L 278 533.5 L 279 535.5 L 280 553.5 L 281 554.5 L 281 556.5 L 281.5 568 L 283 567.5 L 281 569.5 L 281 578.5 L 280 579.5 L 280 583.5 L 280 596.5 L 278 599.5 L 278 601.5 L 278 618.5 L 277 619.5 L 277 621.5 L 277 634.5 L 276 635.5 L 277 637.5 L 276 639.5 L 276 641.5 L 275 670.5 L 272 686.5 L 275 687.5 Q 275.8 689.8 273.5 689 L 272 690.5 Q 273 697.5 270 700.5 L 270 702.5 L 270 710.5 L 267 726.5 L 267 728.5 L 266 739.5 L 264 741.5 L 265 744.5 L 262 759 L 264 759.5 L 262 760 L 262.5 763 L 264 762.5 L 260 769.5 L 263 770.5 L 260 772 L 259 775.5 L 259.5 777 L 258 777.5 L 259 779.5 L 259 781.5 L 258 784.5 L 260 784.5 Q 260.7 787.1 258 786 L 258 788.5 L 257 791.5 L 256 796.5 L 256 800.5 L 257 803.5 Q 254.8 804.8 256 809.5 L 257 809.5 L 257.5 805 L 258 811.5 L 255 813.5 L 255 815.5 L 254.5 817 Q 253.3 814.8 252 817.5 Q 252.8 819.8 250.5 819 L 239.5 828 L 240 826.5 L 239.5 825 L 237 826 Q 238.1 828.7 235.5 828 L 233 829 L 231 834 L 227 836.5 L 223 841.5 L 223 844 Q 220.3 842.9 221 845.5 L 216.5 852 Q 214.3 851.3 215 853.5 Q 208.2 856.9 207 864 Q 204.3 862.9 205 865.5 Q 199 871.5 196 880.5 L 201 890.5 L 202 897.5 L 200 900.5 Q 202.3 901.8 199.5 903 L 196.5 902 L 194.5 903 L 192.5 903 Q 189.2 904.1 190 901.5 L 190.5 900 L 182 893.5 L 180 887 Q 176.7 888.3 178 883.5 L 177 882.5 L 176 870.5 L 174 865.5 L 176 862.5 L 173 862 L 174 857.5 L 173 855.5 L 173 853.5 L 172 844.5 L 174 844.5 L 173.5 841 L 172.5 843 L 171 840.5 L 173 830.5 L 172.5 829 Q 174.8 829.8 174 827.5 L 176 822.5 Q 173.5 821 177 819.5 L 176 817.5 L 178 816.5 L 178.5 819 L 179 815.5 L 177 812.5 L 180 813.5 L 182 809.5 L 179 810.5 L 180.5 808 Q 182.8 808.8 182 806.5 L 184 797.5 L 186 794.5 Q 183.5 793 187 791.5 L 188 789.5 L 187 787.5 L 192 779.5 L 194 771.5 L 193 769.5 L 196 767.5 L 195.5 766 L 198 764.5 L 197 761.5 L 215 723.5 L 215 719.5 L 219 709.5 L 220 698.5 L 221.5 697 L 223 696.5 L 222 692.5 L 223 692.5 L 223.5 695 L 224 691.5 L 223 688.5 L 225 679.5 L 225 672.5 L 226.5 670 L 228 670.5 Q 228.8 667.9 225.5 669 L 226 667.5 Q 225.4 662.1 227 660 L 229 659.5 L 227 656.5 L 228 651.5 L 229 648.5 L 227 647.5 L 229 647 Q 230.1 644.3 227.5 645 L 227.5 644 Q 229.8 644.8 229 642.5 L 227 642.5 L 228.5 637 L 229.5 639 L 230 636.5 L 226 634.5 L 229 632.5 L 227 631.5 L 228 628.5 L 227 625.5 L 228 623.5 L 228 621.5 L 226 618.5 L 227 615.5 L 226 615.5 L 225.5 617 L 225 615.5 L 225 613.5 L 224 601.5 L 224 599.5 L 223 597.5 L 225 597 L 226 591.5 L 224 591.5 L 225 588.5 L 224 586.5 Q 226.3 585.3 225 580.5 L 223 576.5 L 224 574.5 Q 221.3 572.3 221.5 567 L 220 567.5 L 221 564.5 L 212 540.5 L 210 525 L 208 524.5 L 209 522.5 Q 205.1 507.1 198 496 Q 195.3 497.1 196 494.5 L 192 486.5 L 190 479.5 L 190 474.5 L 187.5 470 L 185 492.5 L 183 498.5 L 182 515.5 L 180 523.5 L 181 528.5 L 179 538.5 L 179 554.5 L 178 555.5 L 177 575.5 L 176 576.5 Q 178.5 578 177 583.5 L 177 585.5 L 176 590.5 L 177 593.5 L 175 601.5 L 175 603.5 Q 176.2 608.3 174 609.5 L 175 610.5 L 175 618 L 173 618.5 Q 176.5 620 174 621.5 L 174 652.5 L 173 653.5 L 173 655.5 L 172 688.5 L 171 690.5 L 171 692.5 Q 172.5 698 170 699.5 L 170 701.5 L 168 727.5 L 166 731.5 L 164 748.5 L 159 767.5 L 156 787.5 L 152 800.5 L 152 805.5 L 145 826.5 L 142 829.5 L 133 847.5 L 126 857 L 123 858.5 L 116.5 867 Q 114.3 866.3 115 868.5 L 103 884 Q 100 882.8 101 886.5 L 98 888 L 95.5 893 L 92 895.5 L 79 912 Q 76.3 910.9 77 913.5 Q 67.4 924.4 53.5 931 L 36.5 937 L 32.5 940 L 23.5 942 L 12.5 942 L 10.5 941 L 6.5 942 L 0 941 L 0 920 L 12 920 L 12.5 922 L 19.5 919 L 23.5 919 L 49.5 908 L 68 892.5 L 70 889.5 Q 76.9 884.5 80 877 Q 82.7 878.1 82 875.5 Q 91.1 868.7 96 859 L 99 857.5 L 100.5 855 Q 102.8 855.8 102 853.5 L 118.5 828 Q 120.8 828.8 120 826.5 L 131 798.5 L 130 796.5 L 134 788.5 L 134 784.5 L 134 782.5 L 134 777.5 L 136 777 L 136 775.5 L 135 772.5 L 136.5 767 L 138 767.5 Q 138.8 765.3 136.5 766 L 137 764.5 L 140 748.5 L 142 746.5 L 141 743.5 L 142 738.5 L 144 736.5 L 143 734.5 L 143 732.5 Q 142.3 730.3 144.5 731 L 144 729.5 L 146.5 714 L 147.5 717 L 149 711.5 Q 145.3 709.8 147 702.5 L 150 701.5 L 148 701 L 148.5 692 L 149.5 699 L 151 690.5 L 151 681.5 L 150 681.5 L 149.5 685 L 149 681.5 L 151 678.5 L 149 678.5 L 150.5 670 L 151.5 675 L 153 666.5 L 153 664.5 L 153 651.5 L 154 650.5 L 153 647.5 L 154 620.5 L 153 620.5 L 152.5 622 L 152 619 L 155 617.5 L 155 615.5 L 155 597.5 L 157 592.5 L 155.5 589 Q 152.5 589.9 154 585.5 L 155 585.5 Q 154.3 588.1 157 587 L 156 581.5 L 157 578.5 L 157 576.5 L 157 555.5 L 158 553.5 L 157 551.5 L 158 547.5 L 158 545.5 L 159 543.5 L 157 537.5 L 158 532 L 160 531.5 L 159 528.5 L 161 524.5 L 162 512.5 L 161 510.5 L 162 507.5 L 161 505.5 L 163 495.5 L 163 493.5 Q 164.8 487.3 162 485.5 L 164 485.5 Q 162.5 480 165 478.5 L 165 474.5 L 164.5 473 L 163 473.5 L 166 469.5 L 166 467.5 L 167 464.5 L 166 460.5 L 166 458.5 L 168 445.5 L 168 443.5 L 167 440.5 L 168 439.5 L 168 430.5 L 170 425.5 Q 167.3 423.8 169 417.5 L 170 412.5 Q 167.2 409.5 168 404 L 166 403.5 L 169 399.5 L 168 396.5 L 169 394 L 173 392.5 L 173.5 391 L 176.5 393 L 178.5 393 L 182 394 L 182.5 397 L 185 395.5 L 184.5 394 Q 187.5 393.1 186 397.5 L 188.5 399 L 187 396.5 L 188.5 395 L 191 398.5 Q 189.2 408.8 193 413.5 L 192 414.5 Q 195.1 416.2 193.5 418 L 195 418.5 L 194 421 L 197 422.5 L 197 425.5 L 201 432.5 L 209 455.5 L 215 466.5 L 215 469.5 L 224 493.5 Q 221.5 495 225 496.5 L 225 500.5 L 235 526.5 L 241 552.5 L 241 557.5 L 243 560.5 L 243 562.5 L 243 569.5 L 245 573.5 L 245 580.5 L 247 588.5 L 247 590.5 L 248 594.5 L 247 599.5 L 248 601.5 L 248 603.5 L 249 610.5 L 249 612.5 L 250 619 Q 245.9 617.3 247 621.5 L 248 623.5 L 245 624.5 L 246 629.5 L 246 631.5 L 246.5 636 L 247.5 632 L 248 641.5 L 247 641.5 L 246.5 637 L 246 643 L 248 643.5 L 247 646.5 L 248 649.5 L 247 653.5 L 248 655.5 L 247 657.5 L 248 658.5 L 248 668.5 L 246 673.5 L 246 682.5 L 244 688.5 L 244 694.5 L 242 699.5 L 240 715.5 L 231 739.5 L 224 751.5 L 219 765.5 L 209 783.5 L 208 788.5 L 203 798.5 L 196 822.5 L 196 827.5 L 193 831.5 L 192 844.5 L 191 845.5 L 192 846.5 L 192 854 L 196 852 L 196 849.5 L 203 840.5 L 203 838.5 L 217 823.5 L 217 822 L 221 820.5 Q 218.3 818.7 222.5 817 Q 224.8 817.8 224 815.5 L 222 815.5 L 227 812.5 Q 225.9 809.2 228.5 810 L 237 803.5 L 240 796 Q 237.3 797.1 238 794.5 Q 241.5 793 239 791.5 L 240 787.5 L 239 785.5 L 240 785.5 L 240.5 787 L 241 784.5 L 241 780.5 L 240 776 L 242 775.5 L 241 771 L 243 770.5 L 241 769.5 L 243 767.5 L 242.5 764 L 244 764.5 L 243 761.5 L 244 758.5 L 244 756.5 L 244 751.5 L 246 744.5 L 245 742.5 L 247 736.5 L 247 734.5 Q 246.4 729.9 249 728.5 L 249 724.5 Q 248 715.5 251 710.5 L 251 708.5 L 252 702.5 L 251 700.5 L 254 687.5 L 254 685.5 L 255 673.5 L 256 672.5 L 255 670.5 L 257 663.5 L 256 661.5 L 257 659.5 L 257 655.5 L 257 643.5 L 258 641.5 L 257 638.5 L 258 637.5 L 258 628.5 L 260 622.5 L 259 621.5 L 259 613.5 L 261 610.5 L 259 610 L 260 606.5 Q 257.8 605.3 259 600.5 L 261 596.5 Q 259.5 591 262 589.5 L 261 585.5 L 262 582.5 L 261 579.5 L 262 567.5 Q 259.8 566.3 261 561.5 L 261 559.5 L 260 553.5 L 261 551.5 L 259 546.5 L 259 538.5 L 258 537.5 L 258 535.5 L 257 530.5 L 257 528.5 L 254 505.5 L 252 494.5 L 250 491.5 L 250 486.5 L 233 445.5 L 214 414.5 L 185.5 384 Q 183.3 384.8 184 382.5 L 182 379 L 166 365.5 L 158.5 357 L 124.5 333 L 93.5 317 L 78.5 311 L 48.5 305 L 30.5 305 L 21.5 303 L 12.5 303 L 11.5 304 L 0 304 L 0 283 L 9.5 283 L 10.5 282 Z M 203 445 L 201 447 L 203 447 L 203 445 Z M 205 449 L 202 451 L 204 451 L 205 452 L 205 449 Z M 206 453 L 205 456 L 207 457 L 206 453 Z M 209 460 Q 207 463 210 462 L 209 460 Z M 186 463 L 185 466 L 186 466 L 186 463 Z M 212 465 L 210 468 L 213 475 Q 212 477 215 476 L 214 478 L 216 478 L 212 465 Z M 216 480 L 215 482 L 218 483 L 218 481 L 216 480 Z M 217 484 L 219 488 L 217 489 L 220 489 L 219 486 Q 220 483 217 484 Z M 221 489 L 221 499 L 223 498 L 221 489 Z M 180 497 L 179 500 L 181 500 L 180 497 Z M 224 498 L 222 500 L 225 506 L 225 509 L 227 510 L 224 498 Z M 178 502 Q 176 506 180 505 L 179 504 L 181 503 L 178 502 Z M 230 517 L 228 521 L 230 521 L 231 522 L 230 517 Z M 176 519 L 176 524 L 179 523 Q 181 524 180 522 L 179 522 L 177 522 L 179 521 L 176 519 Z M 178 528 L 175 529 L 176 532 L 175 534 L 177 534 L 178 531 L 178 528 Z M 176 535 L 174 539 L 177 539 L 175 538 L 178 536 L 176 535 Z M 234 535 L 234 537 L 236 536 L 234 535 Z M 174 540 L 173 544 L 176 545 Q 178 544 176 543 Q 177 539 174 540 Z M 237 540 L 236 545 L 237 545 L 237 540 Z M 175 547 L 173 550 L 176 548 L 175 547 Z M 176 549 L 174 553 L 175 556 L 176 556 L 176 549 Z M 175 556 L 174 558 L 177 559 L 175 556 Z M 175 559 L 173 562 L 175 561 L 175 559 Z M 173 564 L 173 566 L 175 565 L 173 564 Z M 175 569 Q 173 572 176 571 L 175 569 Z M 174 571 L 173 575 L 175 574 L 174 571 Z M 174 594 L 173 596 L 175 597 L 174 594 Z M 172 607 L 171 610 L 173 610 L 174 608 L 172 607 Z M 170 611 L 170 613 L 172 612 L 170 611 Z M 172 617 L 171 621 L 172 621 L 172 617 Z M 170 661 Q 168 664 171 663 L 170 661 Z M 170 664 L 168 667 L 170 667 L 170 664 Z M 170 668 L 168 671 L 170 670 L 170 668 Z M 227 674 L 226 678 L 227 678 L 227 674 Z M 169 684 L 169 685 L 171 685 L 169 684 Z M 225 685 L 224 688 L 225 688 L 225 685 Z M 166 697 L 167 702 Q 169 701 167 700 L 168 698 L 166 697 Z M 149 704 L 148 709 L 149 709 L 149 704 Z M 165 705 L 166 711 Q 168 710 166 709 L 167 706 L 165 705 Z M 164 713 L 164 715 L 166 714 L 164 713 Z M 164 717 L 165 722 L 166 718 L 164 717 Z M 164 723 L 162 728 L 163 733 L 163 732 L 164 729 L 164 723 Z M 214 728 L 213 732 L 214 732 L 214 728 Z M 162 733 L 162 738 L 163 736 L 162 733 Z M 159 745 L 159 747 L 161 746 L 159 745 Z M 207 745 Q 203 746 204 752 L 204 753 Q 206 754 205 751 L 205 749 L 208 748 L 207 745 Z M 160 749 L 161 751 Q 162 748 160 749 Z M 201 757 L 199 760 L 201 762 L 202 760 L 201 757 Z M 242 823 L 241 825 L 243 824 L 242 823 Z M 174 846 L 173 849 L 174 849 L 174 846 Z M 82 881 L 81 882 Q 78 881 79 885 L 82 883 L 82 881 Z " />
<path fill="rgb(2,2,2)" stroke="rgb(2,2,2)" stroke-width="1" opacity="1" d="M 164.5 460 L 165 463.5 L 164 463.5 L 164.5 460 Z " />
<path fill="rgb(2,2,2)" stroke="rgb(2,2,2)" stroke-width="1" opacity="1" d="M 154.5 581 L 156 583.5 L 154 582.5 L 154.5 581 Z " />
<path fill="rgb(2,2,2)" stroke="rgb(2,2,2)" stroke-width="1" opacity="1" d="M 154.5 590 L 155 594.5 L 154 594.5 L 154.5 590 Z " />
<path fill="rgb(2,2,2)" stroke="rgb(2,2,2)" stroke-width="1" opacity="1" d="M 280.5 607 L 279.5 609 L 280.5 607 Z " />
<path fill="rgb(2,2,2)" stroke="rgb(2,2,2)" stroke-width="1" opacity="1" d="M 153.5 608 L 154 611.5 L 153 611.5 L 153.5 608 Z " />
<path fill="rgb(2,2,2)" stroke="rgb(2,2,2)" stroke-width="1" opacity="1" d="M 279.5 613 L 280 615.5 L 279 615.5 L 279.5 613 Z " />
<path fill="rgb(2,2,2)" stroke="rgb(2,2,2)" stroke-width="1" opacity="1" d="M 152.5 623 L 153 627.5 L 152 627.5 L 152.5 623 Z " />
<path fill="rgb(2,2,2)" stroke="rgb(2,2,2)" stroke-width="1" opacity="1" d="M 277.5 649 L 278 651.5 L 277 651.5 L 277.5 649 Z " />
<path fill="rgb(2,2,2)" stroke="rgb(2,2,2)" stroke-width="1" opacity="1" d="M 275.5 673 L 276 676.5 L 275 676.5 L 275.5 673 Z " />
<path fill="rgb(2,2,2)" stroke="rgb(2,2,2)" stroke-width="1" opacity="1" d="M 271.5 708 L 272 711.5 L 271 711.5 L 271.5 708 Z " />
<path fill="rgb(2,2,2)" stroke="rgb(2,2,2)" stroke-width="1" opacity="1" d="M 267.5 735 L 268 737.5 L 267 737.5 L 267.5 735 Z " />
<path fill="rgb(2,2,2)" stroke="rgb(2,2,2)" stroke-width="1" opacity="1" d="M 185.5 788 L 186 789.5 L 184.5 792 L 184 790.5 L 185.5 788 Z " />
<path fill="rgb(2,2,2)" stroke="rgb(2,2,2)" stroke-width="1" opacity="1" d="M 181.5 802 L 182 804.5 L 181 804.5 L 181.5 802 Z " />
<path fill="rgb(2,2,2)" stroke="rgb(2,2,2)" stroke-width="1" opacity="1" d="M 200.5 875 L 199.5 877 L 200.5 875 Z " />
</svg>