
<svg width="830" height="1660" version="1.1" xmlns="http://www.w3.org/2000/svg" desc="Created with imagetracer.js version 1.2.6" >
<path stroke="rgb(1,1,1)" stroke-width="1" opacity="1" d="M 73.5 272 L 80.5 273 L 83 275.5 L 81 283.5 L 81 293.5 L 86.5 303 Q 97.5 313.8 114 318 Q 112.6 322 119.5 320 L 128.5 323 L 151.5 324 L 152.5 323 L 159.5 323 L 169.5 321 L 182.5 314 L 190.5 314 L 194 315 Q 192.5 318.8 195.5 318 L 195.5 319 L 193 319.5 L 193.5 321 L 192 321.5 L 194.5 326 L 196 325.5 L 194 328.5 L 193 334.5 L 194 338.5 L 193 341.5 L 193 343.5 L 194 356.5 L 203.5 369 L 209.5 373 Q 210.8 370.7 212 373.5 Q 209.8 374.8 212.5 376 L 214.5 375 L 214.5 377 L 228.5 384 L 240.5 388 L 242.5 388 L 248.5 390 L 261.5 391 L 285.5 396 L 301 396 L 304.5 401 L 308 402 L 309 405.5 L 307 408.5 L 305 419.5 L 306 419.5 L 306.5 418 L 307 419.5 L 306 420.5 L 306 429.5 L 311 441 L 314 442.5 Q 317.5 452 324.5 458 L 344.5 468 L 364.5 473 L 366.5 473 L 391.5 474 L 393.5 474 L 395.5 473 L 406 473 L 407.5 476 Q 411.5 475.5 412 478.5 L 412 482.5 L 407 489.5 L 408 491.5 L 405 495.5 Q 407.5 497 404 498.5 L 401 508.5 L 403 517.5 L 403 519.5 L 402 522.5 Q 410.2 544.3 426.5 558 L 448.5 572 L 465.5 579 L 474.5 581 L 476.5 581 L 487.5 583 L 492.5 582 L 503 585.5 Q 500.2 587.3 504.5 589 Q 506.8 588.3 506 590.5 L 506 592.5 L 504.5 595 L 503 595.5 L 503 597.5 L 501 600.5 L 498 603.5 L 489 620.5 L 488 636.5 Q 494.7 657.3 510.5 669 L 515 671 Q 513.9 673.7 516.5 673 L 531.5 683 L 546.5 690 L 556.5 693 L 567.5 693 L 575 697.5 L 576 702 L 569 702.5 L 571 703.5 L 568 706.5 L 569 707.5 L 568.5 709 L 567 708.5 L 563.5 713 L 562 713 L 562 715 Q 559.3 713.9 560 716.5 Q 556 718.5 556 724.5 L 558 734.5 L 567 755.5 L 580 773 L 582 773 Q 580.9 775.7 583.5 775 L 600.5 787 L 620.5 794 L 629 798.5 L 630 801.5 Q 628.6 804.1 624 803.5 L 626 809.5 L 621 812.5 L 621 814.5 L 618.5 818 L 613.5 819 L 603.5 824 L 595 831.5 L 591 838.5 L 587 852.5 L 587 865.5 L 595 879 Q 597.7 877.9 597 880.5 L 611 895.5 L 611 897 L 615 899.5 L 616.5 902 L 627.5 910 L 635.5 914 L 639.5 914 L 647 919.5 L 648 922.5 L 647 925 L 643.5 924 L 644.5 926 L 647 927.5 L 642 929.5 L 642.5 931 L 640.5 931 Q 638.3 930.3 639 932.5 L 634 939.5 Q 635.5 945 633 946.5 L 633 948.5 L 634 950.5 L 633 952.5 L 637 967.5 L 639 969.5 L 639 973.5 L 648 992.5 Q 655.7 1004.8 666.5 1014 L 672 1017 L 673.5 1020 L 676 1021.5 Q 675.3 1023.8 677.5 1023 L 687.5 1032 Q 689.8 1034.7 695.5 1034 L 699.5 1037 L 703 1037 L 700.5 1043 Q 698.3 1042.3 699 1044.5 L 698 1047 Q 701 1046 700 1049 L 697.5 1050 Q 696 1047.5 694.5 1051 L 689 1053 L 685 1060.5 L 685 1062.5 L 684.5 1064 L 683 1063.5 L 681 1069.5 L 681 1071.5 L 682 1076.5 L 691 1095 Q 693.7 1093.9 693 1096.5 L 703 1107.5 L 705 1112 L 709 1114.5 L 713.5 1120 L 716 1121.5 L 718.5 1125 Q 720.8 1124.3 720 1126.5 L 738 1142.5 Q 743.1 1148.9 744 1158 L 741 1158.5 L 742 1161.5 L 744 1166.5 L 743 1168.5 L 743.5 1170 L 741.5 1169 L 740.5 1171 L 743 1172.5 Q 743.8 1174.8 741.5 1174 L 740 1177 L 734 1178.5 L 734.5 1180 Q 727.7 1178.3 724.5 1173 L 717 1170 Q 718.1 1167.3 715.5 1168 L 710.5 1165 L 709 1165.5 L 707.5 1163 Q 704.2 1166.8 696 1165 L 695.5 1163 L 694.5 1165 L 693 1164.5 Q 693.8 1166.8 691.5 1166 L 692 1164.5 L 691.5 1163 L 684.5 1165 L 684.5 1163 L 677.5 1164 L 673.5 1162 L 665 1164 L 664.5 1162 L 664 1164 Q 659 1165.3 657.5 1162 L 655.5 1162 L 634.5 1160 L 635.5 1163 Q 633.3 1163.8 634 1161.5 L 633.5 1159 L 630.5 1161 L 629.5 1158 L 623.5 1160 L 619.5 1158 L 617.5 1159 L 615.5 1157 Q 610.8 1157.8 609 1155.5 L 611 1155 L 610.5 1153 L 609 1153.5 Q 609.8 1151.3 607.5 1152 L 608 1153.5 L 607.5 1155 L 604.5 1154 L 600 1151.5 L 600.5 1150 L 597.5 1151 L 594 1150 L 593 1146 L 591 1146.5 L 591.5 1148 L 586 1145.5 L 589 1144.5 L 581.5 1141 L 582.5 1143 L 585 1144.5 L 583.5 1145 L 577 1140.5 L 579.5 1142 L 581 1140.5 Q 580.3 1138.3 576.5 1139 L 574.5 1140 L 574.5 1139 L 576 1138.5 L 569 1135 Q 570.3 1132 566.5 1133 L 564 1131.5 L 565 1133.5 L 563.5 1133 Q 561.3 1133.8 562 1131.5 L 560.5 1129 L 563 1130.5 L 561.5 1128 L 559.5 1127 L 558 1127.5 L 559 1125.5 L 553.5 1121 L 554.5 1124 Q 551.9 1124.7 553 1122 L 551 1122 L 551 1118.5 L 549.5 1119 L 547 1118.5 L 547.5 1117 L 543 1115 Q 544.1 1112.3 541.5 1113 L 526 1096.5 L 525 1093 L 523 1093 Q 524.1 1090.3 521.5 1091 L 514 1081.5 L 514 1079 L 512 1079 L 512 1077 Q 509.3 1078.1 510 1075.5 L 509 1073 Q 506.3 1074.1 507 1071.5 L 506 1069 Q 503.3 1070.1 504 1067.5 L 493.5 1054 Q 490.9 1054.8 492 1051.5 L 489 1050 L 488 1046 L 486 1046 L 486 1043 Q 483.3 1044.1 484 1041.5 L 482 1038.5 L 483 1036 Q 480.3 1037.1 481 1034.5 L 480 1034.5 L 481 1037.5 L 479 1036.5 L 478 1033 Q 475.3 1034.1 476 1031.5 L 460 1009.5 L 457.5 1003 L 456 1003.5 L 442.5 985 Q 440.3 985.8 441 983.5 L 437 978.5 L 437.5 977 L 435 977 L 435 975 Q 432.3 976.1 433 973.5 L 424 963.5 L 422 959 Q 419.3 960.1 420 957.5 L 403.5 938 L 402 938 L 402 936 Q 399.3 937.1 400 934.5 Q 395.2 927.9 388 925 L 386.5 922 L 375 913 L 373.5 910 L 371 910 Q 372.1 907.3 369.5 908 L 364.5 904 L 362 904 Q 363.1 901.3 360.5 902 L 356.5 899 L 355 899.5 L 353.5 897 L 351.5 898 L 348 895.5 L 346.5 893 L 340 891 Q 341.3 888 337.5 889 L 331.5 884 L 329.5 884 L 312.5 879 L 307.5 876 L 303.5 876 L 291.5 872 L 261.5 871 L 259.5 872 L 257.5 872 L 238.5 875 L 233.5 877 L 232.5 875 L 232 877 L 200.5 885 L 182.5 892 L 171.5 894 L 168.5 896 L 165 895 L 164.5 897 L 163 896.5 Q 163.9 899.5 159.5 898 L 157.5 900 L 153.5 900 L 145.5 903 L 143.5 903 L 111.5 913 L 109.5 912 L 52.5 933 Q 42.5 934 35.5 938 L 22.5 938 L 21.5 939 L 15.5 937 L 13.5 937 L 0 938 L 0 919.5 Q 0.1 918.4 5.5 919 L 8.5 918 Q 13 922.5 23.5 921 L 44.5 916 L 88.5 897 L 111.5 890 L 115.5 890 L 150.5 878 L 161.5 876 L 163.5 874 L 173.5 872 L 176.5 870 L 178.5 870 L 189 866.5 L 188.5 865 L 194 866 L 194.5 863 L 195.5 865 L 197.5 864 L 199 864.5 L 199.5 862 L 200 864 L 202 863.5 Q 199.8 862.3 202.5 861 L 215 858 L 215.5 856 L 217.5 857 L 219.5 857 L 223.5 855 L 225.5 856 L 225.5 854 L 229.5 856 L 231.5 853 L 233.5 853 L 237.5 854 L 237.5 853 L 236 852.5 L 237.5 852 L 240.5 853 L 245 852 L 245.5 850 L 246.5 852 L 250.5 850 L 259.5 850 L 266.5 848 Q 267.8 850.3 272.5 849 L 274.5 849 L 276.5 848 L 281.5 850 L 300.5 852 L 335.5 863 L 339.5 866 L 346.5 868 L 356.5 875 L 366.5 879 L 383 891.5 L 382.5 893 Q 386.3 892.3 387 894.5 L 388.5 897 L 390 896.5 L 392.5 901 L 408 914.5 L 409.5 917 L 412 918.5 Q 411.3 921.1 414 920 L 414 922.5 L 422 929 L 425 935 L 429 937.5 L 449 961.5 L 451 966 Q 453.7 964.9 453 967.5 L 464 980.5 L 466 985 Q 468.7 983.9 468 986.5 Q 479.4 1005.6 494 1021.5 L 498 1029.5 L 508 1040.5 L 511 1046.5 L 532 1071.5 L 535 1077 Q 537.7 1075.9 537 1078.5 L 546 1090 L 556 1097 Q 554.9 1099.7 557.5 1099 L 561 1104 L 566 1107.5 Q 565.3 1109.8 567.5 1109 L 579.5 1118 L 593.5 1124 L 604.5 1131 L 615.5 1135 L 635 1139.5 L 631 1140.5 L 640.5 1142 L 640.5 1141 L 637 1140.5 L 640.5 1140 L 641.5 1141 L 648 1141 L 648.5 1143 L 649.5 1142 L 657.5 1142 L 657.5 1144 L 661 1143.5 L 660.5 1142 Q 666.8 1140.3 668.5 1143 L 694.5 1143 L 695.5 1144 L 696.5 1143 L 706.5 1143 L 706.5 1145 L 712 1142.5 L 709 1142 L 707.5 1139 Q 697.8 1135.2 692 1127.5 L 689.5 1122 Q 687.3 1122.8 688 1120.5 L 684 1115 Q 681.3 1116.1 682 1113.5 Q 672.5 1104.7 668 1092 L 666 1091.5 L 666 1089.5 L 665.5 1088 L 664 1088.5 L 665 1086.5 L 662 1081.5 L 663 1079.5 Q 659 1077.5 661 1069.5 L 666 1057.5 L 673 1048.5 L 674 1045 Q 671 1046 672 1043 L 669 1043 L 669 1041 Q 666 1042 667 1039 L 664 1039 L 664 1037 L 661.5 1037 L 656 1033 L 656 1031 L 654 1031 Q 655.1 1028.3 652.5 1029 L 647.5 1023 Q 645.3 1023.8 646 1021.5 L 642 1018.5 L 636 1011.5 L 623 990.5 L 614 963.5 L 613 942.5 Q 615.3 933.3 621 927.5 L 616 926 Q 617.3 923 613.5 924 L 611 923 L 608.5 919 L 605 917.5 L 602.5 914 L 600 912.5 Q 600.8 910.3 598.5 911 L 583.5 894 L 581 892.5 L 577 886 Q 574.3 887.1 575 884.5 L 567 872.5 L 566 854.5 L 572 832.5 L 576 825 L 594 811.5 Q 593.3 809.3 595.5 810 L 600 806.5 L 583.5 799 L 572 790.5 Q 572.8 788.3 570.5 789 L 567 787 L 560.5 779 Q 558.3 779.8 559 777.5 L 555.5 774 Q 554.3 776.3 553 773.5 Q 544 758.6 539 741 L 537 740.5 L 538 738.5 L 534.5 726 L 533.5 730 Q 530.8 728.8 533 727.5 L 534 721 Q 536.7 722.1 536 719.5 L 543 708 L 514.5 696 L 504.5 690 L 489 677 L 483.5 670 L 481 668.5 L 482 667.5 L 479 664.5 L 475.5 658 L 474 658.5 L 474.5 657 L 472 655.5 L 473 653.5 L 468 644.5 L 467 628.5 L 467 626.5 L 468 620.5 L 478 602.5 L 478 600 L 464.5 597 L 458.5 597 L 440.5 591 L 429.5 585 L 405 566 L 400.5 560 Q 398.3 560.8 399 558.5 L 394.5 553 L 392 551.5 L 392 549 Q 389.3 550.1 390 547.5 L 384 537.5 L 381 522.5 L 381 520.5 L 382 505.5 L 387 493.5 L 376.5 493 L 375.5 492 L 372.5 493 L 363.5 491 L 361.5 492 L 341.5 488 L 327.5 483 L 315.5 477 L 304 467.5 L 296 456.5 L 296 454 L 293 453.5 L 293.5 452 L 291 450.5 L 293 450 L 291.5 445 L 290.5 448 Q 288.3 446.3 289 441.5 L 290 439.5 L 289 438.5 L 288 422.5 L 290 413.5 L 288.5 414 L 257.5 410 L 253.5 408 L 250.5 409 L 242.5 407 L 240.5 408 L 236.5 406 L 234.5 406 Q 205.5 398 187 379.5 L 181 369.5 L 178 360.5 L 177 350.5 L 180 335.5 L 176.5 338 L 170.5 340 L 154.5 341 L 149.5 343 L 145.5 343 L 134.5 343 L 121.5 340 L 114 340 Q 115.3 336.3 109.5 338 L 105 337 Q 106.3 334 102.5 335 L 87.5 329 L 77.5 321 L 75 321 L 73.5 318 L 69 314.5 L 67 309 L 64 307.5 L 63 304.5 L 63 291 Q 51.8 292 43.5 297 L 33.5 298 L 28.5 300 L 26.5 299 L 21.5 301 L 19.5 301 L 9.5 299 L 0 299 L 0 279 L 10.5 279 Q 12.2 276.2 17.5 277 L 35.5 281 L 53.5 275 L 66.5 273 L 69.5 274 L 73.5 272 Z M 216 858 L 210 860 L 210 861 L 221 859 L 216 858 Z M 206 861 L 206 862 L 209 862 L 206 861 Z M 342 868 L 342 869 L 344 869 L 342 868 Z M 589 1124 L 590 1126 L 591 1126 L 589 1124 Z M 594 1127 L 595 1129 L 597 1129 L 594 1127 Z M 606 1133 L 606 1134 L 609 1134 L 606 1133 Z M 612 1135 L 614 1137 L 617 1137 L 612 1135 Z M 619 1137 L 621 1139 Q 622 1136 619 1137 Z M 626 1139 Q 625 1141 628 1140 L 629 1141 Q 630 1138 626 1139 Z M 642 1142 L 642 1143 L 645 1143 L 642 1142 Z M 606 1151 L 604 1153 L 606 1154 L 606 1151 Z M 613 1154 L 614 1156 L 619 1156 L 613 1154 Z M 621 1156 L 622 1158 Q 623 1155 621 1156 Z M 624 1156 Q 622 1159 625 1158 L 624 1156 Z M 660 1162 L 660 1163 L 663 1163 L 660 1162 Z M 699 1163 L 699 1164 L 702 1164 L 699 1163 Z " />
<path stroke="rgb(1,1,1)" stroke-width="1" opacity="1" d="M 178.5 867 L 177.5 869 L 178.5 867 Z " />
<path stroke="rgb(1,1,1)" stroke-width="1" opacity="1" d="M 566.5 1134 L 567.5 1136 Q 564.7 1136.7 566.5 1134 Z " />
<path stroke="rgb(1,1,1)" stroke-width="1" opacity="1" d="M 673.5 1164 L 676 1164.5 L 673.5 1165 L 673.5 1164 Z " />
</svg>