
<svg width="830" height="1660" version="1.1" xmlns="http://www.w3.org/2000/svg" desc="Created with imagetracer.js version 1.2.6" >
<path fill="rgb(2,2,2)" stroke="rgb(2,2,2)" stroke-width="1" opacity="1" d="M 222.5 213 L 250.5 213 L 258.5 215 L 273.5 223 L 294.5 239 L 305 249.5 L 316 263.5 L 317 268.5 L 327 287.5 L 337 318.5 L 341 339.5 L 344 345.5 L 344 347.5 L 345 352.5 L 345 354.5 L 349 382.5 L 349 384.5 L 350 402.5 L 351 403.5 L 351 411.5 L 352 412.5 L 353 423.5 L 353 425.5 L 354 428.5 L 353 433.5 L 354 434.5 L 354 445.5 L 355 447.5 L 355 449.5 L 355 458.5 L 356 459.5 L 355 463.5 L 355 465.5 L 356 467.5 L 356 480.5 L 357 481.5 L 357 494.5 L 358 495.5 L 357 498.5 L 358 502.5 L 358 504.5 L 359 506.5 L 358 508.5 L 360 514.5 L 360 522.5 L 363 538.5 L 363 540.5 L 363 547.5 L 366 557.5 L 366 559.5 L 365 562.5 L 368 574.5 L 368 576.5 Q 367.2 581.8 370 583.5 L 371 606.5 L 372 607.5 L 373 627.5 L 374 628.5 L 374 640.5 L 375 641.5 L 376 657.5 L 378 665.5 L 378 667.5 L 379 678.5 L 381 681.5 L 384 697.5 L 384 699.5 L 386 711.5 L 394 731.5 L 396 740.5 Q 404.6 751.8 409 766 Q 412 764.8 411 768.5 L 414.5 774 Q 416.8 773.3 416 775.5 L 437 806.5 L 448.5 819 L 469.5 830 L 475 834.5 Q 476.5 838.9 473.5 838 L 474 839.5 L 477 844.5 L 476 847 L 473 847.5 Q 475.3 848.8 472.5 850 Q 467.2 849.2 466.5 853 L 459.5 853 L 449.5 850 Q 442.7 851.3 439.5 849 L 437.5 849 Q 424.1 846.6 416 840 L 415.5 838 Q 414 840.5 412.5 837 Q 410.3 837.8 411 835.5 L 403 830.5 L 403.5 829 L 401 827.5 L 396.5 822 L 389 817 Q 390.1 814.3 387.5 815 L 382 808 L 379 806.5 L 377 803.5 L 358 778.5 L 349 758.5 L 349.5 757 Q 346.5 757.9 348 753.5 L 337.5 732 L 337 738.5 L 337 740.5 L 338 742.5 L 339 761.5 L 340 762.5 L 340 776.5 L 341 777.5 L 341 788.5 L 343 794.5 L 344 811.5 L 353 839.5 L 354 846.5 L 356 849.5 L 359 865.5 L 362 874.5 L 367 880.5 L 367 882.5 L 369 888.5 L 365.5 890 L 363.5 890 Q 360.9 889.2 362 892.5 L 359.5 896 L 350 893 L 348 887 Q 345.3 888.1 346 885.5 L 338 876.5 L 338 873.5 L 335 869.5 Q 337.3 868.3 334.5 867 Q 332.3 867.8 333 865.5 L 313 825.5 L 315 824.5 L 313 824 L 310 819.5 Q 312.5 818 309 816.5 L 307 809.5 L 307.5 808 L 306 807.5 Q 308.5 806 305 804.5 L 306 802.5 L 304 802 L 304 794.5 Q 300.8 795.4 302 787.5 L 300 784 L 302 783.5 L 298 778.5 L 298 776.5 Q 300.5 775 297 773.5 L 296 770.5 L 297 766.5 L 295 761.5 L 296 758.5 L 294 755.5 L 293 746.5 L 293 744.5 L 292 739.5 L 292 737.5 L 291 734.5 L 290.5 718 L 289 721.5 L 289 732.5 L 288 733.5 L 289 735.5 L 287 743.5 L 287 745.5 Q 288.8 751.8 286 753.5 L 287 755.5 L 286 756.5 L 285 782.5 L 282 799.5 L 282 807.5 L 283 808.5 L 284 819.5 L 286 822.5 L 286 839.5 L 288 847 L 282.5 846 L 283 847.5 L 282.5 850 L 282 848 L 278 849.5 Q 278.8 851.8 276.5 851 L 272 850 L 271.5 848 L 269.5 849 L 267 846.5 L 265 838.5 L 263 836.5 L 261 824.5 L 259 821.5 L 259 817.5 L 257 814.5 L 252 796.5 L 252 792.5 L 251 788.5 L 252 786.5 L 250 777.5 L 250 768.5 L 250 766.5 L 249 761.5 L 250 758.5 L 249 753.5 L 250 751.5 Q 246.5 750 249 748.5 L 248 738.5 L 248 736.5 L 248 728.5 L 247 727.5 L 247 725.5 L 247 714.5 L 246 713.5 L 247 710.5 L 246 706.5 L 246 704.5 L 245 699.5 L 247 690.5 L 244 684.5 L 245.5 682 Q 243.3 682.8 244 680.5 L 243 675.5 L 244 673 L 242 672.5 L 244 671.5 L 242 666.5 L 243 663.5 Q 244.5 658 242 656.5 Q 244.8 654.8 243 648.5 L 242 645.5 L 242 636.5 L 243 635.5 L 242 632.5 L 242 630.5 L 241.5 626 L 240 632.5 L 241 634.5 L 239 634.5 L 238 638.5 L 239 642.5 L 238 645 Q 235.3 643.9 236 646.5 L 237 649.5 L 235 653.5 L 234 659 L 232 659.5 L 233 661.5 L 230 663 L 231 667.5 L 228 669 L 229 671.5 L 223 682.5 L 223 686 L 220 686.5 L 221 688.5 L 220 692 L 218 692.5 L 218 694.5 L 216 699.5 L 216 701.5 L 217 703.5 L 217 705.5 L 215 712 Q 212.3 710.9 213 713.5 L 212 713.5 L 211.5 712 L 210.5 715 L 209.5 712 L 207.5 715 L 207 713 Q 203.7 711.9 205 716 L 201.5 716 L 198 715 Q 196.1 709.4 197 699.5 L 198 698.5 L 198 688.5 L 200 681.5 L 200 679.5 L 200 670.5 L 204 652.5 L 205 628.5 L 206 627.5 L 206 625.5 L 206 604.5 L 208 600.5 L 207 597.5 L 208 594.5 Q 206.8 586.3 209 581.5 L 208 580.5 L 208 572.5 L 209 570.5 L 208 567.5 L 208 565.5 L 209 563.5 L 209 561.5 L 208 559.5 L 209 558.5 L 210 528.5 L 209 528.5 L 196 552.5 L 187 564.5 L 187 567 L 185 567.5 L 185.5 569 Q 183.3 568.3 184 570.5 Q 180.9 572.3 182.5 574 L 181 574.5 L 181.5 576 L 178.5 575 Q 177.3 578 173 577 Q 174.1 579.7 171.5 579 L 169.5 580 L 163 579 L 162 572.5 L 167 562.5 L 167 560.5 L 169 552.5 L 173 544.5 L 176 530.5 L 176 528.5 L 180 510.5 L 180 508.5 L 181 493.5 L 182 492.5 L 182 490.5 L 185 462.5 L 184 460.5 L 185 455.5 L 185 453.5 Q 186.2 448.7 184 447.5 L 185 446.5 L 185 434.5 L 184 433.5 L 183 396.5 L 182 392.5 L 183 390.5 L 182 387.5 L 182 385.5 L 182 373.5 L 179 364.5 L 169 350 L 155.5 341 L 145.5 339 L 146 340.5 L 150 355.5 L 154 380.5 L 156 384.5 L 156 386.5 L 157 407.5 L 158 408.5 L 158 433.5 L 159 434.5 L 158 437.5 L 159 439.5 L 159 443.5 L 160 445.5 L 159 446.5 L 159 465.5 L 158 466.5 L 158 468.5 L 159 471.5 L 158 474.5 L 158 476.5 L 159 481.5 L 158 484.5 L 159 486.5 L 157 494.5 Q 159.5 496 158 501.5 L 158 503.5 L 157 508.5 L 157 523.5 L 156 525.5 L 157 530.5 L 156 534.5 L 156 538.5 Q 154.5 544 157 545.5 Q 154.7 546.8 156 551.5 L 157 553.5 L 156 556.5 L 156 558.5 L 156 566.5 L 155 567.5 L 156 570.5 L 155 571.5 L 155 580.5 L 156 585.5 L 156 587.5 L 154 604.5 Q 156.3 605.8 155 610.5 L 154 611.5 L 153 625.5 L 153 627.5 L 153 639.5 L 152 640.5 L 152 649.5 L 151 650.5 L 151 659.5 L 149 670.5 L 149 672.5 L 149 679.5 L 145 696.5 L 143 718.5 L 139 732.5 L 139 738.5 L 135 750.5 L 134 760.5 L 134.5 762 L 133 761.5 L 131 774.5 L 128 781.5 L 128 785.5 L 125 793.5 L 125 797.5 L 123 800.5 L 123 804.5 L 116 821.5 L 116 825.5 L 111 839 L 108 840.5 L 109 842.5 L 106 850 L 104 850 Q 105.3 855.3 102 854.5 L 102 857.5 L 97 867 Q 94.3 865.9 95 868.5 L 94 871 L 92 871.5 L 93 872.5 L 88 877.5 L 86 880.5 L 83.5 884 Q 81.3 883.3 82 885.5 L 77 889.5 L 75.5 892 Q 73.3 891.3 74 893.5 L 70 896 L 70 898 L 68 898 Q 69.1 900.7 66.5 900 L 59.5 908 L 52 913.5 L 49.5 917 L 46 918 Q 47.1 920.7 44.5 920 L 34 924.5 L 36 925.5 L 12.5 937 L 0 937 L 0.5 916 L 3.5 917 L 5.5 916 L 10.5 917 L 12.5 916 L 14.5 917 L 34.5 907 L 41 902 Q 39.9 899.3 42.5 900 L 45 896 L 49 893.5 Q 48.3 890.9 51 892 L 51 890 L 52.5 890 L 55 889 L 58 883 L 64 880 L 64 878 Q 66.7 879.1 66 876.5 L 76 865.5 Q 79.9 854.4 87 846.5 L 89 840 Q 92.7 841.4 91 835.5 L 93 832 L 95 831.5 L 94 829.5 L 97 823.5 L 96 821.5 L 100 814.5 L 99 813.5 L 101 809.5 L 103 802 Q 107 803.4 105 796.5 L 112 774.5 L 112 772.5 Q 111.4 767.9 114 766.5 L 113 765.5 L 115 763.5 L 114 762.5 L 116 758.5 L 117 754.5 L 116 753.5 L 118 749.5 L 120 744.5 L 119 742.5 L 121 735 L 123 734.5 L 121 730.5 L 123 728.5 Q 122.2 722.2 125 719.5 L 125 717.5 L 126 713.5 L 126 711.5 L 127 709.5 L 126 706.5 L 127 701.5 L 128 698.5 L 128 696.5 L 129 693.5 L 128 691.5 L 129 688.5 L 131 672.5 L 133 669.5 L 134 655.5 L 133 650.5 L 134 649.5 Q 132.5 642 135 638.5 L 134 635.5 L 135 632.5 L 135 630.5 L 135 615.5 L 136 613.5 L 136 611.5 Q 134.5 606 137 604.5 L 136 603.5 L 136 594.5 L 136 592.5 L 137 590.5 Q 134.5 589 138 587.5 L 137 584.5 L 137 582.5 L 136 580.5 L 137 575.5 L 137 573.5 L 137 561.5 L 138 560.5 L 137 555.5 L 138 553.5 L 137 550.5 L 137 548.5 L 139 530.5 L 138 527.5 L 138 525.5 L 139 511.5 L 140 510.5 L 139 507.5 L 140 504.5 L 140 502.5 L 140 494.5 L 141 493.5 L 140 488.5 L 141 485.5 L 140 484.5 L 140 471.5 L 140 469.5 L 141 462.5 L 141 460.5 L 142 455.5 L 141 454.5 L 140 418.5 L 139 417.5 L 141 416.5 L 139 411.5 L 140 406 L 138 405.5 L 140 405 L 138 398.5 L 139.5 396 Q 137.3 396.8 138 394.5 L 137.5 393 L 139 392.5 L 138 389.5 L 139 387.5 L 137 379.5 L 134 375.5 L 136 375.5 L 133 361.5 L 133 359.5 L 131 355.5 L 130 345.5 L 130.5 344 L 129 343.5 L 129 341.5 Q 126.4 340.1 127 335.5 L 128 335.5 L 129 339 L 131 338.5 L 128 332.5 L 130 333.5 L 130.5 335 L 133 328.5 Q 130.8 327.3 133.5 326 L 148.5 324 L 163.5 327 L 172.5 333 L 173.5 332 L 179.5 338 L 182.5 340 L 185 341 L 195 355.5 L 200 370.5 L 200 374.5 Q 201.8 380.8 199 382.5 L 200 383.5 L 200 407.5 L 201 408.5 L 201 410.5 L 200 414.5 L 201 415.5 L 202 431.5 L 203 432.5 Q 200.5 434 202 439.5 L 202 441.5 L 203 443.5 Q 200.5 445 202 450.5 L 203 452.5 L 202 455.5 L 203 459.5 Q 199.5 461 202 462.5 Q 203.8 468.8 201 470.5 L 202 473.5 L 200 476.5 L 200 480.5 L 199 490 L 196 490.5 L 198 491 L 198 498.5 L 197 499.5 L 197 501.5 L 196 515.5 L 194 519.5 L 196 520.5 L 204 502.5 L 207 490.5 L 217 470.5 L 219 452 Q 221.7 453.1 221 450.5 Q 218.8 449.3 221.5 448 L 224 448.5 Q 221.8 449.8 224.5 451 L 225 449 Q 227.7 447.9 227 450.5 L 229.5 451 L 231 451 L 231 455 L 233 455 L 233.5 452 Q 237.9 455.1 236 464.5 L 235 465.5 L 235 475.5 L 234 476.5 L 234 492.5 L 232 499.5 L 232 507.5 L 230 513.5 L 229 526.5 L 228 527.5 L 228 536.5 L 227 537.5 L 227 541.5 Q 228.5 549 226 552.5 L 227 555.5 Q 228.2 560.3 226 561.5 L 227 564.5 L 226 566.5 L 226 580.5 L 226 582.5 L 226 591.5 L 223 606.5 L 223 608.5 L 222 630.5 L 223 630.5 Q 223.5 622 228 617.5 L 228 615.5 L 232 599.5 L 238 583.5 L 241 569.5 L 248 549.5 Q 245.5 548 249 546.5 L 251 539.5 L 251 529.5 L 253 523 Q 256.8 524.5 256 521.5 L 255.5 520 L 257 519.5 L 256.5 518 L 261.5 520 L 261.5 518 L 264 519.5 L 263.5 521 L 269 523.5 Q 266.5 525 270 526.5 L 270.5 528 L 272 527.5 L 269 533.5 L 269.5 535 L 268 535.5 L 268 543.5 L 268 545.5 L 267 547.5 L 267 551.5 L 266 554.5 L 267 558.5 L 265 567.5 L 265 569.5 L 264 580.5 L 265 583.5 L 264 586.5 L 263 594.5 L 263 596.5 L 262 610.5 L 261 611.5 L 261 623.5 L 260 624.5 L 260 649.5 L 259 650.5 L 261 657.5 L 260 660.5 L 261 663.5 L 260 668.5 L 261 669.5 L 264 705.5 L 264 707.5 L 263 711.5 L 263 713.5 L 265 721.5 L 264 724.5 L 265 727.5 L 264 730.5 L 265 731.5 Q 263.3 739.7 266 743.5 L 266 745.5 L 267 757.5 L 266.5 759 Q 269.9 759.9 268 754.5 L 269 753.5 L 269 745.5 L 270 744.5 L 270 737.5 L 272 727.5 L 272 725.5 L 272 710.5 L 273 709.5 L 272 707.5 L 274 697.5 L 274 695.5 L 281 655.5 Q 285.2 651.2 285 642.5 L 287 640.5 L 286 638.5 L 288 634.5 L 288 632.5 L 291 619.5 L 290.5 618 Q 293.1 618.8 292 615.5 L 296 604.5 L 296 602.5 L 299 594.5 L 297 593.5 L 299 592.5 L 298 588 L 302 586.5 L 301 584.5 L 302 584.5 L 303.5 587 L 304 585 L 307 586.5 Q 305.9 589.8 308.5 589 L 313 591.5 L 311 598.5 L 312 601 L 310 601.5 Q 312.3 602.8 311 607.5 L 310 608.5 L 310 615.5 Q 307.3 618.8 308 625.5 L 309 628.5 L 308 628.5 L 307.5 627 L 307 630.5 L 308 633.5 Q 305.3 634.3 306 638.5 L 307 639.5 L 307 647.5 L 306 650.5 L 306 652.5 L 307 662.5 L 306 663.5 L 306 671.5 L 306 673.5 Q 304.3 679.8 307 681.5 L 307 685.5 L 308 726.5 L 309 727.5 L 309 737.5 Q 311.9 742.1 311 750.5 L 313 757.5 L 312 759.5 L 321 796.5 L 323.5 801 L 324 795.5 Q 320.5 794 323 792.5 L 322 781.5 L 321 780.5 L 322 777.5 Q 319.8 772.8 321 764.5 L 320 763.5 L 321 761.5 L 320 760.5 L 320 743.5 L 319 741.5 L 319 739.5 L 320 735.5 Q 317.8 734.3 319 729.5 Q 322.5 728 320 726.5 L 321 721.5 L 319 718.5 L 321 718 L 319 714.5 L 321 713.5 L 321 711.5 Q 321.8 709.3 319.5 710 L 319.5 709 Q 321.8 709.8 321 707.5 L 321 705.5 L 320 702.5 L 322 697.5 L 320 693.5 L 321 688.5 L 319 687.5 L 322 686 L 321 680 L 328.5 678 L 332.5 685 L 334.5 681 Q 337.3 682.4 336 687 Q 339 685.8 338 689.5 L 346 710.5 L 366 749.5 L 375 772.5 Q 388.2 794.3 407.5 810 L 413 813 L 414.5 816 L 415.5 814 Q 413.3 814.8 414 812.5 L 398 790.5 L 385 767.5 L 385 765.5 L 385 763 Q 382 764.3 383 760.5 L 380 759 L 378.5 752 L 377 752.5 L 376 750.5 L 377 746.5 L 374 741 L 372 740.5 L 373 738.5 L 371.5 735 L 370 735.5 Q 372.3 734.3 371 729.5 L 366 721.5 L 367 717 Q 363.7 718.3 365 713.5 L 365 711.5 L 364 707.5 L 365 705 L 362.5 706 L 362 701.5 L 363 699.5 L 362 695.5 L 362.5 694 Q 359.5 694.9 361 690.5 Q 363.5 689 360 687.5 L 359 676.5 L 357 672.5 L 358 670.5 Q 354.3 666.2 356 656.5 L 353 648.5 L 354 646.5 L 353 641.5 L 354 639.5 L 352 628.5 L 353 625.5 L 352 623.5 L 351 603.5 L 349 598.5 L 349.5 596 L 351 595.5 L 350 593 Q 346.3 594.4 348 588.5 L 349 583.5 L 346 579.5 L 348 575.5 L 347 573 Q 344.3 574.1 345 571.5 L 346 568.5 L 345 566.5 L 345 564.5 L 344 561.5 L 345 559.5 L 345 557.5 L 344 544.5 L 342 538.5 L 343 535.5 L 341 524.5 L 341 522.5 L 342 518.5 L 340 518 L 339 513.5 Q 341.3 512.2 340 507.5 L 339 506.5 L 339 495.5 L 337 484.5 L 337 482.5 L 337 469.5 L 335.5 469 L 336 467.5 L 335 460.5 L 336 456.5 L 335 455.5 L 335 441.5 L 334 440.5 L 334 433 Q 331 434 332 431 L 334 430.5 L 331 424.5 L 331 421.5 L 333 417.5 L 330 406.5 L 331 405.5 L 329.5 403 L 331 402.5 L 329 402 L 328 395.5 L 330 391 Q 326.7 392.3 328 387.5 L 327 386.5 L 327 378.5 L 325 371.5 L 323 352.5 L 320 340 Q 316.5 341.1 318 333.5 L 306 294.5 L 288 263 L 284 260.5 L 281.5 257 L 278.5 255 L 272 251 L 272 249 Q 269.3 250.1 270 247.5 L 261.5 241 L 247.5 236 L 245.5 236 L 241.5 235 L 239.5 235 L 236 234.5 L 236.5 233 Q 231.5 232 230.5 235 L 230.5 233 L 226.5 234 L 224.5 234 L 220.5 235 L 218.5 235 L 210.5 236 L 191.5 242 L 173 251 L 171.5 254 Q 169.3 253.3 170 255.5 L 159 264 L 155 269.5 L 155 272 L 146 278.5 L 140 290.5 L 141 294.5 Q 137.7 299.7 138.5 309 L 138 299.5 L 140 291.5 L 139 291.5 L 136 301.5 L 136 303.5 L 133.5 314 L 132 313.5 Q 132.8 315.8 130.5 315 L 126.5 317 L 120.5 314 Q 118 318.5 115.5 313 L 109.5 309 Q 108 311.5 106.5 308 L 98 303.5 L 98.5 302 L 96.5 303 L 82 295.5 L 85 294.5 L 75.5 291 L 73 292.5 L 73.5 291 L 64.5 290 L 62.5 290 L 60.5 291 L 59.5 289 L 54.5 290 L 50.5 288 L 48.5 289 L 47.5 288 L 38.5 288 L 21.5 293 L 19.5 295 L 16.5 295 L 7.5 299 L 5.5 298 L 2.5 299 L 0 298 L 0 278 L 9.5 278 L 16.5 275 Q 23.2 275.7 26.5 273 L 35.5 273 L 36.5 272 L 38.5 273 Q 40.3 270.3 46.5 272 L 56.5 274 L 65.5 272 L 86.5 276 L 90.5 279 L 101.5 282 L 120 292 L 124 280.5 Q 130.7 273.6 133 263 L 135 263 Q 133.9 260.3 136.5 261 L 142.5 254 Q 144.8 254.8 144 252.5 L 152.5 244 L 154 244 L 156.5 240 L 159.5 238 L 166.5 233 L 168 233.5 Q 167.1 230.5 171.5 232 L 182.5 225 L 222.5 213 Z M 239 233 L 239 234 L 244 235 L 249 235 Q 245 232 239 233 Z M 88 296 L 90 298 L 91 298 L 88 296 Z M 333 421 L 332 425 L 333 425 L 333 421 Z M 350 433 L 349 436 L 350 436 L 350 433 Z M 352 454 Q 350 457 353 456 L 352 454 Z M 352 461 L 352 464 L 353 464 Q 354 460 352 461 Z M 354 488 L 353 491 L 354 491 L 354 488 Z M 353 495 L 353 497 L 356 497 L 353 495 Z M 356 510 L 355 514 L 357 513 L 356 510 Z M 356 515 L 356 516 L 358 516 L 356 515 Z M 356 520 L 357 524 L 358 524 Q 359 519 356 520 Z M 361 550 L 360 553 L 361 553 L 361 550 Z M 239 620 L 239 622 L 241 621 L 239 620 Z M 306 643 L 305 646 L 306 646 L 306 643 Z M 139 698 Q 138 701 141 700 Q 142 697 139 698 Z M 291 714 L 290 717 L 291 717 L 291 714 Z M 254 724 L 254 727 L 256 726 Q 257 723 254 724 Z M 321 729 L 320 734 L 321 734 L 321 729 Z M 255 744 L 256 747 L 257 745 L 255 744 Z M 257 749 L 256 752 L 257 752 L 257 749 Z M 257 753 L 255 756 L 258 754 L 257 753 Z M 407 766 L 405 768 L 408 769 L 407 766 Z M 309 802 L 308 805 L 309 805 L 309 802 Z M 431 806 Q 430 809 433 808 Q 434 805 431 806 Z " />
<path fill="rgb(2,2,2)" stroke="rgb(2,2,2)" stroke-width="1" opacity="1" d="M 65.5 291 L 68 291.5 L 65.5 292 L 65.5 291 Z " />
<path fill="rgb(2,2,2)" stroke="rgb(2,2,2)" stroke-width="1" opacity="1" d="M 333.5 443 L 334 445.5 L 333 445.5 L 333.5 443 Z " />
</svg>