
<svg width="830" height="1660" version="1.1" xmlns="http://www.w3.org/2000/svg" desc="Created with imagetracer.js version 1.2.6" >
<path stroke="rgb(1,1,1)" stroke-width="1" opacity="0.9372549019607843" d="M 391.5 176 L 393.5 176 L 397 176 Q 395.9 178.7 398.5 178 L 400.5 177 L 404 181.5 L 403.5 183 L 405 183.5 L 403 184.5 L 406 186.5 L 406 188.5 L 406 192 Q 402.2 190.5 403 193.5 L 399 200.5 Q 401.3 201.8 398.5 203 L 397 202.5 L 398 204.5 L 396 205.5 L 396 207.5 L 389 223 Q 386.3 221.9 387 224.5 L 376 249.5 L 372 262.5 L 371 281.5 L 374 290.5 L 376 305.5 Q 379.9 315.1 387.5 321 L 390.5 323 L 406.5 336 L 415 340 Q 413.9 342.7 416.5 342 L 428.5 350 L 444.5 358 L 455.5 360 L 466.5 364 L 476 365 Q 474.9 367.7 477.5 367 L 481 369 Q 479.5 372.8 482.5 372 L 481 374.5 L 480 376.5 L 481.5 379 L 479.5 378 L 475.5 383 Q 474.3 380.8 473 383.5 L 470.5 387 L 465 391.5 L 462 395.5 L 462 398 L 453 405.5 L 451 408.5 L 445 417.5 L 445 420.5 Q 438.2 430.9 435 444 L 433 444.5 L 434 446.5 L 428 463.5 L 426 480.5 L 426 482.5 L 427 486.5 L 426 487.5 L 426 495.5 L 429 504.5 L 429 508.5 L 439 529.5 L 450.5 542 L 468 555 Q 466.9 557.7 469.5 557 L 476 564.5 L 481 577.5 L 481 579.5 L 480 583 L 475 585 L 475 586.5 L 464.5 597 L 454 605.5 L 449 614 L 446 615.5 L 436 627.5 L 435 631.5 L 424 648.5 L 420 663.5 L 419 674.5 L 417 678.5 L 417 686.5 L 416 687.5 L 415 698.5 L 416 700.5 L 416 702.5 L 415 704.5 L 418 721.5 L 417 724.5 L 419 729.5 L 419 731.5 L 422 745.5 L 431 762.5 L 444 780.5 L 453 799.5 L 453 802.5 Q 450.5 804 454 805.5 L 452 808.5 L 453 811 L 449.5 813 L 447.5 812 L 435.5 815 L 433.5 815 L 424.5 817 L 421.5 816 L 418.5 817 Q 417 813.5 415.5 816 L 409.5 815 L 407.5 816 L 406.5 815 L 395.5 814 L 395.5 816 L 393.5 814 L 371.5 813 L 368.5 814 L 367 814.5 L 367.5 816 L 363.5 813 L 361 814.5 L 361.5 813 L 358.5 814 L 355.5 812 Q 354 815.5 347.5 814 L 325.5 808 L 323.5 806 L 307 800 Q 308.3 796.7 303.5 798 L 301.5 795 L 299.5 796 L 295 794 L 293.5 791 L 291 792 Q 292.1 789.3 289.5 790 L 275 780 Q 276.1 777.3 273.5 778 L 269 776 Q 270.1 773.3 267.5 774 L 262 767 L 257 765 Q 258.5 761.3 255.5 762 L 249 757 L 249 755 L 247 755 L 247 753 Q 244.3 754.1 245 751.5 L 237 745.5 L 235.5 743 L 233 743 L 233 741 Q 229.2 742.5 230 739.5 L 229 737 Q 225.3 738.5 226 735.5 L 219 730 L 219 727 Q 215.2 728.5 216 725.5 L 210.5 721 L 208 721 Q 209.3 718 205.5 719 L 205.5 717 L 203 716.5 Q 205.8 714.8 201.5 713 Q 199.3 713.8 200 711.5 Q 186.5 698.5 176 682.5 L 173 677.5 L 172 672.5 L 162 657.5 L 162 654.5 L 156 640 L 154 640.5 L 155 642.5 L 154 643.5 L 154 655.5 L 155 658.5 L 155 673.5 L 153 675.5 L 153 688.5 L 152 689.5 L 152 701.5 L 150 708.5 L 150 718.5 L 149 719.5 L 146 744.5 L 143 754.5 L 143 756.5 L 142 765.5 L 134 787.5 L 134 792.5 L 132 797.5 L 132 802.5 L 130 807.5 L 128 820.5 L 125 825.5 L 118 850.5 L 106 875.5 Q 100.2 886.2 91.5 894 Q 89.3 893.3 90 895.5 L 83 901 Q 84.1 903.7 81.5 903 L 77 906.5 Q 77.8 908.8 75.5 908 Q 74.3 911.8 70 911 Q 70.8 914.8 67.5 916 L 66.5 914 L 64.5 918 L 62.5 917 L 60 918.5 L 62 919.5 L 60.5 920 L 59 919.5 L 57.5 922 L 55 921 L 53.5 924 L 26.5 935 L 9.5 938 L 0 938 L 0 918 L 10 918 Q 8.9 920.7 11.5 920 L 13.5 918 L 19.5 917 Q 30.7 909.7 45.5 906 L 60 898 Q 58.9 895.3 61.5 896 L 64 892 L 69 890 L 69 888 Q 72.7 889.5 72 886.5 L 75.5 882 L 80 880 L 82 874 Q 84.7 875.1 84 872.5 Q 92 865 96 853.5 L 104 827.5 L 108 819.5 L 110 806.5 L 112 802.5 L 112 800.5 L 116 781.5 L 120 772.5 L 120 770.5 L 122 765.5 Q 122 756 125 749.5 L 125 743.5 L 128 732.5 L 128 724.5 L 129 723.5 L 130 708.5 L 132 702.5 L 132 690.5 L 133 689.5 L 133 687.5 L 133 674.5 L 135 671.5 L 135 669.5 L 135 654.5 L 134 653.5 L 135 652.5 L 135 624.5 L 136 622.5 L 135 617.5 L 136 616.5 L 136 597.5 L 138 590.5 L 141.5 585 L 146.5 589 L 147 587 L 151 589.5 Q 150.3 591.8 152.5 591 L 156 593 L 164 604.5 L 164 610.5 L 167 622.5 L 173 637.5 L 185 660.5 L 199 682.5 L 216.5 704 L 230 714 L 232.5 718 L 242 725 Q 240.9 727.7 243.5 727 L 250 732 Q 248.9 734.7 251.5 734 L 260 741 L 260 743 Q 262.7 741.9 262 744.5 L 269 750.5 L 271.5 754 L 278 759.5 Q 277.3 761.8 279.5 761 L 294.5 772 L 334.5 792 L 361.5 797 Q 362.7 794.7 367.5 796 L 369.5 796 L 371.5 797 L 373.5 797 L 379.5 796 L 381.5 796 L 383.5 797 L 385.5 796 L 387.5 797 L 389.5 797 L 393.5 796 L 399.5 798 L 400.5 797 L 410.5 797 L 415.5 799 L 419.5 798 L 421.5 798 L 430 796.5 L 428.5 791 L 427 791.5 L 428 789.5 L 425 785.5 L 425 783.5 L 411 759.5 L 403 742.5 L 400 731.5 L 400 729.5 L 399 714.5 L 397 707.5 L 397 693.5 L 398 692.5 L 398 675.5 L 400 672.5 L 402 650.5 L 404 643.5 L 407 639.5 L 407 637.5 L 413.5 624 L 415 624.5 Q 414.3 621.9 417 623 L 417 620.5 L 428.5 604 L 430 604.5 L 430 602 Q 432.7 603.1 432 600.5 L 442.5 588 L 455 580 L 459 573.5 L 456 569 Q 441.9 561.9 432 549.5 L 428 544.5 L 418 529.5 L 410 502.5 L 410 500.5 L 408 490.5 L 409 488.5 L 408 485.5 L 408 483.5 L 409 478.5 Q 406.8 477.2 408 472.5 L 409 469.5 L 409 459.5 Q 411.7 456.2 411 449.5 L 413 446.5 L 413 442.5 L 426 413 L 428 412.5 Q 425.8 411.2 428.5 410 L 430 410.5 L 431 406.5 L 439 394 Q 441.7 395.1 441 392.5 L 442 390 L 448 385.5 L 450 381 Q 452.7 382.1 452 379.5 L 439.5 375 L 437.5 376 L 434 375 L 434 373 Q 430.3 374.5 431 371.5 L 428.5 371 L 416 363.5 L 416.5 362 L 412 361 Q 413.1 358.3 410.5 359 L 396.5 352 L 369 329.5 L 362 319.5 L 356 301.5 Q 356.2 287.8 352 278.5 L 352 261.5 L 354 257.5 L 356 246.5 L 359 241.5 L 358.5 240 L 360 239.5 L 360 237.5 L 365 223 Q 367.7 224.1 367 221.5 L 374 208.5 L 372.5 208 L 356.5 215 L 328.5 224 Q 323.7 228.7 315.5 230 L 269 258 Q 270.1 260.7 267.5 260 L 264.5 262 L 263 261.5 Q 263.8 263.8 261.5 263 L 250.5 273 L 239.5 279 L 219.5 297 L 213 301 Q 214.1 303.7 211.5 303 L 197 315 L 177 342.5 L 178 343.5 L 174 347.5 L 169 357.5 L 165 370.5 L 162 374.5 L 160 385.5 L 158 387.5 L 159 390.5 L 158 393.5 L 159 396.5 Q 159.7 399.1 157 398 L 156.5 395 L 155 399 L 153 399 L 153 403 L 151.5 403 L 149.5 402 Q 148.3 404.3 143.5 403 L 139 398.5 L 136 388.5 L 127 373.5 L 127 371 Q 124.3 372.1 125 369.5 L 115 358.5 L 107.5 346 L 104.5 344 L 98 334 L 94 331.5 L 90.5 327 L 83 322 Q 84.1 319.3 81.5 320 L 67.5 312 L 42.5 304 L 27.5 301 L 0 301 L 0 281 L 9.5 281 L 10.5 282 L 33.5 282 L 58.5 288 L 72.5 293 L 76.5 296 L 87.5 300 L 96.5 306 L 113 321.5 L 114 324.5 L 123 333.5 Q 129.4 345.6 139 354.5 L 140 358 Q 142.7 356.9 142 359.5 L 147.5 367 L 153 357.5 L 153 355.5 L 158 344.5 L 158 341 Q 161 342.3 160 338.5 L 168 322.5 L 174 315.5 L 174 313 L 177.5 314 L 182 308.5 L 177 311.5 Q 189.2 300.7 198.5 287 Q 201.8 288.1 201 285.5 L 205 283 L 206.5 280 L 208 280.5 L 208 279 Q 211.8 280.5 211 277.5 L 214 276.5 L 215.5 274 L 216 276 Q 218.7 277.1 218 274.5 L 217.5 273 Q 219.8 272.3 219 274.5 L 220 274.5 L 221.5 271 Q 223.8 271.8 223 269.5 Q 229.1 261.8 238 258 Q 236.9 255.3 239.5 256 L 249.5 249 L 250.5 251 L 253.5 246 L 261.5 241 L 269 239 L 270.5 235 L 276.5 232 L 277.5 235 L 280 231.5 L 278 230.5 L 281.5 228 L 280.5 231 L 284 229.5 L 283 227 L 285.5 226 L 287 226.5 L 288.5 224 L 291.5 225 L 292.5 222 L 295 223.5 L 294 221.5 L 300 219 Q 298.3 223.1 302.5 222 L 302.5 221 L 301 220.5 L 302.5 217 L 304.5 218 L 306.5 215 L 307.5 217 L 310 216 L 309.5 214 L 308 214.5 Q 309.3 211.8 310.5 214 Q 312.8 214.8 312 212.5 L 318.5 209 L 320.5 209 L 323 209 Q 321.9 206.3 324.5 207 L 326 206.5 L 325.5 208 L 327 208.5 L 326.5 210 L 332 207.5 L 329.5 207 Q 328.3 209.3 327 206.5 L 327.5 205 Q 329 207.5 330.5 204 L 343.5 200 L 366.5 188 L 366.5 189 L 365 189.5 L 367.5 190 L 371 187.5 L 370.5 186 L 382.5 181 L 384 181.5 Q 383.3 179.3 385.5 180 L 391 178 L 391.5 176 Z M 382 182 L 381 184 L 383 183 L 382 182 Z M 344 201 L 342 203 L 344 203 L 344 201 Z M 320 211 L 319 212 Q 316 211 317 214 L 321 212 L 320 211 Z M 285 228 L 286 230 L 287 230 L 285 228 Z M 270 236 L 270 238 L 272 237 L 270 236 Z M 268 241 L 266 243 L 268 243 L 268 241 Z M 261 243 L 259 245 L 261 246 L 261 243 Z M 248 251 L 248 253 L 250 252 L 248 251 Z M 234 261 Q 231 263 234 264 Q 237 263 234 261 Z M 229 265 L 228 268 L 229 268 L 229 265 Z M 227 268 L 228 270 Q 229 267 227 268 Z M 171 321 Q 170 324 173 323 Q 174 320 171 321 Z M 166 331 L 164 334 L 166 333 L 166 331 Z " />
</svg>